<?xml version="1.0" standalone="no"?>
<!DOCTYPE svg PUBLIC "-//W3C//DTD SVG 1.1//EN" "http://www.w3.org/Graphics/SVG/1.1/DTD/svg11.dtd" >
<svg xmlns="http://www.w3.org/2000/svg" xmlns:xlink="http://www.w3.org/1999/xlink" version="1.1">
<metadata></metadata>
<defs>
<font id="sf_pro_textlight" horiz-adv-x="1800" >
<font-face units-per-em="2048" ascent="1638" descent="-410" />
<missing-glyph horiz-adv-x="554" />
<glyph unicode="&#x31;&#x20dd;" d="M133 721q0 155 61 297t164 245t245 164t297 61t297 -61t245 -164t164 -245t61 -297t-61 -297t-164 -245t-245 -164t-297 -61t-297 61t-245 164t-164 245t-61 297zM240 720q0 -181 87.5 -334t239.5 -242t333 -89t333 89t239.5 242t87.5 334t-87.5 334t-239.5 242t-333 89 t-333 -89t-239.5 -242t-87.5 -334zM706 865v95l175 119h102v-689h-102v589h-5z" />
<glyph unicode="&#x32;&#x20dd;" d="M133 721q0 155 61 297t164 245t245 164t297 61t297 -61t245 -164t164 -245t61 -297t-61 -297t-164 -245t-245 -164t-297 -61t-297 61t-245 164t-164 245t-61 297zM240 720q0 -181 87.5 -334t239.5 -242t333 -89t333 89t239.5 242t87.5 334t-87.5 334t-239.5 242t-333 89 t-333 -89t-239.5 -242t-87.5 -334zM666 884v5q0 83 63.5 143t171.5 60q103 0 166 -53t63 -136q0 -56 -28.5 -102t-92.5 -114l-194 -209v-5h331v-83h-472v64l271 289q41 44 62 78.5t21 74.5q0 51 -36 83t-93 32q-60 0 -97 -35t-37 -87v-5h-99z" />
<glyph unicode="&#x33;&#x20dd;" d="M133 721q0 155 61 297t164 245t245 164t297 61t297 -61t245 -164t164 -245t61 -297t-61 -297t-164 -245t-245 -164t-297 -61t-297 61t-245 164t-164 245t-61 297zM240 720q0 -181 87.5 -334t239.5 -242t333 -89t333 89t239.5 242t87.5 334t-87.5 334t-239.5 242t-333 89 t-333 -89t-239.5 -242t-87.5 -334zM653 558h96q4 -43 46.5 -72t103.5 -30q69 0 112 35.5t43 91.5q-2 54 -43.5 88.5t-106.5 34.5h-82v79h78q56 0 93.5 33.5t37.5 83.5q-1 49 -38 80t-95 31q-55 0 -92.5 -29t-40.5 -71h-96q2 77 65 128t166 51t167 -49.5t66 -126.5 q1 -65 -41.5 -109.5t-94.5 -53.5v-5q62 -7 110 -51t49 -117q1 -91 -73 -147t-185 -56q-107 0 -173.5 52t-71.5 129z" />
<glyph unicode="&#x34;&#x20dd;" d="M133 721q0 155 61 297t164 245t245 164t297 61t297 -61t245 -164t164 -245t61 -297t-61 -297t-164 -245t-245 -164t-297 -61t-297 61t-245 164t-164 245t-61 297zM240 720q0 -181 87.5 -334t239.5 -242t333 -89t333 89t239.5 242t87.5 334t-87.5 334t-239.5 242t-333 89 t-333 -89t-239.5 -242t-87.5 -334zM603 532v84q27 47 68 113t73.5 116t83 127t70.5 107h151v-465h97v-82h-97v-142h-97v142h-349zM701 614h251v387h-6q-161 -238 -245 -383v-4z" />
<glyph unicode="&#x35;&#x20dd;" d="M133 721q0 155 61 297t164 245t245 164t297 61t297 -61t245 -164t164 -245t61 -297t-61 -297t-164 -245t-245 -164t-297 -61t-297 61t-245 164t-164 245t-61 297zM240 720q0 -181 87.5 -334t239.5 -242t333 -89t333 89t239.5 242t87.5 334t-87.5 334t-239.5 242t-333 89 t-333 -89t-239.5 -242t-87.5 -334zM659 557h96q9 -46 51 -72.5t97 -26.5q64 0 109.5 43t45.5 113q0 65 -44 105.5t-109 40.5q-91 0 -141 -76h-90l31 395h416v-82h-332l-19 -225h5q19 27 59.5 47t94.5 20q99 0 164.5 -61t65.5 -162q0 -107 -72.5 -173t-188.5 -66 q-100 0 -167 51.5t-72 128.5z" />
<glyph unicode="&#x36;&#x20dd;" d="M133 721q0 155 61 297t164 245t245 164t297 61t297 -61t245 -164t164 -245t61 -297t-61 -297t-164 -245t-245 -164t-297 -61t-297 61t-245 164t-164 245t-61 297zM240 720q0 -181 87.5 -334t239.5 -242t333 -89t333 89t239.5 242t87.5 334t-87.5 334t-239.5 242t-333 89 t-333 -89t-239.5 -242t-87.5 -334zM637 721q0 172 74.5 270t201.5 98q96 0 161 -49.5t78 -131.5h-102q-9 46 -45.5 72.5t-89.5 26.5q-86 0 -133.5 -74t-47.5 -211h7q23 55 74 86t117 31q100 0 165.5 -64.5t65.5 -162.5q0 -104 -71 -171t-182 -67q-122 0 -197.5 88.5 t-75.5 258.5zM754 613q0 -67 44.5 -112t110.5 -45q65 0 109.5 44t44.5 110q0 67 -43 109.5t-110 42.5t-111.5 -42.5t-44.5 -106.5z" />
<glyph unicode="&#x37;&#x20dd;" d="M133 721q0 155 61 297t164 245t245 164t297 61t297 -61t245 -164t164 -245t61 -297t-61 -297t-164 -245t-245 -164t-297 -61t-297 61t-245 164t-164 245t-61 297zM240 720q0 -181 87.5 -334t239.5 -242t333 -89t333 89t239.5 242t87.5 334t-87.5 334t-239.5 242t-333 89 t-333 -89t-239.5 -242t-87.5 -334zM680 983v83h473v-85l-296 -604h-109l301 601v5h-369z" />
<glyph unicode="&#x38;&#x20dd;" d="M133 721q0 155 61 297t164 245t245 164t297 61t297 -61t245 -164t164 -245t61 -297t-61 -297t-164 -245t-245 -164t-297 -61t-297 61t-245 164t-164 245t-61 297zM240 720q0 -181 87.5 -334t239.5 -242t333 -89t333 89t239.5 242t87.5 334t-87.5 334t-239.5 242t-333 89 t-333 -89t-239.5 -242t-87.5 -334zM636 579q0 63 42 111t108 62v4q-56 17 -88.5 58.5t-32.5 96.5q0 79 66 130t170 51q103 0 169.5 -51t66.5 -130q0 -54 -33.5 -96.5t-88.5 -58.5v-4q66 -14 108 -61.5t42 -110.5q0 -90 -74 -146.5t-192 -56.5q-117 0 -190 56t-73 146z M737 584q0 -57 46.5 -94.5t117.5 -37.5q70 0 116 37.5t46 94.5t-45.5 94t-116.5 37t-117.5 -37.5t-46.5 -93.5zM764 902q0 -50 38.5 -83t98.5 -33q59 0 97.5 33t38.5 83q0 51 -38 83t-98 32t-98.5 -32t-38.5 -83z" />
<glyph unicode="&#x39;&#x20dd;" d="M133 721q0 155 61 297t164 245t245 164t297 61t297 -61t245 -164t164 -245t61 -297t-61 -297t-164 -245t-245 -164t-297 -61t-297 61t-245 164t-164 245t-61 297zM240 720q0 -181 87.5 -334t239.5 -242t333 -89t333 89t239.5 242t87.5 334t-87.5 334t-239.5 242t-333 89 t-333 -89t-239.5 -242t-87.5 -334zM637 850q0 104 71 171.5t182 67.5q124 0 198.5 -89.5t74.5 -257.5q0 -173 -73.5 -270.5t-203.5 -97.5q-93 0 -158.5 49.5t-79.5 130.5h102q11 -45 48 -71.5t90 -26.5q83 0 130.5 73.5t47.5 210.5h-7q-23 -54 -74 -85t-117 -31 q-100 0 -165.5 64t-65.5 162zM737 853q0 -66 43 -108.5t110 -42.5t111.5 42.5t44.5 105.5q0 67 -44 112t-111 45t-110.5 -44t-43.5 -110z" />
<glyph unicode="A&#x20dd;" d="M133 721q0 155 61 297t164 245t245 164t297 61t297 -61t245 -164t164 -245t61 -297t-61 -297t-164 -245t-245 -164t-297 -61t-297 61t-245 164t-164 245t-61 297zM240 720q0 -181 87.5 -334t239.5 -242t333 -89t333 89t239.5 242t87.5 334t-87.5 334t-239.5 242t-333 89 t-333 -89t-239.5 -242t-87.5 -334zM590 406l251 689h118l252 -689h-105l-69 199h-273l-70 -199h-104zM788 682h225l-109 312h-8z" />
<glyph unicode="B&#x20dd;" d="M133 721q0 155 61 297t164 245t245 164t297 61t297 -61t245 -164t164 -245t61 -297t-61 -297t-164 -245t-245 -164t-297 -61t-297 61t-245 164t-164 245t-61 297zM240 720q0 -181 87.5 -334t239.5 -242t333 -89t333 89t239.5 242t87.5 334t-87.5 334t-239.5 242t-333 89 t-333 -89t-239.5 -242t-87.5 -334zM670 389v689h277q94 0 150 -46.5t56 -123.5q0 -60 -32.5 -100t-85.5 -52v-5q69 -8 113 -52t44 -117q0 -90 -67 -141.5t-179 -51.5h-276zM771 468h134q94 0 138 29t44 88q0 57 -38.5 89.5t-108.5 32.5h-169v-239zM771 781h126 q76 0 115.5 29.5t39.5 80.5t-33 79.5t-93 28.5h-155v-218z" />
<glyph unicode="C&#x20dd;" d="M133 721q0 155 61 297t164 245t245 164t297 61t297 -61t245 -164t164 -245t61 -297t-61 -297t-164 -245t-245 -164t-297 -61t-297 61t-245 164t-164 245t-61 297zM240 720q0 -181 87.5 -334t239.5 -242t333 -89t333 89t239.5 242t87.5 334t-87.5 334t-239.5 242t-333 89 t-333 -89t-239.5 -242t-87.5 -334zM585 730q0 160 87 259t229 99q120 0 200.5 -64.5t91.5 -168.5h-102q-7 66 -60 107.5t-128 41.5q-96 0 -155.5 -76t-59.5 -198t59.5 -198t155.5 -76q74 0 125 39.5t60 100.5h104q-14 -100 -93.5 -162t-197.5 -62q-142 0 -229 99t-87 259z " />
<glyph unicode="D&#x20dd;" d="M133 721q0 155 61 297t164 245t245 164t297 61t297 -61t245 -164t164 -245t61 -297t-61 -297t-164 -245t-245 -164t-297 -61t-297 61t-245 164t-164 245t-61 297zM240 720q0 -181 87.5 -334t239.5 -242t333 -89t333 89t239.5 242t87.5 334t-87.5 334t-239.5 242t-333 89 t-333 -89t-239.5 -242t-87.5 -334zM667 390v681h238q154 0 235 -88.5t81 -250.5q0 -164 -81 -253t-235 -89h-238zM769 473h123q222 0 222 258q0 125 -56.5 191t-165.5 66h-123v-515z" />
<glyph unicode="E&#x20dd;" d="M133 721q0 155 61 297t164 245t245 164t297 61t297 -61t245 -164t164 -245t61 -297t-61 -297t-164 -245t-245 -164t-297 -61t-297 61t-245 164t-164 245t-61 297zM240 720q0 -181 87.5 -334t239.5 -242t333 -89t333 89t239.5 242t87.5 334t-87.5 334t-239.5 242t-333 89 t-333 -89t-239.5 -242t-87.5 -334zM683 386v689h444v-83h-343v-216h324v-79h-324v-228h343v-83h-444z" />
<glyph unicode="F&#x20dd;" d="M133 721q0 155 61 297t164 245t245 164t297 61t297 -61t245 -164t164 -245t61 -297t-61 -297t-164 -245t-245 -164t-297 -61t-297 61t-245 164t-164 245t-61 297zM240 720q0 -181 87.5 -334t239.5 -242t333 -89t333 89t239.5 242t87.5 334t-87.5 334t-239.5 242t-333 89 t-333 -89t-239.5 -242t-87.5 -334zM710 386v689h439v-84h-336v-229h308v-82h-308v-294h-103z" />
<glyph unicode="G&#x20dd;" d="M133 721q0 155 61 297t164 245t245 164t297 61t297 -61t245 -164t164 -245t61 -297t-61 -297t-164 -245t-245 -164t-297 -61t-297 61t-245 164t-164 245t-61 297zM240 720q0 -181 87.5 -334t239.5 -242t333 -89t333 89t239.5 242t87.5 334t-87.5 334t-239.5 242t-333 89 t-333 -89t-239.5 -242t-87.5 -334zM585 730q0 160 88 259t230 99q117 0 196.5 -62t92.5 -161h-102q-10 61 -61.5 100t-124.5 39q-97 0 -156.5 -75t-59.5 -199q0 -123 59.5 -198.5t156.5 -75.5q88 0 137.5 43.5t49.5 116.5v52h-183v77h280v-108q0 -120 -75 -192.5t-210 -72.5 q-142 0 -230 99t-88 259z" />
<glyph unicode="H&#x20dd;" d="M133 721q0 155 61 297t164 245t245 164t297 61t297 -61t245 -164t164 -245t61 -297t-61 -297t-164 -245t-245 -164t-297 -61t-297 61t-245 164t-164 245t-61 297zM240 720q0 -181 87.5 -334t239.5 -242t333 -89t333 89t239.5 242t87.5 334t-87.5 334t-239.5 242t-333 89 t-333 -89t-239.5 -242t-87.5 -334zM621 386v689h102v-292h355v292h102v-689h-102v314h-355v-314h-102z" />
<glyph unicode="I&#x20dd;" d="M133 721q0 155 61 297t164 245t245 164t297 61t297 -61t245 -164t164 -245t61 -297t-61 -297t-164 -245t-245 -164t-297 -61t-297 61t-245 164t-164 245t-61 297zM240 720q0 -181 87.5 -334t239.5 -242t333 -89t333 89t239.5 242t87.5 334t-87.5 334t-239.5 242t-333 89 t-333 -89t-239.5 -242t-87.5 -334zM848 386v689h104v-689h-104z" />
<glyph unicode="J&#x20dd;" d="M133 721q0 155 61 297t164 245t245 164t297 61t297 -61t245 -164t164 -245t61 -297t-61 -297t-164 -245t-245 -164t-297 -61t-297 61t-245 164t-164 245t-61 297zM240 720q0 -181 87.5 -334t239.5 -242t333 -89t333 89t239.5 242t87.5 334t-87.5 334t-239.5 242t-333 89 t-333 -89t-239.5 -242t-87.5 -334zM651 566h99q1 -46 34 -75.5t83 -29.5q57 0 87.5 34.5t30.5 94.5v485h102v-482q0 -104 -58.5 -162t-161.5 -58q-99 0 -157.5 55t-58.5 138z" />
<glyph unicode="&#x212a;&#x20dd;" d="M133 721q0 155 61 297t164 245t245 164t297 61t297 -61t245 -164t164 -245t61 -297t-61 -297t-164 -245t-245 -164t-297 -61t-297 61t-245 164t-164 245t-61 297zM240 720q0 -181 87.5 -334t239.5 -242t333 -89t333 89t239.5 242t87.5 334t-87.5 334t-239.5 242t-333 89 t-333 -89t-239.5 -242t-87.5 -334zM655 386v689h102v-333h5l310 333h118l-270 -295l285 -394h-127l-234 327l-87 -91v-236h-102z" />
<glyph unicode="L&#x20dd;" d="M133 721q0 155 61 297t164 245t245 164t297 61t297 -61t245 -164t164 -245t61 -297t-61 -297t-164 -245t-245 -164t-297 -61t-297 61t-245 164t-164 245t-61 297zM240 720q0 -181 87.5 -334t239.5 -242t333 -89t333 89t239.5 242t87.5 334t-87.5 334t-239.5 242t-333 89 t-333 -89t-239.5 -242t-87.5 -334zM723 386v689h103v-603h331v-86h-434z" />
<glyph unicode="M&#x20dd;" d="M133 721q0 155 61 297t164 245t245 164t297 61t297 -61t245 -164t164 -245t61 -297t-61 -297t-164 -245t-245 -164t-297 -61t-297 61t-245 164t-164 245t-61 297zM240 720q0 -181 87.5 -334t239.5 -242t333 -89t333 89t239.5 242t87.5 334t-87.5 334t-239.5 242t-333 89 t-333 -89t-239.5 -242t-87.5 -334zM562 386v689h110l227 -565h4l227 565h108v-689h-92v521h-5l-202 -507h-77l-202 507h-6v-521h-92z" />
<glyph unicode="N&#x20dd;" d="M133 721q0 155 61 297t164 245t245 164t297 61t297 -61t245 -164t164 -245t61 -297t-61 -297t-164 -245t-245 -164t-297 -61t-297 61t-245 164t-164 245t-61 297zM240 720q0 -181 87.5 -334t239.5 -242t333 -89t333 89t239.5 242t87.5 334t-87.5 334t-239.5 242t-333 89 t-333 -89t-239.5 -242t-87.5 -334zM623 386v689h95l356 -528h5v528h98v-689h-95l-356 529h-5v-529h-98z" />
<glyph unicode="O&#x20dd;" d="M133 721q0 155 61 297t164 245t245 164t297 61t297 -61t245 -164t164 -245t61 -297t-61 -297t-164 -245t-245 -164t-297 -61t-297 61t-245 164t-164 245t-61 297zM240 720q0 -181 87.5 -334t239.5 -242t333 -89t333 89t239.5 242t87.5 334t-87.5 334t-239.5 242t-333 89 t-333 -89t-239.5 -242t-87.5 -334zM579 730q0 164 90.5 261t230.5 97t230.5 -97t90.5 -261t-90.5 -261t-230.5 -97t-230.5 97t-90.5 261zM682 730q0 -126 61 -200t157 -74t157 74t61 200t-61 200t-157 74t-157 -74t-61 -200z" />
<glyph unicode="P&#x20dd;" d="M133 721q0 155 61 297t164 245t245 164t297 61t297 -61t245 -164t164 -245t61 -297t-61 -297t-164 -245t-245 -164t-297 -61t-297 61t-245 164t-164 245t-61 297zM240 720q0 -181 87.5 -334t239.5 -242t333 -89t333 89t239.5 242t87.5 334t-87.5 334t-239.5 242t-333 89 t-333 -89t-239.5 -242t-87.5 -334zM689 386v689h267q106 0 169 -62t63 -158t-63 -157.5t-169 -61.5h-165v-250h-102zM791 717h151q65 0 103 37t38 101t-38 101t-103 37h-151v-276z" />
<glyph unicode="Q&#x20dd;" d="M133 721q0 155 61 297t164 245t245 164t297 61t297 -61t245 -164t164 -245t61 -297t-61 -297t-164 -245t-245 -164t-297 -61t-297 61t-245 164t-164 245t-61 297zM240 720q0 -181 87.5 -334t239.5 -242t333 -89t333 89t239.5 242t87.5 334t-87.5 334t-239.5 242t-333 89 t-333 -89t-239.5 -242t-87.5 -334zM579 730q0 164 90.5 261t230.5 97t230.5 -97t90.5 -261q0 -196 -127 -294l91 -125h-102l-61 84q-57 -23 -122 -23q-140 0 -230.5 97t-90.5 261zM682 730q0 -126 61 -200t157 -74q38 0 68 12l-88 122h101l57 -78q80 75 80 218 q0 126 -61 200t-157 74t-157 -74t-61 -200z" />
<glyph unicode="R&#x20dd;" d="M133 721q0 155 61 297t164 245t245 164t297 61t297 -61t245 -164t164 -245t61 -297t-61 -297t-164 -245t-245 -164t-297 -61t-297 61t-245 164t-164 245t-61 297zM240 720q0 -181 87.5 -334t239.5 -242t333 -89t333 89t239.5 242t87.5 334t-87.5 334t-239.5 242t-333 89 t-333 -89t-239.5 -242t-87.5 -334zM663 386v689h266q109 0 173 -57.5t64 -153.5q0 -72 -40 -123.5t-102 -70.5l153 -284h-115l-140 269h-159v-269h-100zM763 733h151q68 0 107 34t39 95q0 62 -39 97t-104 35h-154v-261z" />
<glyph unicode="S&#x20dd;" d="M133 721q0 155 61 297t164 245t245 164t297 61t297 -61t245 -164t164 -245t61 -297t-61 -297t-164 -245t-245 -164t-297 -61t-297 61t-245 164t-164 245t-61 297zM240 720q0 -181 87.5 -334t239.5 -242t333 -89t333 89t239.5 242t87.5 334t-87.5 334t-239.5 242t-333 89 t-333 -89t-239.5 -242t-87.5 -334zM627 575h101q5 -53 54.5 -87.5t120.5 -34.5t117.5 33.5t46.5 85.5q0 77 -130 109l-115 27q-175 41 -175 181q0 89 71.5 145t184.5 56t183.5 -54.5t71.5 -142.5h-98q-5 51 -49.5 84t-108.5 33t-108 -33.5t-44 -82.5q0 -34 30 -60.5 t83 -39.5l114 -26q101 -24 146.5 -68.5t45.5 -118.5q0 -96 -74 -152t-200 -56q-119 0 -192 55t-76 147z" />
<glyph unicode="T&#x20dd;" d="M133 721q0 155 61 297t164 245t245 164t297 61t297 -61t245 -164t164 -245t61 -297t-61 -297t-164 -245t-245 -164t-297 -61t-297 61t-245 164t-164 245t-61 297zM240 720q0 -181 87.5 -334t239.5 -242t333 -89t333 89t239.5 242t87.5 334t-87.5 334t-239.5 242t-333 89 t-333 -89t-239.5 -242t-87.5 -334zM630 971v84h541v-84h-219v-605h-103v605h-219z" />
<glyph unicode="U&#x20dd;" d="M133 721q0 155 61 297t164 245t245 164t297 61t297 -61t245 -164t164 -245t61 -297t-61 -297t-164 -245t-245 -164t-297 -61t-297 61t-245 164t-164 245t-61 297zM240 720q0 -181 87.5 -334t239.5 -242t333 -89t333 89t239.5 242t87.5 334t-87.5 334t-239.5 242t-333 89 t-333 -89t-239.5 -242t-87.5 -334zM621 600v453h102v-446q0 -79 49 -125t128 -46t128 46t49 125v446h102v-453q0 -113 -76.5 -181t-202.5 -68t-202.5 68t-76.5 181z" />
<glyph unicode="V&#x20dd;" d="M133 721q0 155 61 297t164 245t245 164t297 61t297 -61t245 -164t164 -245t61 -297t-61 -297t-164 -245t-245 -164t-297 -61t-297 61t-245 164t-164 245t-61 297zM240 720q0 -181 87.5 -334t239.5 -242t333 -89t333 89t239.5 242t87.5 334t-87.5 334t-239.5 242t-333 89 t-333 -89t-239.5 -242t-87.5 -334zM584 1053h118l195 -581h6l195 581h118l-253 -689h-126z" />
<glyph unicode="W&#x20dd;" d="M133 721q0 155 61 297t164 245t245 164t297 61t297 -61t245 -164t164 -245t61 -297t-61 -297t-164 -245t-245 -164t-297 -61t-297 61t-245 164t-164 245t-61 297zM240 720q0 -181 87.5 -334t239.5 -242t333 -89t333 89t239.5 242t87.5 334t-87.5 334t-239.5 242t-333 89 t-333 -89t-239.5 -242t-87.5 -334zM464 1053h112l129 -554h6l145 554h93l145 -554h5l129 554h112l-187 -689h-101l-148 539h-4l-148 -539h-100z" />
<glyph unicode="X&#x20dd;" d="M133 721q0 155 61 297t164 245t245 164t297 61t297 -61t245 -164t164 -245t61 -297t-61 -297t-164 -245t-245 -164t-297 -61t-297 61t-245 164t-164 245t-61 297zM240 720q0 -181 87.5 -334t239.5 -242t333 -89t333 89t239.5 242t87.5 334t-87.5 334t-239.5 242t-333 89 t-333 -89t-239.5 -242t-87.5 -334zM598 390l228 346l-226 343h122l171 -271h6l171 271h117l-231 -346l227 -343h-119l-173 268h-5l-174 -268h-114z" />
<glyph unicode="Y&#x20dd;" d="M133 721q0 155 61 297t164 245t245 164t297 61t297 -61t245 -164t164 -245t61 -297t-61 -297t-164 -245t-245 -164t-297 -61t-297 61t-245 164t-164 245t-61 297zM240 720q0 -181 87.5 -334t239.5 -242t333 -89t333 89t239.5 242t87.5 334t-87.5 334t-239.5 242t-333 89 t-333 -89t-239.5 -242t-87.5 -334zM598 1075h115l186 -308h4l186 308h113l-250 -405v-283h-103v281z" />
<glyph unicode="Z&#x20dd;" d="M133 721q0 155 61 297t164 245t245 164t297 61t297 -61t245 -164t164 -245t61 -297t-61 -297t-164 -245t-245 -164t-297 -61t-297 61t-245 164t-164 245t-61 297zM240 720q0 -181 87.5 -334t239.5 -242t333 -89t333 89t239.5 242t87.5 334t-87.5 334t-239.5 242t-333 89 t-333 -89t-239.5 -242t-87.5 -334zM637 390v71l388 528v6h-376v84h499v-71l-385 -528v-6h394v-84h-520z" />
<glyph unicode="&#x23;&#x20dd;" d="M133 721q0 155 61 297t164 245t245 164t297 61t297 -61t245 -164t164 -245t61 -297t-61 -297t-164 -245t-245 -164t-297 -61t-297 61t-245 164t-164 245t-61 297zM240 720q0 -181 87.5 -334t239.5 -242t333 -89t333 89t239.5 242t87.5 334t-87.5 334t-239.5 242t-333 89 t-333 -89t-239.5 -242t-87.5 -334zM641 731q0 165 71.5 261t187.5 96t187.5 -96t71.5 -261q0 -166 -71.5 -262t-187.5 -96t-187.5 96t-71.5 262zM739 731q0 -125 44 -197.5t117 -72.5t117 72.5t44 197.5q0 124 -44 197t-117 73t-117 -73t-44 -197z" />
<glyph unicode="&#x30;&#x20dd;&#x25cf;" d="M133 721q0 155 61 297t164 245t245 164t297 61t297 -61t245 -164t164 -245t61 -297t-61 -297t-164 -245t-245 -164t-297 -61t-297 61t-245 164t-164 245t-61 297zM610 731q0 -180 78.5 -285.5t208.5 -105.5q131 0 209 105.5t78 285.5q0 179 -78 284.5t-209 105.5 q-130 0 -208.5 -105.5t-78.5 -284.5zM733 731q0 135 44 212.5t120 77.5q77 0 121 -77.5t44 -212.5q0 -136 -44 -213t-121 -77q-76 0 -120 77t-44 213z" />
<glyph unicode="&#x31;&#x20dd;&#x25cf;" d="M133 721q0 155 61 297t164 245t245 164t297 61t297 -61t245 -164t164 -245t61 -297t-61 -297t-164 -245t-245 -164t-297 -61t-297 61t-245 164t-164 245t-61 297zM686 867l187 126h2v-633h119v751h-117l-191 -130v-114z" />
<glyph unicode="&#x32;&#x20dd;&#x25cf;" d="M133 721q0 155 61 297t164 245t245 164t297 61t297 -61t245 -164t164 -245t61 -297t-61 -297t-164 -245t-245 -164t-297 -61t-297 61t-245 164t-164 245t-61 297zM640 892h117v8q1 55 38.5 91.5t99.5 36.5q57 0 95.5 -33.5t38.5 -85.5q0 -43 -21.5 -79.5t-65.5 -82.5 l-294 -313v-75h518v99h-354v1l216 231q63 69 92 117.5t29 108.5q0 91 -70.5 149.5t-181.5 58.5q-119 0 -187 -65.5t-70 -158.5v-8z" />
<glyph unicode="&#x33;&#x20dd;&#x25cf;" d="M133 721q0 155 61 297t164 245t245 164t297 61t297 -61t245 -164t164 -245t61 -297t-61 -297t-164 -245t-245 -164t-297 -61t-297 61t-245 164t-164 245t-61 297zM625 548q5 -88 78 -145.5t191 -57.5q122 0 203.5 61.5t80.5 162.5q-1 79 -51.5 127t-115.5 56v1 q54 12 98.5 60.5t43.5 117.5q-2 84 -72.5 139.5t-182.5 55.5q-114 -1 -182.5 -57.5t-73.5 -143.5h115q5 45 42.5 75t95.5 30q61 0 99.5 -32.5t38.5 -82.5q0 -51 -38 -85.5t-97 -34.5h-88v-96h93q67 0 110 -36t44 -92q0 -58 -44.5 -94t-117.5 -36q-63 1 -107 32t-51 75h-112z " />
<glyph unicode="&#x34;&#x20dd;&#x25cf;" d="M133 721q0 155 61 297t164 245t245 164t297 61t297 -61t245 -164t164 -245t61 -297t-61 -297t-164 -245t-245 -164t-297 -61t-297 61t-245 164t-164 245t-61 297zM574 512h375v-152h116v152h104v98h-104v501h-172q-265 -408 -319 -502v-97zM690 610v2q88 150 258 401h1 v-403h-259z" />
<glyph unicode="&#x35;&#x20dd;&#x25cf;" d="M133 721q0 155 61 297t164 245t245 164t297 61t297 -61t245 -164t164 -245t61 -297t-61 -297t-164 -245t-245 -164t-297 -61t-297 61t-245 164t-164 245t-61 297zM632 547q5 -86 79 -143.5t185 -57.5q126 0 205 72t79 190q0 110 -72.5 177.5t-179.5 67.5q-56 0 -99 -20.5 t-65 -49.5h-1l19 231h355v97h-455l-34 -434h106q51 80 148 80q68 0 113.5 -42.5t45.5 -110.5q0 -72 -47 -116.5t-113 -44.5q-57 0 -102 28.5t-54 75.5h-113z" />
<glyph unicode="&#x36;&#x20dd;&#x25cf;" d="M133 721q0 155 61 297t164 245t245 164t297 61t297 -61t245 -164t164 -245t61 -297t-61 -297t-164 -245t-245 -164t-297 -61t-297 61t-245 164t-164 245t-61 297zM614 724q0 -187 86.5 -284t227.5 -97q127 0 209 73.5t82 187.5q0 107 -75 177.5t-189 70.5q-74 0 -132 -33 t-84 -91h-9q1 143 54 220.5t149 77.5q59 0 100 -27.5t52 -73.5h121q-14 90 -89 145t-186 55q-147 0 -232 -107t-85 -294zM754 605q0 66 49 110.5t124 44.5t123.5 -45t48.5 -113q0 -69 -49.5 -115t-122.5 -46q-74 0 -123.5 47t-49.5 117z" />
<glyph unicode="&#x37;&#x20dd;&#x25cf;" d="M133 721q0 155 61 297t164 245t245 164t297 61t297 -61t245 -164t164 -245t61 -297t-61 -297t-164 -245t-245 -164t-297 -61t-297 61t-245 164t-164 245t-61 297zM652 1004h395v-2l-328 -649h129l322 652v99h-518v-100z" />
<glyph unicode="&#x38;&#x20dd;&#x25cf;" d="M133 721q0 155 61 297t164 245t245 164t297 61t297 -61t245 -164t164 -245t61 -297t-61 -297t-164 -245t-245 -164t-297 -61t-297 61t-245 164t-164 245t-61 297zM609 567q0 -99 80.5 -160.5t208.5 -61.5t208.5 61.5t80.5 160.5q0 68 -44 119.5t-117 67.5v1 q61 19 95.5 65t34.5 106q0 88 -72 144t-186 56t-186 -56t-72 -144q0 -60 34.5 -105.5t95.5 -65.5v-1q-73 -16 -117 -67.5t-44 -119.5zM728 573q0 59 48.5 97.5t121.5 38.5t121 -38.5t48 -97.5t-48 -98t-121 -39q-74 0 -122 39t-48 98zM757 915q0 53 39.5 86t101.5 33 t101.5 -33t39.5 -86q0 -52 -40 -85.5t-101 -33.5q-62 0 -101.5 33.5t-39.5 85.5z" />
<glyph unicode="&#x39;&#x20dd;&#x25cf;" d="M133 721q0 155 61 297t164 245t245 164t297 61t297 -61t245 -164t164 -245t61 -297t-61 -297t-164 -245t-245 -164t-297 -61t-297 61t-245 164t-164 245t-61 297zM614 863q0 -107 74 -177t189 -70q74 0 132 33t84 90h9q0 -143 -53 -220.5t-147 -77.5q-58 0 -99.5 27.5 t-54.5 73.5h-122q17 -90 92 -144.5t183 -54.5q149 0 233.5 106.5t84.5 294.5q0 183 -85.5 282t-228.5 99q-127 0 -209 -73.5t-82 -188.5zM734 866q0 68 49 114t123 46t123.5 -47t49.5 -116q0 -66 -49.5 -110t-124.5 -44t-123 44t-48 113z" />
<glyph unicode="A&#x20de;" d="M160 217v1009q0 100 69 168t170 68h1002q101 0 170 -68t69 -168v-1009q0 -100 -69 -167.5t-170 -67.5h-1002q-101 0 -170 67.5t-69 167.5zM262 219q0 -63 41.5 -103.5t105.5 -40.5h982q64 0 105.5 40.5t41.5 103.5v1006q0 62 -41.5 103t-105.5 41h-982 q-64 0 -105.5 -40.5t-41.5 -103.5v-1006zM590 392l251 689h118l252 -689h-105l-69 199h-273l-70 -199h-104zM788 668h225l-109 312h-8z" />
<glyph unicode="B&#x20de;" d="M160 217v1009q0 100 69 168t170 68h1002q101 0 170 -68t69 -168v-1009q0 -100 -69 -167.5t-170 -67.5h-1002q-101 0 -170 67.5t-69 167.5zM262 219q0 -63 41.5 -103.5t105.5 -40.5h982q64 0 105.5 40.5t41.5 103.5v1006q0 62 -41.5 103t-105.5 41h-982 q-64 0 -105.5 -40.5t-41.5 -103.5v-1006zM670 389v689h277q94 0 150 -46.5t56 -123.5q0 -60 -32.5 -100t-85.5 -52v-5q69 -8 113 -52t44 -117q0 -90 -67 -141.5t-179 -51.5h-276zM771 468h134q94 0 138 29t44 88q0 57 -38.5 89.5t-108.5 32.5h-169v-239zM771 781h126 q76 0 115.5 29.5t39.5 80.5t-33 79.5t-93 28.5h-155v-218z" />
<glyph unicode="C&#x20de;" d="M160 217v1009q0 100 69 168t170 68h1002q101 0 170 -68t69 -168v-1009q0 -100 -69 -167.5t-170 -67.5h-1002q-101 0 -170 67.5t-69 167.5zM262 219q0 -63 41.5 -103.5t105.5 -40.5h982q64 0 105.5 40.5t41.5 103.5v1006q0 62 -41.5 103t-105.5 41h-982 q-64 0 -105.5 -40.5t-41.5 -103.5v-1006zM585 730q0 160 87 259t229 99q120 0 200.5 -64.5t91.5 -168.5h-102q-7 66 -60 107.5t-128 41.5q-96 0 -155.5 -76t-59.5 -198t59.5 -198t155.5 -76q74 0 125 39.5t60 100.5h104q-14 -100 -93.5 -162t-197.5 -62q-142 0 -229 99 t-87 259z" />
<glyph unicode="D&#x20de;" d="M160 217v1009q0 100 69 168t170 68h1002q101 0 170 -68t69 -168v-1009q0 -100 -69 -167.5t-170 -67.5h-1002q-101 0 -170 67.5t-69 167.5zM262 219q0 -63 41.5 -103.5t105.5 -40.5h982q64 0 105.5 40.5t41.5 103.5v1006q0 62 -41.5 103t-105.5 41h-982 q-64 0 -105.5 -40.5t-41.5 -103.5v-1006zM651 390v681h238q154 0 235 -88.5t81 -250.5q0 -164 -81 -253t-235 -89h-238zM753 473h123q222 0 222 258q0 125 -56.5 191t-165.5 66h-123v-515z" />
<glyph unicode="E&#x20de;" d="M160 217v1009q0 100 69 168t170 68h1002q101 0 170 -68t69 -168v-1009q0 -100 -69 -167.5t-170 -67.5h-1002q-101 0 -170 67.5t-69 167.5zM262 219q0 -63 41.5 -103.5t105.5 -40.5h982q64 0 105.5 40.5t41.5 103.5v1006q0 62 -41.5 103t-105.5 41h-982 q-64 0 -105.5 -40.5t-41.5 -103.5v-1006zM683 386v689h444v-83h-343v-216h324v-79h-324v-228h343v-83h-444z" />
<glyph unicode="F&#x20de;" d="M160 217v1009q0 100 69 168t170 68h1002q101 0 170 -68t69 -168v-1009q0 -100 -69 -167.5t-170 -67.5h-1002q-101 0 -170 67.5t-69 167.5zM262 219q0 -63 41.5 -103.5t105.5 -40.5h982q64 0 105.5 40.5t41.5 103.5v1006q0 62 -41.5 103t-105.5 41h-982 q-64 0 -105.5 -40.5t-41.5 -103.5v-1006zM710 386v689h439v-84h-336v-229h308v-82h-308v-294h-103z" />
<glyph unicode="G&#x20de;" d="M160 217v1009q0 100 69 168t170 68h1002q101 0 170 -68t69 -168v-1009q0 -100 -69 -167.5t-170 -67.5h-1002q-101 0 -170 67.5t-69 167.5zM262 219q0 -63 41.5 -103.5t105.5 -40.5h982q64 0 105.5 40.5t41.5 103.5v1006q0 62 -41.5 103t-105.5 41h-982 q-64 0 -105.5 -40.5t-41.5 -103.5v-1006zM585 730q0 160 88 259t230 99q117 0 196.5 -62t92.5 -161h-102q-10 61 -61.5 100t-124.5 39q-97 0 -156.5 -75t-59.5 -199q0 -123 59.5 -198.5t156.5 -75.5q88 0 137.5 43.5t49.5 116.5v52h-183v77h280v-108q0 -120 -75 -192.5 t-210 -72.5q-142 0 -230 99t-88 259z" />
<glyph unicode="H&#x20de;" d="M160 217v1009q0 100 69 168t170 68h1002q101 0 170 -68t69 -168v-1009q0 -100 -69 -167.5t-170 -67.5h-1002q-101 0 -170 67.5t-69 167.5zM262 219q0 -63 41.5 -103.5t105.5 -40.5h982q64 0 105.5 40.5t41.5 103.5v1006q0 62 -41.5 103t-105.5 41h-982 q-64 0 -105.5 -40.5t-41.5 -103.5v-1006zM621 386v689h102v-292h355v292h102v-689h-102v314h-355v-314h-102z" />
<glyph unicode="I&#x20de;" d="M160 217v1009q0 100 69 168t170 68h1002q101 0 170 -68t69 -168v-1009q0 -100 -69 -167.5t-170 -67.5h-1002q-101 0 -170 67.5t-69 167.5zM262 219q0 -63 41.5 -103.5t105.5 -40.5h982q64 0 105.5 40.5t41.5 103.5v1006q0 62 -41.5 103t-105.5 41h-982 q-64 0 -105.5 -40.5t-41.5 -103.5v-1006zM848 386v689h104v-689h-104z" />
<glyph unicode="J&#x20de;" d="M160 217v1009q0 100 69 168t170 68h1002q101 0 170 -68t69 -168v-1009q0 -100 -69 -167.5t-170 -67.5h-1002q-101 0 -170 67.5t-69 167.5zM262 219q0 -63 41.5 -103.5t105.5 -40.5h982q64 0 105.5 40.5t41.5 103.5v1006q0 62 -41.5 103t-105.5 41h-982 q-64 0 -105.5 -40.5t-41.5 -103.5v-1006zM651 566h99q1 -46 34 -75.5t83 -29.5q57 0 87.5 34.5t30.5 94.5v485h102v-482q0 -104 -58.5 -162t-161.5 -58q-99 0 -157.5 55t-58.5 138z" />
<glyph unicode="&#x212a;&#x20de;" d="M160 217v1009q0 100 69 168t170 68h1002q101 0 170 -68t69 -168v-1009q0 -100 -69 -167.5t-170 -67.5h-1002q-101 0 -170 67.5t-69 167.5zM262 219q0 -63 41.5 -103.5t105.5 -40.5h982q64 0 105.5 40.5t41.5 103.5v1006q0 62 -41.5 103t-105.5 41h-982 q-64 0 -105.5 -40.5t-41.5 -103.5v-1006zM655 386v689h102v-333h5l310 333h118l-270 -295l285 -394h-127l-234 327l-87 -91v-236h-102z" />
<glyph unicode="L&#x20de;" d="M160 217v1009q0 100 69 168t170 68h1002q101 0 170 -68t69 -168v-1009q0 -100 -69 -167.5t-170 -67.5h-1002q-101 0 -170 67.5t-69 167.5zM262 219q0 -63 41.5 -103.5t105.5 -40.5h982q64 0 105.5 40.5t41.5 103.5v1006q0 62 -41.5 103t-105.5 41h-982 q-64 0 -105.5 -40.5t-41.5 -103.5v-1006zM730 386v689h103v-603h330v-86h-433z" />
<glyph unicode="M&#x20de;" d="M160 217v1009q0 100 69 168t170 68h1002q101 0 170 -68t69 -168v-1009q0 -100 -69 -167.5t-170 -67.5h-1002q-101 0 -170 67.5t-69 167.5zM262 219q0 -63 41.5 -103.5t105.5 -40.5h982q64 0 105.5 40.5t41.5 103.5v1006q0 62 -41.5 103t-105.5 41h-982 q-64 0 -105.5 -40.5t-41.5 -103.5v-1006zM562 386v689h110l227 -565h4l227 565h108v-689h-92v521h-5l-202 -507h-77l-202 507h-6v-521h-92z" />
<glyph unicode="N&#x20de;" d="M160 217v1009q0 100 69 168t170 68h1002q101 0 170 -68t69 -168v-1009q0 -100 -69 -167.5t-170 -67.5h-1002q-101 0 -170 67.5t-69 167.5zM262 219q0 -63 41.5 -103.5t105.5 -40.5h982q64 0 105.5 40.5t41.5 103.5v1006q0 62 -41.5 103t-105.5 41h-982 q-64 0 -105.5 -40.5t-41.5 -103.5v-1006zM623 386v689h95l356 -528h5v528h98v-689h-95l-356 529h-5v-529h-98z" />
<glyph unicode="O&#x20de;" d="M160 217v1009q0 100 69 168t170 68h1002q101 0 170 -68t69 -168v-1009q0 -100 -69 -167.5t-170 -67.5h-1002q-101 0 -170 67.5t-69 167.5zM262 219q0 -63 41.5 -103.5t105.5 -40.5h982q64 0 105.5 40.5t41.5 103.5v1006q0 62 -41.5 103t-105.5 41h-982 q-64 0 -105.5 -40.5t-41.5 -103.5v-1006zM579 730q0 164 90.5 261t230.5 97t230.5 -97t90.5 -261t-90.5 -261t-230.5 -97t-230.5 97t-90.5 261zM682 730q0 -126 61 -200t157 -74t157 74t61 200t-61 200t-157 74t-157 -74t-61 -200z" />
<glyph unicode="P&#x20de;" d="M160 217v1009q0 100 69 168t170 68h1002q101 0 170 -68t69 -168v-1009q0 -100 -69 -167.5t-170 -67.5h-1002q-101 0 -170 67.5t-69 167.5zM262 219q0 -63 41.5 -103.5t105.5 -40.5h982q64 0 105.5 40.5t41.5 103.5v1006q0 62 -41.5 103t-105.5 41h-982 q-64 0 -105.5 -40.5t-41.5 -103.5v-1006zM689 386v689h267q106 0 169 -62t63 -158t-63 -157.5t-169 -61.5h-165v-250h-102zM791 717h151q65 0 103 37t38 101t-38 101t-103 37h-151v-276z" />
<glyph unicode="Q&#x20de;" d="M160 217v1009q0 100 69 168t170 68h1002q101 0 170 -68t69 -168v-1009q0 -100 -69 -167.5t-170 -67.5h-1002q-101 0 -170 67.5t-69 167.5zM262 219q0 -63 41.5 -103.5t105.5 -40.5h982q64 0 105.5 40.5t41.5 103.5v1006q0 62 -41.5 103t-105.5 41h-982 q-64 0 -105.5 -40.5t-41.5 -103.5v-1006zM579 730q0 164 90.5 261t230.5 97t230.5 -97t90.5 -261q0 -196 -127 -294l91 -125h-102l-61 84q-57 -23 -122 -23q-140 0 -230.5 97t-90.5 261zM682 730q0 -126 61 -200t157 -74q38 0 68 12l-88 122h101l57 -78q80 75 80 218 q0 126 -61 200t-157 74t-157 -74t-61 -200z" />
<glyph unicode="R&#x20de;" d="M160 217v1009q0 100 69 168t170 68h1002q101 0 170 -68t69 -168v-1009q0 -100 -69 -167.5t-170 -67.5h-1002q-101 0 -170 67.5t-69 167.5zM262 219q0 -63 41.5 -103.5t105.5 -40.5h982q64 0 105.5 40.5t41.5 103.5v1006q0 62 -41.5 103t-105.5 41h-982 q-64 0 -105.5 -40.5t-41.5 -103.5v-1006zM663 386v689h266q109 0 173 -57.5t64 -153.5q0 -72 -40 -123.5t-102 -70.5l153 -284h-115l-140 269h-159v-269h-100zM763 733h151q68 0 107 34t39 95q0 62 -39 97t-104 35h-154v-261z" />
<glyph unicode="S&#x20de;" d="M160 217v1009q0 100 69 168t170 68h1002q101 0 170 -68t69 -168v-1009q0 -100 -69 -167.5t-170 -67.5h-1002q-101 0 -170 67.5t-69 167.5zM262 219q0 -63 41.5 -103.5t105.5 -40.5h982q64 0 105.5 40.5t41.5 103.5v1006q0 62 -41.5 103t-105.5 41h-982 q-64 0 -105.5 -40.5t-41.5 -103.5v-1006zM627 575h101q5 -53 54.5 -87.5t120.5 -34.5t117.5 33.5t46.5 85.5q0 77 -130 109l-115 27q-175 41 -175 181q0 89 71.5 145t184.5 56t183.5 -54.5t71.5 -142.5h-98q-5 51 -49.5 84t-108.5 33t-108 -33.5t-44 -82.5q0 -34 30 -60.5 t83 -39.5l114 -26q101 -24 146.5 -68.5t45.5 -118.5q0 -96 -74 -152t-200 -56q-119 0 -192 55t-76 147z" />
<glyph unicode="T&#x20de;" d="M160 217v1009q0 100 69 168t170 68h1002q101 0 170 -68t69 -168v-1009q0 -100 -69 -167.5t-170 -67.5h-1002q-101 0 -170 67.5t-69 167.5zM262 219q0 -63 41.5 -103.5t105.5 -40.5h982q64 0 105.5 40.5t41.5 103.5v1006q0 62 -41.5 103t-105.5 41h-982 q-64 0 -105.5 -40.5t-41.5 -103.5v-1006zM630 984v85h541v-85h-219v-604h-103v604h-219z" />
<glyph unicode="U&#x20de;" d="M160 217v1009q0 100 69 168t170 68h1002q101 0 170 -68t69 -168v-1009q0 -100 -69 -167.5t-170 -67.5h-1002q-101 0 -170 67.5t-69 167.5zM262 219q0 -63 41.5 -103.5t105.5 -40.5h982q64 0 105.5 40.5t41.5 103.5v1006q0 62 -41.5 103t-105.5 41h-982 q-64 0 -105.5 -40.5t-41.5 -103.5v-1006zM621 614v453h102v-446q0 -79 49 -125t128 -46t128 46t49 125v446h102v-453q0 -113 -76.5 -181.5t-202.5 -68.5t-202.5 68.5t-76.5 181.5z" />
<glyph unicode="V&#x20de;" d="M160 217v1009q0 100 69 168t170 68h1002q101 0 170 -68t69 -168v-1009q0 -100 -69 -167.5t-170 -67.5h-1002q-101 0 -170 67.5t-69 167.5zM262 219q0 -63 41.5 -103.5t105.5 -40.5h982q64 0 105.5 40.5t41.5 103.5v1006q0 62 -41.5 103t-105.5 41h-982 q-64 0 -105.5 -40.5t-41.5 -103.5v-1006zM584 1066h118l195 -580h6l195 580h118l-253 -688h-126z" />
<glyph unicode="W&#x20de;" d="M160 217v1009q0 100 69 168t170 68h1002q101 0 170 -68t69 -168v-1009q0 -100 -69 -167.5t-170 -67.5h-1002q-101 0 -170 67.5t-69 167.5zM262 219q0 -63 41.5 -103.5t105.5 -40.5h982q64 0 105.5 40.5t41.5 103.5v1006q0 62 -41.5 103t-105.5 41h-982 q-64 0 -105.5 -40.5t-41.5 -103.5v-1006zM464 1066h112l129 -553h6l145 553h93l145 -553h5l129 553h112l-187 -688h-101l-148 539h-4l-148 -539h-100z" />
<glyph unicode="X&#x20de;" d="M160 217v1009q0 100 69 168t170 68h1002q101 0 170 -68t69 -168v-1009q0 -100 -69 -167.5t-170 -67.5h-1002q-101 0 -170 67.5t-69 167.5zM262 219q0 -63 41.5 -103.5t105.5 -40.5h982q64 0 105.5 40.5t41.5 103.5v1006q0 62 -41.5 103t-105.5 41h-982 q-64 0 -105.5 -40.5t-41.5 -103.5v-1006zM598 390l228 346l-226 343h122l171 -271h6l171 271h117l-231 -346l227 -343h-119l-173 268h-5l-174 -268h-114z" />
<glyph unicode="Y&#x20de;" d="M160 217v1009q0 100 69 168t170 68h1002q101 0 170 -68t69 -168v-1009q0 -100 -69 -167.5t-170 -67.5h-1002q-101 0 -170 67.5t-69 167.5zM262 219q0 -63 41.5 -103.5t105.5 -40.5h982q64 0 105.5 40.5t41.5 103.5v1006q0 62 -41.5 103t-105.5 41h-982 q-64 0 -105.5 -40.5t-41.5 -103.5v-1006zM598 1079h115l186 -309h4l186 309h113l-250 -406v-283h-103v282z" />
<glyph unicode="Z&#x20de;" d="M160 217v1009q0 100 69 168t170 68h1002q101 0 170 -68t69 -168v-1009q0 -100 -69 -167.5t-170 -67.5h-1002q-101 0 -170 67.5t-69 167.5zM262 219q0 -63 41.5 -103.5t105.5 -40.5h982q64 0 105.5 40.5t41.5 103.5v1006q0 62 -41.5 103t-105.5 41h-982 q-64 0 -105.5 -40.5t-41.5 -103.5v-1006zM637 390v71l388 528v6h-376v84h499v-71l-385 -528v-6h394v-84h-520z" />
<glyph unicode="A&#x20dd;&#x25cf;" d="M133 721q0 155 61 297t164 245t245 164t297 61t297 -61t245 -164t164 -245t61 -297t-61 -297t-164 -245t-245 -164t-297 -61t-297 61t-245 164t-164 245t-61 297zM557 376h126l73 213h288l74 -213h125l-273 752h-140zM785 683l113 324h4l113 -324h-230z" />
<glyph unicode="B&#x20dd;&#x25cf;" d="M133 721q0 155 61 297t164 245t245 164t297 61t297 -61t245 -164t164 -245t61 -297t-61 -297t-164 -245t-245 -164t-297 -61t-297 61t-245 164t-164 245t-61 297zM642 360h303q125 0 198 56.5t73 154.5q0 75 -45 125t-121 61v1q57 16 90 60t33 106q0 84 -61.5 135.5 t-165.5 51.5h-304v-751zM762 454v247h177q72 0 112.5 -33.5t40.5 -92.5q0 -121 -192 -121h-138zM762 791v226h161q61 0 95.5 -30t34.5 -82q0 -54 -41.5 -84t-120.5 -30h-129z" />
<glyph unicode="C&#x20dd;&#x25cf;" d="M133 721q0 155 61 297t164 245t245 164t297 61t297 -61t245 -164t164 -245t61 -297t-61 -297t-164 -245t-245 -164t-297 -61t-297 61t-245 164t-164 245t-61 297zM554 730q0 -174 96.5 -282t251.5 -108q129 0 215.5 67t103.5 177h-123q-11 -59 -65 -98t-129 -39 q-99 0 -162 78t-63 205q0 126 63 205t162 79q75 0 130 -43t67 -105h122q-14 114 -101.5 184t-219.5 70q-155 0 -251.5 -108t-96.5 -282z" />
<glyph unicode="D&#x20dd;&#x25cf;" d="M133 721q0 155 61 297t164 245t245 164t297 61t297 -61t245 -164t164 -245t61 -297t-61 -297t-164 -245t-245 -164t-297 -61t-297 61t-245 164t-164 245t-61 297zM637 361h262q167 0 256.5 96t89.5 277q0 178 -89.5 274t-256.5 96h-262v-743zM757 461v543h128 q115 0 175.5 -69t60.5 -203q0 -271 -236 -271h-128z" />
<glyph unicode="E&#x20dd;&#x25cf;" d="M133 721q0 155 61 297t164 245t245 164t297 61t297 -61t245 -164t164 -245t61 -297t-61 -297t-164 -245t-245 -164t-297 -61t-297 61t-245 164t-164 245t-61 297zM657 356h490v100h-369v234h348v95h-348v223h369v100h-490v-752z" />
<glyph unicode="F&#x20dd;&#x25cf;" d="M133 721q0 155 61 297t164 245t245 164t297 61t297 -61t245 -164t164 -245t61 -297t-61 -297t-164 -245t-245 -164t-297 -61t-297 61t-245 164t-164 245t-61 297zM686 356h121v316h332v100h-332v235h361v101h-482v-752z" />
<glyph unicode="G&#x20dd;&#x25cf;" d="M133 721q0 155 61 297t164 245t245 164t297 61t297 -61t245 -164t164 -245t61 -297t-61 -297t-164 -245t-245 -164t-297 -61t-297 61t-245 164t-164 245t-61 297zM554 730q0 -174 97 -281.5t252 -107.5q144 0 230 84t86 215v119h-304v-103h186v-30q0 -76 -51.5 -125 t-144.5 -49q-100 0 -162.5 75.5t-62.5 202.5t62.5 203t162.5 76q79 0 132 -36t62 -89h123q-14 103 -102 169.5t-216 66.5q-155 0 -252.5 -108t-97.5 -282z" />
<glyph unicode="H&#x20dd;&#x25cf;" d="M133 721q0 155 61 297t164 245t245 164t297 61t297 -61t245 -164t164 -245t61 -297t-61 -297t-164 -245t-245 -164t-297 -61t-297 61t-245 164t-164 245t-61 297zM592 356h121v337h375v-337h120v752h-120v-315h-375v315h-121v-752z" />
<glyph unicode="I&#x20dd;&#x25cf;" d="M133 721q0 155 61 297t164 245t245 164t297 61t297 -61t245 -164t164 -245t61 -297t-61 -297t-164 -245t-245 -164t-297 -61t-297 61t-245 164t-164 245t-61 297zM840 356h120v752h-120v-752z" />
<glyph unicode="J&#x20dd;&#x25cf;" d="M133 721q0 155 61 297t164 245t245 164t297 61t297 -61t245 -164t164 -245t61 -297t-61 -297t-164 -245t-245 -164t-297 -61t-297 61t-245 164t-164 245t-61 297zM626 559q1 -97 66.5 -156.5t172.5 -59.5q114 0 178 63.5t64 177.5v524h-121v-528q0 -63 -31.5 -97.5 t-90.5 -34.5q-52 0 -85 31t-35 80h-118z" />
<glyph unicode="&#x212a;&#x20dd;&#x25cf;" d="M134 721q0 155 61 297t164 245t245 164t297 61t297 -61t245 -164t164 -245t61 -297t-61 -297t-164 -245t-245 -164t-297 -61t-297 61t-245 164t-164 245t-61 297zM626 356h121v257l87 92l250 -349h148l-311 428l296 324h-139l-330 -356h-1v356h-121v-752z" />
<glyph unicode="L&#x20dd;&#x25cf;" d="M133 721q0 155 61 297t164 245t245 164t297 61t297 -61t245 -164t164 -245t61 -297t-61 -297t-164 -245t-245 -164t-297 -61t-297 61t-245 164t-164 245t-61 297zM700 356h475v103h-354v649h-121v-752z" />
<glyph unicode="M&#x20dd;&#x25cf;" d="M133 721q0 155 61 297t164 245t245 164t297 61t297 -61t245 -164t164 -245t61 -297t-61 -297t-164 -245t-245 -164t-297 -61t-297 61t-245 164t-164 245t-61 297zM530 356h110v563h1l213 -545h92l212 542h2v-560h111v752h-129l-242 -608h-1l-240 608h-129v-752z" />
<glyph unicode="N&#x20dd;&#x25cf;" d="M133 721q0 155 61 297t164 245t245 164t297 61t297 -61t245 -164t164 -245t61 -297t-61 -297t-164 -245t-245 -164t-297 -61t-297 61t-245 164t-164 245t-61 297zM597 356h116v565h1l377 -565h113v752h-116v-565h-1l-379 565h-111v-752z" />
<glyph unicode="O&#x20dd;&#x25cf;" d="M133 721q0 155 61 297t164 245t245 164t297 61t297 -61t245 -164t164 -245t61 -297t-61 -297t-164 -245t-245 -164t-297 -61t-297 61t-245 164t-164 245t-61 297zM550 730q0 -179 98.5 -284.5t251.5 -105.5t251.5 105.5t98.5 284.5q0 180 -98.5 285t-251.5 105 t-251.5 -105t-98.5 -285zM672 730q0 132 64 210t164 78t164 -78t64 -210t-64 -209.5t-164 -77.5t-164 77.5t-64 209.5z" />
<glyph unicode="P&#x20dd;&#x25cf;" d="M133 721q0 155 61 297t164 245t245 164t297 61t297 -61t245 -164t164 -245t61 -297t-61 -297t-164 -245t-245 -164t-297 -61t-297 61t-245 164t-164 245t-61 297zM662 356h121v271h172q114 0 185 66t71 173t-71 174.5t-185 67.5h-293v-752zM783 723v287h157 q68 0 107.5 -39t39.5 -105t-39.5 -104.5t-107.5 -38.5h-157z" />
<glyph unicode="Q&#x20dd;&#x25cf;" d="M133 721q0 155 61 297t164 245t245 164t297 61t297 -61t245 -164t164 -245t61 -297t-61 -297t-164 -245t-245 -164t-297 -61t-297 61t-245 164t-164 245t-61 297zM550 730q0 -179 98.5 -284.5t251.5 -105.5q69 0 129 24l63 -87h128l-102 138q132 105 132 315 q0 180 -98.5 285t-251.5 105t-251.5 -105t-98.5 -285zM672 730q0 132 64 210t164 78t164 -78t64 -210q0 -145 -79 -222l-57 79h-124l96 -134q-33 -10 -64 -10q-100 0 -164 77.5t-64 209.5z" />
<glyph unicode="R&#x20dd;&#x25cf;" d="M133 721q0 155 61 297t164 245t245 164t297 61t297 -61t245 -164t164 -245t61 -297t-61 -297t-164 -245t-245 -164t-297 -61t-297 61t-245 164t-164 245t-61 297zM635 356h119v292h161l150 -292h137l-166 309q69 21 110 78.5t41 133.5q0 105 -70.5 168t-189.5 63h-292 v-752zM754 741v269h160q68 0 108.5 -37t40.5 -99t-40.5 -97.5t-110.5 -35.5h-158z" />
<glyph unicode="S&#x20dd;&#x25cf;" d="M133 721q0 155 61 297t164 245t245 164t297 61t297 -61t245 -164t164 -245t61 -297t-61 -297t-164 -245t-245 -164t-297 -61t-297 61t-245 164t-164 245t-61 297zM600 568q3 -103 84.5 -165t210.5 -62q136 0 218 62t82 166q0 82 -51.5 132t-159.5 76l-123 29 q-56 13 -86.5 40t-30.5 63q0 53 43.5 86t114.5 33q69 0 115 -34.5t51 -88.5h115q-2 95 -79.5 157.5t-200.5 62.5q-124 0 -202 -62t-78 -160q0 -76 49.5 -127t142.5 -73l123 -30q72 -17 104 -44t32 -69q0 -55 -47.5 -88t-124.5 -33q-76 0 -127.5 36.5t-55.5 92.5h-119z" />
<glyph unicode="T&#x20dd;&#x25cf;" d="M133 721q0 155 61 297t164 245t245 164t297 61t297 -61t245 -164t164 -245t61 -297t-61 -297t-164 -245t-245 -164t-297 -61t-297 61t-245 164t-164 245t-61 297zM605 987h235v-651h121v651h234v101h-590v-101z" />
<glyph unicode="U&#x20dd;&#x25cf;" d="M133 721q0 155 61 297t164 245t245 164t297 61t297 -61t245 -164t164 -245t61 -297t-61 -297t-164 -245t-245 -164t-297 -61t-297 61t-245 164t-164 245t-61 297zM594 593q0 -123 84 -198t222 -75q137 0 221.5 75t84.5 198v493h-121v-484q0 -83 -50 -131t-135 -48 t-135 47.5t-50 131.5v484h-121v-493z" />
<glyph unicode="V&#x20dd;&#x25cf;" d="M133 721q0 155 61 297t164 245t245 164t297 61t297 -61t245 -164t164 -245t61 -297t-61 -297t-164 -245t-245 -164t-297 -61t-297 61t-245 164t-164 245t-61 297zM554 1086l276 -752h141l275 752h-138l-206 -627h-4l-206 627h-138z" />
<glyph unicode="W&#x20dd;&#x25cf;" d="M133 721q0 155 61 297t164 245t245 164t297 61t297 -61t245 -164t164 -245t61 -297t-61 -297t-164 -245t-245 -164t-297 -61t-297 61t-245 164t-164 245t-61 297zM421 1086l204 -752h118l157 575h4l157 -575h119l204 752h-133l-133 -596h-4l-156 596h-112l-155 -596h-4 l-134 596h-132z" />
<glyph unicode="X&#x20dd;&#x25cf;" d="M133 721q0 155 61 297t164 245t245 164t297 61t297 -61t245 -164t164 -245t61 -297t-61 -297t-164 -245t-245 -164t-297 -61t-297 61t-245 164t-164 245t-61 297zM564 361h136l187 289h3l186 -289h141l-249 373l253 378h-139l-182 -293h-4l-185 293h-144l246 -374z" />
<glyph unicode="Y&#x20dd;&#x25cf;" d="M133 721q0 155 61 297t164 245t245 164t297 61t297 -61t245 -164t164 -245t61 -297t-61 -297t-164 -245t-245 -164t-297 -61t-297 61t-245 164t-164 245t-61 297zM565 1108l275 -445v-306h120v306l275 445h-137l-196 -332h-4l-196 332h-137z" />
<glyph unicode="Z&#x20dd;&#x25cf;" d="M133 721q0 155 61 297t164 245t245 164t297 61t297 -61t245 -164t164 -245t61 -297t-61 -297t-164 -245t-245 -164t-297 -61t-297 61t-245 164t-164 245t-61 297zM612 361h570v100h-425v1l416 566v84h-548v-100h404v-2l-417 -566v-83z" />
<glyph unicode="A&#x20de;&#x25a0;" d="M160 217v1009q0 100 69 168t170 68h1002q101 0 170 -68t69 -168v-1009q0 -100 -69 -167.5t-170 -67.5h-1002q-101 0 -170 67.5t-69 167.5zM557 363h126l73 213h288l74 -213h125l-273 751h-140zM785 669l113 324h4l113 -324h-230z" />
<glyph unicode="B&#x20de;&#x25a0;" d="M160 217v1009q0 100 69 168t170 68h1002q101 0 170 -68t69 -168v-1009q0 -100 -69 -167.5t-170 -67.5h-1002q-101 0 -170 67.5t-69 167.5zM642 360h303q123 0 197 56t74 155q0 78 -46 126.5t-120 59.5v1q55 15 89 58.5t34 107.5q0 85 -62 136t-165 51h-304v-751zM762 454 v247h177q72 0 112.5 -33.5t40.5 -92.5q0 -121 -192 -121h-138zM762 791v226h161q61 0 95.5 -30.5t34.5 -81.5q0 -54 -41 -84t-121 -30h-129z" />
<glyph unicode="C&#x20de;&#x25a0;" d="M160 217v1009q0 100 69 168t170 68h1002q101 0 170 -68t69 -168v-1009q0 -100 -69 -167.5t-170 -67.5h-1002q-101 0 -170 67.5t-69 167.5zM554 730q0 -174 96.5 -282t251.5 -108q129 0 215.5 67t103.5 177h-123q-11 -59 -65 -98t-129 -39q-99 0 -162 78t-63 205 q0 126 63 205t162 79q75 0 130 -43t67 -105h122q-14 114 -101.5 184t-219.5 70q-155 0 -251.5 -108t-96.5 -282z" />
<glyph unicode="D&#x20de;&#x25a0;" d="M160 217v1009q0 100 69 168t170 68h1002q101 0 170 -68t69 -168v-1009q0 -100 -69 -167.5t-170 -67.5h-1002q-101 0 -170 67.5t-69 167.5zM621 361h263q168 0 256.5 96.5t88.5 276.5q0 176 -88.5 273t-256.5 97h-263v-743zM741 461v543h128q116 0 176 -69.5t60 -202.5 q0 -271 -236 -271h-128z" />
<glyph unicode="E&#x20de;&#x25a0;" d="M160 217v1009q0 100 69 168t170 68h1002q101 0 170 -68t69 -168v-1009q0 -100 -69 -167.5t-170 -67.5h-1002q-101 0 -170 67.5t-69 167.5zM657 356h490v100h-369v234h348v95h-348v223h369v100h-490v-752z" />
<glyph unicode="F&#x20de;&#x25a0;" d="M160 217v1009q0 100 69 168t170 68h1002q101 0 170 -68t69 -168v-1009q0 -100 -69 -167.5t-170 -67.5h-1002q-101 0 -170 67.5t-69 167.5zM686 356h121v316h332v100h-332v235h361v101h-482v-752z" />
<glyph unicode="G&#x20de;&#x25a0;" d="M160 217v1009q0 100 69 168t170 68h1002q101 0 170 -68t69 -168v-1009q0 -100 -69 -167.5t-170 -67.5h-1002q-101 0 -170 67.5t-69 167.5zM554 730q0 -174 97 -281.5t252 -107.5q144 0 230 84t86 215v119h-304v-103h186v-30q0 -76 -51.5 -125t-144.5 -49 q-100 0 -162.5 75.5t-62.5 202.5t62.5 203t162.5 76q79 0 132 -36t62 -89h123q-14 103 -102 169.5t-216 66.5q-155 0 -252.5 -108t-97.5 -282z" />
<glyph unicode="H&#x20de;&#x25a0;" d="M160 217v1009q0 100 69 168t170 68h1002q101 0 170 -68t69 -168v-1009q0 -100 -69 -167.5t-170 -67.5h-1002q-101 0 -170 67.5t-69 167.5zM592 356h121v337h375v-337h120v752h-120v-315h-375v315h-121v-752z" />
<glyph unicode="I&#x20de;&#x25a0;" d="M160 217v1009q0 100 69 168t170 68h1002q101 0 170 -68t69 -168v-1009q0 -100 -69 -167.5t-170 -67.5h-1002q-101 0 -170 67.5t-69 167.5zM840 356h120v752h-120v-752z" />
<glyph unicode="J&#x20de;&#x25a0;" d="M160 217v1009q0 100 69 168t170 68h1002q101 0 170 -68t69 -168v-1009q0 -100 -69 -167.5t-170 -67.5h-1002q-101 0 -170 67.5t-69 167.5zM626 559q1 -95 65 -155.5t174 -60.5q113 0 177.5 63t64.5 178v524h-121v-528q0 -63 -31 -97.5t-91 -34.5q-52 0 -85 31t-35 80 h-118z" />
<glyph unicode="&#x212a;&#x20de;&#x25a0;" d="M160 217v1009q0 100 69 168t170 68h1002q101 0 170 -68t69 -168v-1009q0 -100 -69 -167.5t-170 -67.5h-1002q-101 0 -170 67.5t-69 167.5zM626 356h121v257l87 92l250 -349h148q-37 54 -159 220t-152 208l296 324h-139l-330 -356h-1v356h-121v-752z" />
<glyph unicode="L&#x20de;&#x25a0;" d="M160 217v1009q0 100 69 168t170 68h1002q101 0 170 -68t69 -168v-1009q0 -100 -69 -167.5t-170 -67.5h-1002q-101 0 -170 67.5t-69 167.5zM706 356h476v103h-355v649h-121v-752z" />
<glyph unicode="M&#x20de;&#x25a0;" d="M160 217v1009q0 100 69 168t170 68h1002q101 0 170 -68t69 -168v-1009q0 -100 -69 -167.5t-170 -67.5h-1002q-101 0 -170 67.5t-69 167.5zM530 356h110v563h1l213 -545h92l212 542h2v-560h111v752h-129l-242 -608h-1l-240 608h-129v-752z" />
<glyph unicode="N&#x20de;&#x25a0;" d="M160 217v1009q0 100 69 168t170 68h1002q101 0 170 -68t69 -168v-1009q0 -100 -69 -167.5t-170 -67.5h-1002q-101 0 -170 67.5t-69 167.5zM597 356h116v565h1l377 -565h113v752h-116v-565h-1l-379 565h-111v-752z" />
<glyph unicode="O&#x20de;&#x25a0;" d="M160 217v1009q0 100 69 168t170 68h1002q101 0 170 -68t69 -168v-1009q0 -100 -69 -167.5t-170 -67.5h-1002q-101 0 -170 67.5t-69 167.5zM550 730q0 -179 98.5 -284.5t251.5 -105.5t251.5 105.5t98.5 284.5q0 180 -98.5 285t-251.5 105t-251.5 -105t-98.5 -285zM672 730 q0 132 64 210t164 78t164 -78t64 -210t-64 -209.5t-164 -77.5t-164 77.5t-64 209.5z" />
<glyph unicode="P&#x20de;&#x25a0;" d="M160 217v1009q0 100 69 168t170 68h1002q101 0 170 -68t69 -168v-1009q0 -100 -69 -167.5t-170 -67.5h-1002q-101 0 -170 67.5t-69 167.5zM662 356h121v271h172q116 0 186 67t70 172t-70 173.5t-186 68.5h-293v-752zM783 723v287h157q68 0 107.5 -38.5t39.5 -105.5 q0 -66 -39.5 -104.5t-107.5 -38.5h-157z" />
<glyph unicode="Q&#x20de;&#x25a0;" d="M160 217v1009q0 100 69 168t170 68h1002q101 0 170 -68t69 -168v-1009q0 -100 -69 -167.5t-170 -67.5h-1002q-101 0 -170 67.5t-69 167.5zM550 730q0 -179 98.5 -284.5t251.5 -105.5q69 0 129 24l63 -87h128l-102 138q132 105 132 315q0 180 -98.5 285t-251.5 105 t-251.5 -105t-98.5 -285zM672 730q0 132 64 210t164 78t164 -78t64 -210q0 -145 -79 -222l-57 79h-124l96 -134q-33 -10 -64 -10q-100 0 -164 77.5t-64 209.5z" />
<glyph unicode="R&#x20de;&#x25a0;" d="M160 217v1009q0 100 69 168t170 68h1002q101 0 170 -68t69 -168v-1009q0 -100 -69 -167.5t-170 -67.5h-1002q-101 0 -170 67.5t-69 167.5zM635 356h119v292h161l150 -292h137l-166 309q67 20 109 76.5t42 135.5q0 105 -70 168t-190 63h-292v-752zM754 741v269h160 q68 0 108.5 -36.5t40.5 -99.5q0 -62 -41 -97.5t-110 -35.5h-158z" />
<glyph unicode="S&#x20de;&#x25a0;" d="M160 217v1009q0 100 69 168t170 68h1002q101 0 170 -68t69 -168v-1009q0 -100 -69 -167.5t-170 -67.5h-1002q-101 0 -170 67.5t-69 167.5zM600 568q3 -103 84.5 -165t210.5 -62q136 0 218 62t82 166q0 82 -51.5 132t-159.5 76l-123 29q-56 13 -86.5 40t-30.5 63 q0 53 43.5 86t114.5 33q69 0 115 -34.5t51 -88.5h115q-2 95 -79.5 157.5t-200.5 62.5q-124 0 -202 -62t-78 -160q0 -76 49.5 -127t142.5 -73l123 -30q72 -17 104 -44t32 -69q0 -55 -47.5 -88t-124.5 -33q-76 0 -127.5 36.5t-55.5 92.5h-119z" />
<glyph unicode="T&#x20de;&#x25a0;" d="M160 217v1009q0 100 69 168t170 68h1002q101 0 170 -68t69 -168v-1009q0 -100 -69 -167.5t-170 -67.5h-1002q-101 0 -170 67.5t-69 167.5zM605 1001h235v-651h121v651h234v101h-590v-101z" />
<glyph unicode="U&#x20de;&#x25a0;" d="M160 217v1009q0 100 69 168t170 68h1002q101 0 170 -68t69 -168v-1009q0 -100 -69 -167.5t-170 -67.5h-1002q-101 0 -170 67.5t-69 167.5zM594 607q0 -124 84 -198.5t222 -74.5q137 0 221.5 75t84.5 198v493h-121v-484q0 -83 -50 -131t-135 -48t-135 47.5t-50 131.5v484 h-121v-493z" />
<glyph unicode="V&#x20de;&#x25a0;" d="M160 217v1009q0 100 69 168t170 68h1002q101 0 170 -68t69 -168v-1009q0 -100 -69 -167.5t-170 -67.5h-1002q-101 0 -170 67.5t-69 167.5zM554 1100l276 -752h141l275 752h-138l-206 -627h-4l-206 627h-138z" />
<glyph unicode="W&#x20de;&#x25a0;" d="M160 217v1009q0 100 69 168t170 68h1002q101 0 170 -68t69 -168v-1009q0 -100 -69 -167.5t-170 -67.5h-1002q-101 0 -170 67.5t-69 167.5zM421 1100l204 -752h118l157 575h4l157 -575h119l204 752h-133l-133 -597h-4l-156 597h-112l-155 -597h-4l-134 597h-132z" />
<glyph unicode="X&#x20de;&#x25a0;" d="M160 217v1009q0 100 69 168t170 68h1002q101 0 170 -68t69 -168v-1009q0 -100 -69 -167.5t-170 -67.5h-1002q-101 0 -170 67.5t-69 167.5zM564 361h136l187 289h3l186 -289h141l-249 373l253 378h-139l-182 -293h-4l-185 293h-144l246 -374z" />
<glyph unicode="Y&#x20de;&#x25a0;" d="M160 217v1009q0 100 69 168t170 68h1002q101 0 170 -68t69 -168v-1009q0 -100 -69 -167.5t-170 -67.5h-1002q-101 0 -170 67.5t-69 167.5zM565 1112l275 -445v-306h120v306l275 445h-137l-196 -333h-4l-196 333h-137z" />
<glyph unicode="Z&#x20de;&#x25a0;" d="M160 217v1009q0 100 69 168t170 68h1002q101 0 170 -68t69 -168v-1009q0 -100 -69 -167.5t-170 -67.5h-1002q-101 0 -170 67.5t-69 167.5zM612 361h570v100h-425v1l416 566v84h-548v-100h404v-2l-417 -566v-83z" />
<glyph unicode="&#x2b;&#x20dd;" d="M133 721q0 155 61 297t164 245t245 164t297 61t297 -61t245 -164t164 -245t61 -297t-61 -297t-164 -245t-245 -164t-297 -61t-297 61t-245 164t-164 245t-61 297zM240 720q0 -181 87.5 -334t239.5 -242t333 -89t333 89t239.5 242t87.5 334t-87.5 334t-239.5 242t-333 89 t-333 -89t-239.5 -242t-87.5 -334zM641 689v82h216v215h86v-215h216v-82h-216v-224h-86v224h-216z" />
<glyph unicode="&#x2212;&#x20dd;" d="M133 721q0 155 61 297t164 245t245 164t297 61t297 -61t245 -164t164 -245t61 -297t-61 -297t-164 -245t-245 -164t-297 -61t-297 61t-245 164t-164 245t-61 297zM240 720q0 -181 87.5 -334t239.5 -242t333 -89t333 89t239.5 242t87.5 334t-87.5 334t-239.5 242t-333 89 t-333 -89t-239.5 -242t-87.5 -334zM653 685v84h494v-84h-494z" />
<glyph unicode="&#xd7;&#x20dd;" d="M133 721q0 155 61 297t164 245t245 164t297 61t297 -61t245 -164t164 -245t61 -297t-61 -297t-164 -245t-245 -164t-297 -61t-297 61t-245 164t-164 245t-61 297zM240 720q0 -181 87.5 -334t239.5 -242t333 -89t333 89t239.5 242t87.5 334t-87.5 334t-239.5 242t-333 89 t-333 -89t-239.5 -242t-87.5 -334zM675 567l165 160l-162 157l61 59l162 -157l162 157l62 -59l-162 -157l162 -158l-62 -58l-161 157l-165 -160z" />
<glyph unicode="&#xf7;&#x20dd;" d="M133 721q0 155 61 297t164 245t245 164t297 61t297 -61t245 -164t164 -245t61 -297t-61 -297t-164 -245t-245 -164t-297 -61t-297 61t-245 164t-164 245t-61 297zM240 720q0 -181 87.5 -334t239.5 -242t333 -89t333 89t239.5 242t87.5 334t-87.5 334t-239.5 242t-333 89 t-333 -89t-239.5 -242t-87.5 -334zM653 690v74h494v-74h-494zM832 531q0 28 19.5 47t48.5 19q30 0 50 -18.5t20 -47.5q0 -28 -20 -46t-50 -18q-29 0 -48.5 18t-19.5 46zM832 925q0 29 19.5 47.5t47.5 18.5q30 0 50.5 -18.5t20.5 -47.5q0 -27 -20.5 -45.5t-50.5 -18.5 q-28 0 -47.5 18.5t-19.5 45.5z" />
<glyph unicode="&#x3d;&#x20dd;" d="M133 721q0 155 61 297t164 245t245 164t297 61t297 -61t245 -164t164 -245t61 -297t-61 -297t-164 -245t-245 -164t-297 -61t-297 61t-245 164t-164 245t-61 297zM240 720q0 -181 87.5 -334t239.5 -242t333 -89t333 89t239.5 242t87.5 334t-87.5 334t-239.5 242t-333 89 t-333 -89t-239.5 -242t-87.5 -334zM663 582v77h474v-77h-474zM663 795v78h474v-78h-474z" />
<glyph unicode="&#x3e;&#x20dd;" d="M133 721q0 155 61 297t164 245t245 164t297 61t297 -61t245 -164t164 -245t61 -297t-61 -297t-164 -245t-245 -164t-297 -61t-297 61t-245 164t-164 245t-61 297zM240 720q0 -181 87.5 -334t239.5 -242t333 -89t333 89t239.5 242t87.5 334t-87.5 334t-239.5 242t-333 89 t-333 -89t-239.5 -242t-87.5 -334zM694 429v100l350 189v4l-350 193v102l463 -263v-72z" />
<glyph unicode="&#x3c;&#x20dd;" d="M133 721q0 155 61 297t164 245t245 164t297 61t297 -61t245 -164t164 -245t61 -297t-61 -297t-164 -245t-245 -164t-297 -61t-297 61t-245 164t-164 245t-61 297zM240 720q0 -181 87.5 -334t239.5 -242t333 -89t333 89t239.5 242t87.5 334t-87.5 334t-239.5 242t-333 89 t-333 -89t-239.5 -242t-87.5 -334zM644 682v72l462 263v-102l-350 -193v-4l350 -189v-100z" />
<glyph unicode="&#x30;&#x20dd;" d="M133 721q0 155 61 297t164 245t245 164t297 61t297 -61t245 -164t164 -245t61 -297t-61 -297t-164 -245t-245 -164t-297 -61t-297 61t-245 164t-164 245t-61 297zM240 720q0 -181 87.5 -334t239.5 -242t333 -89t333 89t239.5 242t87.5 334t-87.5 334t-239.5 242t-333 89 t-333 -89t-239.5 -242t-87.5 -334zM599 583l15 74h112l34 155h-107l15 74h108l39 190h81l-40 -190h145l40 190h80l-39 -190h114l-15 -74h-115l-33 -155h109l-16 -74h-109l-41 -196h-81l42 196h-145l-41 -196h-82l42 196h-112zM802 650h154l35 165h-154z" />
<glyph unicode="&#x25bc;&#x20dd;" d="M133 721q0 155 61 297t164 245t245 164t297 61t297 -61t245 -164t164 -245t61 -297t-61 -297t-164 -245t-245 -164t-297 -61t-297 61t-245 164t-164 245t-61 297zM240 720q0 -181 87.5 -334t239.5 -242t333 -89t333 89t239.5 242t87.5 334t-87.5 334t-239.5 242t-333 89 t-333 -89t-239.5 -242t-87.5 -334zM608 924h584l-292 -494z" />
<glyph unicode="&#x25b2;&#x20dd;" d="M133 721q0 155 61 297t164 245t245 164t297 61t297 -61t245 -164t164 -245t61 -297t-61 -297t-164 -245t-245 -164t-297 -61t-297 61t-245 164t-164 245t-61 297zM240 720q0 -181 87.5 -334t239.5 -242t333 -89t333 89t239.5 242t87.5 334t-87.5 334t-239.5 242t-333 89 t-333 -89t-239.5 -242t-87.5 -334zM608 525l292 494l292 -494h-584z" />
<glyph unicode="&#x25c0;&#x20dd;" d="M133 721q0 155 61 297t164 245t245 164t297 61t297 -61t245 -164t164 -245t61 -297t-61 -297t-164 -245t-245 -164t-297 -61t-297 61t-245 164t-164 245t-61 297zM240 720q0 -181 87.5 -334t239.5 -242t333 -89t333 89t239.5 242t87.5 334t-87.5 334t-239.5 242t-333 89 t-333 -89t-239.5 -242t-87.5 -334zM601 725l493 292v-584z" />
<glyph unicode="&#x25b6;&#x20dd;" d="M133 721q0 155 61 297t164 245t245 164t297 61t297 -61t245 -164t164 -245t61 -297t-61 -297t-164 -245t-245 -164t-297 -61t-297 61t-245 164t-164 245t-61 297zM240 720q0 -181 87.5 -334t239.5 -242t333 -89t333 89t239.5 242t87.5 334t-87.5 334t-239.5 242t-333 89 t-333 -89t-239.5 -242t-87.5 -334zM706 433v584l494 -292z" />
<glyph unicode="&#x3f;&#x20dd;" d="M133 721q0 155 61 297t164 245t245 164t297 61t297 -61t245 -164t164 -245t61 -297t-61 -297t-164 -245t-245 -164t-297 -61t-297 61t-245 164t-164 245t-61 297zM240 720q0 -181 87.5 -334t239.5 -242t333 -89t333 89t239.5 242t87.5 334t-87.5 334t-239.5 242t-333 89 t-333 -89t-239.5 -242t-87.5 -334zM678 898q-1 95 64 145.5t160 50.5q94 0 156.5 -46.5t62.5 -127.5q0 -56 -26.5 -92t-79.5 -73q-51 -37 -68 -59t-17 -61v-31h-93v36q-1 50 22.5 86.5t71.5 70.5q49 34 68.5 58t19.5 60q0 47 -34.5 73.5t-87.5 26.5q-57 0 -90 -33.5 t-34 -83.5h-95zM812 449q0 30 21.5 49t53.5 19q34 0 56 -19t22 -49q0 -28 -22 -47t-56 -19q-32 0 -53.5 19t-21.5 47z" />
<glyph unicode="&#x21;&#x20dd;" d="M133 721q0 155 61 297t164 245t245 164t297 61t297 -61t245 -164t164 -245t61 -297t-61 -297t-164 -245t-245 -164t-297 -61t-297 61t-245 164t-164 245t-61 297zM240 720q0 -181 87.5 -334t239.5 -242t333 -89t333 89t239.5 242t87.5 334t-87.5 334t-239.5 242t-333 89 t-333 -89t-239.5 -242t-87.5 -334zM824 449q0 30 21.5 49.5t54.5 19.5q34 0 55.5 -19.5t21.5 -49.5q0 -28 -22 -47t-55 -19q-34 0 -55 18.5t-21 47.5zM846 1079h109l-10 -455h-89z" />
<glyph unicode="&#x2717;&#x20dd;" d="M133 721q0 155 61 297t164 245t245 164t297 61t297 -61t245 -164t164 -245t61 -297t-61 -297t-164 -245t-245 -164t-297 -61t-297 61t-245 164t-164 245t-61 297zM240 720q0 -181 87.5 -334t239.5 -242t333 -89t333 89t239.5 242t87.5 334t-87.5 334t-239.5 242t-333 89 t-333 -89t-239.5 -242t-87.5 -334zM569 991l66 67l268 -267l266 265l66 -65l-265 -266l265 -267l-66 -66l-266 265l-266 -265l-67 66l265 267z" />
<glyph unicode="&#x2713;&#x20dd;" d="M133 721q0 155 61 297t164 245t245 164t297 61t297 -61t245 -164t164 -245t61 -297t-61 -297t-164 -245t-245 -164t-297 -61t-297 61t-245 164t-164 245t-61 297zM240 720q0 -181 87.5 -334t239.5 -242t333 -89t333 89t239.5 242t87.5 334t-87.5 334t-239.5 242t-333 89 t-333 -89t-239.5 -242t-87.5 -334zM494 703l70 70l213 -214l470 472l71 -71l-541 -540z" />
<glyph unicode="&#x30;&#x20de;" d="M160 217v1009q0 100 69 168t170 68h1002q101 0 170 -68t69 -168v-1009q0 -100 -69 -167.5t-170 -67.5h-1002q-101 0 -170 67.5t-69 167.5zM262 219q0 -63 41.5 -103.5t105.5 -40.5h982q64 0 105.5 40.5t41.5 103.5v1006q0 62 -41.5 103t-105.5 41h-982 q-64 0 -105.5 -40.5t-41.5 -103.5v-1006zM641 731q0 165 71.5 261t187.5 96t187.5 -96t71.5 -261q0 -166 -71.5 -262t-187.5 -96t-187.5 96t-71.5 262zM739 731q0 -125 44 -197.5t117 -72.5t117 72.5t44 197.5q0 124 -44 197t-117 73t-117 -73t-44 -197z" />
<glyph unicode="&#x31;&#x20de;" d="M160 217v1009q0 100 69 168t170 68h1002q101 0 170 -68t69 -168v-1009q0 -100 -69 -167.5t-170 -67.5h-1002q-101 0 -170 67.5t-69 167.5zM262 219q0 -63 41.5 -103.5t105.5 -40.5h982q64 0 105.5 40.5t41.5 103.5v1006q0 62 -41.5 103t-105.5 41h-982 q-64 0 -105.5 -40.5t-41.5 -103.5v-1006zM713 865v95l175 119h102v-689h-102v589h-5z" />
<glyph unicode="&#x32;&#x20de;" d="M160 217v1009q0 100 69 168t170 68h1002q101 0 170 -68t69 -168v-1009q0 -100 -69 -167.5t-170 -67.5h-1002q-101 0 -170 67.5t-69 167.5zM262 219q0 -63 41.5 -103.5t105.5 -40.5h982q64 0 105.5 40.5t41.5 103.5v1006q0 62 -41.5 103t-105.5 41h-982 q-64 0 -105.5 -40.5t-41.5 -103.5v-1006zM666 884v5q0 83 63.5 143t171.5 60q103 0 166 -53t63 -136q0 -56 -28.5 -102t-92.5 -114l-194 -209v-5h331v-83h-472v64l271 289q41 44 62 78.5t21 74.5q0 51 -36 83t-93 32q-60 0 -97 -35t-37 -87v-5h-99z" />
<glyph unicode="&#x33;&#x20de;" d="M160 217v1009q0 100 69 168t170 68h1002q101 0 170 -68t69 -168v-1009q0 -100 -69 -167.5t-170 -67.5h-1002q-101 0 -170 67.5t-69 167.5zM262 219q0 -63 41.5 -103.5t105.5 -40.5h982q64 0 105.5 40.5t41.5 103.5v1006q0 62 -41.5 103t-105.5 41h-982 q-64 0 -105.5 -40.5t-41.5 -103.5v-1006zM653 558h96q4 -43 46.5 -72t103.5 -30q69 0 112 35.5t43 91.5q-2 54 -43.5 88.5t-106.5 34.5h-82v79h78q56 0 93.5 33.5t37.5 83.5q-1 49 -38 80t-95 31q-55 0 -92.5 -29t-40.5 -71h-96q2 77 65 128t166 51t167 -49.5t66 -126.5 q1 -65 -41.5 -109.5t-94.5 -53.5v-5q62 -7 110 -51t49 -117q1 -91 -73 -147t-185 -56q-107 0 -173.5 52t-71.5 129z" />
<glyph unicode="&#x34;&#x20de;" d="M160 217v1009q0 100 69 168t170 68h1002q101 0 170 -68t69 -168v-1009q0 -100 -69 -167.5t-170 -67.5h-1002q-101 0 -170 67.5t-69 167.5zM262 219q0 -63 41.5 -103.5t105.5 -40.5h982q64 0 105.5 40.5t41.5 103.5v1006q0 62 -41.5 103t-105.5 41h-982 q-64 0 -105.5 -40.5t-41.5 -103.5v-1006zM616 532v84q35 61 83 136t124.5 191.5t88.5 135.5h151v-465h97v-82h-97v-142h-97v142h-350zM715 614h251v387h-6q-169 -251 -245 -383v-4z" />
<glyph unicode="&#x35;&#x20de;" d="M160 217v1009q0 100 69 168t170 68h1002q101 0 170 -68t69 -168v-1009q0 -100 -69 -167.5t-170 -67.5h-1002q-101 0 -170 67.5t-69 167.5zM262 219q0 -63 41.5 -103.5t105.5 -40.5h982q64 0 105.5 40.5t41.5 103.5v1006q0 62 -41.5 103t-105.5 41h-982 q-64 0 -105.5 -40.5t-41.5 -103.5v-1006zM659 557h96q9 -46 51 -72.5t97 -26.5q64 0 109.5 43t45.5 113q0 65 -44 105.5t-109 40.5q-91 0 -141 -76h-90l31 395h416v-82h-332l-19 -225h5q19 27 59.5 47t94.5 20q99 0 164.5 -61t65.5 -162q0 -107 -72.5 -173t-188.5 -66 q-100 0 -167 51.5t-72 128.5z" />
<glyph unicode="&#x36;&#x20de;" d="M160 217v1009q0 100 69 168t170 68h1002q101 0 170 -68t69 -168v-1009q0 -100 -69 -167.5t-170 -67.5h-1002q-101 0 -170 67.5t-69 167.5zM262 219q0 -63 41.5 -103.5t105.5 -40.5h982q64 0 105.5 40.5t41.5 103.5v1006q0 62 -41.5 103t-105.5 41h-982 q-64 0 -105.5 -40.5t-41.5 -103.5v-1006zM637 722q0 172 77.5 271t210.5 99q100 0 167.5 -50t80.5 -131h-102q-10 46 -49 72.5t-95 26.5q-92 0 -142 -74.5t-51 -212.5h8q24 55 78 86.5t124 31.5q104 0 172.5 -65t68.5 -163q0 -104 -74.5 -171.5t-189.5 -67.5 q-127 0 -205.5 88.5t-78.5 259.5zM755 614q0 -68 47.5 -113.5t118.5 -45.5q70 0 117 45t47 111q0 67 -46 110t-118 43q-71 0 -118.5 -43t-47.5 -107z" />
<glyph unicode="&#x37;&#x20de;" d="M160 217v1009q0 100 69 168t170 68h1002q101 0 170 -68t69 -168v-1009q0 -100 -69 -167.5t-170 -67.5h-1002q-101 0 -170 67.5t-69 167.5zM262 219q0 -63 41.5 -103.5t105.5 -40.5h982q64 0 105.5 40.5t41.5 103.5v1006q0 62 -41.5 103t-105.5 41h-982 q-64 0 -105.5 -40.5t-41.5 -103.5v-1006zM670 996v83h473v-85l-296 -604h-109l301 601v5h-369z" />
<glyph unicode="&#x38;&#x20de;" d="M160 217v1009q0 100 69 168t170 68h1002q101 0 170 -68t69 -168v-1009q0 -100 -69 -167.5t-170 -67.5h-1002q-101 0 -170 67.5t-69 167.5zM262 219q0 -63 41.5 -103.5t105.5 -40.5h982q64 0 105.5 40.5t41.5 103.5v1006q0 62 -41.5 103t-105.5 41h-982 q-64 0 -105.5 -40.5t-41.5 -103.5v-1006zM636 579q0 63 42 111t108 62v4q-56 17 -88.5 58.5t-32.5 96.5q0 79 66 130t170 51q103 0 169.5 -51t66.5 -130q0 -54 -33.5 -96.5t-88.5 -58.5v-4q66 -14 108 -61.5t42 -110.5q0 -90 -74 -146.5t-192 -56.5q-117 0 -190 56t-73 146z M737 584q0 -57 46.5 -94.5t117.5 -37.5q70 0 116 37.5t46 94.5t-45.5 94t-116.5 37t-117.5 -37.5t-46.5 -93.5zM764 902q0 -50 38.5 -83t98.5 -33q59 0 97.5 33t38.5 83q0 51 -38 83t-98 32t-98.5 -32t-38.5 -83z" />
<glyph unicode="&#x39;&#x20de;" d="M160 217v1009q0 100 69 168t170 68h1002q101 0 170 -68t69 -168v-1009q0 -100 -69 -167.5t-170 -67.5h-1002q-101 0 -170 67.5t-69 167.5zM262 219q0 -63 41.5 -103.5t105.5 -40.5h982q64 0 105.5 40.5t41.5 103.5v1006q0 62 -41.5 103t-105.5 41h-982 q-64 0 -105.5 -40.5t-41.5 -103.5v-1006zM637 852q0 104 74.5 172t189.5 68q129 0 206.5 -90t77.5 -258q0 -174 -76 -272t-212 -98q-97 0 -165 49.5t-83 131.5h101q13 -45 52.5 -72t95.5 -27q89 0 139.5 74t50.5 212h-7q-24 -54 -78 -85.5t-124 -31.5q-105 0 -173.5 64.5 t-68.5 162.5zM737 855q0 -66 46 -109.5t118 -43.5q71 0 119 43t48 106q0 68 -47.5 113.5t-118.5 45.5q-70 0 -117.5 -44.5t-47.5 -110.5z" />
<glyph unicode="&#x2b;&#x20de;" d="M160 217v1009q0 100 69 168t170 68h1002q101 0 170 -68t69 -168v-1009q0 -100 -69 -167.5t-170 -67.5h-1002q-101 0 -170 67.5t-69 167.5zM262 219q0 -63 41.5 -103.5t105.5 -40.5h982q64 0 105.5 40.5t41.5 103.5v1006q0 62 -41.5 103t-105.5 41h-982 q-64 0 -105.5 -40.5t-41.5 -103.5v-1006zM641 689v82h216v215h86v-215h216v-82h-216v-224h-86v224h-216z" />
<glyph unicode="&#x2212;&#x20de;" d="M160 217v1009q0 100 69 168t170 68h1002q101 0 170 -68t69 -168v-1009q0 -100 -69 -167.5t-170 -67.5h-1002q-101 0 -170 67.5t-69 167.5zM262 219q0 -63 41.5 -103.5t105.5 -40.5h982q64 0 105.5 40.5t41.5 103.5v1006q0 62 -41.5 103t-105.5 41h-982 q-64 0 -105.5 -40.5t-41.5 -103.5v-1006zM653 685v84h494v-84h-494z" />
<glyph unicode="&#xd7;&#x20de;" d="M160 217v1009q0 100 69 168t170 68h1002q101 0 170 -68t69 -168v-1009q0 -100 -69 -167.5t-170 -67.5h-1002q-101 0 -170 67.5t-69 167.5zM262 219q0 -63 41.5 -103.5t105.5 -40.5h982q64 0 105.5 40.5t41.5 103.5v1006q0 62 -41.5 103t-105.5 41h-982 q-64 0 -105.5 -40.5t-41.5 -103.5v-1006zM675 567l165 160l-162 157l61 59l162 -157l162 157l62 -59l-162 -157l162 -158l-62 -58l-161 157l-165 -160z" />
<glyph unicode="&#xf7;&#x20de;" d="M160 217v1009q0 100 69 168t170 68h1002q101 0 170 -68t69 -168v-1009q0 -100 -69 -167.5t-170 -67.5h-1002q-101 0 -170 67.5t-69 167.5zM262 219q0 -63 41.5 -103.5t105.5 -40.5h982q64 0 105.5 40.5t41.5 103.5v1006q0 62 -41.5 103t-105.5 41h-982 q-64 0 -105.5 -40.5t-41.5 -103.5v-1006zM653 690v74h494v-74h-494zM832 531q0 28 19.5 47t48.5 19q30 0 50 -18.5t20 -47.5q0 -28 -20 -46t-50 -18q-29 0 -48.5 18t-19.5 46zM832 925q0 29 19.5 47.5t47.5 18.5q30 0 50.5 -18.5t20.5 -47.5q0 -27 -20.5 -45.5t-50.5 -18.5 q-28 0 -47.5 18.5t-19.5 45.5z" />
<glyph unicode="&#x3d;&#x20de;" d="M160 217v1009q0 100 69 168t170 68h1002q101 0 170 -68t69 -168v-1009q0 -100 -69 -167.5t-170 -67.5h-1002q-101 0 -170 67.5t-69 167.5zM262 219q0 -63 41.5 -103.5t105.5 -40.5h982q64 0 105.5 40.5t41.5 103.5v1006q0 62 -41.5 103t-105.5 41h-982 q-64 0 -105.5 -40.5t-41.5 -103.5v-1006zM663 582v77h474v-77h-474zM663 795v78h474v-78h-474z" />
<glyph unicode="&#x3e;&#x20de;" d="M160 217v1009q0 100 69 168t170 68h1002q101 0 170 -68t69 -168v-1009q0 -100 -69 -167.5t-170 -67.5h-1002q-101 0 -170 67.5t-69 167.5zM262 219q0 -63 41.5 -103.5t105.5 -40.5h982q64 0 105.5 40.5t41.5 103.5v1006q0 62 -41.5 103t-105.5 41h-982 q-64 0 -105.5 -40.5t-41.5 -103.5v-1006zM694 429v100l350 189v4l-350 193v102l463 -263v-72z" />
<glyph unicode="&#x3c;&#x20de;" d="M160 217v1009q0 100 69 168t170 68h1002q101 0 170 -68t69 -168v-1009q0 -100 -69 -167.5t-170 -67.5h-1002q-101 0 -170 67.5t-69 167.5zM262 219q0 -63 41.5 -103.5t105.5 -40.5h982q64 0 105.5 40.5t41.5 103.5v1006q0 62 -41.5 103t-105.5 41h-982 q-64 0 -105.5 -40.5t-41.5 -103.5v-1006zM644 682v72l462 263v-102l-350 -193v-4l350 -189v-100z" />
<glyph unicode="&#x23;&#x20de;" d="M160 217v1009q0 100 69 168t170 68h1002q101 0 170 -68t69 -168v-1009q0 -100 -69 -167.5t-170 -67.5h-1002q-101 0 -170 67.5t-69 167.5zM262 219q0 -63 41.5 -103.5t105.5 -40.5h982q64 0 105.5 40.5t41.5 103.5v1006q0 62 -41.5 103t-105.5 41h-982 q-64 0 -105.5 -40.5t-41.5 -103.5v-1006zM599 583l15 74h112l34 155h-107l15 74h108l39 190h81l-40 -190h145l40 190h80l-39 -190h114l-15 -74h-115l-33 -155h109l-16 -74h-109l-41 -196h-81l42 196h-145l-41 -196h-82l42 196h-112zM802 650h154l35 165h-154z" />
<glyph unicode="&#x25bc;&#x20de;" d="M160 217v1009q0 100 69 168t170 68h1002q101 0 170 -68t69 -168v-1009q0 -100 -69 -167.5t-170 -67.5h-1002q-101 0 -170 67.5t-69 167.5zM262 219q0 -63 41.5 -103.5t105.5 -40.5h982q64 0 105.5 40.5t41.5 103.5v1006q0 62 -41.5 103t-105.5 41h-982 q-64 0 -105.5 -40.5t-41.5 -103.5v-1006zM608 924h585l-292 -494z" />
<glyph unicode="&#x25b2;&#x20de;" d="M160 217v1009q0 100 69 168t170 68h1002q101 0 170 -68t69 -168v-1009q0 -100 -69 -167.5t-170 -67.5h-1002q-101 0 -170 67.5t-69 167.5zM262 219q0 -63 41.5 -103.5t105.5 -40.5h982q64 0 105.5 40.5t41.5 103.5v1006q0 62 -41.5 103t-105.5 41h-982 q-64 0 -105.5 -40.5t-41.5 -103.5v-1006zM608 525l292 494l292 -494h-584z" />
<glyph unicode="&#x25c0;&#x20de;" d="M160 217v1009q0 100 69 168t170 68h1002q101 0 170 -68t69 -168v-1009q0 -100 -69 -167.5t-170 -67.5h-1002q-101 0 -170 67.5t-69 167.5zM262 219q0 -63 41.5 -103.5t105.5 -40.5h982q64 0 105.5 40.5t41.5 103.5v1006q0 62 -41.5 103t-105.5 41h-982 q-64 0 -105.5 -40.5t-41.5 -103.5v-1006zM601 725l493 292v-584z" />
<glyph unicode="&#x25b6;&#x20de;" d="M160 217v1009q0 100 69 168t170 68h1002q101 0 170 -68t69 -168v-1009q0 -100 -69 -167.5t-170 -67.5h-1002q-101 0 -170 67.5t-69 167.5zM262 219q0 -63 41.5 -103.5t105.5 -40.5h982q64 0 105.5 40.5t41.5 103.5v1006q0 62 -41.5 103t-105.5 41h-982 q-64 0 -105.5 -40.5t-41.5 -103.5v-1006zM706 433v584l494 -292z" />
<glyph unicode="&#x3f;&#x20de;" d="M160 217v1009q0 100 69 168t170 68h1002q101 0 170 -68t69 -168v-1009q0 -100 -69 -167.5t-170 -67.5h-1002q-101 0 -170 67.5t-69 167.5zM262 219q0 -63 41.5 -103.5t105.5 -40.5h982q64 0 105.5 40.5t41.5 103.5v1006q0 62 -41.5 103t-105.5 41h-982 q-64 0 -105.5 -40.5t-41.5 -103.5v-1006zM678 898q-1 95 64 145.5t160 50.5q94 0 156.5 -46.5t62.5 -127.5q0 -56 -26.5 -92t-79.5 -73q-51 -37 -68 -59t-17 -61v-31h-93v36q-1 50 22.5 86.5t71.5 70.5q49 34 68.5 58t19.5 60q0 47 -34.5 73.5t-87.5 26.5q-57 0 -90 -33.5 t-34 -83.5h-95zM812 449q0 30 21.5 49t53.5 19q34 0 56 -19t22 -49q0 -28 -22 -47t-56 -19q-32 0 -53.5 19t-21.5 47z" />
<glyph unicode="&#x21;&#x20de;" d="M160 217v1009q0 100 69 168t170 68h1002q101 0 170 -68t69 -168v-1009q0 -100 -69 -167.5t-170 -67.5h-1002q-101 0 -170 67.5t-69 167.5zM262 219q0 -63 41.5 -103.5t105.5 -40.5h982q64 0 105.5 40.5t41.5 103.5v1006q0 62 -41.5 103t-105.5 41h-982 q-64 0 -105.5 -40.5t-41.5 -103.5v-1006zM824 449q0 30 21.5 49.5t54.5 19.5q34 0 55.5 -19.5t21.5 -49.5q0 -28 -22 -47t-55 -19q-34 0 -55 18.5t-21 47.5zM846 1079h109l-10 -455h-89z" />
<glyph unicode="&#x2717;&#x20de;" d="M160 217v1009q0 100 69 168t170 68h1002q101 0 170 -68t69 -168v-1009q0 -100 -69 -167.5t-170 -67.5h-1002q-101 0 -170 67.5t-69 167.5zM262 219q0 -63 41.5 -103.5t105.5 -40.5h982q64 0 105.5 40.5t41.5 103.5v1006q0 62 -41.5 103t-105.5 41h-982 q-64 0 -105.5 -40.5t-41.5 -103.5v-1006zM569 991l66 67l268 -267l266 265l66 -65l-265 -266l265 -267l-66 -66l-266 265l-266 -265l-67 66l265 267z" />
<glyph unicode="&#x2713;&#x20de;" d="M160 217v1009q0 100 69 168t170 68h1002q101 0 170 -68t69 -168v-1009q0 -100 -69 -167.5t-170 -67.5h-1002q-101 0 -170 67.5t-69 167.5zM262 219q0 -63 41.5 -103.5t105.5 -40.5h982q64 0 105.5 40.5t41.5 103.5v1006q0 62 -41.5 103t-105.5 41h-982 q-64 0 -105.5 -40.5t-41.5 -103.5v-1006zM494 703l70 70l213 -214l470 472l71 -71l-541 -540z" />
<glyph unicode="&#x2b;&#x20dd;&#x25cf;" d="M133 721q0 155 61 297t164 245t245 164t297 61t297 -61t245 -164t164 -245t61 -297t-61 -297t-164 -245t-245 -164t-297 -61t-297 61t-245 164t-164 245t-61 297zM615 682h232v-241h106v241h232v98h-232v231h-106v-231h-232v-98z" />
<glyph unicode="&#x2212;&#x20dd;&#x25cf;" d="M133 721q0 155 61 297t164 245t245 164t297 61t297 -61t245 -164t164 -245t61 -297t-61 -297t-164 -245t-245 -164t-297 -61t-297 61t-245 164t-164 245t-61 297zM629 678h542v100h-542v-100z" />
<glyph unicode="&#xd7;&#x20dd;&#x25cf;" d="M133 721q0 155 61 297t164 245t245 164t297 61t297 -61t245 -164t164 -245t61 -297t-61 -297t-164 -245t-245 -164t-297 -61t-297 61t-245 164t-164 245t-61 297zM649 555l75 -71l174 167l174 -167l74 71l-174 168l174 169l-74 72l-174 -168l-174 168l-75 -72l174 -169z " />
<glyph unicode="&#xf7;&#x20dd;&#x25cf;" d="M133 721q0 155 61 297t164 245t245 164t297 61t297 -61t245 -164t164 -245t61 -297t-61 -297t-164 -245t-245 -164t-297 -61t-297 61t-245 164t-164 245t-61 297zM629 682h542v91h-542v-91zM820 515q0 -33 23 -54t57 -21t57.5 21.5t23.5 53.5q0 33 -23.5 55t-57.5 22 t-57 -22t-23 -55zM820 942q0 -32 23 -53t56 -21q34 0 58 21.5t24 53.5q0 33 -23.5 55t-58.5 22q-33 0 -56 -22.5t-23 -55.5z" />
<glyph unicode="&#x3d;&#x20dd;&#x25cf;" d="M133 721q0 155 61 297t164 245t245 164t297 61t297 -61t245 -164t164 -245t61 -297t-61 -297t-164 -245t-245 -164t-297 -61t-297 61t-245 164t-164 245t-61 297zM641 565h519v94h-519v-94zM641 795h519v95h-519v-95z" />
<glyph unicode="&#x3e;&#x20dd;&#x25cf;" d="M133 721q0 155 61 297t164 245t245 164t297 61t297 -61t245 -164t164 -245t61 -297t-61 -297t-164 -245t-245 -164t-297 -61t-297 61t-245 164t-164 245t-61 297zM669 398l507 277v85l-507 288v-119l378 -209v-2l-378 -201v-119z" />
<glyph unicode="&#x3c;&#x20dd;&#x25cf;" d="M133 721q0 155 61 297t164 245t245 164t297 61t297 -61t245 -164t164 -245t61 -297t-61 -297t-164 -245t-245 -164t-297 -61t-297 61t-245 164t-164 245t-61 297zM619 675l507 -277v119l-378 201v2l378 209v119l-507 -288v-85z" />
<glyph unicode="&#x23;&#x20dd;&#x25cf;" d="M133 721q0 155 61 297t164 245t245 164t297 61t297 -61t245 -164t164 -245t61 -297t-61 -297t-164 -245t-245 -164t-297 -61t-297 61t-245 164t-164 245t-61 297zM570 566h119l-44 -210h98l44 210h147l-45 -210h98l44 210h116l19 91h-116l33 158h123l18 89h-122l43 203 h-97l-43 -203h-146l43 203h-98l-42 -203h-117l-18 -89h115l-33 -158h-121zM800 649l36 169h157l-37 -169h-156z" />
<glyph unicode="&#x25bc;&#x20dd;&#x25cf;" d="M133 721q0 155 61 297t164 245t245 164t297 61t297 -61t245 -164t164 -245t61 -297t-61 -297t-164 -245t-245 -164t-297 -61t-297 61t-245 164t-164 245t-61 297zM582 952l318 -540l319 540h-637z" />
<glyph unicode="&#x25b2;&#x20dd;&#x25cf;" d="M133 721q0 155 61 297t164 245t245 164t297 61t297 -61t245 -164t164 -245t61 -297t-61 -297t-164 -245t-245 -164t-297 -61t-297 61t-245 164t-164 245t-61 297zM582 508h637l-319 539z" />
<glyph unicode="&#x25c0;&#x20dd;&#x25cf;" d="M133 721q0 155 61 297t164 245t245 164t297 61t297 -61t245 -164t164 -245t61 -297t-61 -297t-164 -245t-245 -164t-297 -61t-297 61t-245 164t-164 245t-61 297zM578 730l539 -318v636z" />
<glyph unicode="&#x25b6;&#x20dd;&#x25cf;" d="M133 721q0 155 61 297t164 245t245 164t297 61t297 -61t245 -164t164 -245t61 -297t-61 -297t-164 -245t-245 -164t-297 -61t-297 61t-245 164t-164 245t-61 297zM683 412l540 318l-540 318v-636z" />
<glyph unicode="&#x3f;&#x20dd;&#x25cf;" d="M135 721q0 155 61 297t164 245t245 164t297 61t297 -61t245 -164t164 -245t61 -297t-61 -297t-164 -245t-245 -164t-297 -61t-297 61t-245 164t-164 245t-61 297zM653 908h112q2 55 36 89.5t93 34.5q54 0 90 -27t36 -75q0 -37 -21.5 -63t-71.5 -60q-54 -39 -80 -78 t-23 -94v-44h110v37q0 41 17.5 64t71.5 61q38 27 60.5 48.5t39.5 56.5t17 77q0 88 -69.5 140t-171.5 52q-103 0 -174.5 -55t-71.5 -161v-3zM796 427q0 -34 24.5 -56t62.5 -22q39 0 64.5 22.5t25.5 55.5q0 35 -25 57t-65 22q-37 0 -62 -22.5t-25 -56.5z" />
<glyph unicode="&#x21;&#x20dd;&#x25cf;" d="M133 721q0 155 61 297t164 245t245 164t297 61t297 -61t245 -164t164 -245t61 -297t-61 -297t-164 -245t-245 -164t-297 -61t-297 61t-245 164t-164 245t-61 297zM812 427q0 -33 25 -55t63 -22t63 22t25 55q0 34 -25 56.5t-63 22.5t-63 -22.5t-25 -56.5zM835 1111 l12 -499h106l12 499h-130z" />
<glyph unicode="&#x2717;&#x20dd;&#x25cf;" d="M133 721q0 155 61 297t164 245t245 164t297 61t297 -61t245 -164t164 -245t61 -297t-61 -297t-164 -245t-245 -164t-297 -61t-297 61t-245 164t-164 245t-61 297zM539 1016l289 -290l-288 -288l75 -75l288 288l288 -288l74 75l-288 288l288 288l-74 74l-288 -288 l-289 290z" />
<glyph unicode="&#x2713;&#x20dd;&#x25cf;" d="M133 721q0 155 61 297t164 245t245 164t297 61t297 -61t245 -164t164 -245t61 -297t-61 -297t-164 -245t-245 -164t-297 -61t-297 61t-245 164t-164 245t-61 297zM458 702l308 -307l588 588l-78 80l-511 -512l-228 230z" />
<glyph unicode="&#x30;&#x20de;&#x25a0;" d="M160 217v1009q0 100 69 168t170 68h1002q101 0 170 -68t69 -168v-1009q0 -100 -69 -167.5t-170 -67.5h-1002q-101 0 -170 67.5t-69 167.5zM610 731q0 -180 78.5 -285.5t208.5 -105.5q131 0 209 105.5t78 285.5q0 179 -78 284.5t-209 105.5q-130 0 -208.5 -105.5 t-78.5 -284.5zM733 731q0 135 44 212.5t120 77.5q77 0 121 -77.5t44 -212.5q0 -136 -44 -213t-121 -77q-76 0 -120 77t-44 213z" />
<glyph unicode="&#x31;&#x20de;&#x25a0;" d="M160 217v1009q0 100 69 168t170 68h1002q101 0 170 -68t69 -168v-1009q0 -100 -69 -167.5t-170 -67.5h-1002q-101 0 -170 67.5t-69 167.5zM692 867l186 126h2v-633h120v751h-118l-190 -130v-114z" />
<glyph unicode="&#x32;&#x20de;&#x25a0;" d="M160 217v1009q0 100 69 168t170 68h1002q101 0 170 -68t69 -168v-1009q0 -100 -69 -167.5t-170 -67.5h-1002q-101 0 -170 67.5t-69 167.5zM640 892h117v8q1 55 38.5 91.5t99.5 36.5q57 0 95.5 -33.5t38.5 -85.5q0 -43 -21.5 -79.5t-65.5 -82.5l-294 -313v-75h518v99h-354 v1l216 231q63 69 92 117.5t29 108.5q0 91 -70.5 149.5t-181.5 58.5q-119 0 -187 -65.5t-70 -158.5v-8z" />
<glyph unicode="&#x33;&#x20de;&#x25a0;" d="M160 217v1009q0 100 69 168t170 68h1002q101 0 170 -68t69 -168v-1009q0 -100 -69 -167.5t-170 -67.5h-1002q-101 0 -170 67.5t-69 167.5zM625 548q5 -88 78 -145.5t191 -57.5q122 0 203.5 61.5t80.5 162.5q-1 79 -51.5 127t-115.5 56v1q54 12 98.5 60.5t43.5 117.5 q-2 84 -72.5 139.5t-182.5 55.5q-114 -1 -182.5 -57.5t-73.5 -143.5h115q5 45 42.5 75t95.5 30q61 0 99.5 -32.5t38.5 -82.5q0 -51 -38 -85.5t-97 -34.5h-88v-96h93q67 0 110 -36t44 -92q0 -58 -44.5 -94t-117.5 -36q-63 1 -107 32t-51 75h-112z" />
<glyph unicode="&#x34;&#x20de;&#x25a0;" d="M160 217v1009q0 100 69 168t170 68h1002q101 0 170 -68t69 -168v-1009q0 -100 -69 -167.5t-170 -67.5h-1002q-101 0 -170 67.5t-69 167.5zM588 512h375v-152h116v152h104v98h-104v501h-172q-251 -384 -319 -502v-97zM704 610v2q88 150 258 401h1v-403h-259z" />
<glyph unicode="&#x35;&#x20de;&#x25a0;" d="M160 217v1009q0 100 69 168t170 68h1002q101 0 170 -68t69 -168v-1009q0 -100 -69 -167.5t-170 -67.5h-1002q-101 0 -170 67.5t-69 167.5zM632 547q5 -86 79 -143.5t185 -57.5q126 0 205 72t79 190q0 110 -72.5 177.5t-179.5 67.5q-56 0 -99 -20.5t-65 -49.5h-1 q1 12 8.5 108t10.5 123h355v97h-455l-34 -434h106q51 80 148 80q68 0 113.5 -42.5t45.5 -110.5q0 -72 -47 -116.5t-113 -44.5q-57 0 -102 28.5t-54 75.5h-113z" />
<glyph unicode="&#x36;&#x20de;&#x25a0;" d="M160 217v1009q0 100 69 168t170 68h1002q101 0 170 -68t69 -168v-1009q0 -100 -69 -167.5t-170 -67.5h-1002q-101 0 -170 67.5t-69 167.5zM614 721q0 -185 82 -281.5t215 -96.5q121 0 198.5 73.5t77.5 186.5q0 106 -70.5 176t-177.5 70q-69 0 -122.5 -32.5t-78.5 -90.5 h-8q1 142 49 219t137 77q53 0 90 -27.5t47 -73.5h122q-14 90 -85 145t-176 55q-139 0 -219.5 -106.5t-80.5 -293.5zM752 604q0 65 45 109t113 44q69 0 113 -44t44 -113q0 -68 -45 -113.5t-112 -45.5t-112.5 47t-45.5 116z" />
<glyph unicode="&#x37;&#x20de;&#x25a0;" d="M160 217v1009q0 100 69 168t170 68h1002q101 0 170 -68t69 -168v-1009q0 -100 -69 -167.5t-170 -67.5h-1002q-101 0 -170 67.5t-69 167.5zM645 1011h395v-2l-328 -649h129l322 652v99h-518v-100z" />
<glyph unicode="&#x38;&#x20de;&#x25a0;" d="M160 217v1009q0 100 69 168t170 68h1002q101 0 170 -68t69 -168v-1009q0 -100 -69 -167.5t-170 -67.5h-1002q-101 0 -170 67.5t-69 167.5zM609 567q0 -99 80.5 -160.5t208.5 -61.5t208.5 61.5t80.5 160.5q0 68 -44 119.5t-117 67.5v1q61 19 95.5 65t34.5 106 q0 88 -72 144t-186 56t-186 -56t-72 -144q0 -60 34.5 -105.5t95.5 -65.5v-1q-73 -16 -117 -67.5t-44 -119.5zM728 573q0 59 48.5 97.5t121.5 38.5t121 -38.5t48 -97.5t-48 -98t-121 -39q-74 0 -122 39t-48 98zM757 915q0 53 39.5 86t101.5 33t101.5 -33t39.5 -86 q0 -52 -40 -85.5t-101 -33.5q-62 0 -101.5 33.5t-39.5 85.5z" />
<glyph unicode="&#x39;&#x20de;&#x25a0;" d="M160 217v1009q0 100 69 168t170 68h1002q101 0 170 -68t69 -168v-1009q0 -100 -69 -167.5t-170 -67.5h-1002q-101 0 -170 67.5t-69 167.5zM614 860q0 -106 69.5 -175.5t177.5 -69.5q69 0 122.5 33t78.5 89h8q1 -142 -48 -218.5t-135 -76.5q-53 0 -91 27t-49 73h-122 q16 -90 87 -144.5t173 -54.5q142 0 222 106t80 293q0 182 -81 280.5t-217 98.5q-121 0 -198 -73.5t-77 -187.5zM733 863q0 68 45 113.5t112 45.5q68 0 113 -46t45 -115q0 -65 -45.5 -109.5t-112.5 -44.5q-69 0 -113 44t-44 112z" />
<glyph unicode="&#x2b;&#x20de;&#x25a0;" d="M160 217v1009q0 100 69 168t170 68h1002q101 0 170 -68t69 -168v-1009q0 -100 -69 -167.5t-170 -67.5h-1002q-101 0 -170 67.5t-69 167.5zM615 682h232v-241h106v241h232v98h-232v231h-106v-231h-232v-98z" />
<glyph unicode="&#x2212;&#x20de;&#x25a0;" d="M160 217v1009q0 100 69 168t170 68h1002q101 0 170 -68t69 -168v-1009q0 -100 -69 -167.5t-170 -67.5h-1002q-101 0 -170 67.5t-69 167.5zM629 678h542v100h-542v-100z" />
<glyph unicode="&#xd7;&#x20de;&#x25a0;" d="M160 217v1009q0 100 69 168t170 68h1002q101 0 170 -68t69 -168v-1009q0 -100 -69 -167.5t-170 -67.5h-1002q-101 0 -170 67.5t-69 167.5zM649 555l75 -71l174 167l174 -167l74 71l-174 168l174 169l-74 72l-174 -168l-174 168l-75 -72l174 -169z" />
<glyph unicode="&#xf7;&#x20de;&#x25a0;" d="M160 217v1009q0 100 69 168t170 68h1002q101 0 170 -68t69 -168v-1009q0 -100 -69 -167.5t-170 -67.5h-1002q-101 0 -170 67.5t-69 167.5zM629 682h542v91h-542v-91zM820 515q0 -33 23 -54t57 -21t57.5 21.5t23.5 53.5q0 33 -23.5 55t-57.5 22t-57 -22t-23 -55zM820 942 q0 -32 23 -53t56 -21q34 0 58 21.5t24 53.5q0 33 -23.5 55t-58.5 22q-33 0 -56 -22.5t-23 -55.5z" />
<glyph unicode="&#x3d;&#x20de;&#x25a0;" d="M160 217v1009q0 100 69 168t170 68h1002q101 0 170 -68t69 -168v-1009q0 -100 -69 -167.5t-170 -67.5h-1002q-101 0 -170 67.5t-69 167.5zM641 565h519v94h-519v-94zM641 795h519v95h-519v-95z" />
<glyph unicode="&#x3e;&#x20de;&#x25a0;" d="M160 217v1009q0 100 69 168t170 68h1002q101 0 170 -68t69 -168v-1009q0 -100 -69 -167.5t-170 -67.5h-1002q-101 0 -170 67.5t-69 167.5zM669 398l507 277v85l-507 288v-119l378 -209v-2l-378 -201v-119z" />
<glyph unicode="&#x3c;&#x20de;&#x25a0;" d="M160 217v1009q0 100 69 168t170 68h1002q101 0 170 -68t69 -168v-1009q0 -100 -69 -167.5t-170 -67.5h-1002q-101 0 -170 67.5t-69 167.5zM619 675l507 -277v119q-33 17 -182 98t-196 103v2l378 209v119l-507 -288v-85z" />
<glyph unicode="&#x23;&#x20de;&#x25a0;" d="M160 217v1009q0 100 69 168t170 68h1002q101 0 170 -68t69 -168v-1009q0 -100 -69 -167.5t-170 -67.5h-1002q-101 0 -170 67.5t-69 167.5zM570 566h119l-44 -210h98l44 210h147l-45 -210h98l44 210h116l19 91h-116l33 158h123l18 89h-122l43 203h-97l-43 -203h-146 l43 203h-98l-42 -203h-117l-18 -89h115l-33 -158h-121zM800 649l36 169h157l-37 -169h-156z" />
<glyph unicode="&#x25bc;&#x20de;&#x25a0;" d="M160 217v1009q0 100 69 168t170 68h1002q101 0 170 -68t69 -168v-1009q0 -100 -69 -167.5t-170 -67.5h-1002q-101 0 -170 67.5t-69 167.5zM582 949l318 -541l319 541h-637z" />
<glyph unicode="&#x25b2;&#x20de;&#x25a0;" d="M160 217v1009q0 100 69 168t170 68h1002q101 0 170 -68t69 -168v-1009q0 -100 -69 -167.5t-170 -67.5h-1002q-101 0 -170 67.5t-69 167.5zM582 508h637l-319 539z" />
<glyph unicode="&#x25c0;&#x20de;&#x25a0;" d="M160 217v1009q0 100 69 168t170 68h1002q101 0 170 -68t69 -168v-1009q0 -100 -69 -167.5t-170 -67.5h-1002q-101 0 -170 67.5t-69 167.5zM578 730l539 -318v636z" />
<glyph unicode="&#x25b6;&#x20de;&#x25a0;" d="M160 217v1009q0 100 69 168t170 68h1002q101 0 170 -68t69 -168v-1009q0 -100 -69 -167.5t-170 -67.5h-1002q-101 0 -170 67.5t-69 167.5zM683 412l540 318l-540 318v-636z" />
<glyph unicode="&#x3f;&#x20de;&#x25a0;" d="M160 217v1009q0 100 69 168t170 68h1002q101 0 170 -68t69 -168v-1009q0 -100 -69 -167.5t-170 -67.5h-1002q-101 0 -170 67.5t-69 167.5zM653 908h112q2 55 36 89.5t93 34.5q54 0 90 -27t36 -75q0 -37 -21.5 -63t-71.5 -60q-54 -39 -80 -78t-23 -94v-44h110v37 q0 41 17.5 64t71.5 61q38 27 60.5 48.5t39.5 56.5t17 77q0 88 -69.5 140t-171.5 52q-103 0 -174.5 -55t-71.5 -161v-3zM796 427q0 -34 24.5 -56t62.5 -22q39 0 64.5 22.5t25.5 55.5q0 35 -25 57t-65 22q-37 0 -62 -22.5t-25 -56.5z" />
<glyph unicode="&#x21;&#x20de;&#x25a0;" d="M160 217v1009q0 100 69 168t170 68h1002q101 0 170 -68t69 -168v-1009q0 -100 -69 -167.5t-170 -67.5h-1002q-101 0 -170 67.5t-69 167.5zM812 427q0 -33 25 -55t63 -22t63 22t25 55q0 34 -25 56.5t-63 22.5t-63 -22.5t-25 -56.5zM835 1111l12 -499h106l12 499h-130z" />
<glyph unicode="&#x2717;&#x20de;&#x25a0;" d="M160 217v1009q0 100 69 168t170 68h1002q101 0 170 -68t69 -168v-1009q0 -100 -69 -167.5t-170 -67.5h-1002q-101 0 -170 67.5t-69 167.5zM539 1016l289 -290l-288 -288l75 -75l288 288l288 -288l74 75l-288 288l288 288l-74 74l-288 -288l-289 290z" />
<glyph unicode="&#x2713;&#x20de;&#x25a0;" d="M160 217v1009q0 100 69 168t170 68h1002q101 0 170 -68t69 -168v-1009q0 -100 -69 -167.5t-170 -67.5h-1002q-101 0 -170 67.5t-69 167.5zM458 702l308 -307l588 588l-78 80l-511 -512l-228 230z" />
<glyph unicode="&#xd;" horiz-adv-x="0" />
<glyph unicode=" "  horiz-adv-x="554" />
<glyph unicode="&#x09;" horiz-adv-x="554" />
<glyph unicode="&#xa0;" horiz-adv-x="554" />
<glyph unicode="!" horiz-adv-x="617" d="M196 98q0 49 31.5 81t80.5 32t80.5 -31.5t31.5 -81.5q0 -49 -31.5 -80.5t-80.5 -31.5t-80.5 31.5t-31.5 80.5zM233 1444h150l-11 -987h-127z" />
<glyph unicode="&#x22;" horiz-adv-x="802" d="M173 935v508h123v-508h-123zM506 935v508h123v-508h-123z" />
<glyph unicode="#" horiz-adv-x="1316" d="M51 419l22 111h250l79 395h-259l22 110h259l86 410h110l-83 -410h359l86 410h111l-85 -410h267l-21 -110h-269l-80 -395h277l-21 -111h-278l-86 -419h-112l86 419h-361l-86 -419h-110l85 419h-248zM433 528h362l79 398h-361z" />
<glyph unicode="$" horiz-adv-x="1321" d="M160 415h133q12 -116 94.5 -190t227.5 -86v543l-31 7q-194 47 -290.5 134.5t-96.5 227.5q0 156 117.5 257.5t300.5 114.5v167h95v-167q181 -12 301.5 -115.5t126.5 -260.5h-132q-9 109 -90 177.5t-206 79.5v-515l45 -11q203 -48 302.5 -136t99.5 -237q0 -169 -126 -271.5 t-321 -114.5v-175h-95v176q-192 13 -320.5 120t-134.5 275zM329 1059q0 -89 66 -149.5t209 -95.5l11 -3v493q-130 -12 -208 -81.5t-78 -163.5zM710 138q153 9 233.5 79.5t80.5 178.5q0 98 -65.5 159t-224.5 98l-24 6v-521z" />
<glyph unicode="%" horiz-adv-x="1705" d="M67 1132q0 154 81 243t220 89t219.5 -89t80.5 -243q0 -155 -80 -243.5t-220 -88.5t-220.5 88.5t-80.5 243.5zM186 1131q0 -107 48.5 -168.5t133.5 -61.5t133 61.5t48 168.5q0 108 -48 169.5t-133 61.5t-133.5 -61.5t-48.5 -169.5zM303 0l973 1443h126l-973 -1443h-126z M1037 320q0 154 81 243t220 89t219.5 -89t80.5 -243q0 -155 -80 -243.5t-220 -88.5t-220.5 89t-80.5 243zM1157 319q0 -108 48 -169t133 -61t133 61.5t48 168.5t-48 168.5t-133 61.5t-133 -61t-48 -169z" />
<glyph unicode="&#x26;" horiz-adv-x="1472" d="M122 377q0 243 281 392q5 3 38.5 20t38.5 20q-110 113 -153.5 191t-43.5 158q0 134 102.5 224t255.5 90t253.5 -89t100.5 -225q0 -109 -76.5 -198t-251.5 -179l400 -427q92 163 92 403v46h128v-46q0 -299 -130 -495l248 -262h-172l-158 168q-93 -91 -219.5 -142 t-259.5 -51q-209 0 -341.5 112.5t-132.5 289.5zM258 385q0 -128 97 -210.5t252 -82.5q107 0 212.5 45t172.5 118l-436 469q-3 -1 -19 -9.5t-33.5 -17.5t-21.5 -11q-111 -58 -167.5 -135t-56.5 -166zM414 1151q0 -64 38.5 -127t139.5 -165q147 73 210.5 142.5t63.5 151.5 q0 91 -63.5 150t-161.5 59q-96 0 -161.5 -60.5t-65.5 -150.5z" />
<glyph unicode="'" horiz-adv-x="469" d="M173 935v508h123v-508h-123z" />
<glyph unicode="(" horiz-adv-x="751" d="M244 601q0 540 280 905h114q-113 -147 -186.5 -403t-73.5 -502q0 -248 73 -503t187 -402h-114q-280 365 -280 905z" />
<glyph unicode=")" horiz-adv-x="751" d="M113 -304q113 147 186.5 402.5t73.5 502.5t-73 502.5t-187 402.5h114q280 -365 280 -905t-280 -905h-114z" />
<glyph unicode="*" horiz-adv-x="921" d="M128 946l251 142l-251 142l52 91l240 -165l-12 287h106l-12 -287l239 165l52 -91l-250 -142l250 -142l-52 -90l-239 161l12 -283h-106l12 284l-240 -162z" />
<glyph unicode="+" horiz-adv-x="1321" d="M190 510v124h408v434h124v-434h409v-124h-409v-434h-124v434h-408z" />
<glyph unicode="," horiz-adv-x="593" d="M144 -349l97 532h148l-146 -532h-99z" />
<glyph unicode="&#x2011;" horiz-adv-x="975" d="M159 520v124h656v-124h-656z" />
<glyph unicode="-" horiz-adv-x="975" d="M159 520v124h656v-124h-656z" />
<glyph unicode="." horiz-adv-x="593" d="M191 97q0 44 31 75t75 31t74.5 -31t30.5 -75t-30.5 -74.5t-74.5 -30.5t-75 30.5t-31 74.5z" />
<glyph unicode="/" horiz-adv-x="676" d="M26 -304l510 1810h114l-511 -1810h-113z" />
<glyph unicode="0" horiz-adv-x="1282" d="M132 722q0 352 135.5 551.5t374.5 199.5q238 0 372.5 -200t134.5 -553q0 -354 -134 -552t-373 -198q-241 0 -375.5 198.5t-134.5 553.5zM270 722q0 -300 98 -466t274 -166t273 166t97 466q0 298 -97.5 464t-272.5 166t-273.5 -166.5t-98.5 -463.5z" />
<glyph unicode="1" horiz-adv-x="913" d="M114 1031v145q4 3 179 124.5t210 142.5h136v-1443h-136v1290h-13q-21 -11 -190 -129.5t-186 -129.5z" />
<glyph unicode="2" horiz-adv-x="1222" d="M152 1044q1 187 131 308t330 121q187 0 313.5 -114.5t126.5 -286.5q0 -121 -67.5 -233.5t-257.5 -310.5l-376 -392v-12h737v-124h-929v96l497 533q153 165 204.5 249.5t51.5 180.5q0 127 -85.5 210.5t-222.5 83.5q-141 0 -229.5 -86t-90.5 -223h-133z" />
<glyph unicode="3" horiz-adv-x="1260" d="M137 367h132q9 -121 110.5 -199t249.5 -78q157 0 259.5 85.5t102.5 217.5q0 136 -99 214.5t-272 78.5h-172v118h167q140 0 229 77.5t89 201.5q0 113 -86.5 191.5t-222.5 78.5q-139 0 -227.5 -73.5t-98.5 -199.5h-134q12 173 139.5 283t329.5 110q196 0 317.5 -109.5 t121.5 -266.5q-1 -129 -74.5 -217t-196.5 -119v-13q152 -20 241.5 -114.5t89.5 -243.5q0 -180 -144 -300t-358 -120q-209 0 -347.5 111.5t-145.5 285.5z" />
<glyph unicode="4" horiz-adv-x="1312" d="M119 326v125q290 477 662 994h196v-996h216v-123h-216v-326h-133v326h-725zM262 448h582v866h-9q-335 -465 -573 -857v-9z" />
<glyph unicode="5" horiz-adv-x="1256" d="M154 370h135q11 -120 109 -199.5t235 -79.5q156 0 256 104t100 265q0 157 -99 257.5t-252 100.5q-109 0 -198 -50t-133 -135h-130l80 810h785v-123h-677l-50 -531h13q52 71 141 109.5t200 38.5q94 0 178 -35t145.5 -96.5t97.5 -150.5t36 -192q0 -217 -138.5 -355 t-356.5 -138q-196 0 -330.5 113t-146.5 287z" />
<glyph unicode="6" horiz-adv-x="1288" d="M130 691q0 366 146.5 574t398.5 208q187 0 311 -98.5t150 -264.5h-140q-22 111 -108 175.5t-209 64.5q-198 0 -307 -173t-109 -497h12q47 122 158.5 194t252.5 72q205 0 340.5 -136.5t135.5 -343.5q0 -215 -140.5 -355t-356.5 -140q-115 0 -211 44t-169 130.5t-114 226 t-41 319.5zM299 471q0 -161 104.5 -270t259.5 -109q154 0 257.5 106t103.5 263q0 160 -101.5 263t-258.5 103q-155 0 -260 -102.5t-105 -253.5z" />
<glyph unicode="7" horiz-adv-x="1161" d="M107 1320v123h940v-128l-661 -1315h-146l667 1309v11h-800z" />
<glyph unicode="8" horiz-adv-x="1294" d="M136 389q0 140 86.5 242t228.5 127v12q-118 28 -188.5 115.5t-70.5 205.5q0 167 128 274.5t327 107.5q200 0 327.5 -107t127.5 -275q0 -118 -70 -205.5t-188 -115.5v-12q141 -26 228 -127.5t87 -241.5q0 -186 -142.5 -302.5t-369.5 -116.5q-226 0 -368.5 117t-142.5 302z M274 398q0 -137 103.5 -223.5t269.5 -86.5t270 86.5t104 223.5q0 134 -103.5 217.5t-270.5 83.5q-166 0 -269.5 -83.5t-103.5 -217.5zM327 1080q0 -117 89 -190t231 -73q143 0 231.5 72.5t88.5 190.5q0 122 -89 198.5t-231 76.5t-231 -76.5t-89 -198.5z" />
<glyph unicode="9" horiz-adv-x="1288" d="M126 976q0 216 140.5 356.5t356.5 140.5q115 0 210.5 -43.5t169 -129.5t114.5 -226t41 -322q0 -368 -143.5 -574.5t-401.5 -206.5q-182 0 -306.5 98.5t-154.5 264.5h140q27 -109 113.5 -175t209.5 -66q191 0 300 170.5t110 499.5h-12q-47 -120 -158.5 -192.5 t-252.5 -72.5q-207 0 -341.5 135.5t-134.5 342.5zM264 980q0 -158 101 -260.5t259 -102.5q155 0 260 102t105 251q0 162 -104.5 272t-259.5 110q-154 0 -257.5 -107t-103.5 -265z" />
<glyph unicode=":" horiz-adv-x="593" d="M191 97q0 44 31 75t75 31t74.5 -31t30.5 -75t-30.5 -74.5t-74.5 -30.5t-75 30.5t-31 74.5zM191 918q0 44 31 75t75 31t74.5 -31t30.5 -75t-30.5 -75t-74.5 -31t-75 31t-31 75z" />
<glyph unicode=";" horiz-adv-x="593" d="M144 -349l97 532h148l-146 -532h-99zM191 918q0 44 31 75t75 31t74.5 -31t30.5 -75t-30.5 -75t-74.5 -31t-75 31t-31 75z" />
<glyph unicode="&#x3c;" horiz-adv-x="1321" d="M190 513v117l941 450v-138l-783 -362v-8l783 -368v-140z" />
<glyph unicode="=" horiz-adv-x="1321" d="M203 298v118h914v-118h-914zM203 728v118h914v-118h-914z" />
<glyph unicode="&#x3e;" horiz-adv-x="1321" d="M190 64v139l782 361v8l-782 369v139l941 -449v-116z" />
<glyph unicode="?" horiz-adv-x="1020" d="M82 1079q9 165 120 271t299 106q179 0 294.5 -102t115.5 -256q0 -108 -52.5 -190.5t-158.5 -150.5q-98 -63 -133 -115.5t-35 -136.5v-75h-133v94q-1 99 45 169t153 138q95 62 134 120.5t39 140.5q0 107 -77 176t-197 69t-197 -70t-87 -188h-130zM366 98q0 50 31.5 81.5 t80.5 31.5t80 -31.5t31 -81.5q0 -49 -31 -80.5t-80 -31.5t-80.5 31.5t-31.5 80.5z" />
<glyph unicode="@" horiz-adv-x="1871" d="M138 604q0 242 104 431t291.5 294t427.5 105q233 0 415.5 -94t283.5 -263.5t101 -386.5q0 -242 -94 -382t-257 -140q-93 0 -155.5 51t-70.5 133h-13q-34 -85 -101 -131t-158 -46q-155 0 -252 117t-97 305q0 184 97.5 300t251.5 116q84 0 152 -44t96 -117h13v141h116v-575 q0 -72 36.5 -110t104.5 -38q103 0 162 113t59 309q0 188 -88 334.5t-247 227.5t-364 81q-151 0 -282 -55t-224 -152t-146 -233.5t-53 -294.5q0 -331 199 -532t526 -201q223 0 332 44v-99q-132 -44 -333 -44q-378 0 -605.5 228.5t-227.5 607.5zM686 594q0 -142 66 -226 t176 -84q111 0 177 86t66 229q0 141 -65.5 224t-176.5 83q-110 0 -176.5 -85.5t-66.5 -226.5z" />
<glyph unicode="A" horiz-adv-x="1363" d="M74 0l540 1443h136l539 -1443h-144l-160 442h-606l-160 -442h-145zM420 560h524l-256 704h-13z" />
<glyph unicode="B" horiz-adv-x="1319" d="M185 0v1443h519q199 0 314 -95.5t115 -260.5q0 -121 -74 -209.5t-190 -108.5v-13q153 -17 245.5 -113t92.5 -244q0 -189 -129 -294t-363 -105h-530zM322 121h374q181 0 276 73t95 212q0 137 -100 209.5t-288 72.5h-357v-567zM322 807h323q168 0 259 66.5t91 191.5 q0 121 -84.5 189t-232.5 68h-356v-515z" />
<glyph unicode="C" horiz-adv-x="1455" d="M127 721q0 347 171 549.5t464 202.5q147 0 271.5 -60.5t205 -168t99.5 -242.5h-139q-31 153 -152.5 248.5t-284.5 95.5q-227 0 -361 -169.5t-134 -455.5q0 -287 134 -455.5t362 -168.5q167 0 286.5 86t149.5 228h139q-31 -199 -188.5 -320t-386.5 -121q-294 0 -465 202 t-171 549z" />
<glyph unicode="D" horiz-adv-x="1472" d="M185 0v1443h475q327 0 506 -191t179 -530q0 -340 -178.5 -531t-506.5 -191h-475zM322 124h330q263 0 408 158t145 439t-145 439.5t-408 158.5h-330v-1195z" />
<glyph unicode="E" horiz-adv-x="1197" d="M185 0v1443h872v-124h-735v-519h698v-122h-698v-554h735v-124h-872z" />
<glyph unicode="F" horiz-adv-x="1155" d="M185 0v1443h856v-124h-719v-542h661v-122h-661v-655h-137z" />
<glyph unicode="G" horiz-adv-x="1506" d="M127 722q0 339 176 545t467 206q231 0 391.5 -123t199.5 -329h-139q-45 155 -163 240t-289 85q-229 0 -366 -170t-137 -454q0 -285 137.5 -455t368.5 -170q212 0 339 123.5t127 327.5v50h-440v121h576v-160q0 -268 -164 -428.5t-438 -160.5q-293 0 -469.5 205.5 t-176.5 546.5z" />
<glyph unicode="H" horiz-adv-x="1488" d="M185 0v1443h137v-642h844v642h137v-1443h-137v677h-844v-677h-137z" />
<glyph unicode="I" horiz-adv-x="507" d="M185 0v1443h137v-1443h-137z" />
<glyph unicode="J" horiz-adv-x="1088" d="M92 330h136q5 -103 78 -168t186 -65q131 0 202.5 78.5t71.5 222.5v1045h137v-1050q0 -197 -110 -310t-300 -113q-175 0 -287.5 100.5t-113.5 259.5z" />
<glyph unicode="&#x212a;" horiz-adv-x="1311" d="M185 0v1443h137v-746h12l683 746h171l-578 -623l637 -820h-177l-555 725l-193 -210v-515h-137z" />
<glyph unicode="K" horiz-adv-x="1311" d="M185 0v1443h137v-746h12l683 746h171l-578 -623l637 -820h-177l-555 725l-193 -210v-515h-137z" />
<glyph unicode="L" horiz-adv-x="1139" d="M185 0v1443h137v-1319h722v-124h-859z" />
<glyph unicode="M" horiz-adv-x="1761" d="M185 0v1443h157l533 -1263h12l531 1263h158v-1443h-128v1177h-10l-498 -1177h-119l-498 1177h-9v-1177h-129z" />
<glyph unicode="N" horiz-adv-x="1494" d="M185 0v1443h135l841 -1198h13v1198h135v-1443h-132l-844 1199h-13v-1199h-135z" />
<glyph unicode="O" horiz-adv-x="1561" d="M127 722q0 347 176 549t478 202t477.5 -202.5t175.5 -548.5t-175 -549t-478 -203q-304 0 -479 202.5t-175 549.5zM267 722q0 -286 138 -455.5t376 -169.5q236 0 374.5 169.5t138.5 455.5q0 287 -138.5 455.5t-374.5 168.5t-375 -168.5t-139 -455.5z" />
<glyph unicode="P" horiz-adv-x="1272" d="M185 0v1443h513q207 0 334.5 -125t127.5 -327q0 -199 -129 -323t-335 -124h-374v-544h-137zM322 666h343q167 0 261.5 86.5t94.5 238.5q0 156 -93.5 243t-262.5 87h-343v-655z" />
<glyph unicode="Q" horiz-adv-x="1561" d="M127 721q0 348 176 550t478 202q301 0 476.5 -202.5t175.5 -549.5q0 -219 -70 -384t-200 -253l183 -253h-154l-140 191q-122 -52 -271 -52q-304 0 -479 201t-175 550zM267 721q0 -288 139 -456t376 -168q104 0 192 35l-194 263h155l148 -198q101 73 155.5 208.5 t54.5 315.5q0 287 -138.5 456t-373.5 169q-236 0 -375 -169t-139 -456z" />
<glyph unicode="R" horiz-adv-x="1309" d="M185 0v1443h517q211 0 336 -114.5t125 -307.5q0 -153 -82 -261.5t-227 -146.5l350 -613h-160l-332 591h-21h-369v-591h-137zM322 713h369q157 0 244.5 80t87.5 224q0 142 -90 223t-248 81h-363v-608z" />
<glyph unicode="S" horiz-adv-x="1284" d="M115 375h138q14 -124 126.5 -202t277.5 -78q161 0 266 80t105 201q0 102 -77.5 170t-244.5 109l-165 42q-203 50 -294 139.5t-91 236.5q0 176 137.5 288t356.5 112q206 0 345 -108.5t150 -274.5h-138q-17 116 -114.5 187t-246.5 71q-155 0 -252.5 -76.5t-97.5 -194.5 q0 -94 72 -153.5t237 -100.5l143 -36q223 -55 321.5 -148.5t98.5 -247.5q0 -189 -143.5 -305t-379.5 -116q-224 0 -370.5 112t-159.5 293z" />
<glyph unicode="T" horiz-adv-x="1280" d="M88 1319v124h1104v-124h-484v-1319h-136v1319h-484z" />
<glyph unicode="U" horiz-adv-x="1485" d="M184 500v943h136v-934q0 -183 114 -296t308 -113t308 113t114 296v934h137v-943q0 -237 -151 -381.5t-408 -144.5q-256 0 -407 144.5t-151 381.5z" />
<glyph unicode="V" horiz-adv-x="1363" d="M74 1443h144l457 -1264h13l457 1264h144l-539 -1443h-136z" />
<glyph unicode="W" horiz-adv-x="1956" d="M95 1443h142l317 -1230h9l347 1230h136l347 -1230h9l317 1230h142l-397 -1443h-127l-354 1205h-10l-354 -1205h-127z" />
<glyph unicode="X" horiz-adv-x="1366" d="M95 0l504 724l-500 719h165l418 -609h11l422 609h156l-508 -724l500 -719h-164l-416 606h-11l-421 -606h-156z" />
<glyph unicode="Y" horiz-adv-x="1321" d="M75 1443h157l423 -680h12l423 680h156l-517 -819v-624h-136v624z" />
<glyph unicode="Z" horiz-adv-x="1328" d="M138 0v99l863 1208v12h-834v124h1011v-100l-860 -1207v-12h872v-124h-1052z" />
<glyph unicode="[" horiz-adv-x="751" d="M265 -304v1810h404v-106h-275v-1599h280v-105h-409z" />
<glyph unicode="\" horiz-adv-x="676" d="M20 1506h118l518 -1810h-118z" />
<glyph unicode="]" horiz-adv-x="751" d="M77 1400v106h409v-1810h-404v105h275v1599h-280z" />
<glyph unicode="^" horiz-adv-x="921" d="M97 790l289 596h149l291 -596h-127l-231 482h-15l-229 -482h-127z" />
<glyph unicode="_" horiz-adv-x="919" d="M-8 -122h935v-100h-935v100z" />
<glyph unicode="`" horiz-adv-x="1024" d="M340 1560h157l188 -332h-118z" />
<glyph unicode="a" horiz-adv-x="1125" d="M106 298q0 140 100 220.5t288 93.5l337 22v101q0 118 -70 180.5t-201 62.5q-111 0 -185 -44t-93 -123h-133q19 130 133 207t282 77q189 0 294 -94.5t105 -264.5v-736h-126v185h-12q-49 -96 -143 -149.5t-213 -53.5q-160 0 -261.5 86.5t-101.5 229.5zM241 300 q0 -92 70 -147t180 -55q145 0 242.5 87.5t97.5 215.5v126l-319 -23q-271 -19 -271 -204z" />
<glyph unicode="b" horiz-adv-x="1252" d="M179 0v1506h131v-638h12q45 105 143 166t220 61q205 0 329 -152t124 -404q0 -251 -124.5 -404t-328.5 -153q-124 0 -222 62t-146 171h-13v-215h-125zM307 539q0 -199 96 -318.5t255 -119.5t252 118.5t93 320.5q0 201 -93 319t-252 118t-255 -119.5t-96 -318.5z" />
<glyph unicode="c" horiz-adv-x="1145" d="M115 542q0 253 131.5 403t353.5 150q180 0 298.5 -94.5t143.5 -240.5h-133q-26 96 -107.5 156.5t-201.5 60.5q-161 0 -255.5 -118t-94.5 -317q0 -202 95 -321.5t255 -119.5q120 0 201.5 55t106.5 154h133q-25 -148 -142 -238t-298 -90q-223 0 -354.5 151.5t-131.5 408.5z " />
<glyph unicode="d" horiz-adv-x="1256" d="M115 538q0 250 125.5 403.5t330.5 153.5q123 0 220 -61t143 -167h12v639h131v-1506h-126v215h-12q-48 -108 -146.5 -170.5t-221.5 -62.5q-206 0 -331 152.5t-125 403.5zM250 539q0 -201 94.5 -319.5t254.5 -118.5q159 0 254 119t95 319q0 198 -95.5 318t-253.5 120 q-160 0 -254.5 -119t-94.5 -319z" />
<glyph unicode="e" horiz-adv-x="1174" d="M115 538q0 254 130.5 405.5t350.5 151.5q215 0 339 -143t124 -390v-58h-809v-6q5 -183 99.5 -291t250.5 -108q114 0 194 43.5t115 123.5h133q-38 -131 -157 -207.5t-288 -76.5q-222 0 -352 150.5t-130 405.5zM251 612h671q-2 167 -91.5 267t-235.5 100 q-147 0 -241 -100.5t-103 -266.5z" />
<glyph unicode="f" horiz-adv-x="718" d="M62 966v111h179v138q0 149 74 225t215 76q59 0 106 -10v-108q-32 6 -81 6q-183 0 -183 -192v-135h254v-111h-254v-966h-131v966h-179z" />
<glyph unicode="g" horiz-adv-x="1242" d="M115 552q0 244 124 393.5t330 149.5q123 0 223 -63t144 -168h12v213h126v-1093q0 -176 -128 -282t-340 -106q-184 0 -301 75.5t-138 202.5h139q18 -75 98 -119t202 -44q156 0 246.5 76t90.5 207v242h-13q-48 -107 -142.5 -166t-218.5 -59q-207 0 -330.5 148.5 t-123.5 392.5zM250 552q0 -193 92.5 -308.5t252.5 -115.5q161 0 255.5 115t94.5 307q0 193 -95.5 310t-254.5 117q-160 0 -252.5 -115.5t-92.5 -309.5z" />
<glyph unicode="h" horiz-adv-x="1210" d="M179 0v1506h131v-623h12q44 101 135 156.5t219 55.5q174 0 274 -104.5t100 -290.5v-700h-131v667q0 152 -71.5 231t-206.5 79q-151 0 -241 -93.5t-90 -243.5v-640h-131z" />
<glyph unicode="i" horiz-adv-x="480" d="M143 1398q0 40 28.5 68.5t68.5 28.5t68.5 -28.5t28.5 -68.5t-28.5 -68.5t-68.5 -28.5t-68.5 28.5t-28.5 68.5zM175 0v1077h131v-1077h-131z" />
<glyph unicode="j" horiz-adv-x="480" d="M-21 -254h21q94 0 134.5 42.5t40.5 139.5v1149h131v-1145q0 -156 -74.5 -227.5t-228.5 -71.5h-24v113zM145 1398q0 40 28.5 68.5t68.5 28.5t68.5 -28.5t28.5 -68.5t-28.5 -68.5t-68.5 -28.5t-68.5 28.5t-28.5 68.5z" />
<glyph unicode="k" horiz-adv-x="1092" d="M179 0v1506h131v-933h12l526 504h164l-481 -462l503 -615h-168l-434 531l-122 -113v-418h-131z" />
<glyph unicode="l" horiz-adv-x="489" d="M179 0v1506h131v-1506h-131z" />
<glyph unicode="m" horiz-adv-x="1772" d="M169 0v1077h125v-194h13q35 99 117.5 155.5t193.5 56.5t190.5 -56.5t114.5 -155.5h13q42 98 131.5 155t204.5 57q162 0 251.5 -93.5t89.5 -264.5v-737h-131v707q0 132 -63.5 201t-185.5 69q-123 0 -200 -83.5t-77 -210.5v-683h-131v721q0 116 -68 186t-180 70 q-117 0 -197 -92t-80 -224v-661h-131z" />
<glyph unicode="n" horiz-adv-x="1192" d="M169 0v1077h125v-194h13q43 101 132 156.5t216 55.5q180 0 278.5 -103.5t98.5 -291.5v-700h-131v667q0 310 -281 310q-143 0 -231.5 -92.5t-88.5 -244.5v-640h-131z" />
<glyph unicode="o" horiz-adv-x="1208" d="M115 539q0 258 131.5 407t357.5 149t358 -149t132 -407t-132 -407.5t-358 -149.5t-357.5 149.5t-131.5 407.5zM250 539q0 -205 94 -321.5t260 -116.5t260 116.5t94 321.5t-94 321.5t-260 116.5t-260 -116.5t-94 -321.5z" />
<glyph unicode="p" horiz-adv-x="1242" d="M169 -357v1434h125v-220h12q50 111 148 174.5t221 63.5q205 0 329 -152.5t124 -403.5t-124.5 -404t-328.5 -153q-125 0 -221.5 59.5t-141.5 163.5h-12v-562h-131zM296 539q0 -198 96 -318t254 -120q160 0 253.5 118t93.5 319q0 202 -93.5 320.5t-252.5 118.5 q-158 0 -254.5 -120t-96.5 -318z" />
<glyph unicode="q" horiz-adv-x="1246" d="M115 539q0 250 125 403t330 153q122 0 221.5 -64.5t146.5 -173.5h12v220h127v-1434h-133v562h-12q-50 -106 -144.5 -164.5t-217.5 -58.5q-205 0 -330 153t-125 404zM250 539q0 -201 93.5 -319.5t252.5 -118.5q160 0 256 119.5t96 318.5q0 198 -96 318t-255 120t-253 -119 t-94 -319z" />
<glyph unicode="r" horiz-adv-x="764" d="M169 0v1077h125v-177h13q27 88 110 141.5t190 53.5q64 0 101 -9v-131q-45 13 -117 13q-125 0 -208 -84.5t-83 -211.5v-672h-131z" />
<glyph unicode="s" horiz-adv-x="1058" d="M111 270h136q22 -82 97 -129t191 -47q119 0 198 55t79 139q0 70 -51 113.5t-160 69.5l-163 39q-152 37 -223 103.5t-71 178.5q0 129 112.5 216t276.5 87q163 0 270 -75.5t125 -203.5h-129q-18 76 -89.5 121.5t-177.5 45.5q-107 0 -181.5 -53t-74.5 -133q0 -66 52 -107 t162 -67l148 -35q159 -38 234 -106.5t75 -183.5q0 -138 -119 -227t-297 -89q-176 0 -290 77.5t-130 210.5z" />
<glyph unicode="t" horiz-adv-x="724" d="M61 966v111h176v280h131v-280h249v-111h-249v-668q0 -99 40 -143.5t131 -44.5q45 0 78 3v-112q-40 -7 -92 -7q-155 0 -221.5 63.5t-66.5 210.5v698h-176z" />
<glyph unicode="u" horiz-adv-x="1193" d="M160 377v700h131v-667q0 -151 70.5 -229.5t208.5 -78.5q150 0 236.5 90.5t86.5 244.5v640h131v-1077h-125v194h-12q-41 -101 -132 -156.5t-219 -55.5q-179 0 -277.5 104.5t-98.5 290.5z" />
<glyph unicode="v" horiz-adv-x="1078" d="M67 1077h140l326 -934h12l325 934h141l-402 -1077h-140z" />
<glyph unicode="w" horiz-adv-x="1566" d="M67 1077h133l239 -914h12l266 914h131l266 -914h12l241 914h132l-307 -1077h-139l-265 894h-13l-265 -894h-138z" />
<glyph unicode="x" horiz-adv-x="1047" d="M70 1075h157l293 -430h13l290 430h151l-378 -530l382 -547h-157l-293 440h-12l-294 -440h-150l380 542z" />
<glyph unicode="y" horiz-adv-x="1079" d="M67 1077h142l326 -934h12l325 934h140l-419 -1129q-72 -194 -144 -261.5t-204 -67.5q-27 0 -61 4v114q20 -4 59 -4q74 0 120 43t86 150l22 67z" />
<glyph unicode="z" horiz-adv-x="1082" d="M131 0v100l660 854v12h-659v111h816v-101l-658 -853v-12h660v-111h-819z" />
<glyph unicode="{" horiz-adv-x="751" d="M77 523v157q127 0 175 47.5t48 170.5v281q0 169 78 248t243 79h53v-109h-42q-109 0 -157.5 -53.5t-48.5 -178.5v-320q0 -110 -53.5 -166.5t-169.5 -65.5v-22q116 -9 169.5 -65.5t53.5 -166.5v-319q0 -125 49.5 -180t156.5 -55h42v-109h-53q-165 0 -243 79.5t-78 249.5 v281q0 122 -48 169.5t-175 47.5z" />
<glyph unicode="|" horiz-adv-x="676" d="M281 -304v1810h113v-1810h-113z" />
<glyph unicode="}" horiz-adv-x="751" d="M77 -195h42q109 0 157.5 53.5t48.5 178.5v319q0 110 53.5 167t169.5 66v22q-116 9 -169.5 65.5t-53.5 166.5v318q0 126 -49.5 181t-156.5 55h-42v109h53q165 0 243 -79.5t78 -249.5v-281q0 -123 48 -170t175 -47v-157q-127 0 -175 -47.5t-48 -171.5v-281q0 -168 -78 -247 t-243 -79h-53v109z" />
<glyph unicode="~" horiz-adv-x="1321" d="M175 426q0 155 76.5 237t189.5 82q68 0 124.5 -30.5t139.5 -107.5q57 -51 94 -69.5t75 -18.5q67 0 107.5 53.5t45.5 147.5h119q0 -154 -79 -238.5t-191 -84.5q-71 0 -127 29t-144 108q-56 50 -91 69t-72 19q-66 0 -105 -51.5t-43 -144.5h-119z" />
<glyph unicode="&#xa1;" horiz-adv-x="617" d="M197 1007q0 49 31.5 80.5t80.5 31.5t80 -31.5t31 -80.5t-31 -80.5t-80 -31.5t-80.5 31.5t-31.5 80.5zM233 -340l12 986h127l11 -986h-150z" />
<glyph unicode="&#xa2;" horiz-adv-x="1321" d="M195 722q0 234 119.5 380.5t322.5 164.5v175h95v-175q170 -12 280 -113t130 -242h-130q-21 98 -94 162.5t-186 75.5v-856q111 10 184.5 70t95.5 160h131q-21 -145 -133.5 -240.5t-277.5 -107.5v-176h-95v177q-203 18 -322.5 163t-119.5 382zM329 722q0 -186 82.5 -297.5 t225.5 -129.5v854q-143 -18 -225.5 -131t-82.5 -296z" />
<glyph unicode="&#xa3;" horiz-adv-x="1321" d="M130 3v117q138 28 225 130.5t87 227.5q0 80 -32 190h-266v106h231q-61 177 -61 275q0 194 131 305.5t369 111.5q178 0 296 -56v-123q-41 24 -122 41t-168 17q-176 0 -271 -78.5t-95 -214.5q0 -44 10 -97t20 -86t30 -95h491v-106h-457q29 -102 29 -185 q0 -122 -65.5 -218.5t-158.5 -132.5v-11h831v-118h-1054z" />
<glyph unicode="&#xa4;" horiz-adv-x="1321" d="M182 259l168 169q-75 102 -75 228t75 228l-168 168l82 82l168 -168q101 76 229 76q127 0 228 -76l168 168l82 -82l-167 -168q75 -102 75 -228q0 -128 -76 -229l168 -168l-82 -82l-168 168q-102 -75 -228 -75q-127 0 -228 76l-169 -169zM375 656q0 -118 84 -202t202 -84 t202 84t84 202t-84 202t-202 84t-202 -84t-84 -202z" />
<glyph unicode="&#xa5;" horiz-adv-x="1321" d="M88 1421h155l415 -684h5l415 684h155l-456 -730h304v-95h-353v-172h353v-95h-353v-326h-134v326h-344v95h344v172h-344v95h295z" />
<glyph unicode="&#xa6;" horiz-adv-x="676" d="M281 -304v722h113v-722h-113zM281 781v725h113v-725h-113z" />
<glyph unicode="&#xa7;" horiz-adv-x="1178" d="M184 601q0 101 65.5 173.5t181.5 100.5v12q-232 82 -232 274q0 138 107.5 225t278.5 87q163 0 269 -78t122 -209h-132q-11 79 -82.5 126.5t-179.5 47.5q-111 0 -181 -53t-70 -138q0 -69 53 -114t169 -77l122 -34q165 -45 241.5 -114.5t76.5 -174.5q0 -107 -73 -186.5 t-192 -102.5v-11q257 -63 257 -264q0 -139 -110 -227.5t-281 -88.5q-167 0 -277 82t-121 214h133q12 -82 86.5 -132.5t184.5 -50.5q112 0 183.5 54t71.5 140q0 69 -53.5 113.5t-171.5 77.5l-122 34q-168 46 -246 116.5t-78 177.5zM319 626q0 -145 214 -201l73 -17 q109 0 181 61.5t72 155.5q0 76 -52 124.5t-158 75.5l-74 18q-109 -1 -182.5 -63t-73.5 -154z" />
<glyph unicode="&#xa8;" horiz-adv-x="1024" d="M223 1398q0 40 28.5 68.5t68.5 28.5q41 0 69.5 -28.5t28.5 -68.5t-28.5 -68.5t-69.5 -28.5q-40 0 -68.5 28.5t-28.5 68.5zM606 1398q0 40 28.5 68.5t69.5 28.5q40 0 68.5 -28.5t28.5 -68.5t-28.5 -68.5t-68.5 -28.5q-41 0 -69.5 28.5t-28.5 68.5z" />
<glyph unicode="&#xa9;" horiz-adv-x="1742" d="M88 626q0 164 60.5 310t164.5 250t249.5 164t308.5 60q164 0 309 -60t249 -164t164.5 -249.5t60.5 -310.5q0 -164 -60.5 -309.5t-164.5 -249.5t-249 -164.5t-309 -60.5q-163 0 -308 60.5t-249 164.5t-165 249.5t-61 309.5zM198 626q0 -189 88.5 -344t243 -243t341.5 -88 q141 0 265.5 52t214 141.5t141.5 214.5t52 267t-52 267.5t-141 215t-214 141t-266 51.5t-265.5 -51.5t-214 -141t-141.5 -215t-52 -267.5zM486 630q0 194 108 308.5t286 114.5q141 0 239 -76.5t119 -196.5h-108q-21 79 -88 127t-162 48q-128 0 -206 -87.5t-78 -237.5 q0 -152 78 -241.5t206 -89.5q100 0 165 45.5t84 123.5h109q-21 -122 -117 -194t-240 -72q-178 0 -286.5 116t-108.5 312z" />
<glyph unicode="&#xaa;" horiz-adv-x="787" d="M72 939q0 93 70 146.5t202 61.5l220 13v64q0 67 -45.5 103.5t-128.5 36.5q-71 0 -118.5 -26t-60.5 -73h-110q13 90 93 143t201 53q133 0 207 -62t74 -175v-482h-109v114h-9q-32 -59 -95.5 -92t-142.5 -33q-109 0 -178.5 57t-69.5 151zM186 945q0 -55 44.5 -87t115.5 -32 q92 0 155 51t63 126v74l-205 -13q-173 -12 -173 -119z" />
<glyph unicode="&#xab;" horiz-adv-x="1362" d="M185 563v6l359 414h157l-357 -411v-13l357 -410h-157zM636 563v6l359 414h157l-358 -411v-13l358 -410h-157z" />
<glyph unicode="&#xac;" horiz-adv-x="1321" d="M215 511v123h891v-558h-124v435h-767z" />
<glyph unicode="&#xad;" horiz-adv-x="975" d="M159 520v124h656v-124h-656z" />
<glyph unicode="&#xae;" horiz-adv-x="1260" d="M115 975q0 142 68.5 260.5t187 186.5t259.5 68q106 0 201.5 -40.5t164 -109t109 -164t40.5 -201.5q0 -142 -68 -260.5t-186.5 -187t-260.5 -68.5q-141 0 -259.5 68.5t-187 187t-68.5 260.5zM199 975q0 -181 125 -306.5t306 -125.5t306 125.5t125 306.5t-125 306t-306 125 t-306 -125t-125 -306zM437 729v515h232q77 0 126.5 -44t49.5 -114q0 -61 -33 -100.5t-89 -51.5l145 -205h-98l-138 194h-115v-194h-80zM517 993h130q110 0 110 91q0 41 -27.5 64t-80.5 23h-132v-178z" />
<glyph unicode="&#xaf;" horiz-adv-x="1024" d="M200 1345v105h624v-105h-624z" />
<glyph unicode="&#xb0;" horiz-adv-x="921" d="M146 1088q0 132 90 224t225 92t225 -92t90 -224q0 -133 -90.5 -225t-224.5 -92q-135 0 -225 92t-90 225zM261 1088q0 -87 57 -147.5t143 -60.5t143 60.5t57 147.5t-57.5 147.5t-142.5 60.5q-87 0 -143.5 -60.5t-56.5 -147.5z" />
<glyph unicode="&#xb1;" horiz-adv-x="1321" d="M180 76v114h961v-114h-961zM180 642v115h423v311h115v-311h423v-115h-423v-319h-115v319h-423z" />
<glyph unicode="&#xb2;" horiz-adv-x="784" d="M94 1347q1 116 85.5 190.5t215.5 74.5q125 0 205.5 -68.5t80.5 -173.5q0 -72 -41.5 -136.5t-155.5 -171.5l-222 -208v-8h439v-104h-600v86l311 301q91 88 121.5 133.5t30.5 96.5q0 66 -48.5 109t-127.5 43q-81 0 -131.5 -46t-51.5 -118h-111z" />
<glyph unicode="&#xb3;" horiz-adv-x="807" d="M85 971h113q5 -63 62.5 -103.5t142.5 -40.5q89 0 147 43.5t58 111.5q0 70 -56 110.5t-154 40.5h-108v95h106q80 0 130 39.5t50 103.5q0 60 -48.5 100t-127.5 40q-80 0 -130.5 -39t-55.5 -105h-111q6 109 88.5 177t215.5 68q128 0 206 -65t78 -160q-1 -76 -46.5 -127 t-121.5 -69v-9q95 -11 149.5 -66.5t54.5 -142.5q0 -108 -92 -179t-231 -71q-136 0 -225 69t-94 179z" />
<glyph unicode="&#xb4;" horiz-adv-x="1024" d="M340 1228l187 332h158l-227 -332h-118z" />
<glyph unicode="&#x3bc;" horiz-adv-x="1255" d="M172 -357v1434h131v-663q0 -153 71 -232.5t206 -79.5q142 0 227 91.5t85 243.5v640h131v-834q0 -76 24 -106.5t81 -30.5q26 0 54 6v-112q-33 -10 -78 -10q-100 0 -147 40t-58 135l-1 28h-13q-85 -211 -310 -211q-95 0 -163.5 41t-96.5 117h-12v-497h-131z" />
<glyph unicode="&#xb5;" horiz-adv-x="1255" d="M172 -357v1434h131v-663q0 -153 71 -232.5t206 -79.5q142 0 227 91.5t85 243.5v640h131v-834q0 -76 24 -106.5t81 -30.5q26 0 54 6v-112q-33 -10 -78 -10q-100 0 -147 40t-58 135l-1 28h-13q-85 -211 -310 -211q-95 0 -163.5 41t-96.5 117h-12v-497h-131z" />
<glyph unicode="&#xb6;" horiz-adv-x="1178" d="M116 1033q0 180 127.5 295t322.5 115h141v-1638h-123v828h-19q-193 0 -321 113.5t-128 286.5zM869 -195v1638h123v-1638h-123z" />
<glyph unicode="&#xb7;" horiz-adv-x="593" d="M191 539q0 44 31 75t75 31t74.5 -31t30.5 -75t-30.5 -75t-74.5 -31t-75 31t-31 75z" />
<glyph unicode="&#xb8;" horiz-adv-x="1024" d="M349 -368q49 -17 121 -17q58 0 98 22t40 63q0 79 -155 79h-56v71l89 170h101v-20l-73 -135q101 0 160 -42t59 -118q0 -90 -69 -137.5t-173 -47.5q-67 0 -142 20v92z" />
<glyph unicode="&#xb9;" horiz-adv-x="595" d="M71 1321v119q1 0 110.5 71.5t127.5 81.5h116v-851h-117v726h-8q-11 -5 -116 -73.5t-113 -73.5z" />
<glyph unicode="&#xba;" horiz-adv-x="842" d="M78 1095q0 170 92 268t250 98q159 0 251 -98t92 -268t-92 -268t-251 -98q-158 0 -250 98.5t-92 267.5zM194 1095q0 -125 60 -195.5t166 -70.5t166.5 71t60.5 195q0 125 -60.5 195.5t-166.5 70.5t-166 -71t-60 -195z" />
<glyph unicode="&#xbb;" horiz-adv-x="1362" d="M211 149l357 410v13l-357 411h157l358 -414v-6l-358 -414h-157zM662 149l357 410v13l-357 411h157l358 -414v-6l-358 -414h-157z" />
<glyph unicode="&#xbc;" horiz-adv-x="1829" d="M71 1171v119q1 0 110.5 71.5t127.5 81.5h116v-851h-117v726h-8q-11 -5 -116 -73.5t-113 -73.5zM314 0l972 1443h127l-973 -1443h-126zM1067 178v102q168 271 393 572h166v-571h129v-103h-129v-178h-113v178h-446zM1180 278h335v471h-7q-189 -246 -328 -463v-8z" />
<glyph unicode="&#xbd;" horiz-adv-x="1884" d="M71 1171v119q1 0 110.5 71.5t127.5 81.5h116v-851h-117v726h-8q-11 -5 -116 -73.5t-113 -73.5zM314 0l972 1443h127l-973 -1443h-126zM1195 605q1 116 85.5 190.5t215.5 74.5q125 0 205.5 -68.5t80.5 -173.5q0 -72 -41.5 -136.5t-155.5 -171.5l-222 -208v-8h439v-104 h-600v86l311 301q91 88 121.5 133.5t30.5 96.5q0 66 -48.5 109t-127.5 43q-81 0 -131.5 -46t-51.5 -118h-111z" />
<glyph unicode="&#xbe;" horiz-adv-x="2041" d="M85 821h113q5 -63 62.5 -103.5t142.5 -40.5q89 0 147 43.5t58 111.5q0 70 -56 110.5t-154 40.5h-108v95h106q80 0 130 39.5t50 103.5q0 60 -48.5 100t-127.5 40q-80 0 -130.5 -39t-55.5 -105h-111q6 109 88.5 177t215.5 68q128 0 206 -65t78 -160q-1 -76 -46.5 -127 t-121.5 -69v-9q95 -11 149.5 -66.5t54.5 -142.5q0 -108 -92 -179t-231 -71q-136 0 -225 69t-94 179zM526 0l972 1443h127l-973 -1443h-126zM1279 178v102q168 271 393 572h166v-571h129v-103h-129v-178h-113v178h-446zM1392 278h335v471h-7q-189 -246 -328 -463v-8z" />
<glyph unicode="&#xbf;" horiz-adv-x="1019" d="M109 3q0 108 52.5 190t157.5 150q98 62 133 114.5t35 136.5v76h133v-95q1 -98 -44.5 -168t-152.5 -139q-94 -61 -133.5 -120t-39.5 -139q0 -108 76.5 -177.5t197.5 -69.5q120 0 197 70t87 189h130q-9 -165 -120.5 -271.5t-298.5 -106.5q-180 0 -295 102.5t-115 257.5z M431 1006q0 48 32 80.5t80 32.5t79.5 -32.5t31.5 -80.5q0 -49 -31 -80.5t-80 -31.5t-80.5 31.5t-31.5 80.5z" />
<glyph unicode="&#xc0;" horiz-adv-x="1363" d="M74 0l540 1443h136l539 -1443h-144l-160 442h-606l-160 -442h-145zM388 1874h164l185 -298h-119zM420 560h524l-256 704h-13z" />
<glyph unicode="&#xc1;" horiz-adv-x="1363" d="M74 0l540 1443h136l539 -1443h-144l-160 442h-606l-160 -442h-145zM420 560h524l-256 704h-13zM627 1576l185 298h164l-230 -298h-119z" />
<glyph unicode="&#xc2;" horiz-adv-x="1363" d="M74 0l540 1443h136l539 -1443h-144l-160 442h-606l-160 -442h-145zM331 1577l289 297h124l289 -297h-155l-190 202h-12l-190 -202h-155zM420 560h524l-256 704h-13z" />
<glyph unicode="&#xc3;" horiz-adv-x="1363" d="M74 0l540 1443h136l539 -1443h-144l-160 442h-606l-160 -442h-145zM351 1591q0 122 53.5 191t147.5 69q43 0 77 -16.5t55.5 -39.5t40.5 -46t41.5 -39.5t48.5 -16.5q88 0 88 160h110q0 -121 -54 -190t-150 -69q-43 0 -76.5 16t-54.5 38t-39.5 44.5t-40.5 38.5t-48 16 q-42 0 -65.5 -39.5t-23.5 -116.5h-110zM420 560h524l-256 704h-13z" />
<glyph unicode="&#xc4;" horiz-adv-x="1363" d="M74 0l540 1443h136l539 -1443h-144l-160 442h-606l-160 -442h-145zM393 1744q0 40 28.5 68.5t68.5 28.5t69 -28.5t29 -68.5t-29 -69t-69 -29t-68.5 29t-28.5 69zM420 560h524l-256 704h-13zM776 1744q0 40 29 68.5t69 28.5t68.5 -28.5t28.5 -68.5t-28.5 -69t-68.5 -29 t-69 29t-29 69z" />
<glyph unicode="&#x212b;" horiz-adv-x="1363" d="M74 0l540 1443h136l539 -1443h-144l-160 442h-606l-160 -442h-145zM420 560h524l-256 704h-13zM497 1738q0 78 53.5 131t131.5 53t131.5 -53t53.5 -131q0 -77 -54 -130t-131 -53t-131 53t-54 130zM574 1738q0 -46 30.5 -76.5t77.5 -30.5t77.5 30.5t30.5 76.5 q0 47 -30 77.5t-78 30.5t-78 -30.5t-30 -77.5z" />
<glyph unicode="&#xc5;" horiz-adv-x="1363" d="M74 0l540 1443h136l539 -1443h-144l-160 442h-606l-160 -442h-145zM420 560h524l-256 704h-13zM497 1738q0 78 53.5 131t131.5 53t131.5 -53t53.5 -131q0 -77 -54 -130t-131 -53t-131 53t-54 130zM574 1738q0 -46 30.5 -76.5t77.5 -30.5t77.5 30.5t30.5 76.5 q0 47 -30 77.5t-78 30.5t-78 -30.5t-30 -77.5z" />
<glyph unicode="&#xc6;" horiz-adv-x="1955" d="M74 0l678 1443h1063v-124h-677v-526h640v-122h-640v-547h677v-124h-813v443h-581l-208 -443h-139zM476 561h526v766h-161z" />
<glyph unicode="&#xc7;" horiz-adv-x="1455" d="M127 721q0 347 171 549.5t464 202.5q147 0 271.5 -60.5t205 -168t99.5 -242.5h-139q-31 153 -152.5 248.5t-284.5 95.5q-227 0 -361 -169.5t-134 -455.5q0 -287 134 -455.5t362 -168.5q167 0 286.5 86t149.5 228h139q-28 -186 -168.5 -304.5t-347.5 -134.5l-58 -107 q101 0 160 -42t59 -118q0 -90 -69 -137.5t-173 -47.5q-67 0 -142 20v92q49 -17 121 -17q58 0 98 22t40 63q0 79 -155 79h-56v71l64 122q-272 18 -428 218t-156 531z" />
<glyph unicode="&#xc8;" horiz-adv-x="1197" d="M185 0v1443h872v-124h-735v-519h698v-122h-698v-554h735v-124h-872zM327 1874h164l185 -298h-119z" />
<glyph unicode="&#xc9;" horiz-adv-x="1197" d="M185 0v1443h872v-124h-735v-519h698v-122h-698v-554h735v-124h-872zM566 1576l185 298h164l-230 -298h-119z" />
<glyph unicode="&#xca;" horiz-adv-x="1197" d="M185 0v1443h872v-124h-735v-519h698v-122h-698v-554h735v-124h-872zM270 1577l289 297h124l289 -297h-155l-190 202h-12l-190 -202h-155z" />
<glyph unicode="&#xcb;" horiz-adv-x="1197" d="M185 0v1443h872v-124h-735v-519h698v-122h-698v-554h735v-124h-872zM332 1744q0 40 28.5 68.5t68.5 28.5t69 -28.5t29 -68.5t-28.5 -69t-69.5 -29q-40 0 -68.5 29t-28.5 69zM715 1744q0 40 29 68.5t69 28.5t68.5 -28.5t28.5 -68.5t-28.5 -69t-68.5 -29q-41 0 -69.5 29 t-28.5 69z" />
<glyph unicode="&#xcc;" horiz-adv-x="507" d="M-40 1874h164l185 -298h-119zM185 0v1443h137v-1443h-137z" />
<glyph unicode="&#xcd;" horiz-adv-x="507" d="M185 0v1443h137v-1443h-137zM199 1576l185 298h164l-230 -298h-119z" />
<glyph unicode="&#xce;" horiz-adv-x="507" d="M-97 1577l289 297h124l289 -297h-155l-190 202h-12l-190 -202h-155zM185 0v1443h137v-1443h-137z" />
<glyph unicode="&#xcf;" horiz-adv-x="507" d="M-35 1744q0 40 28.5 68.5t68.5 28.5t69 -28.5t29 -68.5t-29 -69t-69 -29t-68.5 29t-28.5 69zM185 0v1443h137v-1443h-137zM348 1744q0 40 29 68.5t69 28.5t68.5 -28.5t28.5 -68.5t-28.5 -69t-68.5 -29t-69 29t-29 69z" />
<glyph unicode="&#xd0;" horiz-adv-x="1472" d="M23 682v123h162v638h475q327 0 506 -191t179 -530q0 -340 -178.5 -531t-506.5 -191h-475v682h-162zM322 124h330q263 0 408 158t145 439t-145 439.5t-408 158.5h-330v-514h339v-123h-339v-558z" />
<glyph unicode="&#xd1;" horiz-adv-x="1494" d="M185 0v1443h135l841 -1198h13v1198h135v-1443h-132l-844 1199h-13v-1199h-135zM416 1591q0 122 53.5 191t147.5 69q43 0 77 -16.5t55.5 -39.5t40.5 -46t41.5 -39.5t48.5 -16.5q88 0 88 160h110q0 -121 -54 -190t-150 -69q-43 0 -76.5 16t-54.5 38t-39.5 44.5t-40.5 38.5 t-48 16q-42 0 -65.5 -39.5t-23.5 -116.5h-110z" />
<glyph unicode="&#xd2;" horiz-adv-x="1561" d="M127 722q0 347 176 549t478 202t477.5 -202.5t175.5 -548.5t-175 -549t-478 -203q-304 0 -479 202.5t-175 549.5zM267 722q0 -286 138 -455.5t376 -169.5q236 0 374.5 169.5t138.5 455.5q0 287 -138.5 455.5t-374.5 168.5t-375 -168.5t-139 -455.5zM487 1874h164 l185 -298h-119z" />
<glyph unicode="&#xd3;" horiz-adv-x="1561" d="M127 722q0 347 176 549t478 202t477.5 -202.5t175.5 -548.5t-175 -549t-478 -203q-304 0 -479 202.5t-175 549.5zM267 722q0 -286 138 -455.5t376 -169.5q236 0 374.5 169.5t138.5 455.5q0 287 -138.5 455.5t-374.5 168.5t-375 -168.5t-139 -455.5zM726 1576l185 298h164 l-230 -298h-119z" />
<glyph unicode="&#xd4;" horiz-adv-x="1561" d="M127 722q0 347 176 549t478 202t477.5 -202.5t175.5 -548.5t-175 -549t-478 -203q-304 0 -479 202.5t-175 549.5zM267 722q0 -286 138 -455.5t376 -169.5q236 0 374.5 169.5t138.5 455.5q0 287 -138.5 455.5t-374.5 168.5t-375 -168.5t-139 -455.5zM430 1577l289 297h124 l289 -297h-155l-190 202h-12l-190 -202h-155z" />
<glyph unicode="&#xd5;" horiz-adv-x="1561" d="M127 722q0 347 176 549t478 202t477.5 -202.5t175.5 -548.5t-175 -549t-478 -203q-304 0 -479 202.5t-175 549.5zM267 722q0 -286 138 -455.5t376 -169.5q236 0 374.5 169.5t138.5 455.5q0 287 -138.5 455.5t-374.5 168.5t-375 -168.5t-139 -455.5zM450 1591 q0 122 53.5 191t147.5 69q43 0 77 -16.5t55.5 -39.5t40.5 -46t41.5 -39.5t48.5 -16.5q88 0 88 160h110q0 -121 -54 -190t-150 -69q-43 0 -76.5 16t-54.5 38t-39.5 44.5t-40.5 38.5t-48 16q-42 0 -65.5 -39.5t-23.5 -116.5h-110z" />
<glyph unicode="&#xd6;" horiz-adv-x="1561" d="M127 722q0 347 176 549t478 202t477.5 -202.5t175.5 -548.5t-175 -549t-478 -203q-304 0 -479 202.5t-175 549.5zM267 722q0 -286 138 -455.5t376 -169.5q236 0 374.5 169.5t138.5 455.5q0 287 -138.5 455.5t-374.5 168.5t-375 -168.5t-139 -455.5zM492 1744 q0 40 28.5 68.5t68.5 28.5t69 -28.5t29 -68.5t-28.5 -69t-69.5 -29q-40 0 -68.5 29t-28.5 69zM875 1744q0 40 29 68.5t69 28.5t68.5 -28.5t28.5 -68.5t-28.5 -69t-68.5 -29q-41 0 -69.5 29t-28.5 69z" />
<glyph unicode="&#xd7;" horiz-adv-x="1321" d="M234 226l345 346l-345 346l81 81l345 -346l346 346l80 -80l-344 -347l344 -346l-81 -80l-344 345l-346 -345z" />
<glyph unicode="&#xd8;" horiz-adv-x="1561" d="M127 722q0 347 176 549t478 202q267 0 440 -162l125 145l75 -71l-132 -153q145 -196 145 -510q0 -346 -175 -549t-478 -203q-268 0 -441 162l-125 -145l-75 71l132 153q-145 197 -145 511zM261 722q0 -243 101 -406l772 895q-137 142 -353 142q-240 0 -380 -171 t-140 -460zM427 233q137 -142 354 -142q239 0 379 171.5t140 459.5q0 243 -101 406z" />
<glyph unicode="&#xd9;" horiz-adv-x="1485" d="M184 500v943h136v-934q0 -183 114 -296t308 -113t308 113t114 296v934h137v-943q0 -237 -151 -381.5t-408 -144.5q-256 0 -407 144.5t-151 381.5zM448 1874h164l185 -298h-119z" />
<glyph unicode="&#xda;" horiz-adv-x="1485" d="M184 500v943h136v-934q0 -183 114 -296t308 -113t308 113t114 296v934h137v-943q0 -237 -151 -381.5t-408 -144.5q-256 0 -407 144.5t-151 381.5zM687 1576l185 298h164l-230 -298h-119z" />
<glyph unicode="&#xdb;" horiz-adv-x="1485" d="M184 500v943h136v-934q0 -183 114 -296t308 -113t308 113t114 296v934h137v-943q0 -237 -151 -381.5t-408 -144.5q-256 0 -407 144.5t-151 381.5zM391 1577l289 297h124l289 -297h-155l-190 202h-12l-190 -202h-155z" />
<glyph unicode="&#xdc;" horiz-adv-x="1485" d="M184 500v943h136v-934q0 -183 114 -296t308 -113t308 113t114 296v934h137v-943q0 -237 -151 -381.5t-408 -144.5q-256 0 -407 144.5t-151 381.5zM453 1744q0 40 28.5 68.5t68.5 28.5t69 -28.5t29 -68.5t-29 -69t-69 -29t-68.5 29t-28.5 69zM836 1744q0 40 29 68.5 t69 28.5t68.5 -28.5t28.5 -68.5t-28.5 -69t-68.5 -29t-69 29t-29 69z" />
<glyph unicode="&#xdd;" horiz-adv-x="1321" d="M75 1443h157l423 -680h12l423 680h156l-517 -819v-624h-136v624zM606 1576l185 298h164l-230 -298h-119z" />
<glyph unicode="&#xde;" horiz-adv-x="1270" d="M185 0v1443h137v-274h386q184 0 307.5 -111t123.5 -299q0 -126 -58.5 -220.5t-156 -142.5t-217.5 -48h-385v-348h-137zM322 470h352q149 0 237 75.5t88 213.5q0 137 -88 212t-237 75h-352v-576z" />
<glyph unicode="&#xdf;" horiz-adv-x="1229" d="M211 0v1101q0 181 109.5 286.5t292.5 105.5q177 0 289 -102.5t112 -262.5q0 -123 -67 -216.5t-169 -123.5v-13q156 -15 252 -114t96 -260q0 -179 -126.5 -298t-324.5 -119q-86 0 -155 14v119q61 -16 147 -16q148 0 238.5 84t90.5 217q0 137 -100 220t-274 83h-77v129h70 q120 0 195 77.5t75 209.5q0 111 -74 183t-196 72q-130 0 -202 -76.5t-72 -212.5v-1087h-130z" />
<glyph unicode="&#xe0;" horiz-adv-x="1125" d="M106 298q0 140 100 220.5t288 93.5l337 22v101q0 118 -70 180.5t-201 62.5q-111 0 -185 -44t-93 -123h-133q19 130 133 207t282 77q189 0 294 -94.5t105 -264.5v-736h-126v185h-12q-49 -96 -143 -149.5t-213 -53.5q-160 0 -261.5 86.5t-101.5 229.5zM241 300 q0 -92 70 -147t180 -55q145 0 242.5 87.5t97.5 215.5v126l-319 -23q-271 -19 -271 -204zM277 1560h158l188 -332h-119z" />
<glyph unicode="&#xe1;" horiz-adv-x="1125" d="M106 298q0 140 100 220.5t288 93.5l337 22v101q0 118 -70 180.5t-201 62.5q-111 0 -185 -44t-93 -123h-133q19 130 133 207t282 77q189 0 294 -94.5t105 -264.5v-736h-126v185h-12q-49 -96 -143 -149.5t-213 -53.5q-160 0 -261.5 86.5t-101.5 229.5zM241 300 q0 -92 70 -147t180 -55q145 0 242.5 87.5t97.5 215.5v126l-319 -23q-271 -19 -271 -204zM505 1228l188 332h158l-227 -332h-119z" />
<glyph unicode="&#xe2;" horiz-adv-x="1125" d="M106 298q0 140 100 220.5t288 93.5l337 22v101q0 118 -70 180.5t-201 62.5q-111 0 -185 -44t-93 -123h-133q19 130 133 207t282 77q189 0 294 -94.5t105 -264.5v-736h-126v185h-12q-49 -96 -143 -149.5t-213 -53.5q-160 0 -261.5 86.5t-101.5 229.5zM240 1228l247 332 h154l247 -332h-146l-172 243h-12l-172 -243h-146zM241 300q0 -92 70 -147t180 -55q145 0 242.5 87.5t97.5 215.5v126l-319 -23q-271 -19 -271 -204z" />
<glyph unicode="&#xe3;" horiz-adv-x="1125" d="M106 298q0 140 100 220.5t288 93.5l337 22v101q0 118 -70 180.5t-201 62.5q-111 0 -185 -44t-93 -123h-133q19 130 133 207t282 77q189 0 294 -94.5t105 -264.5v-736h-126v185h-12q-49 -96 -143 -149.5t-213 -53.5q-160 0 -261.5 86.5t-101.5 229.5zM233 1246 q0 121 53.5 190.5t147.5 69.5q43 0 77 -16.5t55.5 -39.5t40.5 -46t41.5 -39.5t48.5 -16.5q88 0 88 160h110q0 -122 -54 -191t-150 -69q-43 0 -76.5 16t-54.5 38t-39.5 44.5t-40.5 38.5t-48 16q-42 0 -65.5 -39t-23.5 -116h-110zM241 300q0 -92 70 -147t180 -55 q145 0 242.5 87.5t97.5 215.5v126l-319 -23q-271 -19 -271 -204z" />
<glyph unicode="&#xe4;" horiz-adv-x="1125" d="M106 298q0 140 100 220.5t288 93.5l337 22v101q0 118 -70 180.5t-201 62.5q-111 0 -185 -44t-93 -123h-133q19 130 133 207t282 77q189 0 294 -94.5t105 -264.5v-736h-126v185h-12q-49 -96 -143 -149.5t-213 -53.5q-160 0 -261.5 86.5t-101.5 229.5zM241 300 q0 -92 70 -147t180 -55q145 0 242.5 87.5t97.5 215.5v126l-319 -23q-271 -19 -271 -204zM275 1398q0 40 28.5 68.5t68.5 28.5q41 0 69.5 -28.5t28.5 -68.5t-28.5 -68.5t-69.5 -28.5q-40 0 -68.5 28.5t-28.5 68.5zM658 1398q0 40 28.5 68.5t69.5 28.5q40 0 68.5 -28.5 t28.5 -68.5t-28.5 -68.5t-68.5 -28.5q-41 0 -69.5 28.5t-28.5 68.5z" />
<glyph unicode="&#xe5;" horiz-adv-x="1125" d="M106 298q0 140 100 220.5t288 93.5l337 22v101q0 118 -70 180.5t-201 62.5q-111 0 -185 -44t-93 -123h-133q19 130 133 207t282 77q189 0 294 -94.5t105 -264.5v-736h-126v185h-12q-49 -96 -143 -149.5t-213 -53.5q-160 0 -261.5 86.5t-101.5 229.5zM241 300 q0 -92 70 -147t180 -55q145 0 242.5 87.5t97.5 215.5v126l-319 -23q-271 -19 -271 -204zM351 1439q0 88 62.5 149t150.5 61q89 0 151 -61t62 -149q0 -89 -62 -150t-151 -61t-151 61t-62 150zM439 1439q0 -53 36 -89.5t89 -36.5t89 36.5t36 89.5t-36 89t-89 36t-89 -36 t-36 -89z" />
<glyph unicode="&#xe6;" horiz-adv-x="1880" d="M106 295q0 139 99.5 218t287.5 91l338 21v113q0 116 -68.5 178t-199.5 62q-111 0 -186.5 -44.5t-94.5 -122.5h-133q19 128 133.5 206t284.5 78q135 0 228 -60.5t123 -164.5h13q46 99 148.5 162t231.5 63q212 0 333.5 -139.5t121.5 -382.5v-58h-804v-15q5 -182 101 -291.5 t253 -109.5q226 0 300 167h133q-40 -134 -155 -209t-280 -75q-140 0 -249.5 71.5t-154.5 191.5h-12q-48 -123 -158 -193t-260 -70q-167 0 -270.5 85.5t-103.5 227.5zM241 298q0 -91 71 -145.5t185 -54.5q142 0 238 90t96 219v111l-321 -21q-269 -19 -269 -199zM962 622h667 q-2 158 -92 257.5t-232 99.5q-148 0 -240.5 -97t-102.5 -260z" />
<glyph unicode="&#xe7;" horiz-adv-x="1145" d="M115 542q0 253 131.5 403t353.5 150q180 0 298.5 -94.5t143.5 -240.5h-133q-26 96 -107.5 156.5t-201.5 60.5q-161 0 -255.5 -118t-94.5 -317q0 -202 95 -321.5t255 -119.5q120 0 201.5 55t106.5 154h133q-23 -133 -121 -220.5t-252 -103.5l-65 -121q101 0 160 -42 t59 -118q0 -90 -69 -137.5t-173 -47.5q-67 0 -142 20v92q49 -17 121 -17q58 0 98 22t40 63q0 79 -155 79h-56v71l70 134q-204 16 -322.5 165.5t-118.5 392.5z" />
<glyph unicode="&#xe8;" horiz-adv-x="1174" d="M115 538q0 254 130.5 405.5t350.5 151.5q215 0 339 -143t124 -390v-58h-809v-6q5 -183 99.5 -291t250.5 -108q114 0 194 43.5t115 123.5h133q-38 -131 -157 -207.5t-288 -76.5q-222 0 -352 150.5t-130 405.5zM251 612h671q-2 167 -91.5 267t-235.5 100 q-147 0 -241 -100.5t-103 -266.5zM308 1560h158l188 -332h-119z" />
<glyph unicode="&#xe9;" horiz-adv-x="1174" d="M115 538q0 254 130.5 405.5t350.5 151.5q215 0 339 -143t124 -390v-58h-809v-6q5 -183 99.5 -291t250.5 -108q114 0 194 43.5t115 123.5h133q-38 -131 -157 -207.5t-288 -76.5q-222 0 -352 150.5t-130 405.5zM251 612h671q-2 167 -91.5 267t-235.5 100 q-147 0 -241 -100.5t-103 -266.5zM536 1228l188 332h158l-227 -332h-119z" />
<glyph unicode="&#xea;" horiz-adv-x="1174" d="M115 538q0 254 130.5 405.5t350.5 151.5q215 0 339 -143t124 -390v-58h-809v-6q5 -183 99.5 -291t250.5 -108q114 0 194 43.5t115 123.5h133q-38 -131 -157 -207.5t-288 -76.5q-222 0 -352 150.5t-130 405.5zM251 612h671q-2 167 -91.5 267t-235.5 100 q-147 0 -241 -100.5t-103 -266.5zM271 1228l247 332h154l247 -332h-146l-172 243h-12l-172 -243h-146z" />
<glyph unicode="&#xeb;" horiz-adv-x="1174" d="M115 538q0 254 130.5 405.5t350.5 151.5q215 0 339 -143t124 -390v-58h-809v-6q5 -183 99.5 -291t250.5 -108q114 0 194 43.5t115 123.5h133q-38 -131 -157 -207.5t-288 -76.5q-222 0 -352 150.5t-130 405.5zM251 612h671q-2 167 -91.5 267t-235.5 100 q-147 0 -241 -100.5t-103 -266.5zM306 1398q0 40 28.5 68.5t68.5 28.5q41 0 69.5 -28.5t28.5 -68.5t-28.5 -68.5t-69.5 -28.5q-40 0 -68.5 28.5t-28.5 68.5zM689 1398q0 40 28.5 68.5t69.5 28.5q40 0 68.5 -28.5t28.5 -68.5t-28.5 -68.5t-68.5 -28.5q-41 0 -69.5 28.5 t-28.5 68.5z" />
<glyph unicode="&#xec;" horiz-adv-x="480" d="M-47 1560h158l188 -332h-119zM175 0v1077h131v-1077h-131z" />
<glyph unicode="&#xed;" horiz-adv-x="480" d="M175 0v1077h131v-1077h-131zM181 1228l188 332h158l-227 -332h-119z" />
<glyph unicode="&#xee;" horiz-adv-x="480" d="M-84 1228l247 332h154l247 -332h-146l-172 243h-12l-172 -243h-146zM175 0v1077h131v-1077h-131z" />
<glyph unicode="&#xef;" horiz-adv-x="480" d="M-49 1398q0 40 28.5 68.5t68.5 28.5q41 0 69.5 -28.5t28.5 -68.5t-28.5 -68.5t-69.5 -28.5q-40 0 -68.5 28.5t-28.5 68.5zM175 0v1077h131v-1077h-131zM334 1398q0 40 28.5 68.5t69.5 28.5q40 0 68.5 -28.5t28.5 -68.5t-28.5 -68.5t-68.5 -28.5q-41 0 -69.5 28.5 t-28.5 68.5z" />
<glyph unicode="&#xf0;" horiz-adv-x="1194" d="M116 512q0 237 127 384t328 147q104 0 194.5 -53t137.5 -142h12q-79 255 -341 429l-290 -160v103l200 110q-93 51 -204 94v100q176 -57 311 -135l275 152l1 -103l-190 -104q397 -280 397 -786q0 -254 -127.5 -410t-347.5 -156q-222 0 -352.5 144.5t-130.5 385.5zM250 512 q0 -186 95 -300t254 -114q157 0 253.5 114t96.5 297q0 188 -96.5 304t-253.5 116q-156 0 -252.5 -115t-96.5 -302z" />
<glyph unicode="&#xf1;" horiz-adv-x="1192" d="M169 0v1077h125v-194h13q43 101 132 156.5t216 55.5q180 0 278.5 -103.5t98.5 -291.5v-700h-131v667q0 310 -281 310q-143 0 -231.5 -92.5t-88.5 -244.5v-640h-131zM270 1246q0 121 53.5 190.5t147.5 69.5q43 0 77 -16.5t55.5 -39.5t40.5 -46t41.5 -39.5t48.5 -16.5 q88 0 88 160h110q0 -122 -54 -191t-150 -69q-43 0 -76.5 16t-54.5 38t-39.5 44.5t-40.5 38.5t-48 16q-42 0 -65.5 -39t-23.5 -116h-110z" />
<glyph unicode="&#xf2;" horiz-adv-x="1208" d="M115 539q0 258 131.5 407t357.5 149t358 -149t132 -407t-132 -407.5t-358 -149.5t-357.5 149.5t-131.5 407.5zM250 539q0 -205 94 -321.5t260 -116.5t260 116.5t94 321.5t-94 321.5t-260 116.5t-260 -116.5t-94 -321.5zM317 1560h158l188 -332h-119z" />
<glyph unicode="&#xf3;" horiz-adv-x="1208" d="M115 539q0 258 131.5 407t357.5 149t358 -149t132 -407t-132 -407.5t-358 -149.5t-357.5 149.5t-131.5 407.5zM250 539q0 -205 94 -321.5t260 -116.5t260 116.5t94 321.5t-94 321.5t-260 116.5t-260 -116.5t-94 -321.5zM545 1228l188 332h158l-227 -332h-119z" />
<glyph unicode="&#xf4;" horiz-adv-x="1208" d="M115 539q0 258 131.5 407t357.5 149t358 -149t132 -407t-132 -407.5t-358 -149.5t-357.5 149.5t-131.5 407.5zM250 539q0 -205 94 -321.5t260 -116.5t260 116.5t94 321.5t-94 321.5t-260 116.5t-260 -116.5t-94 -321.5zM280 1228l247 332h154l247 -332h-146l-172 243h-12 l-172 -243h-146z" />
<glyph unicode="&#xf5;" horiz-adv-x="1208" d="M115 539q0 258 131.5 407t357.5 149t358 -149t132 -407t-132 -407.5t-358 -149.5t-357.5 149.5t-131.5 407.5zM250 539q0 -205 94 -321.5t260 -116.5t260 116.5t94 321.5t-94 321.5t-260 116.5t-260 -116.5t-94 -321.5zM273 1246q0 121 53.5 190.5t147.5 69.5 q43 0 77 -16.5t55.5 -39.5t40.5 -46t41.5 -39.5t48.5 -16.5q88 0 88 160h110q0 -122 -54 -191t-150 -69q-43 0 -76.5 16t-54.5 38t-39.5 44.5t-40.5 38.5t-48 16q-42 0 -65.5 -39t-23.5 -116h-110z" />
<glyph unicode="&#xf6;" horiz-adv-x="1208" d="M115 539q0 258 131.5 407t357.5 149t358 -149t132 -407t-132 -407.5t-358 -149.5t-357.5 149.5t-131.5 407.5zM250 539q0 -205 94 -321.5t260 -116.5t260 116.5t94 321.5t-94 321.5t-260 116.5t-260 -116.5t-94 -321.5zM315 1398q0 40 28.5 68.5t68.5 28.5 q41 0 69.5 -28.5t28.5 -68.5t-28.5 -68.5t-69.5 -28.5q-40 0 -68.5 28.5t-28.5 68.5zM698 1398q0 40 28.5 68.5t69.5 28.5q40 0 68.5 -28.5t28.5 -68.5t-28.5 -68.5t-68.5 -28.5q-41 0 -69.5 28.5t-28.5 68.5z" />
<glyph unicode="&#xf7;" horiz-adv-x="1321" d="M190 513v117h941v-117h-941zM559 178q0 43 29.5 72t72.5 29t72 -29t29 -72q0 -44 -29 -72.5t-72 -28.5t-72.5 28.5t-29.5 72.5zM559 966q0 43 29.5 72t72.5 29t72 -29t29 -72q0 -44 -29 -72.5t-72 -28.5t-72.5 28.5t-29.5 72.5z" />
<glyph unicode="&#xf8;" horiz-adv-x="1208" d="M115 539q0 258 131.5 407t357.5 149q193 0 318 -110l95 110l75 -70l-101 -116q103 -145 103 -370q0 -257 -132 -407t-358 -150q-191 0 -318 110l-96 -111l-73 71l101 117q-103 143 -103 370zM244 539q0 -161 59 -271l540 625q-92 89 -239 89q-169 0 -264.5 -117.5 t-95.5 -325.5zM366 185q92 -89 238 -89q169 0 265 118t96 325q0 160 -59 270z" />
<glyph unicode="&#xf9;" horiz-adv-x="1193" d="M160 377v700h131v-667q0 -151 70.5 -229.5t208.5 -78.5q150 0 236.5 90.5t86.5 244.5v640h131v-1077h-125v194h-12q-41 -101 -132 -156.5t-219 -55.5q-179 0 -277.5 104.5t-98.5 290.5zM305 1560h158l188 -332h-119z" />
<glyph unicode="&#xfa;" horiz-adv-x="1193" d="M160 377v700h131v-667q0 -151 70.5 -229.5t208.5 -78.5q150 0 236.5 90.5t86.5 244.5v640h131v-1077h-125v194h-12q-41 -101 -132 -156.5t-219 -55.5q-179 0 -277.5 104.5t-98.5 290.5zM533 1228l188 332h158l-227 -332h-119z" />
<glyph unicode="&#xfb;" horiz-adv-x="1193" d="M160 377v700h131v-667q0 -151 70.5 -229.5t208.5 -78.5q150 0 236.5 90.5t86.5 244.5v640h131v-1077h-125v194h-12q-41 -101 -132 -156.5t-219 -55.5q-179 0 -277.5 104.5t-98.5 290.5zM268 1228l247 332h154l247 -332h-146l-172 243h-12l-172 -243h-146z" />
<glyph unicode="&#xfc;" horiz-adv-x="1193" d="M160 377v700h131v-667q0 -151 70.5 -229.5t208.5 -78.5q150 0 236.5 90.5t86.5 244.5v640h131v-1077h-125v194h-12q-41 -101 -132 -156.5t-219 -55.5q-179 0 -277.5 104.5t-98.5 290.5zM303 1398q0 40 28.5 68.5t68.5 28.5q41 0 69.5 -28.5t28.5 -68.5t-28.5 -68.5 t-69.5 -28.5q-40 0 -68.5 28.5t-28.5 68.5zM686 1398q0 40 28.5 68.5t69.5 28.5q40 0 68.5 -28.5t28.5 -68.5t-28.5 -68.5t-68.5 -28.5q-41 0 -69.5 28.5t-28.5 68.5z" />
<glyph unicode="&#xfd;" horiz-adv-x="1079" d="M67 1077h142l326 -934h12l325 934h140l-419 -1129q-72 -194 -144 -261.5t-204 -67.5q-27 0 -61 4v114q20 -4 59 -4q74 0 120 43t86 150l22 67zM477 1228l188 332h158l-227 -332h-119z" />
<glyph unicode="&#xfe;" horiz-adv-x="1252" d="M179 -371v1867h125v-639h12q50 111 148 174.5t221 63.5q205 0 329 -152.5t124 -403.5t-124.5 -404t-328.5 -153q-125 0 -221.5 59.5t-141.5 163.5h-12v-576h-131zM306 539q0 -198 96 -318t254 -120q160 0 253.5 118t93.5 319q0 202 -93.5 320.5t-252.5 118.5 q-158 0 -254.5 -120t-96.5 -318z" />
<glyph unicode="&#xff;" horiz-adv-x="1079" d="M67 1077h142l326 -934h12l325 934h140l-419 -1129q-72 -194 -144 -261.5t-204 -67.5q-27 0 -61 4v114q20 -4 59 -4q74 0 120 43t86 150l22 67zM247 1398q0 40 28.5 68.5t68.5 28.5q41 0 69.5 -28.5t28.5 -68.5t-28.5 -68.5t-69.5 -28.5q-40 0 -68.5 28.5t-28.5 68.5z M630 1398q0 40 28.5 68.5t69.5 28.5q40 0 68.5 -28.5t28.5 -68.5t-28.5 -68.5t-68.5 -28.5q-41 0 -69.5 28.5t-28.5 68.5z" />
<glyph unicode="&#x100;" horiz-adv-x="1363" d="M74 0l540 1443h136l539 -1443h-144l-160 442h-606l-160 -442h-145zM370 1690v106h624v-106h-624zM420 560h524l-256 704h-13z" />
<glyph unicode="&#x101;" horiz-adv-x="1125" d="M106 298q0 140 100 220.5t288 93.5l337 22v101q0 118 -70 180.5t-201 62.5q-111 0 -185 -44t-93 -123h-133q19 130 133 207t282 77q189 0 294 -94.5t105 -264.5v-736h-126v185h-12q-49 -96 -143 -149.5t-213 -53.5q-160 0 -261.5 86.5t-101.5 229.5zM241 300 q0 -92 70 -147t180 -55q145 0 242.5 87.5t97.5 215.5v126l-319 -23q-271 -19 -271 -204zM252 1345v105h624v-105h-624z" />
<glyph unicode="&#x102;" horiz-adv-x="1363" d="M74 0l540 1443h136l539 -1443h-144l-160 442h-606l-160 -442h-145zM359 1860h118q0 -82 54.5 -129t150.5 -47t150.5 47t54.5 129h118q0 -127 -86 -200.5t-237 -73.5t-237 73.5t-86 200.5zM420 560h524l-256 704h-13z" />
<glyph unicode="&#x103;" horiz-adv-x="1125" d="M106 298q0 140 100 220.5t288 93.5l337 22v101q0 118 -70 180.5t-201 62.5q-111 0 -185 -44t-93 -123h-133q19 130 133 207t282 77q189 0 294 -94.5t105 -264.5v-736h-126v185h-12q-49 -96 -143 -149.5t-213 -53.5q-160 0 -261.5 86.5t-101.5 229.5zM241 300 q0 -92 70 -147t180 -55q145 0 242.5 87.5t97.5 215.5v126l-319 -23q-271 -19 -271 -204zM244 1546h119q0 -96 51 -151t150 -55t150 55t51 151h119q0 -140 -84 -223t-236 -83t-236 83t-84 223z" />
<glyph unicode="&#x104;" horiz-adv-x="1363" d="M74 0l540 1443h136l539 -1443q-180 -107 -180 -208q0 -49 30.5 -74t81.5 -25q35 0 74 13v-105q-55 -19 -108 -19q-86 0 -146.5 45.5t-60.5 132.5q0 129 163 245l-158 437h-606l-160 -442h-145zM420 560h524l-256 704h-13z" />
<glyph unicode="&#x105;" horiz-adv-x="1125" d="M106 298q0 140 100 220.5t288 93.5l337 22v101q0 118 -70 180.5t-201 62.5q-111 0 -185 -44t-93 -123h-133q19 130 133 207t282 77q189 0 294 -94.5t105 -264.5v-736q-180 -107 -180 -208q0 -49 30 -74t81 -25q36 0 75 13v-105q-55 -19 -108 -19q-86 0 -146.5 45.5 t-60.5 132.5q0 136 183 259v166h-12q-49 -96 -143 -149.5t-213 -53.5q-160 0 -261.5 86.5t-101.5 229.5zM241 300q0 -92 70 -147t180 -55q145 0 242.5 87.5t97.5 215.5v126l-319 -23q-271 -19 -271 -204z" />
<glyph unicode="&#x106;" horiz-adv-x="1455" d="M127 721q0 347 171 549.5t464 202.5q147 0 271.5 -60.5t205 -168t99.5 -242.5h-139q-31 153 -152.5 248.5t-284.5 95.5q-227 0 -361 -169.5t-134 -455.5q0 -287 134 -455.5t362 -168.5q167 0 286.5 86t149.5 228h139q-31 -199 -188.5 -320t-386.5 -121q-294 0 -465 202 t-171 549zM707 1576l185 298h164l-230 -298h-119z" />
<glyph unicode="&#x107;" horiz-adv-x="1145" d="M115 542q0 253 131.5 403t353.5 150q180 0 298.5 -94.5t143.5 -240.5h-133q-26 96 -107.5 156.5t-201.5 60.5q-161 0 -255.5 -118t-94.5 -317q0 -202 95 -321.5t255 -119.5q120 0 201.5 55t106.5 154h133q-25 -148 -142 -238t-298 -90q-223 0 -354.5 151.5t-131.5 408.5z M539 1228l188 332h158l-227 -332h-119z" />
<glyph unicode="&#x108;" horiz-adv-x="1455" d="M127 721q0 347 171 549.5t464 202.5q147 0 271.5 -60.5t205 -168t99.5 -242.5h-139q-31 153 -152.5 248.5t-284.5 95.5q-227 0 -361 -169.5t-134 -455.5q0 -287 134 -455.5t362 -168.5q167 0 286.5 86t149.5 228h139q-31 -199 -188.5 -320t-386.5 -121q-294 0 -465 202 t-171 549zM411 1577l289 297h124l289 -297h-155l-190 202h-12l-190 -202h-155z" />
<glyph unicode="&#x109;" horiz-adv-x="1145" d="M115 542q0 253 131.5 403t353.5 150q180 0 298.5 -94.5t143.5 -240.5h-133q-26 96 -107.5 156.5t-201.5 60.5q-161 0 -255.5 -118t-94.5 -317q0 -202 95 -321.5t255 -119.5q120 0 201.5 55t106.5 154h133q-25 -148 -142 -238t-298 -90q-223 0 -354.5 151.5t-131.5 408.5z M274 1228l247 332h154l247 -332h-146l-172 243h-12l-172 -243h-146z" />
<glyph unicode="&#x10a;" horiz-adv-x="1455" d="M127 721q0 347 171 549.5t464 202.5q147 0 271.5 -60.5t205 -168t99.5 -242.5h-139q-31 153 -152.5 248.5t-284.5 95.5q-227 0 -361 -169.5t-134 -455.5q0 -287 134 -455.5t362 -168.5q167 0 286.5 86t149.5 228h139q-31 -199 -188.5 -320t-386.5 -121q-294 0 -465 202 t-171 549zM665 1744q0 40 28.5 68.5t68.5 28.5t68.5 -28.5t28.5 -68.5q0 -41 -28.5 -69.5t-68.5 -28.5t-68.5 28.5t-28.5 69.5z" />
<glyph unicode="&#x10b;" horiz-adv-x="1145" d="M115 542q0 253 131.5 403t353.5 150q180 0 298.5 -94.5t143.5 -240.5h-133q-26 96 -107.5 156.5t-201.5 60.5q-161 0 -255.5 -118t-94.5 -317q0 -202 95 -321.5t255 -119.5q120 0 201.5 55t106.5 154h133q-25 -148 -142 -238t-298 -90q-223 0 -354.5 151.5t-131.5 408.5z M501 1398q0 40 28.5 68.5t68.5 28.5t68.5 -28.5t28.5 -68.5t-28.5 -68.5t-68.5 -28.5t-68.5 28.5t-28.5 68.5z" />
<glyph unicode="&#x10c;" horiz-adv-x="1455" d="M127 721q0 347 171 549.5t464 202.5q147 0 271.5 -60.5t205 -168t99.5 -242.5h-139q-31 153 -152.5 248.5t-284.5 95.5q-227 0 -361 -169.5t-134 -455.5q0 -287 134 -455.5t362 -168.5q167 0 286.5 86t149.5 228h139q-31 -199 -188.5 -320t-386.5 -121q-294 0 -465 202 t-171 549zM411 1874h155l190 -202h12l190 202h155l-289 -297h-124z" />
<glyph unicode="&#x10d;" horiz-adv-x="1145" d="M115 542q0 253 131.5 403t353.5 150q180 0 298.5 -94.5t143.5 -240.5h-133q-26 96 -107.5 156.5t-201.5 60.5q-161 0 -255.5 -118t-94.5 -317q0 -202 95 -321.5t255 -119.5q120 0 201.5 55t106.5 154h133q-25 -148 -142 -238t-298 -90q-223 0 -354.5 151.5t-131.5 408.5z M274 1560h146l172 -243h12l172 243h146l-247 -332h-154z" />
<glyph unicode="&#x10e;" horiz-adv-x="1472" d="M185 0v1443h475q327 0 506 -191t179 -530q0 -340 -178.5 -531t-506.5 -191h-475zM254 1874h155l190 -202h12l190 202h155l-289 -297h-124zM322 124h330q263 0 408 158t145 439t-145 439.5t-408 158.5h-330v-1195z" />
<glyph unicode="&#x10f;" horiz-adv-x="1377" d="M115 538q0 250 125.5 403.5t330.5 153.5q123 0 220 -61t143 -167h12v639h131v-1506h-126v215h-12q-48 -108 -146.5 -170.5t-221.5 -62.5q-206 0 -331 152.5t-125 403.5zM250 539q0 -201 94.5 -319.5t254.5 -118.5q159 0 254 119t95 319q0 198 -95.5 318t-253.5 120 q-160 0 -254.5 -119t-94.5 -319zM1219 1107l4 453h137l-49 -453h-92z" />
<glyph unicode="&#x110;" horiz-adv-x="1472" d="M23 682v123h162v638h475q327 0 506 -191t179 -530q0 -340 -178.5 -531t-506.5 -191h-475v682h-162zM322 124h330q263 0 408 158t145 439t-145 439.5t-408 158.5h-330v-514h339v-123h-339v-558z" />
<glyph unicode="&#x111;" horiz-adv-x="1256" d="M115 538q0 250 125.5 403.5t330.5 153.5q123 0 220 -61t143 -167h12v412h-273v111h273v116h131v-116h164v-111h-164v-1279h-126v215h-12q-48 -108 -146.5 -170.5t-221.5 -62.5q-206 0 -331 152.5t-125 403.5zM250 539q0 -201 94.5 -319.5t254.5 -118.5q159 0 254 119 t95 319q0 198 -95.5 318t-253.5 120q-160 0 -254.5 -119t-94.5 -319z" />
<glyph unicode="&#x112;" horiz-adv-x="1197" d="M185 0v1443h872v-124h-735v-519h698v-122h-698v-554h735v-124h-872zM309 1690v106h624v-106h-624z" />
<glyph unicode="&#x113;" horiz-adv-x="1174" d="M115 538q0 254 130.5 405.5t350.5 151.5q215 0 339 -143t124 -390v-58h-809v-6q5 -183 99.5 -291t250.5 -108q114 0 194 43.5t115 123.5h133q-38 -131 -157 -207.5t-288 -76.5q-222 0 -352 150.5t-130 405.5zM251 612h671q-2 167 -91.5 267t-235.5 100 q-147 0 -241 -100.5t-103 -266.5zM283 1345v105h624v-105h-624z" />
<glyph unicode="&#x114;" horiz-adv-x="1197" d="M185 0v1443h872v-124h-735v-519h698v-122h-698v-554h735v-124h-872zM298 1860h118q0 -82 54.5 -129t150.5 -47t150.5 47t54.5 129h118q0 -127 -86 -200.5t-237 -73.5t-237 73.5t-86 200.5z" />
<glyph unicode="&#x115;" horiz-adv-x="1174" d="M115 538q0 254 130.5 405.5t350.5 151.5q215 0 339 -143t124 -390v-58h-809v-6q5 -183 99.5 -291t250.5 -108q114 0 194 43.5t115 123.5h133q-38 -131 -157 -207.5t-288 -76.5q-222 0 -352 150.5t-130 405.5zM251 612h671q-2 167 -91.5 267t-235.5 100 q-147 0 -241 -100.5t-103 -266.5zM275 1546h119q0 -96 51 -151t150 -55t150 55t51 151h119q0 -140 -84 -223t-236 -83t-236 83t-84 223z" />
<glyph unicode="&#x116;" horiz-adv-x="1197" d="M185 0v1443h872v-124h-735v-519h698v-122h-698v-554h735v-124h-872zM524 1744q0 40 28.5 68.5t68.5 28.5t68.5 -28.5t28.5 -68.5q0 -41 -28.5 -69.5t-68.5 -28.5t-68.5 28.5t-28.5 69.5z" />
<glyph unicode="&#x117;" horiz-adv-x="1174" d="M115 538q0 254 130.5 405.5t350.5 151.5q215 0 339 -143t124 -390v-58h-809v-6q5 -183 99.5 -291t250.5 -108q114 0 194 43.5t115 123.5h133q-38 -131 -157 -207.5t-288 -76.5q-222 0 -352 150.5t-130 405.5zM251 612h671q-2 167 -91.5 267t-235.5 100 q-147 0 -241 -100.5t-103 -266.5zM498 1398q0 40 28 68.5t69 28.5t69 -28.5t28 -68.5t-28 -68.5t-69 -28.5t-69 28.5t-28 68.5z" />
<glyph unicode="&#x118;" horiz-adv-x="1197" d="M185 0v1443h872v-124h-735v-519h698v-122h-698v-554h735v-124q-180 -107 -180 -208q0 -49 30.5 -74t81.5 -25q35 0 74 13v-105q-55 -19 -108 -19q-86 0 -146.5 45.5t-60.5 132.5q0 125 156 240h-719z" />
<glyph unicode="&#x119;" horiz-adv-x="1174" d="M115 538q0 254 130.5 405.5t350.5 151.5q215 0 339 -143t124 -390v-58h-809v-6q5 -183 99.5 -291t250.5 -108q114 0 194 43.5t115 123.5h133q-32 -107 -115 -176q-114 -111 -147 -151q-69 -85 -69 -150q0 -39 25.5 -68t82.5 -29q35 0 79 14v-105q-55 -19 -108 -19 q-86 0 -147 45t-61 130q0 109 135 236q-58 -11 -120 -11q-222 0 -352 150.5t-130 405.5zM251 612h671q-2 167 -91.5 267t-235.5 100q-147 0 -241 -100.5t-103 -266.5z" />
<glyph unicode="&#x11a;" horiz-adv-x="1197" d="M185 0v1443h872v-124h-735v-519h698v-122h-698v-554h735v-124h-872zM270 1874h155l190 -202h12l190 202h155l-289 -297h-124z" />
<glyph unicode="&#x11b;" horiz-adv-x="1174" d="M115 538q0 254 130.5 405.5t350.5 151.5q215 0 339 -143t124 -390v-58h-809v-6q5 -183 99.5 -291t250.5 -108q114 0 194 43.5t115 123.5h133q-38 -131 -157 -207.5t-288 -76.5q-222 0 -352 150.5t-130 405.5zM251 612h671q-2 167 -91.5 267t-235.5 100 q-147 0 -241 -100.5t-103 -266.5zM271 1560h146l172 -243h12l172 243h146l-247 -332h-154z" />
<glyph unicode="&#x11c;" horiz-adv-x="1506" d="M127 722q0 339 176 545t467 206q231 0 391.5 -123t199.5 -329h-139q-45 155 -163 240t-289 85q-229 0 -366 -170t-137 -454q0 -285 137.5 -455t368.5 -170q212 0 339 123.5t127 327.5v50h-440v121h576v-160q0 -268 -164 -428.5t-438 -160.5q-293 0 -469.5 205.5 t-176.5 546.5zM419 1577l289 297h124l289 -297h-155l-190 202h-12l-190 -202h-155z" />
<glyph unicode="&#x11d;" horiz-adv-x="1242" d="M115 552q0 244 124 393.5t330 149.5q123 0 223 -63t144 -168h12v213h126v-1093q0 -176 -128 -282t-340 -106q-184 0 -301 75.5t-138 202.5h139q18 -75 98 -119t202 -44q156 0 246.5 76t90.5 207v242h-13q-48 -107 -142.5 -166t-218.5 -59q-207 0 -330.5 148.5 t-123.5 392.5zM250 552q0 -193 92.5 -308.5t252.5 -115.5q161 0 255.5 115t94.5 307q0 193 -95.5 310t-254.5 117q-160 0 -252.5 -115.5t-92.5 -309.5zM294 1228l247 332h154l247 -332h-146l-172 243h-12l-172 -243h-146z" />
<glyph unicode="&#x11e;" horiz-adv-x="1506" d="M127 722q0 339 176 545t467 206q231 0 391.5 -123t199.5 -329h-139q-45 155 -163 240t-289 85q-229 0 -366 -170t-137 -454q0 -285 137.5 -455t368.5 -170q212 0 339 123.5t127 327.5v50h-440v121h576v-160q0 -268 -164 -428.5t-438 -160.5q-293 0 -469.5 205.5 t-176.5 546.5zM447 1860h118q0 -82 54.5 -129t150.5 -47t150.5 47t54.5 129h118q0 -127 -86 -200.5t-237 -73.5t-237 73.5t-86 200.5z" />
<glyph unicode="&#x11f;" horiz-adv-x="1242" d="M115 552q0 244 124 393.5t330 149.5q123 0 223 -63t144 -168h12v213h126v-1093q0 -176 -128 -282t-340 -106q-184 0 -301 75.5t-138 202.5h139q18 -75 98 -119t202 -44q156 0 246.5 76t90.5 207v242h-13q-48 -107 -142.5 -166t-218.5 -59q-207 0 -330.5 148.5 t-123.5 392.5zM250 552q0 -193 92.5 -308.5t252.5 -115.5q161 0 255.5 115t94.5 307q0 193 -95.5 310t-254.5 117q-160 0 -252.5 -115.5t-92.5 -309.5zM298 1546h119q0 -96 51 -151t150 -55t150 55t51 151h119q0 -140 -84 -223t-236 -83t-236 83t-84 223z" />
<glyph unicode="&#x120;" horiz-adv-x="1506" d="M127 722q0 339 176 545t467 206q231 0 391.5 -123t199.5 -329h-139q-45 155 -163 240t-289 85q-229 0 -366 -170t-137 -454q0 -285 137.5 -455t368.5 -170q212 0 339 123.5t127 327.5v50h-440v121h576v-160q0 -268 -164 -428.5t-438 -160.5q-293 0 -469.5 205.5 t-176.5 546.5zM673 1744q0 40 28.5 68.5t68.5 28.5t68.5 -28.5t28.5 -68.5q0 -41 -28.5 -69.5t-68.5 -28.5t-68.5 28.5t-28.5 69.5z" />
<glyph unicode="&#x121;" horiz-adv-x="1242" d="M115 552q0 244 124 393.5t330 149.5q123 0 223 -63t144 -168h12v213h126v-1093q0 -176 -128 -282t-340 -106q-184 0 -301 75.5t-138 202.5h139q18 -75 98 -119t202 -44q156 0 246.5 76t90.5 207v242h-13q-48 -107 -142.5 -166t-218.5 -59q-207 0 -330.5 148.5 t-123.5 392.5zM250 552q0 -193 92.5 -308.5t252.5 -115.5q161 0 255.5 115t94.5 307q0 193 -95.5 310t-254.5 117q-160 0 -252.5 -115.5t-92.5 -309.5zM521 1398q0 40 28.5 68.5t68.5 28.5t68.5 -28.5t28.5 -68.5t-28.5 -68.5t-68.5 -28.5t-68.5 28.5t-28.5 68.5z" />
<glyph unicode="&#x122;" horiz-adv-x="1506" d="M127 722q0 339 176 545t467 206q231 0 391.5 -123t199.5 -329h-139q-45 155 -163 240t-289 85q-229 0 -366 -170t-137 -454q0 -285 137.5 -455t368.5 -170q212 0 339 123.5t127 327.5v50h-440v121h576v-160q0 -268 -164 -428.5t-438 -160.5q-293 0 -469.5 205.5 t-176.5 546.5zM614 -489l88 364h142l-130 -364h-100z" />
<glyph unicode="&#x123;" horiz-adv-x="1242" d="M115 552q0 244 124 393.5t330 149.5q123 0 223 -63t144 -168h12v213h126v-1093q0 -176 -128 -282t-340 -106q-184 0 -301 75.5t-138 202.5h139q18 -75 98 -119t202 -44q156 0 246.5 76t90.5 207v242h-13q-48 -107 -142.5 -166t-218.5 -59q-207 0 -330.5 148.5 t-123.5 392.5zM250 552q0 -193 92.5 -308.5t252.5 -115.5q161 0 255.5 115t94.5 307q0 193 -95.5 310t-254.5 117q-160 0 -252.5 -115.5t-92.5 -309.5zM548 1228l129 364h100l-88 -364h-141z" />
<glyph unicode="&#x124;" horiz-adv-x="1488" d="M185 0v1443h137v-642h844v642h137v-1443h-137v677h-844v-677h-137zM393 1577l289 297h124l289 -297h-155l-190 202h-12l-190 -202h-155z" />
<glyph unicode="&#x125;" horiz-adv-x="1210" d="M-107 1640l289 297h124l289 -297h-155l-190 202h-12l-190 -202h-155zM179 0v1506h131v-623h12q44 101 135 156.5t219 55.5q174 0 274 -104.5t100 -290.5v-700h-131v667q0 152 -71.5 231t-206.5 79q-151 0 -241 -93.5t-90 -243.5v-640h-131z" />
<glyph unicode="&#x126;" horiz-adv-x="1488" d="M46 1084v124h139v235h137v-235h844v235h137v-235h139v-124h-139v-1084h-137v677h-844v-677h-137v1084h-139zM322 801h844v283h-844v-283z" />
<glyph unicode="&#x127;" horiz-adv-x="1210" d="M28 1277v111h151v118h131v-118h284v-111h-284v-394h12q44 101 135 156.5t219 55.5q174 0 274 -104.5t100 -290.5v-700h-131v667q0 152 -71.5 231t-206.5 79q-151 0 -241 -93.5t-90 -243.5v-640h-131v1277h-151z" />
<glyph unicode="&#x128;" horiz-adv-x="507" d="M-77 1591q0 122 53.5 191t147.5 69q43 0 77 -16.5t55.5 -39.5t40.5 -46t41.5 -39.5t48.5 -16.5q88 0 88 160h110q0 -121 -54 -190t-150 -69q-43 0 -76.5 16t-54.5 38t-39.5 44.5t-40.5 38.5t-48 16q-42 0 -65.5 -39.5t-23.5 -116.5h-110zM185 0v1443h137v-1443h-137z" />
<glyph unicode="&#x129;" horiz-adv-x="480" d="M-91 1246q0 121 53.5 190.5t147.5 69.5q43 0 77 -16.5t55.5 -39.5t40.5 -46t41.5 -39.5t48.5 -16.5q88 0 88 160h110q0 -122 -54 -191t-150 -69q-43 0 -76.5 16t-54.5 38t-39.5 44.5t-40.5 38.5t-48 16q-42 0 -65.5 -39t-23.5 -116h-110zM175 0v1077h131v-1077h-131z" />
<glyph unicode="&#x12a;" horiz-adv-x="507" d="M-58 1690v106h624v-106h-624zM185 0v1443h137v-1443h-137z" />
<glyph unicode="&#x12b;" horiz-adv-x="480" d="M-25 1345v105h530v-105h-530zM175 0v1077h131v-1077h-131z" />
<glyph unicode="&#x12c;" horiz-adv-x="507" d="M-69 1860h118q0 -82 54.5 -129t150.5 -47t150.5 47t54.5 129h118q0 -127 -86 -200.5t-237 -73.5t-237 73.5t-86 200.5zM185 0v1443h137v-1443h-137z" />
<glyph unicode="&#x12d;" horiz-adv-x="480" d="M-80 1546h119q0 -96 51 -151t150 -55t150 55t51 151h119q0 -140 -84 -223t-236 -83t-236 83t-84 223zM175 0v1077h131v-1077h-131z" />
<glyph unicode="&#x12e;" horiz-adv-x="507" d="M13 -240q0 132 172 251v1432h137v-1443q-180 -107 -180 -208q0 -49 30.5 -74t81.5 -25q35 0 74 13v-105q-55 -19 -108 -19q-86 0 -146.5 45.5t-60.5 132.5z" />
<glyph unicode="&#x12f;" horiz-adv-x="480" d="M-3 -240q0 134 178 255v1062h131v-1077q-180 -107 -180 -208q0 -49 30.5 -74t81.5 -25q35 0 74 13v-105q-55 -19 -108 -19q-86 0 -146.5 45.5t-60.5 132.5zM143 1398q0 40 28.5 68.5t68.5 28.5t68.5 -28.5t28.5 -68.5t-28.5 -68.5t-68.5 -28.5t-68.5 28.5t-28.5 68.5z " />
<glyph unicode="&#x130;" horiz-adv-x="507" d="M157 1744q0 40 28.5 68.5t68.5 28.5t68.5 -28.5t28.5 -68.5q0 -41 -28.5 -69.5t-68.5 -28.5t-68.5 28.5t-28.5 69.5zM185 0v1443h137v-1443h-137z" />
<glyph unicode="&#x131;" horiz-adv-x="480" d="M175 0v1077h131v-1077h-131z" />
<glyph unicode="&#x132;" horiz-adv-x="1595" d="M185 0v1443h137v-1443h-137zM599 330h136q5 -103 78 -168t186 -65q131 0 202.5 78.5t71.5 222.5v1045h137v-1050q0 -197 -110 -310t-300 -113q-175 0 -287.5 100.5t-113.5 259.5z" />
<glyph unicode="&#x133;" horiz-adv-x="961" d="M143 1398q0 40 28.5 68.5t68.5 28.5t68.5 -28.5t28.5 -68.5t-28.5 -68.5t-68.5 -28.5t-68.5 28.5t-28.5 68.5zM175 0v1077h131v-1077h-131zM459 -254h21q94 0 134.5 42.5t40.5 139.5v1149h131v-1145q0 -156 -74.5 -227.5t-228.5 -71.5h-24v113zM625 1398q0 40 28.5 68.5 t68.5 28.5t68.5 -28.5t28.5 -68.5t-28.5 -68.5t-68.5 -28.5t-68.5 28.5t-28.5 68.5z" />
<glyph unicode="&#x134;" horiz-adv-x="1088" d="M92 330h136q5 -103 78 -168t186 -65q131 0 202.5 78.5t71.5 222.5v1045h137v-1050q0 -197 -110 -310t-300 -113q-175 0 -287.5 100.5t-113.5 259.5zM484 1577l289 297h124l289 -297h-155l-190 202h-12l-190 -202h-155z" />
<glyph unicode="&#x135;" horiz-adv-x="480" d="M-82 1228l247 332h154l247 -332h-146l-172 243h-12l-172 -243h-146zM-21 -254h21q94 0 134.5 42.5t40.5 139.5v1149h131v-1145q0 -156 -74.5 -227.5t-228.5 -71.5h-24v113z" />
<glyph unicode="&#x136;" horiz-adv-x="1311" d="M185 0v1443h137v-746h12l683 746h171l-578 -623l637 -820h-177l-555 725l-193 -210v-515h-137zM478 -489l88 364h142l-130 -364h-100z" />
<glyph unicode="&#x137;" horiz-adv-x="1092" d="M179 0v1506h131v-933h12l526 504h164l-481 -462l503 -615h-168l-434 531l-122 -113v-418h-131zM423 -489l88 364h142l-130 -364h-100z" />
<glyph unicode="&#x139;" horiz-adv-x="1139" d="M185 0v1443h137v-1319h722v-124h-859zM199 1576l185 298h164l-230 -298h-119z" />
<glyph unicode="&#x13a;" horiz-adv-x="489" d="M179 0v1506h131v-1506h-131zM189 1639l185 298h164l-230 -298h-119z" />
<glyph unicode="&#x13b;" horiz-adv-x="1139" d="M185 0v1443h137v-1319h722v-124h-859zM456 -489l88 364h142l-130 -364h-100z" />
<glyph unicode="&#x13c;" horiz-adv-x="489" d="M85 -489l88 364h142l-130 -364h-100zM179 0v1506h131v-1506h-131z" />
<glyph unicode="&#x13d;" horiz-adv-x="1139" d="M185 0v1443h137v-1319h722v-124h-859zM591 1068v492h133l-41 -492h-92z" />
<glyph unicode="&#x13e;" horiz-adv-x="610" d="M179 0v1506h131v-1506h-131zM453 1107l4 453h136l-48 -453h-92z" />
<glyph unicode="&#x141;" horiz-adv-x="1139" d="M17 641v110l168 83v609h137v-541l312 154v-111l-312 -154v-667h722v-124h-859v724z" />
<glyph unicode="&#x142;" horiz-adv-x="489" d="M42 655v113l137 72v666h131v-596l137 72v-113l-137 -72v-797h-131v727z" />
<glyph unicode="&#x143;" horiz-adv-x="1494" d="M185 0v1443h135l841 -1198h13v1198h135v-1443h-132l-844 1199h-13v-1199h-135zM692 1576l185 298h164l-230 -298h-119z" />
<glyph unicode="&#x144;" horiz-adv-x="1192" d="M169 0v1077h125v-194h13q43 101 132 156.5t216 55.5q180 0 278.5 -103.5t98.5 -291.5v-700h-131v667q0 310 -281 310q-143 0 -231.5 -92.5t-88.5 -244.5v-640h-131zM542 1228l188 332h158l-227 -332h-119z" />
<glyph unicode="&#x145;" horiz-adv-x="1494" d="M185 0v1443h135l841 -1198h13v1198h135v-1443h-132l-844 1199h-13v-1199h-135zM588 -489l88 364h142l-130 -364h-100z" />
<glyph unicode="&#x146;" horiz-adv-x="1192" d="M169 0v1077h125v-194h13q43 101 132 156.5t216 55.5q180 0 278.5 -103.5t98.5 -291.5v-700h-131v667q0 310 -281 310q-143 0 -231.5 -92.5t-88.5 -244.5v-640h-131zM442 -489l88 364h142l-130 -364h-100z" />
<glyph unicode="&#x147;" horiz-adv-x="1494" d="M185 0v1443h135l841 -1198h13v1198h135v-1443h-132l-844 1199h-13v-1199h-135zM396 1874h155l190 -202h12l190 202h155l-289 -297h-124z" />
<glyph unicode="&#x148;" horiz-adv-x="1192" d="M169 0v1077h125v-194h13q43 101 132 156.5t216 55.5q180 0 278.5 -103.5t98.5 -291.5v-700h-131v667q0 310 -281 310q-143 0 -231.5 -92.5t-88.5 -244.5v-640h-131zM277 1560h146l172 -243h12l172 243h146l-247 -332h-154z" />
<glyph unicode="&#x14b;" horiz-adv-x="1192" d="M169 0v1077h125v-194h13q43 101 132 156.5t216 55.5q180 0 278.5 -103.5t98.5 -291.5v-809q0 -258 -251 -258q-71 0 -121 26v107q36 -17 85 -17q75 0 115.5 34.5t40.5 123.5v760q0 310 -281 310q-143 0 -231.5 -92.5t-88.5 -244.5v-640h-131z" />
<glyph unicode="&#x14c;" horiz-adv-x="1561" d="M127 722q0 347 176 549t478 202t477.5 -202.5t175.5 -548.5t-175 -549t-478 -203q-304 0 -479 202.5t-175 549.5zM267 722q0 -286 138 -455.5t376 -169.5q236 0 374.5 169.5t138.5 455.5q0 287 -138.5 455.5t-374.5 168.5t-375 -168.5t-139 -455.5zM469 1690v106h624 v-106h-624z" />
<glyph unicode="&#x14d;" horiz-adv-x="1208" d="M115 539q0 258 131.5 407t357.5 149t358 -149t132 -407t-132 -407.5t-358 -149.5t-357.5 149.5t-131.5 407.5zM250 539q0 -205 94 -321.5t260 -116.5t260 116.5t94 321.5t-94 321.5t-260 116.5t-260 -116.5t-94 -321.5zM292 1345v105h624v-105h-624z" />
<glyph unicode="&#x14e;" horiz-adv-x="1561" d="M127 722q0 347 176 549t478 202t477.5 -202.5t175.5 -548.5t-175 -549t-478 -203q-304 0 -479 202.5t-175 549.5zM267 722q0 -286 138 -455.5t376 -169.5q236 0 374.5 169.5t138.5 455.5q0 287 -138.5 455.5t-374.5 168.5t-375 -168.5t-139 -455.5zM458 1860h118 q0 -82 54.5 -129t150.5 -47t150.5 47t54.5 129h118q0 -127 -86 -200.5t-237 -73.5t-237 73.5t-86 200.5z" />
<glyph unicode="&#x14f;" horiz-adv-x="1208" d="M115 539q0 258 131.5 407t357.5 149t358 -149t132 -407t-132 -407.5t-358 -149.5t-357.5 149.5t-131.5 407.5zM250 539q0 -205 94 -321.5t260 -116.5t260 116.5t94 321.5t-94 321.5t-260 116.5t-260 -116.5t-94 -321.5zM284 1546h119q0 -96 51 -151t150 -55t150 55 t51 151h119q0 -140 -84 -223t-236 -83t-236 83t-84 223z" />
<glyph unicode="&#x150;" horiz-adv-x="1561" d="M127 722q0 347 176 549t478 202t477.5 -202.5t175.5 -548.5t-175 -549t-478 -203q-304 0 -479 202.5t-175 549.5zM267 722q0 -286 138 -455.5t376 -169.5q236 0 374.5 169.5t138.5 455.5q0 287 -138.5 455.5t-374.5 168.5t-375 -168.5t-139 -455.5zM563 1577l145 297h147 l-181 -297h-111zM869 1577l173 297h157l-219 -297h-111z" />
<glyph unicode="&#x151;" horiz-adv-x="1208" d="M115 539q0 258 131.5 407t357.5 149t358 -149t132 -407t-132 -407.5t-358 -149.5t-357.5 149.5t-131.5 407.5zM250 539q0 -205 94 -321.5t260 -116.5t260 116.5t94 321.5t-94 321.5t-260 116.5t-260 -116.5t-94 -321.5zM397 1228l135 332h153l-183 -332h-105zM687 1228 l181 332h157l-227 -332h-111z" />
<glyph unicode="&#x152;" horiz-adv-x="2321" d="M127 722q0 345 174.5 548t472.5 203q173 0 315 -88t208 -237h12v295h872v-124h-748v-519h711v-122h-711v-554h748v-124h-872v302h-12q-66 -153 -207 -242.5t-316 -89.5q-299 0 -473 202.5t-174 549.5zM267 722q0 -289 140 -457t381 -168q234 0 370 168t136 457 t-136 456.5t-370 167.5q-240 0 -380.5 -168t-140.5 -456z" />
<glyph unicode="&#x153;" horiz-adv-x="2018" d="M115 539q0 257 131.5 407t357.5 150q148 0 260 -77t156 -208h13q44 131 153.5 207.5t252.5 76.5q214 0 339 -143.5t125 -389.5v-57h-808v-6q4 -182 99 -291t250 -109q114 0 194.5 43.5t114.5 123.5h133q-40 -132 -158 -208t-286 -76q-148 0 -261.5 78t-148.5 203h-12 q-35 -126 -150 -203.5t-266 -77.5q-226 0 -357.5 150t-131.5 407zM250 539q0 -205 94 -321.5t260 -116.5t260 116t94 320q0 206 -94.5 323t-259.5 117q-166 0 -260 -116.5t-94 -321.5zM1095 613h671q-2 164 -92.5 265t-235.5 101q-146 0 -239.5 -100t-103.5 -266z" />
<glyph unicode="&#x154;" horiz-adv-x="1309" d="M185 0v1443h517q211 0 336 -114.5t125 -307.5q0 -153 -82 -261.5t-227 -146.5l350 -613h-160l-332 591h-21h-369v-591h-137zM322 713h369q157 0 244.5 80t87.5 224q0 142 -90 223t-248 81h-363v-608zM536 1576l185 298h164l-230 -298h-119z" />
<glyph unicode="&#x155;" horiz-adv-x="764" d="M169 0v1077h125v-177h13q27 88 110 141.5t190 53.5q64 0 101 -9v-131q-45 13 -117 13q-125 0 -208 -84.5t-83 -211.5v-672h-131zM315 1228l188 332h158l-227 -332h-119z" />
<glyph unicode="&#x156;" horiz-adv-x="1309" d="M185 0v1443h517q211 0 336 -114.5t125 -307.5q0 -153 -82 -261.5t-227 -146.5l350 -613h-160l-332 591h-21h-369v-591h-137zM322 713h369q157 0 244.5 80t87.5 224q0 142 -90 223t-248 81h-363v-608zM441 -489l88 364h142l-130 -364h-100z" />
<glyph unicode="&#x157;" horiz-adv-x="764" d="M75 -489l88 364h142l-130 -364h-100zM169 0v1077h125v-177h13q27 88 110 141.5t190 53.5q64 0 101 -9v-131q-45 13 -117 13q-125 0 -208 -84.5t-83 -211.5v-672h-131z" />
<glyph unicode="&#x158;" horiz-adv-x="1309" d="M185 0v1443h517q211 0 336 -114.5t125 -307.5q0 -153 -82 -261.5t-227 -146.5l350 -613h-160l-332 591h-21h-369v-591h-137zM240 1874h155l190 -202h12l190 202h155l-289 -297h-124zM322 713h369q157 0 244.5 80t87.5 224q0 142 -90 223t-248 81h-363v-608z" />
<glyph unicode="&#x159;" horiz-adv-x="764" d="M50 1560h146l172 -243h12l172 243h146l-247 -332h-154zM169 0v1077h125v-177h13q27 88 110 141.5t190 53.5q64 0 101 -9v-131q-45 13 -117 13q-125 0 -208 -84.5t-83 -211.5v-672h-131z" />
<glyph unicode="&#x15a;" horiz-adv-x="1284" d="M115 375h138q14 -124 126.5 -202t277.5 -78q161 0 266 80t105 201q0 102 -77.5 170t-244.5 109l-165 42q-203 50 -294 139.5t-91 236.5q0 176 137.5 288t356.5 112q206 0 345 -108.5t150 -274.5h-138q-17 116 -114.5 187t-246.5 71q-155 0 -252.5 -76.5t-97.5 -194.5 q0 -94 72 -153.5t237 -100.5l143 -36q223 -55 321.5 -148.5t98.5 -247.5q0 -189 -143.5 -305t-379.5 -116q-224 0 -370.5 112t-159.5 293zM595 1576l185 298h164l-230 -298h-119z" />
<glyph unicode="&#x15b;" horiz-adv-x="1058" d="M111 270h136q22 -82 97 -129t191 -47q119 0 198 55t79 139q0 70 -51 113.5t-160 69.5l-163 39q-152 37 -223 103.5t-71 178.5q0 129 112.5 216t276.5 87q163 0 270 -75.5t125 -203.5h-129q-18 76 -89.5 121.5t-177.5 45.5q-107 0 -181.5 -53t-74.5 -133q0 -66 52 -107 t162 -67l148 -35q159 -38 234 -106.5t75 -183.5q0 -138 -119 -227t-297 -89q-176 0 -290 77.5t-130 210.5zM471 1228l188 332h158l-227 -332h-119z" />
<glyph unicode="&#x15c;" horiz-adv-x="1284" d="M115 375h138q14 -124 126.5 -202t277.5 -78q161 0 266 80t105 201q0 102 -77.5 170t-244.5 109l-165 42q-203 50 -294 139.5t-91 236.5q0 176 137.5 288t356.5 112q206 0 345 -108.5t150 -274.5h-138q-17 116 -114.5 187t-246.5 71q-155 0 -252.5 -76.5t-97.5 -194.5 q0 -94 72 -153.5t237 -100.5l143 -36q223 -55 321.5 -148.5t98.5 -247.5q0 -189 -143.5 -305t-379.5 -116q-224 0 -370.5 112t-159.5 293zM299 1577l289 297h124l289 -297h-155l-190 202h-12l-190 -202h-155z" />
<glyph unicode="&#x15d;" horiz-adv-x="1058" d="M111 270h136q22 -82 97 -129t191 -47q119 0 198 55t79 139q0 70 -51 113.5t-160 69.5l-163 39q-152 37 -223 103.5t-71 178.5q0 129 112.5 216t276.5 87q163 0 270 -75.5t125 -203.5h-129q-18 76 -89.5 121.5t-177.5 45.5q-107 0 -181.5 -53t-74.5 -133q0 -66 52 -107 t162 -67l148 -35q159 -38 234 -106.5t75 -183.5q0 -138 -119 -227t-297 -89q-176 0 -290 77.5t-130 210.5zM206 1228l247 332h154l247 -332h-146l-172 243h-12l-172 -243h-146z" />
<glyph unicode="&#x15e;" horiz-adv-x="1284" d="M115 375h138q14 -124 126.5 -202t277.5 -78q161 0 266 80t105 201q0 102 -77.5 170t-244.5 109l-165 42q-203 50 -294 139.5t-91 236.5q0 176 137.5 288t356.5 112q206 0 345 -108.5t150 -274.5h-138q-17 116 -114.5 187t-246.5 71q-155 0 -252.5 -76.5t-97.5 -194.5 q0 -94 72 -153.5t237 -100.5l143 -36q223 -55 321.5 -148.5t98.5 -247.5q0 -177 -125.5 -290.5t-337.5 -128.5l-58 -107q101 0 160 -42t59 -118q0 -90 -69 -137.5t-173 -47.5q-67 0 -142 20v92q49 -17 121 -17q58 0 98 22t40 63q0 79 -155 79h-56v71l64 122 q-204 13 -335.5 123t-143.5 280z" />
<glyph unicode="&#x15f;" horiz-adv-x="1058" d="M111 270h136q22 -82 97 -129t191 -47q119 0 198 55t79 139q0 70 -51 113.5t-160 69.5l-163 39q-152 37 -223 103.5t-71 178.5q0 129 112.5 216t276.5 87q163 0 270 -75.5t125 -203.5h-129q-18 76 -89.5 121.5t-177.5 45.5q-107 0 -181.5 -53t-74.5 -133q0 -66 52 -107 t162 -67l148 -35q159 -38 234 -106.5t75 -183.5q0 -124 -97.5 -209.5t-251.5 -102.5l-65 -121q101 0 160 -42t59 -118q0 -90 -69 -137.5t-173 -47.5q-67 0 -142 20v92q49 -17 121 -17q58 0 98 22t40 63q0 79 -155 79h-56v71l70 133q-159 11 -259 87.5t-116 199.5z" />
<glyph unicode="&#x160;" horiz-adv-x="1284" d="M115 375h138q14 -124 126.5 -202t277.5 -78q161 0 266 80t105 201q0 102 -77.5 170t-244.5 109l-165 42q-203 50 -294 139.5t-91 236.5q0 176 137.5 288t356.5 112q206 0 345 -108.5t150 -274.5h-138q-17 116 -114.5 187t-246.5 71q-155 0 -252.5 -76.5t-97.5 -194.5 q0 -94 72 -153.5t237 -100.5l143 -36q223 -55 321.5 -148.5t98.5 -247.5q0 -189 -143.5 -305t-379.5 -116q-224 0 -370.5 112t-159.5 293zM299 1874h155l190 -202h12l190 202h155l-289 -297h-124z" />
<glyph unicode="&#x161;" horiz-adv-x="1058" d="M111 270h136q22 -82 97 -129t191 -47q119 0 198 55t79 139q0 70 -51 113.5t-160 69.5l-163 39q-152 37 -223 103.5t-71 178.5q0 129 112.5 216t276.5 87q163 0 270 -75.5t125 -203.5h-129q-18 76 -89.5 121.5t-177.5 45.5q-107 0 -181.5 -53t-74.5 -133q0 -66 52 -107 t162 -67l148 -35q159 -38 234 -106.5t75 -183.5q0 -138 -119 -227t-297 -89q-176 0 -290 77.5t-130 210.5zM206 1560h146l172 -243h12l172 243h146l-247 -332h-154z" />
<glyph unicode="&#x162;" horiz-adv-x="1280" d="M88 1319v124h1104v-124h-484v-1299v-20l-72 -135q101 0 160 -42t59 -118q0 -90 -69 -137.5t-173 -47.5q-67 0 -142 20v92q46 -17 120 -17q58 0 98 22t40 63q0 79 -154 79h-57v71l79 150h-25v1319h-484z" />
<glyph unicode="&#x163;" horiz-adv-x="724" d="M61 966v111h176v280h131v-280h249v-111h-249v-668q0 -99 40 -143.5t131 -44.5q45 0 78 3v-112q-40 -7 -92 -7q-30 0 -45 1l-70 -130q101 0 160 -42t59 -118q0 -90 -69 -137.5t-173 -47.5q-67 0 -142 20v92q49 -17 121 -17q58 0 98 22t40 63q0 79 -155 79h-56v71l86 164 q-74 25 -108 86.5t-34 167.5v698h-176z" />
<glyph unicode="&#x164;" horiz-adv-x="1280" d="M88 1319v124h1104v-124h-484v-1319h-136v1319h-484zM289 1874h155l190 -202h12l190 202h155l-289 -297h-124z" />
<glyph unicode="&#x165;" horiz-adv-x="724" d="M61 966v111h176v280h131v-280h249v-111h-249v-668q0 -99 40 -143.5t131 -44.5q45 0 78 3v-112q-40 -7 -92 -7q-155 0 -221.5 63.5t-66.5 210.5v698h-176zM505 1218l3 452h137l-48 -452h-92z" />
<glyph unicode="&#x166;" horiz-adv-x="1280" d="M88 1319v124h1104v-124h-484v-535h346v-124h-346v-660h-136v660h-346v124h346v535h-484z" />
<glyph unicode="&#x167;" horiz-adv-x="724" d="M56 543v111h181v312h-176v111h176v280h131v-280h249v-111h-249v-312h244v-111h-244v-245q0 -99 40 -143.5t131 -44.5q45 0 78 3v-112q-40 -7 -92 -7q-155 0 -221.5 63.5t-66.5 210.5v275h-181z" />
<glyph unicode="&#x168;" horiz-adv-x="1485" d="M184 500v943h136v-934q0 -183 114 -296t308 -113t308 113t114 296v934h137v-943q0 -237 -151 -381.5t-408 -144.5q-256 0 -407 144.5t-151 381.5zM411 1591q0 122 53.5 191t147.5 69q43 0 77 -16.5t55.5 -39.5t40.5 -46t41.5 -39.5t48.5 -16.5q88 0 88 160h110 q0 -121 -54 -190t-150 -69q-43 0 -76.5 16t-54.5 38t-39.5 44.5t-40.5 38.5t-48 16q-42 0 -65.5 -39.5t-23.5 -116.5h-110z" />
<glyph unicode="&#x169;" horiz-adv-x="1193" d="M160 377v700h131v-667q0 -151 70.5 -229.5t208.5 -78.5q150 0 236.5 90.5t86.5 244.5v640h131v-1077h-125v194h-12q-41 -101 -132 -156.5t-219 -55.5q-179 0 -277.5 104.5t-98.5 290.5zM261 1246q0 121 53.5 190.5t147.5 69.5q43 0 77 -16.5t55.5 -39.5t40.5 -46 t41.5 -39.5t48.5 -16.5q88 0 88 160h110q0 -122 -54 -191t-150 -69q-43 0 -76.5 16t-54.5 38t-39.5 44.5t-40.5 38.5t-48 16q-42 0 -65.5 -39t-23.5 -116h-110z" />
<glyph unicode="&#x16a;" horiz-adv-x="1485" d="M184 500v943h136v-934q0 -183 114 -296t308 -113t308 113t114 296v934h137v-943q0 -237 -151 -381.5t-408 -144.5q-256 0 -407 144.5t-151 381.5zM430 1690v106h624v-106h-624z" />
<glyph unicode="&#x16b;" horiz-adv-x="1193" d="M160 377v700h131v-667q0 -151 70.5 -229.5t208.5 -78.5q150 0 236.5 90.5t86.5 244.5v640h131v-1077h-125v194h-12q-41 -101 -132 -156.5t-219 -55.5q-179 0 -277.5 104.5t-98.5 290.5zM280 1345v105h624v-105h-624z" />
<glyph unicode="&#x16c;" horiz-adv-x="1485" d="M184 500v943h136v-934q0 -183 114 -296t308 -113t308 113t114 296v934h137v-943q0 -237 -151 -381.5t-408 -144.5q-256 0 -407 144.5t-151 381.5zM419 1860h118q0 -82 54.5 -129t150.5 -47t150.5 47t54.5 129h118q0 -127 -86 -200.5t-237 -73.5t-237 73.5t-86 200.5z" />
<glyph unicode="&#x16d;" horiz-adv-x="1193" d="M160 377v700h131v-667q0 -151 70.5 -229.5t208.5 -78.5q150 0 236.5 90.5t86.5 244.5v640h131v-1077h-125v194h-12q-41 -101 -132 -156.5t-219 -55.5q-179 0 -277.5 104.5t-98.5 290.5zM272 1546h119q0 -96 51 -151t150 -55t150 55t51 151h119q0 -140 -84 -223t-236 -83 t-236 83t-84 223z" />
<glyph unicode="&#x16e;" horiz-adv-x="1485" d="M184 500v943h136v-934q0 -183 114 -296t308 -113t308 113t114 296v934h137v-943q0 -237 -151 -381.5t-408 -144.5q-256 0 -407 144.5t-151 381.5zM557 1738q0 78 53.5 131t131.5 53t131.5 -53t53.5 -131q0 -77 -54 -130t-131 -53t-131 53t-54 130zM634 1738 q0 -46 30.5 -76.5t77.5 -30.5t77.5 30.5t30.5 76.5q0 47 -30 77.5t-78 30.5t-78 -30.5t-30 -77.5z" />
<glyph unicode="&#x16f;" horiz-adv-x="1193" d="M160 377v700h131v-667q0 -151 70.5 -229.5t208.5 -78.5q150 0 236.5 90.5t86.5 244.5v640h131v-1077h-125v194h-12q-41 -101 -132 -156.5t-219 -55.5q-179 0 -277.5 104.5t-98.5 290.5zM379 1439q0 88 62.5 149t150.5 61q89 0 151 -61t62 -149q0 -89 -62 -150t-151 -61 t-151 61t-62 150zM467 1439q0 -53 36 -89.5t89 -36.5t89 36.5t36 89.5t-36 89t-89 36t-89 -36t-36 -89z" />
<glyph unicode="&#x170;" horiz-adv-x="1485" d="M184 500v943h136v-934q0 -183 114 -296t308 -113t308 113t114 296v934h137v-943q0 -237 -151 -381.5t-408 -144.5q-256 0 -407 144.5t-151 381.5zM524 1577l145 297h147l-181 -297h-111zM830 1577l173 297h157l-219 -297h-111z" />
<glyph unicode="&#x171;" horiz-adv-x="1193" d="M160 377v700h131v-667q0 -151 70.5 -229.5t208.5 -78.5q150 0 236.5 90.5t86.5 244.5v640h131v-1077h-125v194h-12q-41 -101 -132 -156.5t-219 -55.5q-179 0 -277.5 104.5t-98.5 290.5zM385 1228l135 332h153l-183 -332h-105zM675 1228l181 332h157l-227 -332h-111z" />
<glyph unicode="&#x172;" horiz-adv-x="1485" d="M184 500v943h136v-934q0 -183 114 -296t308 -113t308 113t114 296v934h137v-943q0 -242 -157 -387q-11 -10 -49.5 -47.5t-51 -50.5t-42.5 -44t-41.5 -48t-27.5 -43t-22 -47.5t-6 -43.5q0 -40 25 -68.5t82 -28.5q37 0 79 14v-105q-55 -19 -108 -19q-86 0 -146.5 45 t-60.5 130q0 107 134 236q-75 -19 -167 -19q-256 0 -407 144.5t-151 381.5z" />
<glyph unicode="&#x173;" horiz-adv-x="1193" d="M160 377v700h131v-667q0 -151 70.5 -229.5t208.5 -78.5q150 0 236.5 90.5t86.5 244.5v640h131v-1077q-180 -107 -180 -208q0 -49 30.5 -74t81.5 -25q35 0 74 13v-105q-55 -19 -107 -19q-86 0 -147 45.5t-61 132.5q0 137 184 259v175h-12q-41 -101 -132 -156.5t-219 -55.5 q-179 0 -277.5 104.5t-98.5 290.5z" />
<glyph unicode="&#x174;" horiz-adv-x="1956" d="M95 1443h142l317 -1230h9l347 1230h136l347 -1230h9l317 1230h142l-397 -1443h-127l-354 1205h-10l-354 -1205h-127zM627 1577l289 297h124l289 -297h-155l-190 202h-12l-190 -202h-155z" />
<glyph unicode="&#x175;" horiz-adv-x="1566" d="M67 1077h133l239 -914h12l266 914h131l266 -914h12l241 914h132l-307 -1077h-139l-265 894h-13l-265 -894h-138zM458 1228l247 332h154l247 -332h-146l-172 243h-12l-172 -243h-146z" />
<glyph unicode="&#x176;" horiz-adv-x="1321" d="M75 1443h157l423 -680h12l423 680h156l-517 -819v-624h-136v624zM310 1577l289 297h124l289 -297h-155l-190 202h-12l-190 -202h-155z" />
<glyph unicode="&#x177;" horiz-adv-x="1079" d="M67 1077h142l326 -934h12l325 934h140l-419 -1129q-72 -194 -144 -261.5t-204 -67.5q-27 0 -61 4v114q20 -4 59 -4q74 0 120 43t86 150l22 67zM212 1228l247 332h154l247 -332h-146l-172 243h-12l-172 -243h-146z" />
<glyph unicode="&#x178;" horiz-adv-x="1321" d="M75 1443h157l423 -680h12l423 680h156l-517 -819v-624h-136v624zM372 1744q0 40 28.5 68.5t68.5 28.5t69 -28.5t29 -68.5t-28.5 -69t-69.5 -29q-40 0 -68.5 29t-28.5 69zM755 1744q0 40 29 68.5t69 28.5t68.5 -28.5t28.5 -68.5t-28.5 -69t-68.5 -29q-41 0 -69.5 29 t-28.5 69z" />
<glyph unicode="&#x179;" horiz-adv-x="1328" d="M138 0v99l863 1208v12h-834v124h1011v-100l-860 -1207v-12h872v-124h-1052zM609 1576l185 298h164l-230 -298h-119z" />
<glyph unicode="&#x17a;" horiz-adv-x="1082" d="M131 0v100l660 854v12h-659v111h816v-101l-658 -853v-12h660v-111h-819zM477 1228l188 332h158l-227 -332h-119z" />
<glyph unicode="&#x17b;" horiz-adv-x="1328" d="M138 0v99l863 1208v12h-834v124h1011v-100l-860 -1207v-12h872v-124h-1052zM567 1744q0 40 28.5 68.5t68.5 28.5t68.5 -28.5t28.5 -68.5q0 -41 -28.5 -69.5t-68.5 -28.5t-68.5 28.5t-28.5 69.5z" />
<glyph unicode="&#x17c;" horiz-adv-x="1082" d="M131 0v100l660 854v12h-659v111h816v-101l-658 -853v-12h660v-111h-819zM439 1398q0 40 28.5 68.5t68.5 28.5t68.5 -28.5t28.5 -68.5t-28.5 -68.5t-68.5 -28.5t-68.5 28.5t-28.5 68.5z" />
<glyph unicode="&#x17d;" horiz-adv-x="1328" d="M138 0v99l863 1208v12h-834v124h1011v-100l-860 -1207v-12h872v-124h-1052zM313 1874h155l190 -202h12l190 202h155l-289 -297h-124z" />
<glyph unicode="&#x17e;" horiz-adv-x="1082" d="M131 0v100l660 854v12h-659v111h816v-101l-658 -853v-12h660v-111h-819zM212 1560h146l172 -243h12l172 243h146l-247 -332h-154z" />
<glyph unicode="&#x4d8;" horiz-adv-x="1501" d="M124 678v67h1094v23q1 258 -137.5 418t-366.5 160q-153 0 -262 -65t-163 -191h-140q61 178 213 280.5t354 102.5q298 0 473 -202.5t175 -547.5q0 -224 -77.5 -395t-220 -264.5t-329.5 -93.5q-282 0 -446.5 190t-166.5 518zM273 623q12 -245 137 -385.5t330 -140.5 q196 0 325.5 143.5t149.5 382.5h-942z" />
<glyph unicode="&#x18f;" horiz-adv-x="1501" d="M124 678v67h1094v23q1 258 -137.5 418t-366.5 160q-153 0 -262 -65t-163 -191h-140q61 178 213 280.5t354 102.5q298 0 473 -202.5t175 -547.5q0 -224 -77.5 -395t-220 -264.5t-329.5 -93.5q-282 0 -446.5 190t-166.5 518zM273 623q12 -245 137 -385.5t330 -140.5 q196 0 325.5 143.5t149.5 382.5h-942z" />
<glyph unicode="&#x192;" horiz-adv-x="1321" d="M88 13v128q86 -36 187 -36q109 0 172 55.5t82 177.5l58 371h-366v106h383l45 287q28 177 125 267.5t259 90.5q114 0 195 -25v-121q-69 26 -180 26q-118 0 -183 -60.5t-85 -187.5l-43 -277h385v-106h-402l-59 -381q-28 -179 -120 -261.5t-255 -82.5q-100 0 -198 29z" />
<glyph unicode="&#x1a0;" horiz-adv-x="1579" d="M127 722q0 346 176 548.5t478 202.5q70 0 195 -17t209 -17q80 0 110 23t30 84v129h122v-168q0 -84 -53.5 -127t-148.5 -43h-72v-9q118 -69 189 -234.5t71 -371.5q0 -347 -174.5 -549.5t-477.5 -202.5q-304 0 -479 202.5t-175 549.5zM267 722q0 -286 138 -455.5 t376 -169.5q237 0 375 170t137 455q0 287 -137.5 455.5t-374.5 168.5q-236 0 -375 -168.5t-139 -455.5z" />
<glyph unicode="&#x1a1;" horiz-adv-x="1240" d="M115 539q0 257 131.5 406.5t357.5 149.5q64 0 147 -11t134 -11q67 0 92 21.5t25 76.5v132h122v-171q0 -75 -42.5 -114t-109.5 -39q-29 0 -67 2v-6q87 -50 138 -165.5t51 -270.5q0 -257 -132 -407t-358 -150t-357.5 150t-131.5 407zM250 539q0 -205 94 -321.5t260 -116.5 t260 116.5t94 321.5t-94 321.5t-260 116.5t-260 -116.5t-94 -321.5z" />
<glyph unicode="&#x1af;" horiz-adv-x="1621" d="M184 500v943h136v-934q0 -186 115.5 -297.5t306.5 -111.5q192 0 307 111.5t115 297.5v934h163q101 0 101 94v158h122v-182q0 -82 -51 -126t-138 -44h-60v-843q0 -239 -152.5 -382.5t-406.5 -143.5t-406 143.5t-152 382.5z" />
<glyph unicode="&#x1b0;" horiz-adv-x="1317" d="M160 377v700h131v-667q0 -151 70.5 -229.5t208.5 -78.5q150 0 236.5 90.5t86.5 244.5v640h137q100 0 100 94v143h123v-167q0 -82 -51 -126t-138 -44h-40v-977h-125v194h-12q-41 -101 -132 -156.5t-219 -55.5q-179 0 -277.5 104.5t-98.5 290.5z" />
<glyph unicode="&#x1c0;" horiz-adv-x="626" d="M256 -364v1807h114v-1807h-114z" />
<glyph unicode="&#x1c1;" horiz-adv-x="995" d="M256 -364v1807h114v-1807h-114zM626 -364v1807h113v-1807h-113z" />
<glyph unicode="&#x1c2;" horiz-adv-x="856" d="M86 612v103h285v260h-285v102h285v374h114v-374h285v-102h-285v-260h285v-103h-285v-968h-114v968h-285z" />
<glyph unicode="&#x1c3;" horiz-adv-x="617" d="M196 98q0 49 31.5 81t80.5 32t80.5 -31.5t31.5 -81.5q0 -49 -31.5 -80.5t-80.5 -31.5t-80.5 31.5t-31.5 80.5zM233 1444h150l-11 -987h-127z" />
<glyph unicode="&#x1c4;" horiz-adv-x="2800" d="M185 0v1443h475q327 0 506 -191t179 -530q0 -340 -178.5 -531t-506.5 -191h-475zM322 124h330q263 0 408 158t145 439t-145 439.5t-408 158.5h-330v-1195zM1610 0v99l863 1208v12h-834v124h1011v-100l-860 -1207v-12h872v-124h-1052zM1785 1874h155l190 -202h12l190 202 h155l-289 -297h-124z" />
<glyph unicode="&#x1c5;" horiz-adv-x="2554" d="M185 0v1443h475q327 0 506 -191t179 -530q0 -340 -178.5 -531t-506.5 -191h-475zM322 124h330q263 0 408 158t145 439t-145 439.5t-408 158.5h-330v-1195zM1603 0v100l660 854v12h-659v111h816v-101l-658 -853v-12h660v-111h-819zM1684 1560h146l172 -243h12l172 243h146 l-247 -332h-154z" />
<glyph unicode="&#x1c6;" horiz-adv-x="2337" d="M115 538q0 250 125.5 403.5t330.5 153.5q123 0 220 -61t143 -167h12v639h131v-1506h-126v215h-12q-48 -108 -146.5 -170.5t-221.5 -62.5q-206 0 -331 152.5t-125 403.5zM250 539q0 -201 94.5 -319.5t254.5 -118.5q159 0 254 119t95 319q0 198 -95.5 318t-253.5 120 q-160 0 -254.5 -119t-94.5 -319zM1387 0v100l660 854v12h-659v111h816v-101l-658 -853v-12h660v-111h-819zM1468 1560h146l172 -243h12l172 243h146l-247 -332h-154z" />
<glyph unicode="&#x1c7;" horiz-adv-x="2227" d="M185 0v1443h137v-1319h722v-124h-859zM1231 330h136q5 -103 78 -168t186 -65q131 0 202.5 78.5t71.5 222.5v1045h137v-1050q0 -197 -110 -310t-300 -113q-175 0 -287.5 100.5t-113.5 259.5z" />
<glyph unicode="&#x1c8;" horiz-adv-x="1619" d="M185 0v1443h137v-1319h722v-124h-859zM1118 -254h21q94 0 134.5 42.5t40.5 139.5v1149h131v-1145q0 -156 -74.5 -227.5t-228.5 -71.5h-24v113zM1284 1398q0 40 28 68.5t69 28.5t69 -28.5t28 -68.5t-28 -68.5t-69 -28.5t-69 28.5t-28 68.5z" />
<glyph unicode="&#x1c9;" horiz-adv-x="969" d="M179 0v1506h131v-1506h-131zM468 -254h21q94 0 134.5 42.5t40.5 139.5v1149h131v-1145q0 -156 -74.5 -227.5t-228.5 -71.5h-24v113zM634 1398q0 40 28 68.5t69 28.5t69 -28.5t28 -68.5t-28 -68.5t-69 -28.5t-69 28.5t-28 68.5z" />
<glyph unicode="&#x1ca;" horiz-adv-x="2582" d="M185 0v1443h135l841 -1198h13v1198h135v-1443h-132l-844 1199h-13v-1199h-135zM1586 330h136q5 -103 78 -168t186 -65q131 0 202.5 78.5t71.5 222.5v1045h137v-1050q0 -197 -110 -310t-300 -113q-175 0 -287.5 100.5t-113.5 259.5z" />
<glyph unicode="&#x1cb;" horiz-adv-x="1974" d="M185 0v1443h135l841 -1198h13v1198h135v-1443h-132l-844 1199h-13v-1199h-135zM1473 -254h21q94 0 134.5 42.5t40.5 139.5v1149h131v-1145q0 -156 -74.5 -227.5t-228.5 -71.5h-24v113zM1639 1398q0 40 28.5 68.5t68.5 28.5t68.5 -28.5t28.5 -68.5t-28.5 -68.5 t-68.5 -28.5t-68.5 28.5t-28.5 68.5z" />
<glyph unicode="&#x1cc;" horiz-adv-x="1673" d="M169 0v1077h125v-194h13q43 101 132 156.5t216 55.5q180 0 278.5 -103.5t98.5 -291.5v-700h-131v667q0 310 -281 310q-143 0 -231.5 -92.5t-88.5 -244.5v-640h-131zM1171 -254h21q94 0 134.5 42.5t40.5 139.5v1149h131v-1145q0 -156 -74.5 -227.5t-228.5 -71.5h-24v113z M1337 1398q0 40 28.5 68.5t68.5 28.5t68.5 -28.5t28.5 -68.5t-28.5 -68.5t-68.5 -28.5t-68.5 28.5t-28.5 68.5z" />
<glyph unicode="&#x1cd;" horiz-adv-x="1363" d="M74 0l540 1443h136l539 -1443h-144l-160 442h-606l-160 -442h-145zM331 1874h155l190 -202h12l190 202h155l-289 -297h-124zM420 560h524l-256 704h-13z" />
<glyph unicode="&#x1ce;" horiz-adv-x="1125" d="M106 298q0 140 100 220.5t288 93.5l337 22v101q0 118 -70 180.5t-201 62.5q-111 0 -185 -44t-93 -123h-133q19 130 133 207t282 77q189 0 294 -94.5t105 -264.5v-736h-126v185h-12q-49 -96 -143 -149.5t-213 -53.5q-160 0 -261.5 86.5t-101.5 229.5zM240 1560h146 l172 -243h12l172 243h146l-247 -332h-154zM241 300q0 -92 70 -147t180 -55q145 0 242.5 87.5t97.5 215.5v126l-319 -23q-271 -19 -271 -204z" />
<glyph unicode="&#x1cf;" horiz-adv-x="507" d="M-97 1874h155l190 -202h12l190 202h155l-289 -297h-124zM185 0v1443h137v-1443h-137z" />
<glyph unicode="&#x1d0;" horiz-adv-x="480" d="M-84 1560h146l172 -243h12l172 243h146l-247 -332h-154zM175 0v1077h131v-1077h-131z" />
<glyph unicode="&#x1d1;" horiz-adv-x="1561" d="M127 722q0 347 176 549t478 202t477.5 -202.5t175.5 -548.5t-175 -549t-478 -203q-304 0 -479 202.5t-175 549.5zM267 722q0 -286 138 -455.5t376 -169.5q236 0 374.5 169.5t138.5 455.5q0 287 -138.5 455.5t-374.5 168.5t-375 -168.5t-139 -455.5zM430 1874h155 l190 -202h12l190 202h155l-289 -297h-124z" />
<glyph unicode="&#x1d2;" horiz-adv-x="1208" d="M115 539q0 258 131.5 407t357.5 149t358 -149t132 -407t-132 -407.5t-358 -149.5t-357.5 149.5t-131.5 407.5zM250 539q0 -205 94 -321.5t260 -116.5t260 116.5t94 321.5t-94 321.5t-260 116.5t-260 -116.5t-94 -321.5zM280 1560h146l172 -243h12l172 243h146l-247 -332 h-154z" />
<glyph unicode="&#x1d3;" horiz-adv-x="1485" d="M184 500v943h136v-934q0 -183 114 -296t308 -113t308 113t114 296v934h137v-943q0 -237 -151 -381.5t-408 -144.5q-256 0 -407 144.5t-151 381.5zM391 1874h155l190 -202h12l190 202h155l-289 -297h-124z" />
<glyph unicode="&#x1d4;" horiz-adv-x="1193" d="M160 377v700h131v-667q0 -151 70.5 -229.5t208.5 -78.5q150 0 236.5 90.5t86.5 244.5v640h131v-1077h-125v194h-12q-41 -101 -132 -156.5t-219 -55.5q-179 0 -277.5 104.5t-98.5 290.5zM268 1560h146l172 -243h12l172 243h146l-247 -332h-154z" />
<glyph unicode="&#x1d5;" horiz-adv-x="1485" d="M184 500v943h136v-934q0 -183 114 -296t308 -113t308 113t114 296v934h137v-943q0 -237 -151 -381.5t-408 -144.5q-256 0 -407 144.5t-151 381.5zM423 1915v101h638v-101h-638zM461 1679q0 41 29 70t70 29t70 -29t29 -70t-29 -70t-70 -29t-70 29t-29 70zM825 1679 q0 41 29 70t70 29t70 -29t29 -70t-29 -70t-70 -29t-70 29t-29 70z" />
<glyph unicode="&#x1d6;" horiz-adv-x="1193" d="M160 377v700h131v-667q0 -151 70.5 -229.5t208.5 -78.5q150 0 236.5 90.5t86.5 244.5v640h131v-1077h-125v194h-12q-41 -101 -132 -156.5t-219 -55.5q-179 0 -277.5 104.5t-98.5 290.5zM282 1632v105h624v-105h-624zM311 1339q0 42 29 70.5t70 28.5t70 -28.5t29 -70.5 q0 -41 -29 -70t-70 -29t-70 29t-29 70zM675 1339q0 42 29 70.5t70 28.5t70 -28.5t29 -70.5q0 -41 -29 -70t-70 -29t-70 29t-29 70z" />
<glyph unicode="&#x1d7;" horiz-adv-x="1485" d="M184 500v943h136v-934q0 -183 114 -296t308 -113t308 113t114 296v934h137v-943q0 -237 -151 -381.5t-408 -144.5q-256 0 -407 144.5t-151 381.5zM458 1670q0 43 30 72.5t72 29.5q43 0 72.5 -29.5t29.5 -72.5t-29.5 -72.5t-72.5 -29.5q-42 0 -72 29.5t-30 72.5zM668 1839 l231 217h174l-267 -217h-138zM822 1670q0 43 29.5 72.5t72.5 29.5q42 0 72 -29.5t30 -72.5t-30 -72.5t-72 -29.5q-43 0 -72.5 29.5t-29.5 72.5z" />
<glyph unicode="&#x1d8;" horiz-adv-x="1193" d="M160 377v700h131v-667q0 -151 70.5 -229.5t208.5 -78.5q150 0 236.5 90.5t86.5 244.5v640h131v-1077h-125v194h-12q-41 -101 -132 -156.5t-219 -55.5q-179 0 -277.5 104.5t-98.5 290.5zM303 1398q0 40 28.5 68.5t68.5 28.5q41 0 69.5 -28.5t28.5 -68.5t-28.5 -68.5 t-69.5 -28.5q-40 0 -68.5 28.5t-28.5 68.5zM510 1567l207 297h154l-229 -297h-132zM686 1398q0 40 28.5 68.5t69.5 28.5q40 0 68.5 -28.5t28.5 -68.5t-28.5 -68.5t-68.5 -28.5q-41 0 -69.5 28.5t-28.5 68.5z" />
<glyph unicode="&#x1d9;" horiz-adv-x="1485" d="M184 500v943h136v-934q0 -183 114 -296t308 -113t308 113t114 296v934h137v-943q0 -237 -151 -381.5t-408 -144.5q-256 0 -407 144.5t-151 381.5zM384 2056h172l180 -146h12l180 146h172l-285 -224h-146zM461 1679q0 41 29 70t70 29t70 -29t29 -70t-29 -70t-70 -29 t-70 29t-29 70zM825 1679q0 41 29 70t70 29t70 -29t29 -70t-29 -70t-70 -29t-70 29t-29 70z" />
<glyph unicode="&#x1da;" horiz-adv-x="1193" d="M160 377v700h131v-667q0 -151 70.5 -229.5t208.5 -78.5q150 0 236.5 90.5t86.5 244.5v640h131v-1077h-125v194h-12q-41 -101 -132 -156.5t-219 -55.5q-179 0 -277.5 104.5t-98.5 290.5zM240 1854h154l192 -217h12l192 217h154l-275 -306h-154zM311 1327q0 42 29 71t70 29 t70 -29t29 -71q0 -41 -29 -70t-70 -29t-70 29t-29 70zM675 1327q0 42 29 71t70 29t70 -29t29 -71q0 -41 -29 -70t-70 -29t-70 29t-29 70z" />
<glyph unicode="&#x1db;" horiz-adv-x="1485" d="M184 500v943h136v-934q0 -183 114 -296t308 -113t308 113t114 296v934h137v-943q0 -237 -151 -381.5t-408 -144.5q-256 0 -407 144.5t-151 381.5zM423 2056h175l230 -217h-138zM458 1670q0 43 30 72.5t72 29.5q43 0 72.5 -29.5t29.5 -72.5t-29.5 -72.5t-72.5 -29.5 q-42 0 -72 29.5t-30 72.5zM822 1670q0 43 29.5 72.5t72.5 29.5q42 0 72 -29.5t30 -72.5t-30 -72.5t-72 -29.5q-43 0 -72.5 29.5t-29.5 72.5z" />
<glyph unicode="&#x1dc;" horiz-adv-x="1193" d="M160 377v700h131v-667q0 -151 70.5 -229.5t208.5 -78.5q150 0 236.5 90.5t86.5 244.5v640h131v-1077h-125v194h-12q-41 -101 -132 -156.5t-219 -55.5q-179 0 -277.5 104.5t-98.5 290.5zM303 1398q0 40 28.5 68.5t68.5 28.5q41 0 69.5 -28.5t28.5 -68.5t-28.5 -68.5 t-69.5 -28.5q-40 0 -68.5 28.5t-28.5 68.5zM313 1864h154l207 -297h-132zM686 1398q0 40 28.5 68.5t69.5 28.5q40 0 68.5 -28.5t28.5 -68.5t-28.5 -68.5t-68.5 -28.5q-41 0 -69.5 28.5t-28.5 68.5z" />
<glyph unicode="&#x4d9;" horiz-adv-x="1193" d="M124 522l2 57h807v6q0 177 -98 285.5t-255 108.5q-222 0 -306 -171h-133q45 134 160 210.5t279 76.5q226 0 357.5 -150t131.5 -405q0 -254 -131 -406t-351 -152q-215 0 -339 144.5t-124 395.5zM261 472q2 -170 91 -271.5t237 -101.5t241.5 101.5t102.5 271.5h-672z" />
<glyph unicode="&#x259;" horiz-adv-x="1193" d="M124 522l2 57h807v6q0 177 -98 285.5t-255 108.5q-222 0 -306 -171h-133q45 134 160 210.5t279 76.5q226 0 357.5 -150t131.5 -405q0 -254 -131 -406t-351 -152q-215 0 -339 144.5t-124 395.5zM261 472q2 -170 91 -271.5t237 -101.5t241.5 101.5t102.5 271.5h-672z" />
<glyph unicode="&#x1dd;" horiz-adv-x="1193" d="M124 522l2 57h807v6q0 177 -98 285.5t-255 108.5q-222 0 -306 -171h-133q45 134 160 210.5t279 76.5q226 0 357.5 -150t131.5 -405q0 -254 -131 -406t-351 -152q-215 0 -339 144.5t-124 395.5zM261 472q2 -170 91 -271.5t237 -101.5t241.5 101.5t102.5 271.5h-672z" />
<glyph unicode="&#x1de;" horiz-adv-x="1363" d="M74 0l540 1443h136l539 -1443h-144l-160 442h-606l-160 -442h-145zM363 1915v101h638v-101h-638zM401 1679q0 41 29 70t70 29t70 -29t29 -70t-29 -70t-70 -29t-70 29t-29 70zM420 560h524l-256 704h-13zM765 1679q0 41 29 70t70 29t70 -29t29 -70t-29 -70t-70 -29t-70 29 t-29 70z" />
<glyph unicode="&#x1df;" horiz-adv-x="1125" d="M106 298q0 140 100 220.5t288 93.5l337 22v101q0 118 -70 180.5t-201 62.5q-111 0 -185 -44t-93 -123h-133q19 130 133 207t282 77q189 0 294 -94.5t105 -264.5v-736h-126v185h-12q-49 -96 -143 -149.5t-213 -53.5q-160 0 -261.5 86.5t-101.5 229.5zM241 300 q0 -92 70 -147t180 -55q145 0 242.5 87.5t97.5 215.5v126l-319 -23q-271 -19 -271 -204zM254 1632v105h624v-105h-624zM283 1339q0 42 29 70.5t70 28.5t70 -28.5t29 -70.5q0 -41 -29 -70t-70 -29t-70 29t-29 70zM647 1339q0 42 29 70.5t70 28.5t70 -28.5t29 -70.5 q0 -41 -29 -70t-70 -29t-70 29t-29 70z" />
<glyph unicode="&#x1e0;" horiz-adv-x="1363" d="M74 0l540 1443h136l539 -1443h-144l-160 442h-606l-160 -442h-145zM360 1915v101h644v-101h-644zM420 560h524l-256 704h-13zM578 1682q0 43 30.5 73.5t73.5 30.5t73.5 -30.5t30.5 -73.5t-30.5 -73.5t-73.5 -30.5t-73.5 30.5t-30.5 73.5z" />
<glyph unicode="&#x1e1;" horiz-adv-x="1125" d="M106 298q0 140 100 220.5t288 93.5l337 22v101q0 118 -70 180.5t-201 62.5q-111 0 -185 -44t-93 -123h-133q19 130 133 207t282 77q189 0 294 -94.5t105 -264.5v-736h-126v185h-12q-49 -96 -143 -149.5t-213 -53.5q-160 0 -261.5 86.5t-101.5 229.5zM241 300 q0 -92 70 -147t180 -55q145 0 242.5 87.5t97.5 215.5v126l-319 -23q-271 -19 -271 -204zM254 1604v105h624v-105h-624zM461 1331q0 43 29.5 73t73.5 30t73.5 -30t29.5 -73t-29.5 -73t-73.5 -30t-73.5 30t-29.5 73z" />
<glyph unicode="&#x1e2;" horiz-adv-x="1955" d="M74 0l678 1443h1063v-124h-677v-526h640v-122h-640v-547h677v-124h-813v443h-581l-208 -443h-139zM476 561h526v766h-161zM977 1690v106h624v-106h-624z" />
<glyph unicode="&#x1e3;" horiz-adv-x="1880" d="M106 295q0 139 99.5 218t287.5 91l338 21v113q0 116 -68.5 178t-199.5 62q-111 0 -186.5 -44.5t-94.5 -122.5h-133q19 128 133.5 206t284.5 78q135 0 228 -60.5t123 -164.5h13q46 99 148.5 162t231.5 63q212 0 333.5 -139.5t121.5 -382.5v-58h-804v-15q5 -182 101 -291.5 t253 -109.5q226 0 300 167h133q-40 -134 -155 -209t-280 -75q-140 0 -249.5 71.5t-154.5 191.5h-12q-48 -123 -158 -193t-260 -70q-167 0 -270.5 85.5t-103.5 227.5zM241 298q0 -91 71 -145.5t185 -54.5q142 0 238 90t96 219v111l-321 -21q-269 -19 -269 -199zM638 1345v105 h624v-105h-624zM962 622h667q-2 158 -92 257.5t-232 99.5q-148 0 -240.5 -97t-102.5 -260z" />
<glyph unicode="&#x1e6;" horiz-adv-x="1506" d="M127 722q0 339 176 545t467 206q231 0 391.5 -123t199.5 -329h-139q-45 155 -163 240t-289 85q-229 0 -366 -170t-137 -454q0 -285 137.5 -455t368.5 -170q212 0 339 123.5t127 327.5v50h-440v121h576v-160q0 -268 -164 -428.5t-438 -160.5q-293 0 -469.5 205.5 t-176.5 546.5zM419 1874h155l190 -202h12l190 202h155l-289 -297h-124z" />
<glyph unicode="&#x1e7;" horiz-adv-x="1242" d="M115 552q0 244 124 393.5t330 149.5q123 0 223 -63t144 -168h12v213h126v-1093q0 -176 -128 -282t-340 -106q-184 0 -301 75.5t-138 202.5h139q18 -75 98 -119t202 -44q156 0 246.5 76t90.5 207v242h-13q-48 -107 -142.5 -166t-218.5 -59q-207 0 -330.5 148.5 t-123.5 392.5zM250 552q0 -193 92.5 -308.5t252.5 -115.5q161 0 255.5 115t94.5 307q0 193 -95.5 310t-254.5 117q-160 0 -252.5 -115.5t-92.5 -309.5zM294 1560h146l172 -243h12l172 243h146l-247 -332h-154z" />
<glyph unicode="&#x1e8;" horiz-adv-x="1311" d="M185 0v1443h137v-746h12l683 746h171l-578 -623l637 -820h-177l-555 725l-193 -210v-515h-137zM286 1874h155l190 -202h12l190 202h155l-289 -297h-124z" />
<glyph unicode="&#x1e9;" horiz-adv-x="1092" d="M-107 1937h155l190 -202h12l190 202h155l-289 -297h-124zM179 0v1506h131v-933h12l526 504h164l-481 -462l503 -615h-168l-434 531l-122 -113v-418h-131z" />
<glyph unicode="&#x1ea;" horiz-adv-x="1561" d="M127 722q0 347 176 549t478 202t477.5 -202.5t175.5 -548.5q0 -198 -59 -352.5t-170 -251.5q-16 -16 -51 -49.5t-51.5 -50t-44 -45.5t-41 -48t-29 -44t-22 -47.5t-6.5 -44.5q0 -40 25 -68.5t82 -28.5q37 0 79 14v-105q-55 -19 -107 -19q-86 0 -147 45t-61 130 q0 107 135 236q-87 -23 -185 -23q-304 0 -479 202.5t-175 549.5zM267 722q0 -286 138 -455.5t376 -169.5q236 0 374.5 169.5t138.5 455.5q0 287 -138.5 455.5t-374.5 168.5t-375 -168.5t-139 -455.5z" />
<glyph unicode="&#x1eb;" horiz-adv-x="1208" d="M115 539q0 258 131.5 407t357.5 149t358 -149t132 -407q0 -264 -137 -413l-1 -1q-17 -19 -33 -32q-115 -112 -147 -150q-72 -87 -72 -154q0 -40 25 -68.5t82 -28.5q37 0 79 14v-105q-55 -19 -108 -19q-86 0 -146.5 45t-60.5 130q0 107 133 234q-50 -9 -104 -9 q-226 0 -357.5 149.5t-131.5 407.5zM250 539q0 -205 94 -321.5t260 -116.5t260 116.5t94 321.5t-94 321.5t-260 116.5t-260 -116.5t-94 -321.5z" />
<glyph unicode="&#x1ec;" horiz-adv-x="1561" d="M127 722q0 347 176 549t478 202t477.5 -202.5t175.5 -548.5q0 -198 -59 -352.5t-170 -251.5q-16 -16 -51 -49.5t-51.5 -50t-44 -45.5t-41 -48t-29 -44t-22 -47.5t-6.5 -44.5q0 -40 25 -68.5t82 -28.5q37 0 79 14v-105q-55 -19 -107 -19q-86 0 -147 45t-61 130 q0 107 135 236q-87 -23 -185 -23q-304 0 -479 202.5t-175 549.5zM267 722q0 -286 138 -455.5t376 -169.5q236 0 374.5 169.5t138.5 455.5q0 287 -138.5 455.5t-374.5 168.5t-375 -168.5t-139 -455.5zM469 1690v106h624v-106h-624z" />
<glyph unicode="&#x1ed;" horiz-adv-x="1208" d="M115 539q0 258 131.5 407t357.5 149t358 -149t132 -407q0 -264 -137 -413l-1 -1q-17 -19 -33 -32q-115 -112 -147 -150q-72 -87 -72 -154q0 -40 25 -68.5t82 -28.5q37 0 79 14v-105q-55 -19 -108 -19q-86 0 -146.5 45t-60.5 130q0 107 133 234q-50 -9 -104 -9 q-226 0 -357.5 149.5t-131.5 407.5zM250 539q0 -205 94 -321.5t260 -116.5t260 116.5t94 321.5t-94 321.5t-260 116.5t-260 -116.5t-94 -321.5zM292 1345v105h624v-105h-624z" />
<glyph unicode="&#x1f1;" horiz-adv-x="2800" d="M185 0v1443h475q327 0 506 -191t179 -530q0 -340 -178.5 -531t-506.5 -191h-475zM322 124h330q263 0 408 158t145 439t-145 439.5t-408 158.5h-330v-1195zM1610 0v99l863 1208v12h-834v124h1011v-100l-860 -1207v-12h872v-124h-1052z" />
<glyph unicode="&#x1f2;" horiz-adv-x="2554" d="M185 0v1443h475q327 0 506 -191t179 -530q0 -340 -178.5 -531t-506.5 -191h-475zM322 124h330q263 0 408 158t145 439t-145 439.5t-408 158.5h-330v-1195zM1603 0v100l660 854v12h-659v111h816v-101l-658 -853v-12h660v-111h-819z" />
<glyph unicode="&#x1f3;" horiz-adv-x="2337" d="M115 538q0 250 125.5 403.5t330.5 153.5q123 0 220 -61t143 -167h12v639h131v-1506h-126v215h-12q-48 -108 -146.5 -170.5t-221.5 -62.5q-206 0 -331 152.5t-125 403.5zM250 539q0 -201 94.5 -319.5t254.5 -118.5q159 0 254 119t95 319q0 198 -95.5 318t-253.5 120 q-160 0 -254.5 -119t-94.5 -319zM1387 0v100l660 854v12h-659v111h816v-101l-658 -853v-12h660v-111h-819z" />
<glyph unicode="&#x1f4;" horiz-adv-x="1506" d="M127 722q0 339 176 545t467 206q231 0 391.5 -123t199.5 -329h-139q-45 155 -163 240t-289 85q-229 0 -366 -170t-137 -454q0 -285 137.5 -455t368.5 -170q212 0 339 123.5t127 327.5v50h-440v121h576v-160q0 -268 -164 -428.5t-438 -160.5q-293 0 -469.5 205.5 t-176.5 546.5zM715 1576l185 298h164l-230 -298h-119z" />
<glyph unicode="&#x1f5;" horiz-adv-x="1242" d="M115 552q0 244 124 393.5t330 149.5q123 0 223 -63t144 -168h12v213h126v-1093q0 -176 -128 -282t-340 -106q-184 0 -301 75.5t-138 202.5h139q18 -75 98 -119t202 -44q156 0 246.5 76t90.5 207v242h-13q-48 -107 -142.5 -166t-218.5 -59q-207 0 -330.5 148.5 t-123.5 392.5zM250 552q0 -193 92.5 -308.5t252.5 -115.5q161 0 255.5 115t94.5 307q0 193 -95.5 310t-254.5 117q-160 0 -252.5 -115.5t-92.5 -309.5zM559 1228l188 332h158l-227 -332h-119z" />
<glyph unicode="&#x1f8;" horiz-adv-x="1494" d="M185 0v1443h135l841 -1198h13v1198h135v-1443h-132l-844 1199h-13v-1199h-135zM453 1874h164l185 -298h-119z" />
<glyph unicode="&#x1f9;" horiz-adv-x="1192" d="M169 0v1077h125v-194h13q43 101 132 156.5t216 55.5q180 0 278.5 -103.5t98.5 -291.5v-700h-131v667q0 310 -281 310q-143 0 -231.5 -92.5t-88.5 -244.5v-640h-131zM314 1560h158l188 -332h-119z" />
<glyph unicode="&#x1fa;" horiz-adv-x="1363" d="M74 0l540 1443h136l539 -1443h-144l-160 442h-606l-160 -442h-145zM420 560h524l-256 704h-13zM495 1723q0 78 55 131.5t133 53.5t132.5 -53.5t54.5 -131.5q0 -77 -55 -131t-132 -54q-78 0 -133 54t-55 131zM577 1723q0 -45 30.5 -76t75.5 -31q44 0 74.5 31t30.5 76 t-30.5 75.5t-74.5 30.5q-45 0 -75.5 -30.5t-30.5 -75.5zM623 1969l144 169h147l-165 -169h-126z" />
<glyph unicode="&#x1fb;" horiz-adv-x="1125" d="M106 298q0 140 100 220.5t288 93.5l337 22v101q0 118 -70 180.5t-201 62.5q-111 0 -185 -44t-93 -123h-133q19 130 133 207t282 77q189 0 294 -94.5t105 -264.5v-736h-126v185h-12q-49 -96 -143 -149.5t-213 -53.5q-160 0 -261.5 86.5t-101.5 229.5zM241 300 q0 -92 70 -147t180 -55q145 0 242.5 87.5t97.5 215.5v126l-319 -23q-271 -19 -271 -204zM373 1397q0 79 55.5 133.5t135.5 54.5t135.5 -54.5t55.5 -133.5t-55.5 -133.5t-135.5 -54.5t-135.5 54.5t-55.5 133.5zM456 1396q0 -46 31 -77.5t77 -31.5t77 31.5t31 77.5 q0 47 -31 78.5t-77 31.5t-77 -31.5t-31 -78.5zM499 1669l164 206h157l-189 -206h-132z" />
<glyph unicode="&#x1fc;" horiz-adv-x="1955" d="M74 0l678 1443h1063v-124h-677v-526h640v-122h-640v-547h677v-124h-813v443h-581l-208 -443h-139zM476 561h526v766h-161zM1234 1576l185 298h164l-230 -298h-119z" />
<glyph unicode="&#x1fd;" horiz-adv-x="1880" d="M106 295q0 139 99.5 218t287.5 91l338 21v113q0 116 -68.5 178t-199.5 62q-111 0 -186.5 -44.5t-94.5 -122.5h-133q19 128 133.5 206t284.5 78q135 0 228 -60.5t123 -164.5h13q46 99 148.5 162t231.5 63q212 0 333.5 -139.5t121.5 -382.5v-58h-804v-15q5 -182 101 -291.5 t253 -109.5q226 0 300 167h133q-40 -134 -155 -209t-280 -75q-140 0 -249.5 71.5t-154.5 191.5h-12q-48 -123 -158 -193t-260 -70q-167 0 -270.5 85.5t-103.5 227.5zM241 298q0 -91 71 -145.5t185 -54.5q142 0 238 90t96 219v111l-321 -21q-269 -19 -269 -199zM891 1228 l188 332h158l-227 -332h-119zM962 622h667q-2 158 -92 257.5t-232 99.5q-148 0 -240.5 -97t-102.5 -260z" />
<glyph unicode="&#x1fe;" horiz-adv-x="1561" d="M127 722q0 347 176 549t478 202q267 0 440 -162l125 145l75 -71l-132 -153q145 -196 145 -510q0 -346 -175 -549t-478 -203q-268 0 -441 162l-125 -145l-75 71l132 153q-145 197 -145 511zM261 722q0 -243 101 -406l772 895q-137 142 -353 142q-240 0 -380 -171 t-140 -460zM427 233q137 -142 354 -142q239 0 379 171.5t140 459.5q0 243 -101 406zM720 1576l185 298h164l-230 -298h-119z" />
<glyph unicode="&#x1ff;" horiz-adv-x="1208" d="M115 539q0 258 131.5 407t357.5 149q193 0 318 -110l95 110l75 -70l-101 -116q103 -145 103 -370q0 -257 -132 -407t-358 -150q-191 0 -318 110l-96 -111l-73 71l101 117q-103 143 -103 370zM244 539q0 -161 59 -271l540 625q-92 89 -239 89q-169 0 -264.5 -117.5 t-95.5 -325.5zM366 185q92 -89 238 -89q169 0 265 118t96 325q0 160 -59 270zM536 1228l188 332h158l-227 -332h-119z" />
<glyph unicode="&#x200;" horiz-adv-x="1363" d="M74 0l540 1443h136l539 -1443h-144l-160 442h-606l-160 -442h-145zM264 1874h157l173 -297h-111zM420 560h524l-256 704h-13zM608 1874h147l145 -297h-111z" />
<glyph unicode="&#x201;" horiz-adv-x="1125" d="M106 298q0 140 100 220.5t288 93.5l337 22v101q0 118 -70 180.5t-201 62.5q-111 0 -185 -44t-93 -123h-133q19 130 133 207t282 77q189 0 294 -94.5t105 -264.5v-736h-126v185h-12q-49 -96 -143 -149.5t-213 -53.5q-160 0 -261.5 86.5t-101.5 229.5zM143 1560h157 l181 -332h-111zM241 300q0 -92 70 -147t180 -55q145 0 242.5 87.5t97.5 215.5v126l-319 -23q-271 -19 -271 -204zM483 1560h153l135 -332h-105z" />
<glyph unicode="&#x202;" horiz-adv-x="1363" d="M74 0l540 1443h136l539 -1443h-144l-160 442h-606l-160 -442h-145zM359 1586q0 127 86 200.5t237 73.5t237 -73.5t86 -200.5h-118q0 82 -54.5 129t-150.5 47t-150.5 -47t-54.5 -129h-118zM420 560h524l-256 704h-13z" />
<glyph unicode="&#x203;" horiz-adv-x="1125" d="M106 298q0 140 100 220.5t288 93.5l337 22v101q0 118 -70 180.5t-201 62.5q-111 0 -185 -44t-93 -123h-133q19 130 133 207t282 77q189 0 294 -94.5t105 -264.5v-736h-126v185h-12q-49 -96 -143 -149.5t-213 -53.5q-160 0 -261.5 86.5t-101.5 229.5zM241 300 q0 -92 70 -147t180 -55q145 0 242.5 87.5t97.5 215.5v126l-319 -23q-271 -19 -271 -204zM244 1240q0 140 84 223t236 83t236 -83t84 -223h-119q0 96 -51 151t-150 55t-150 -55t-51 -151h-119z" />
<glyph unicode="&#x204;" horiz-adv-x="1197" d="M185 0v1443h872v-124h-735v-519h698v-122h-698v-554h735v-124h-872zM203 1874h157l173 -297h-111zM547 1874h147l145 -297h-111z" />
<glyph unicode="&#x205;" horiz-adv-x="1174" d="M115 538q0 254 130.5 405.5t350.5 151.5q215 0 339 -143t124 -390v-58h-809v-6q5 -183 99.5 -291t250.5 -108q114 0 194 43.5t115 123.5h133q-38 -131 -157 -207.5t-288 -76.5q-222 0 -352 150.5t-130 405.5zM174 1560h157l181 -332h-111zM251 612h671q-2 167 -91.5 267 t-235.5 100q-147 0 -241 -100.5t-103 -266.5zM514 1560h153l135 -332h-105z" />
<glyph unicode="&#x206;" horiz-adv-x="1197" d="M185 0v1443h872v-124h-735v-519h698v-122h-698v-554h735v-124h-872zM298 1586q0 127 86 200.5t237 73.5t237 -73.5t86 -200.5h-118q0 82 -54.5 129t-150.5 47t-150.5 -47t-54.5 -129h-118z" />
<glyph unicode="&#x207;" horiz-adv-x="1174" d="M115 538q0 254 130.5 405.5t350.5 151.5q215 0 339 -143t124 -390v-58h-809v-6q5 -183 99.5 -291t250.5 -108q114 0 194 43.5t115 123.5h133q-38 -131 -157 -207.5t-288 -76.5q-222 0 -352 150.5t-130 405.5zM251 612h671q-2 167 -91.5 267t-235.5 100 q-147 0 -241 -100.5t-103 -266.5zM275 1240q0 140 84 223t236 83t236 -83t84 -223h-119q0 96 -51 151t-150 55t-150 -55t-51 -151h-119z" />
<glyph unicode="&#x208;" horiz-adv-x="507" d="M-164 1874h157l173 -297h-111zM180 1874h147l145 -297h-111zM185 0v1443h137v-1443h-137z" />
<glyph unicode="&#x209;" horiz-adv-x="480" d="M-181 1560h157l181 -332h-111zM159 1560h153l135 -332h-105zM175 0v1077h131v-1077h-131z" />
<glyph unicode="&#x20a;" horiz-adv-x="507" d="M-69 1586q0 127 86 200.5t237 73.5t237 -73.5t86 -200.5h-118q0 82 -54.5 129t-150.5 47t-150.5 -47t-54.5 -129h-118zM185 0v1443h137v-1443h-137z" />
<glyph unicode="&#x20b;" horiz-adv-x="480" d="M-80 1240q0 140 84 223t236 83t236 -83t84 -223h-119q0 96 -51 151t-150 55t-150 -55t-51 -151h-119zM175 0v1077h131v-1077h-131z" />
<glyph unicode="&#x20c;" horiz-adv-x="1561" d="M127 722q0 347 176 549t478 202t477.5 -202.5t175.5 -548.5t-175 -549t-478 -203q-304 0 -479 202.5t-175 549.5zM267 722q0 -286 138 -455.5t376 -169.5q236 0 374.5 169.5t138.5 455.5q0 287 -138.5 455.5t-374.5 168.5t-375 -168.5t-139 -455.5zM363 1874h157 l173 -297h-111zM707 1874h147l145 -297h-111z" />
<glyph unicode="&#x20d;" horiz-adv-x="1208" d="M115 539q0 258 131.5 407t357.5 149t358 -149t132 -407t-132 -407.5t-358 -149.5t-357.5 149.5t-131.5 407.5zM183 1560h157l181 -332h-111zM250 539q0 -205 94 -321.5t260 -116.5t260 116.5t94 321.5t-94 321.5t-260 116.5t-260 -116.5t-94 -321.5zM523 1560h153 l135 -332h-105z" />
<glyph unicode="&#x20e;" horiz-adv-x="1561" d="M127 722q0 347 176 549t478 202t477.5 -202.5t175.5 -548.5t-175 -549t-478 -203q-304 0 -479 202.5t-175 549.5zM267 722q0 -286 138 -455.5t376 -169.5q236 0 374.5 169.5t138.5 455.5q0 287 -138.5 455.5t-374.5 168.5t-375 -168.5t-139 -455.5zM458 1586 q0 127 86 200.5t237 73.5t237 -73.5t86 -200.5h-118q0 82 -54.5 129t-150.5 47t-150.5 -47t-54.5 -129h-118z" />
<glyph unicode="&#x20f;" horiz-adv-x="1208" d="M115 539q0 258 131.5 407t357.5 149t358 -149t132 -407t-132 -407.5t-358 -149.5t-357.5 149.5t-131.5 407.5zM250 539q0 -205 94 -321.5t260 -116.5t260 116.5t94 321.5t-94 321.5t-260 116.5t-260 -116.5t-94 -321.5zM284 1240q0 140 84 223t236 83t236 -83t84 -223 h-119q0 96 -51 151t-150 55t-150 -55t-51 -151h-119z" />
<glyph unicode="&#x210;" horiz-adv-x="1309" d="M173 1874h157l173 -297h-111zM185 0v1443h517q211 0 336 -114.5t125 -307.5q0 -153 -82 -261.5t-227 -146.5l350 -613h-160l-332 591h-21h-369v-591h-137zM322 713h369q157 0 244.5 80t87.5 224q0 142 -90 223t-248 81h-363v-608zM517 1874h147l145 -297h-111z" />
<glyph unicode="&#x211;" horiz-adv-x="764" d="M-47 1560h157l181 -332h-111zM169 0v1077h125v-177h13q27 88 110 141.5t190 53.5q64 0 101 -9v-131q-45 13 -117 13q-125 0 -208 -84.5t-83 -211.5v-672h-131zM293 1560h153l135 -332h-105z" />
<glyph unicode="&#x212;" horiz-adv-x="1309" d="M185 0v1443h517q211 0 336 -114.5t125 -307.5q0 -153 -82 -261.5t-227 -146.5l350 -613h-160l-332 591h-21h-369v-591h-137zM268 1586q0 127 86 200.5t237 73.5t237 -73.5t86 -200.5h-118q0 82 -54.5 129t-150.5 47t-150.5 -47t-54.5 -129h-118zM322 713h369 q157 0 244.5 80t87.5 224q0 142 -90 223t-248 81h-363v-608z" />
<glyph unicode="&#x213;" horiz-adv-x="764" d="M54 1240q0 140 84 223t236 83t236 -83t84 -223h-119q0 96 -51 151t-150 55t-150 -55t-51 -151h-119zM169 0v1077h125v-177h13q27 88 110 141.5t190 53.5q64 0 101 -9v-131q-45 13 -117 13q-125 0 -208 -84.5t-83 -211.5v-672h-131z" />
<glyph unicode="&#x214;" horiz-adv-x="1485" d="M184 500v943h136v-934q0 -183 114 -296t308 -113t308 113t114 296v934h137v-943q0 -237 -151 -381.5t-408 -144.5q-256 0 -407 144.5t-151 381.5zM324 1874h157l173 -297h-111zM668 1874h147l145 -297h-111z" />
<glyph unicode="&#x215;" horiz-adv-x="1193" d="M160 377v700h131v-667q0 -151 70.5 -229.5t208.5 -78.5q150 0 236.5 90.5t86.5 244.5v640h131v-1077h-125v194h-12q-41 -101 -132 -156.5t-219 -55.5q-179 0 -277.5 104.5t-98.5 290.5zM171 1560h157l181 -332h-111zM511 1560h153l135 -332h-105z" />
<glyph unicode="&#x216;" horiz-adv-x="1485" d="M184 500v943h136v-934q0 -183 114 -296t308 -113t308 113t114 296v934h137v-943q0 -237 -151 -381.5t-408 -144.5q-256 0 -407 144.5t-151 381.5zM419 1586q0 127 86 200.5t237 73.5t237 -73.5t86 -200.5h-118q0 82 -54.5 129t-150.5 47t-150.5 -47t-54.5 -129h-118z" />
<glyph unicode="&#x217;" horiz-adv-x="1193" d="M160 377v700h131v-667q0 -151 70.5 -229.5t208.5 -78.5q150 0 236.5 90.5t86.5 244.5v640h131v-1077h-125v194h-12q-41 -101 -132 -156.5t-219 -55.5q-179 0 -277.5 104.5t-98.5 290.5zM272 1240q0 140 84 223t236 83t236 -83t84 -223h-119q0 96 -51 151t-150 55 t-150 -55t-51 -151h-119z" />
<glyph unicode="&#x218;" horiz-adv-x="1284" d="M115 375h138q14 -124 126.5 -202t277.5 -78q161 0 266 80t105 201q0 102 -77.5 170t-244.5 109l-165 42q-203 50 -294 139.5t-91 236.5q0 176 137.5 288t356.5 112q206 0 345 -108.5t150 -274.5h-138q-17 116 -114.5 187t-246.5 71q-155 0 -252.5 -76.5t-97.5 -194.5 q0 -94 72 -153.5t237 -100.5l143 -36q223 -55 321.5 -148.5t98.5 -247.5q0 -189 -143.5 -305t-379.5 -116q-224 0 -370.5 112t-159.5 293zM486 -489l88 364h142l-130 -364h-100z" />
<glyph unicode="&#x219;" horiz-adv-x="1058" d="M111 270h136q22 -82 97 -129t191 -47q119 0 198 55t79 139q0 70 -51 113.5t-160 69.5l-163 39q-152 37 -223 103.5t-71 178.5q0 129 112.5 216t276.5 87q163 0 270 -75.5t125 -203.5h-129q-18 76 -89.5 121.5t-177.5 45.5q-107 0 -181.5 -53t-74.5 -133q0 -66 52 -107 t162 -67l148 -35q159 -38 234 -106.5t75 -183.5q0 -138 -119 -227t-297 -89q-176 0 -290 77.5t-130 210.5zM372 -489l88 364h142l-130 -364h-100z" />
<glyph unicode="&#x21a;" horiz-adv-x="1280" d="M88 1319v124h1104v-124h-484v-1319h-136v1319h-484zM481 -489l88 364h142l-130 -364h-100z" />
<glyph unicode="&#x21b;" horiz-adv-x="724" d="M61 966v111h176v280h131v-280h249v-111h-249v-668q0 -99 40 -143.5t131 -44.5q45 0 78 3v-112q-40 -7 -92 -7q-155 0 -221.5 63.5t-66.5 210.5v698h-176zM249 -489l88 364h142l-130 -364h-100z" />
<glyph unicode="&#x21e;" horiz-adv-x="1488" d="M185 0v1443h137v-642h844v642h137v-1443h-137v677h-844v-677h-137zM393 1874h155l190 -202h12l190 202h155l-289 -297h-124z" />
<glyph unicode="&#x21f;" horiz-adv-x="1210" d="M-107 1937h155l190 -202h12l190 202h155l-289 -297h-124zM179 0v1506h131v-623h12q44 101 135 156.5t219 55.5q174 0 274 -104.5t100 -290.5v-700h-131v667q0 152 -71.5 231t-206.5 79q-151 0 -241 -93.5t-90 -243.5v-640h-131z" />
<glyph unicode="&#x226;" horiz-adv-x="1363" d="M74 0l540 1443h136l539 -1443h-144l-160 442h-606l-160 -442h-145zM420 560h524l-256 704h-13zM585 1744q0 40 28.5 68.5t68.5 28.5t68.5 -28.5t28.5 -68.5q0 -41 -28.5 -69.5t-68.5 -28.5t-68.5 28.5t-28.5 69.5z" />
<glyph unicode="&#x227;" horiz-adv-x="1125" d="M106 298q0 140 100 220.5t288 93.5l337 22v101q0 118 -70 180.5t-201 62.5q-111 0 -185 -44t-93 -123h-133q19 130 133 207t282 77q189 0 294 -94.5t105 -264.5v-736h-126v185h-12q-49 -96 -143 -149.5t-213 -53.5q-160 0 -261.5 86.5t-101.5 229.5zM241 300 q0 -92 70 -147t180 -55q145 0 242.5 87.5t97.5 215.5v126l-319 -23q-271 -19 -271 -204zM467 1398q0 40 28.5 68.5t68.5 28.5t68.5 -28.5t28.5 -68.5t-28.5 -68.5t-68.5 -28.5t-68.5 28.5t-28.5 68.5z" />
<glyph unicode="&#x228;" horiz-adv-x="1197" d="M185 0v1443h872v-124h-735v-519h698v-122h-698v-554h735v-124h-361l-73 -135q101 0 160 -42t59 -118q0 -90 -69 -137.5t-173 -47.5q-67 0 -142 20v92q49 -17 121 -17q58 0 98 22t40 63q0 79 -155 79h-56v71l79 150h-400z" />
<glyph unicode="&#x229;" horiz-adv-x="1174" d="M115 538q0 254 130.5 405.5t350.5 151.5q215 0 339 -143t124 -390v-58h-809v-6q5 -183 99.5 -291t250.5 -108q114 0 194 43.5t115 123.5h133q-35 -117 -134.5 -191.5t-242.5 -89.5l-65 -120q101 0 160 -42t59 -118q0 -90 -69 -137.5t-173 -47.5q-67 0 -142 20v92 q49 -17 121 -17q58 0 98 22t40 63q0 79 -155 79h-56v71l70 134q-203 15 -320.5 163.5t-117.5 390.5zM251 612h671q-2 167 -91.5 267t-235.5 100q-147 0 -241 -100.5t-103 -266.5z" />
<glyph unicode="&#x22a;" horiz-adv-x="1561" d="M127 722q0 347 176 549t478 202t477.5 -202.5t175.5 -548.5t-175 -549t-478 -203q-304 0 -479 202.5t-175 549.5zM267 722q0 -286 138 -455.5t376 -169.5q236 0 374.5 169.5t138.5 455.5q0 287 -138.5 455.5t-374.5 168.5t-375 -168.5t-139 -455.5zM462 1915v101h638 v-101h-638zM500 1679q0 41 29 70t70 29t70 -29t29 -70t-29 -70t-70 -29t-70 29t-29 70zM864 1679q0 41 29 70t70 29t70 -29t29 -70t-29 -70t-70 -29t-70 29t-29 70z" />
<glyph unicode="&#x22b;" horiz-adv-x="1208" d="M115 539q0 258 131.5 407t357.5 149t358 -149t132 -407t-132 -407.5t-358 -149.5t-357.5 149.5t-131.5 407.5zM250 539q0 -205 94 -321.5t260 -116.5t260 116.5t94 321.5t-94 321.5t-260 116.5t-260 -116.5t-94 -321.5zM294 1632v105h624v-105h-624zM323 1339 q0 42 29 70.5t70 28.5t70 -28.5t29 -70.5q0 -41 -29 -70t-70 -29t-70 29t-29 70zM687 1339q0 42 29 70.5t70 28.5t70 -28.5t29 -70.5q0 -41 -29 -70t-70 -29t-70 29t-29 70z" />
<glyph unicode="&#x22c;" horiz-adv-x="1561" d="M127 722q0 347 176 549t478 202t477.5 -202.5t175.5 -548.5t-175 -549t-478 -203q-304 0 -479 202.5t-175 549.5zM267 722q0 -286 138 -455.5t376 -169.5q236 0 374.5 169.5t138.5 455.5q0 287 -138.5 455.5t-374.5 168.5t-375 -168.5t-139 -455.5zM442 1588 q0 99 55.5 160.5t146.5 61.5q44 0 78 -14t55.5 -34t40.5 -40t43 -34t53 -14q43 0 70.5 31.5t30.5 90.5h105q0 -97 -56 -160t-146 -63q-44 0 -78 14t-55.5 34.5t-40.5 40.5t-43 34t-53 14q-46 0 -72 -31.5t-28 -90.5h-106zM459 1915v101h644v-101h-644z" />
</font>
</defs>
</svg>
