<?xml version="1.0" standalone="no"?>
<!DOCTYPE svg PUBLIC "-//W3C//DTD SVG 1.1//EN" "http://www.w3.org/Graphics/SVG/1.1/DTD/svg11.dtd" >
<svg xmlns="http://www.w3.org/2000/svg" xmlns:xlink="http://www.w3.org/1999/xlink" version="1.1">
<metadata></metadata>
<defs>
<font id="sf_pro_textheavy" horiz-adv-x="1800" >
<font-face units-per-em="2048" ascent="1638" descent="-410" />
<missing-glyph horiz-adv-x="502" />
<glyph unicode="&#x31;&#x20dd;" d="M123 720q0 214 103 392.5t281.5 281.5t392.5 103t392.5 -103t281.5 -281.5t103 -392.5t-103 -392.5t-281.5 -281.5t-392.5 -103t-392.5 103t-281.5 281.5t-103 392.5zM333 720q0 -157 75 -289.5t205.5 -209.5t286.5 -77t286.5 77t205.5 209.5t75 289.5t-75 289.5 t-205.5 209.5t-286.5 77t-286.5 -77t-205.5 -209.5t-75 -289.5zM651 763v201l165 108h238v-692h-238v486h-13z" />
<glyph unicode="&#x32;&#x20dd;" d="M123 720q0 214 103 392.5t281.5 281.5t392.5 103t392.5 -103t281.5 -281.5t103 -392.5t-103 -392.5t-281.5 -281.5t-392.5 -103t-392.5 103t-281.5 281.5t-103 392.5zM333 720q0 -157 75 -289.5t205.5 -209.5t286.5 -77t286.5 77t205.5 209.5t75 289.5t-75 289.5 t-205.5 209.5t-286.5 77t-286.5 -77t-205.5 -209.5t-75 -289.5zM614 832v2q0 110 78 179t210 69q122 0 198.5 -59.5t76.5 -152.5q0 -53 -32 -102t-102 -110l-93 -87v-9h237v-183h-557v146l240 218q41 38 57 60.5t16 46.5q0 23 -14.5 36.5t-37.5 13.5q-27 0 -43 -18t-15 -48 v-2h-219z" />
<glyph unicode="&#x33;&#x20dd;" d="M123 720q0 214 103 392.5t281.5 281.5t392.5 103t392.5 -103t281.5 -281.5t103 -392.5t-103 -392.5t-281.5 -281.5t-392.5 -103t-392.5 103t-281.5 281.5t-103 392.5zM333 720q0 -157 75 -289.5t205.5 -209.5t286.5 -77t286.5 77t205.5 209.5t75 289.5t-75 289.5 t-205.5 209.5t-286.5 77t-286.5 -77t-205.5 -209.5t-75 -289.5zM598 604h216q1 -29 22 -47t57 -18t57 14.5t21 37.5q-2 53 -77 53h-66v169h65q30 0 48.5 15.5t18.5 40.5q0 22 -18.5 35t-48.5 13q-34 0 -54.5 -19.5t-20.5 -50.5h-216q5 113 80 174t215 61q130 -1 207.5 -52 t78.5 -136q0 -53 -39.5 -95t-90.5 -49v-11q60 -5 103 -50t44 -112q0 -96 -82.5 -152t-221.5 -56q-136 0 -216.5 64.5t-81.5 170.5z" />
<glyph unicode="&#x34;&#x20dd;" d="M123 720q0 214 103 392.5t281.5 281.5t392.5 103t392.5 -103t281.5 -281.5t103 -392.5t-103 -392.5t-281.5 -281.5t-392.5 -103t-392.5 103t-281.5 281.5t-103 392.5zM333 720q0 -157 75 -289.5t205.5 -209.5t286.5 -77t286.5 77t205.5 209.5t75 289.5t-75 289.5 t-205.5 209.5t-286.5 77t-286.5 -77t-205.5 -209.5t-75 -289.5zM577 483v175q76 161 219 414h315v-417h97v-172h-97v-103h-191v103h-343zM776 655h144v258h-19q-83 -161 -125 -257v-1z" />
<glyph unicode="&#x35;&#x20dd;" d="M123 720q0 214 103 392.5t281.5 281.5t392.5 103t392.5 -103t281.5 -281.5t103 -392.5t-103 -392.5t-281.5 -281.5t-392.5 -103t-392.5 103t-281.5 281.5t-103 392.5zM333 720q0 -157 75 -289.5t205.5 -209.5t286.5 -77t286.5 77t205.5 209.5t75 289.5t-75 289.5 t-205.5 209.5t-286.5 77t-286.5 -77t-205.5 -209.5t-75 -289.5zM620 602h218q5 -25 25.5 -39.5t48.5 -14.5q31 0 53.5 22t22.5 56q0 31 -22 52.5t-54 21.5q-49 0 -68 -39h-211l25 418h506v-163h-332l-9 -129h11q16 29 57.5 48t94.5 19q102 0 164.5 -59.5t62.5 -161.5 q0 -118 -81 -187.5t-220 -69.5q-129 0 -210 63.5t-82 162.5z" />
<glyph unicode="&#x36;&#x20dd;" d="M123 720q0 214 103 392.5t281.5 281.5t392.5 103t392.5 -103t281.5 -281.5t103 -392.5t-103 -392.5t-281.5 -281.5t-392.5 -103t-392.5 103t-281.5 281.5t-103 392.5zM333 720q0 -157 75 -289.5t205.5 -209.5t286.5 -77t286.5 77t205.5 209.5t75 289.5t-75 289.5 t-205.5 209.5t-286.5 77t-286.5 -77t-205.5 -209.5t-75 -289.5zM582 727q0 160 87.5 256.5t235.5 96.5q115 0 201.5 -60.5t96.5 -151.5h-239q-3 18 -20 30t-39 12q-44 0 -68 -46.5t-21 -120.5h11q40 92 160 92q96 0 160 -62.5t64 -156.5q0 -110 -84 -179.5t-216 -69.5 q-148 0 -238.5 92t-90.5 268zM842 613q0 -31 19 -53t48 -22q30 0 48.5 21.5t18.5 52.5q0 32 -18.5 53t-49.5 21q-30 0 -48 -21t-18 -52z" />
<glyph unicode="&#x37;&#x20dd;" d="M123 720q0 214 103 392.5t281.5 281.5t392.5 103t392.5 -103t281.5 -281.5t103 -392.5t-103 -392.5t-281.5 -281.5t-392.5 -103t-392.5 103t-281.5 281.5t-103 392.5zM333 720q0 -157 75 -289.5t205.5 -209.5t286.5 -77t286.5 77t205.5 209.5t75 289.5t-75 289.5 t-205.5 209.5t-286.5 77t-286.5 -77t-205.5 -209.5t-75 -289.5zM620 886v183h570v-184l-262 -508h-254l276 501v8h-330z" />
<glyph unicode="&#x38;&#x20dd;" d="M123 720q0 214 103 392.5t281.5 281.5t392.5 103t392.5 -103t281.5 -281.5t103 -392.5t-103 -392.5t-281.5 -281.5t-392.5 -103t-392.5 103t-281.5 281.5t-103 392.5zM333 720q0 -157 75 -289.5t205.5 -209.5t286.5 -77t286.5 77t205.5 209.5t75 289.5t-75 289.5 t-205.5 209.5t-286.5 77t-286.5 -77t-205.5 -209.5t-75 -289.5zM579 576q0 67 43 111t116 53v10q-130 35 -130 145q0 86 79 136.5t213 50.5t213 -50.5t79 -136.5q0 -111 -130 -145v-10q73 -9 116 -53t43 -110q0 -97 -86.5 -153t-234.5 -56t-234.5 56t-86.5 152zM821 594 q0 -32 22.5 -53t56.5 -21t56.5 21t22.5 53q0 33 -22.5 54.5t-56.5 21.5t-56.5 -22t-22.5 -54zM836 868q0 -26 18 -43.5t46 -17.5t46 17.5t18 43.5t-18.5 44t-45.5 18t-45.5 -18t-18.5 -44z" />
<glyph unicode="&#x39;&#x20dd;" d="M123 720q0 214 103 392.5t281.5 281.5t392.5 103t392.5 -103t281.5 -281.5t103 -392.5t-103 -392.5t-281.5 -281.5t-392.5 -103t-392.5 103t-281.5 281.5t-103 392.5zM333 720q0 -157 75 -289.5t205.5 -209.5t286.5 -77t286.5 77t205.5 209.5t75 289.5t-75 289.5 t-205.5 209.5t-286.5 77t-286.5 -77t-205.5 -209.5t-75 -289.5zM586 831q0 110 84 179.5t216 69.5q159 0 243.5 -99.5t84.5 -260.5q0 -160 -88.5 -256.5t-235.5 -96.5q-117 0 -201.5 59.5t-94.5 150.5h239q2 -16 20 -28t40 -12q45 0 70 47.5t18 119.5h-11q-41 -91 -160 -91 q-96 0 -160 62t-64 156zM821 837q0 -31 19 -51t49 -20q29 0 47.5 20t18.5 50q0 32 -18 53t-48 21q-31 0 -49.5 -21t-18.5 -52z" />
<glyph unicode="A&#x20dd;" d="M123 720q0 214 103 392.5t281.5 281.5t392.5 103t392.5 -103t281.5 -281.5t103 -392.5t-103 -392.5t-281.5 -281.5t-392.5 -103t-392.5 103t-281.5 281.5t-103 392.5zM333 720q0 -157 75 -289.5t205.5 -209.5t286.5 -77t286.5 77t205.5 209.5t75 289.5t-75 289.5 t-205.5 209.5t-286.5 77t-286.5 -77t-205.5 -209.5t-75 -289.5zM541 407l214 692h290l214 -692h-231l-28 114h-200l-28 -114h-231zM836 687h128l-55 221h-18z" />
<glyph unicode="B&#x20dd;" d="M123 720q0 214 103 392.5t281.5 281.5t392.5 103t392.5 -103t281.5 -281.5t103 -392.5t-103 -392.5t-281.5 -281.5t-392.5 -103t-392.5 103t-281.5 281.5t-103 392.5zM333 720q0 -157 75 -289.5t205.5 -209.5t286.5 -77t286.5 77t205.5 209.5t75 289.5t-75 289.5 t-205.5 209.5t-286.5 77t-286.5 -77t-205.5 -209.5t-75 -289.5zM614 380v692h369q101 0 159.5 -45.5t58.5 -124.5q0 -59 -37.5 -99.5t-99.5 -49.5v-11q77 -9 120.5 -54t43.5 -119q0 -84 -65.5 -136.5t-168.5 -52.5h-380zM829 532h76q96 0 96 73q0 33 -23.5 52t-64.5 19h-84 v-144zM830 798h69q88 0 88 67q0 29 -22 46.5t-57 17.5h-78v-131z" />
<glyph unicode="C&#x20dd;" d="M123 720q0 214 103 392.5t281.5 281.5t392.5 103t392.5 -103t281.5 -281.5t103 -392.5t-103 -392.5t-281.5 -281.5t-392.5 -103t-392.5 103t-281.5 281.5t-103 392.5zM333 720q0 -157 75 -289.5t205.5 -209.5t286.5 -77t286.5 77t205.5 209.5t75 289.5t-75 289.5 t-205.5 209.5t-286.5 77t-286.5 -77t-205.5 -209.5t-75 -289.5zM556 725q0 165 97 261t248 96q141 0 229.5 -78t93.5 -203h-213q-2 40 -32.5 66.5t-73.5 26.5q-54 0 -85.5 -44t-31.5 -125t31.5 -125t85.5 -44q42 0 72.5 26t32.5 65h214q-5 -123 -94 -201t-229 -78 q-151 0 -248 96t-97 261z" />
<glyph unicode="D&#x20dd;" d="M123 720q0 214 103 392.5t281.5 281.5t392.5 103t392.5 -103t281.5 -281.5t103 -392.5t-103 -392.5t-281.5 -281.5t-392.5 -103t-392.5 103t-281.5 281.5t-103 392.5zM333 720q0 -157 75 -289.5t205.5 -209.5t286.5 -77t286.5 77t205.5 209.5t75 289.5t-75 289.5 t-205.5 209.5t-286.5 77t-286.5 -77t-205.5 -209.5t-75 -289.5zM616 380v692h320q158 0 241 -89.5t83 -257.5q0 -167 -83 -256t-241 -89h-320zM840 557h56q68 0 98 39.5t30 128.5t-30.5 129t-97.5 40h-56v-337z" />
<glyph unicode="E&#x20dd;" d="M123 720q0 214 103 392.5t281.5 281.5t392.5 103t392.5 -103t281.5 -281.5t103 -392.5t-103 -392.5t-281.5 -281.5t-392.5 -103t-392.5 103t-281.5 281.5t-103 392.5zM333 720q0 -157 75 -289.5t205.5 -209.5t286.5 -77t286.5 77t205.5 209.5t75 289.5t-75 289.5 t-205.5 209.5t-286.5 77t-286.5 -77t-205.5 -209.5t-75 -289.5zM655 380v692h515v-174h-293v-98h274v-147h-274v-99h293v-174h-515z" />
<glyph unicode="F&#x20dd;" d="M123 720q0 214 103 392.5t281.5 281.5t392.5 103t392.5 -103t281.5 -281.5t103 -392.5t-103 -392.5t-281.5 -281.5t-392.5 -103t-392.5 103t-281.5 281.5t-103 392.5zM333 720q0 -157 75 -289.5t205.5 -209.5t286.5 -77t286.5 77t205.5 209.5t75 289.5t-75 289.5 t-205.5 209.5t-286.5 77t-286.5 -77t-205.5 -209.5t-75 -289.5zM665 380v692h514v-178h-281v-104h255v-177h-255v-233h-233z" />
<glyph unicode="G&#x20dd;" d="M123 720q0 214 103 392.5t281.5 281.5t392.5 103t392.5 -103t281.5 -281.5t103 -392.5t-103 -392.5t-281.5 -281.5t-392.5 -103t-392.5 103t-281.5 281.5t-103 392.5zM333 720q0 -157 75 -289.5t205.5 -209.5t286.5 -77t286.5 77t205.5 209.5t75 289.5t-75 289.5 t-205.5 209.5t-286.5 77t-286.5 -77t-205.5 -209.5t-75 -289.5zM556 725q0 160 95.5 258.5t250.5 98.5q131 0 220 -69t103 -183h-221q-4 36 -30.5 57.5t-68.5 21.5q-53 0 -85 -50.5t-32 -133.5q0 -85 32.5 -138.5t84.5 -53.5q51 0 79 23t28 60v17h-109v137h323v-121 q0 -121 -89 -201t-235 -80q-155 0 -250.5 98.5t-95.5 258.5z" />
<glyph unicode="H&#x20dd;" d="M123 720q0 214 103 392.5t281.5 281.5t392.5 103t392.5 -103t281.5 -281.5t103 -392.5t-103 -392.5t-281.5 -281.5t-392.5 -103t-392.5 103t-281.5 281.5t-103 392.5zM333 720q0 -157 75 -289.5t205.5 -209.5t286.5 -77t286.5 77t205.5 209.5t75 289.5t-75 289.5 t-205.5 209.5t-286.5 77t-286.5 -77t-205.5 -209.5t-75 -289.5zM581 380v692h217v-255h204v255h217v-692h-217v249h-204v-249h-217z" />
<glyph unicode="I&#x20dd;" d="M123 720q0 214 103 392.5t281.5 281.5t392.5 103t392.5 -103t281.5 -281.5t103 -392.5t-103 -392.5t-281.5 -281.5t-392.5 -103t-392.5 103t-281.5 281.5t-103 392.5zM333 720q0 -157 75 -289.5t205.5 -209.5t286.5 -77t286.5 77t205.5 209.5t75 289.5t-75 289.5 t-205.5 209.5t-286.5 77t-286.5 -77t-205.5 -209.5t-75 -289.5zM771 380v692h258v-692h-258z" />
<glyph unicode="J&#x20dd;" d="M123 720q0 214 103 392.5t281.5 281.5t392.5 103t392.5 -103t281.5 -281.5t103 -392.5t-103 -392.5t-281.5 -281.5t-392.5 -103t-392.5 103t-281.5 281.5t-103 392.5zM333 720q0 -157 75 -289.5t205.5 -209.5t286.5 -77t286.5 77t205.5 209.5t75 289.5t-75 289.5 t-205.5 209.5t-286.5 77t-286.5 -77t-205.5 -209.5t-75 -289.5zM583 639h230q0 -77 60 -77q56 0 56 79v416h239v-422q0 -130 -77.5 -206t-210.5 -76q-137 0 -217 77.5t-80 208.5z" />
<glyph unicode="&#x212a;&#x20dd;" d="M123 720q0 214 103 392.5t281.5 281.5t392.5 103t392.5 -103t281.5 -281.5t103 -392.5t-103 -392.5t-281.5 -281.5t-392.5 -103t-392.5 103t-281.5 281.5t-103 392.5zM333 720q0 -157 75 -289.5t205.5 -209.5t286.5 -77t286.5 77t205.5 209.5t75 289.5t-75 289.5 t-205.5 209.5t-286.5 77t-286.5 -77t-205.5 -209.5t-75 -289.5zM591 380v692h209v-258h19l175 258h249l-211 -322l215 -370h-260l-129 231l-58 -70v-161h-209z" />
<glyph unicode="L&#x20dd;" d="M123 720q0 214 103 392.5t281.5 281.5t392.5 103t392.5 -103t281.5 -281.5t103 -392.5t-103 -392.5t-281.5 -281.5t-392.5 -103t-392.5 103t-281.5 281.5t-103 392.5zM333 720q0 -157 75 -289.5t205.5 -209.5t286.5 -77t286.5 77t205.5 209.5t75 289.5t-75 289.5 t-205.5 209.5t-286.5 77t-286.5 -77t-205.5 -209.5t-75 -289.5zM679 395v692h242v-497h268v-195h-510z" />
<glyph unicode="M&#x20dd;" d="M123 720q0 214 103 392.5t281.5 281.5t392.5 103t392.5 -103t281.5 -281.5t103 -392.5t-103 -392.5t-281.5 -281.5t-392.5 -103t-392.5 103t-281.5 281.5t-103 392.5zM333 720q0 -157 75 -289.5t205.5 -209.5t286.5 -77t286.5 77t205.5 209.5t75 289.5t-75 289.5 t-205.5 209.5t-286.5 77t-286.5 -77t-205.5 -209.5t-75 -289.5zM544 380v692h221l133 -416h6l133 416h220v-692h-169v398h-20l-119 -352h-99l-116 352h-20v-398h-170z" />
<glyph unicode="N&#x20dd;" d="M123 720q0 214 103 392.5t281.5 281.5t392.5 103t392.5 -103t281.5 -281.5t103 -392.5t-103 -392.5t-281.5 -281.5t-392.5 -103t-392.5 103t-281.5 281.5t-103 392.5zM333 720q0 -157 75 -289.5t205.5 -209.5t286.5 -77t286.5 77t205.5 209.5t75 289.5t-75 289.5 t-205.5 209.5t-286.5 77t-286.5 -77t-205.5 -209.5t-75 -289.5zM590 380v692h160l248 -339h17v339h195v-692h-159l-248 345h-18v-345h-195z" />
<glyph unicode="O&#x20dd;" d="M123 720q0 214 103 392.5t281.5 281.5t392.5 103t392.5 -103t281.5 -281.5t103 -392.5t-103 -392.5t-281.5 -281.5t-392.5 -103t-392.5 103t-281.5 281.5t-103 392.5zM333 720q0 -157 75 -289.5t205.5 -209.5t286.5 -77t286.5 77t205.5 209.5t75 289.5t-75 289.5 t-205.5 209.5t-286.5 77t-286.5 -77t-205.5 -209.5t-75 -289.5zM554 725q0 166 97.5 261.5t248.5 95.5t248.5 -95.5t97.5 -261.5t-97.5 -261.5t-248.5 -95.5t-248.5 95.5t-97.5 261.5zM787 725q0 -82 32 -125.5t81 -43.5t81 43.5t32 125.5t-32 125.5t-81 43.5t-81 -43.5 t-32 -125.5z" />
<glyph unicode="P&#x20dd;" d="M123 720q0 214 103 392.5t281.5 281.5t392.5 103t392.5 -103t281.5 -281.5t103 -392.5t-103 -392.5t-281.5 -281.5t-392.5 -103t-392.5 103t-281.5 281.5t-103 392.5zM333 720q0 -157 75 -289.5t205.5 -209.5t286.5 -77t286.5 77t205.5 209.5t75 289.5t-75 289.5 t-205.5 209.5t-286.5 77t-286.5 -77t-205.5 -209.5t-75 -289.5zM645 380v692h332q121 0 193.5 -72.5t72.5 -191.5q0 -117 -73 -187.5t-196 -70.5h-89v-170h-240zM868 720h67q81 0 81 88q0 89 -81 89h-67v-177z" />
<glyph unicode="Q&#x20dd;" d="M123 720q0 214 103 392.5t281.5 281.5t392.5 103t392.5 -103t281.5 -281.5t103 -392.5t-103 -392.5t-281.5 -281.5t-392.5 -103t-392.5 103t-281.5 281.5t-103 392.5zM333 720q0 -157 75 -289.5t205.5 -209.5t286.5 -77t286.5 77t205.5 209.5t75 289.5t-75 289.5 t-205.5 209.5t-286.5 77t-286.5 -77t-205.5 -209.5t-75 -289.5zM554 725q0 166 97.5 261.5t248.5 95.5t248.5 -95.5t97.5 -261.5q0 -173 -106 -271l89 -130h-223l-24 53q-39 -9 -82 -9q-151 0 -248.5 95.5t-97.5 261.5zM787 725q0 -82 32 -125.5t81 -43.5q10 0 21 3l-38 89 h101l11 -14q18 38 18 91q0 82 -32 125.5t-81 43.5t-81 -43.5t-32 -125.5z" />
<glyph unicode="R&#x20dd;" d="M123 720q0 214 103 392.5t281.5 281.5t392.5 103t392.5 -103t281.5 -281.5t103 -392.5t-103 -392.5t-281.5 -281.5t-392.5 -103t-392.5 103t-281.5 281.5t-103 392.5zM333 720q0 -157 75 -289.5t205.5 -209.5t286.5 -77t286.5 77t205.5 209.5t75 289.5t-75 289.5 t-205.5 209.5t-286.5 77t-286.5 -77t-205.5 -209.5t-75 -289.5zM609 380v692h327q138 0 213.5 -60t75.5 -169q0 -72 -36 -122.5t-100 -70.5l151 -270h-241l-111 228h-68v-228h-211zM820 756h92q37 0 58.5 19t21.5 54q0 36 -20.5 55t-58.5 19h-93v-147z" />
<glyph unicode="S&#x20dd;" d="M123 720q0 214 103 392.5t281.5 281.5t392.5 103t392.5 -103t281.5 -281.5t103 -392.5t-103 -392.5t-281.5 -281.5t-392.5 -103t-392.5 103t-281.5 281.5t-103 392.5zM333 720q0 -157 75 -289.5t205.5 -209.5t286.5 -77t286.5 77t205.5 209.5t75 289.5t-75 289.5 t-205.5 209.5t-286.5 77t-286.5 -77t-205.5 -209.5t-75 -289.5zM591 587h222q4 -25 28.5 -40t62.5 -15q40 0 63.5 14.5t23.5 39.5q0 21 -21 31.5t-84 20.5l-77 12q-101 15 -155 67t-54 135q0 104 81.5 166.5t217.5 62.5q125 0 205.5 -57t89.5 -154h-216q-11 51 -79 51 q-34 0 -54.5 -13t-20.5 -36q0 -21 21.5 -33t77.5 -19l87 -14q201 -30 201 -201q0 -108 -85 -172t-228 -64q-139 0 -220.5 57.5t-86.5 160.5z" />
<glyph unicode="T&#x20dd;" d="M123 720q0 214 103 392.5t281.5 281.5t392.5 103t392.5 -103t281.5 -281.5t103 -392.5t-103 -392.5t-281.5 -281.5t-392.5 -103t-392.5 103t-281.5 281.5t-103 392.5zM333 720q0 -157 75 -289.5t205.5 -209.5t286.5 -77t286.5 77t205.5 209.5t75 289.5t-75 289.5 t-205.5 209.5t-286.5 77t-286.5 -77t-205.5 -209.5t-75 -289.5zM592 857v191h616v-191h-187v-501h-242v501h-187z" />
<glyph unicode="U&#x20dd;" d="M123 720q0 214 103 392.5t281.5 281.5t392.5 103t392.5 -103t281.5 -281.5t103 -392.5t-103 -392.5t-281.5 -281.5t-392.5 -103t-392.5 103t-281.5 281.5t-103 392.5zM333 720q0 -157 75 -289.5t205.5 -209.5t286.5 -77t286.5 77t205.5 209.5t75 289.5t-75 289.5 t-205.5 209.5t-286.5 77t-286.5 -77t-205.5 -209.5t-75 -289.5zM584 594v454h230v-432q0 -39 23.5 -61.5t62.5 -22.5t62.5 22.5t23.5 61.5v432h230v-454q0 -108 -87.5 -179t-228.5 -71t-228.5 71t-87.5 179z" />
<glyph unicode="V&#x20dd;" d="M123 720q0 214 103 392.5t281.5 281.5t392.5 103t392.5 -103t281.5 -281.5t103 -392.5t-103 -392.5t-281.5 -281.5t-392.5 -103t-392.5 103t-281.5 281.5t-103 392.5zM333 720q0 -157 75 -289.5t205.5 -209.5t286.5 -77t286.5 77t205.5 209.5t75 289.5t-75 289.5 t-205.5 209.5t-286.5 77t-286.5 -77t-205.5 -209.5t-75 -289.5zM544 1040h258l91 -473h14l91 473h258l-194 -692h-324z" />
<glyph unicode="W&#x20dd;" d="M123 720q0 214 103 392.5t281.5 281.5t392.5 103t392.5 -103t281.5 -281.5t103 -392.5t-103 -392.5t-281.5 -281.5t-392.5 -103t-392.5 103t-281.5 281.5t-103 392.5zM333 720q0 -157 75 -289.5t205.5 -209.5t286.5 -77t286.5 77t205.5 209.5t75 289.5t-75 289.5 t-205.5 209.5t-286.5 77t-286.5 -77t-205.5 -209.5t-75 -289.5zM472 1048h197l62 -440h10l85 440h149l84 -440h10l62 440h197l-143 -692h-196l-85 393h-8l-85 -393h-195z" />
<glyph unicode="X&#x20dd;" d="M123 720q0 214 103 392.5t281.5 281.5t392.5 103t392.5 -103t281.5 -281.5t103 -392.5t-103 -392.5t-281.5 -281.5t-392.5 -103t-392.5 103t-281.5 281.5t-103 392.5zM333 720q0 -157 75 -289.5t205.5 -209.5t286.5 -77t286.5 77t205.5 209.5t75 289.5t-75 289.5 t-205.5 209.5t-286.5 77t-286.5 -77t-205.5 -209.5t-75 -289.5zM540 380l213 346l-212 346h257l95 -210h12l97 210h243l-207 -347l206 -345h-244l-97 209h-13l-95 -209h-255z" />
<glyph unicode="Y&#x20dd;" d="M123 720q0 214 103 392.5t281.5 281.5t392.5 103t392.5 -103t281.5 -281.5t103 -392.5t-103 -392.5t-281.5 -281.5t-392.5 -103t-392.5 103t-281.5 281.5t-103 392.5zM333 720q0 -157 75 -289.5t205.5 -209.5t286.5 -77t286.5 77t205.5 209.5t75 289.5t-75 289.5 t-205.5 209.5t-286.5 77t-286.5 -77t-205.5 -209.5t-75 -289.5zM540 1052h260l97 -265h7l97 265h259l-234 -487v-206h-251v205z" />
<glyph unicode="Z&#x20dd;" d="M123 720q0 214 103 392.5t281.5 281.5t392.5 103t392.5 -103t281.5 -281.5t103 -392.5t-103 -392.5t-281.5 -281.5t-392.5 -103t-392.5 103t-281.5 281.5t-103 392.5zM333 720q0 -157 75 -289.5t205.5 -209.5t286.5 -77t286.5 77t205.5 209.5t75 289.5t-75 289.5 t-205.5 209.5t-286.5 77t-286.5 -77t-205.5 -209.5t-75 -289.5zM618 888v184h557v-149l-266 -348v-12h277v-183h-563v148l265 349v11h-270z" />
<glyph unicode="&#x23;&#x20dd;" d="M123 720q0 214 103 392.5t281.5 281.5t392.5 103t392.5 -103t281.5 -281.5t103 -392.5t-103 -392.5t-281.5 -281.5t-392.5 -103t-392.5 103t-281.5 281.5t-103 392.5zM333 720q0 -157 75 -289.5t205.5 -209.5t286.5 -77t286.5 77t205.5 209.5t75 289.5t-75 289.5 t-205.5 209.5t-286.5 77t-286.5 -77t-205.5 -209.5t-75 -289.5zM595 724q0 165 81.5 260t220.5 95t223.5 -95t84.5 -260t-84.5 -260.5t-223.5 -95.5t-220.5 95t-81.5 261zM819 724q0 -178 81 -178t81 178q0 177 -81 177t-81 -177z" />
<glyph unicode="&#x30;&#x20dd;&#x25cf;" d="M124 722q0 105 28 205.5t78 185.5t122 157t157 122t185.5 78t205.5 28t205.5 -28t185.5 -78t157 -122t122 -157t78 -185.5t28 -205.5q0 -157 -61.5 -301t-165.5 -248t-248 -166t-301 -62t-301 62t-248 166t-165.5 248t-61.5 301zM570 724q0 -181 87.5 -283.5 t238.5 -102.5q152 0 242.5 103t90.5 283q0 179 -90.5 282t-242.5 103q-151 0 -238.5 -102.5t-87.5 -282.5zM817 724q0 199 82 199t82 -199q0 -200 -82 -200t-82 200z" />
<glyph unicode="&#x31;&#x20dd;&#x25cf;" d="M124 722q0 105 28 205.5t78 185.5t122 157t157 122t185.5 78t205.5 28t205.5 -28t185.5 -78t157 -122t122 -157t78 -185.5t28 -205.5q0 -157 -61.5 -301t-165.5 -248t-248 -166t-301 -62t-301 62t-248 166t-165.5 248t-61.5 301zM630 757l169 113h7v-519h262v746h-260 l-178 -116v-224z" />
<glyph unicode="&#x32;&#x20dd;&#x25cf;" d="M124 722q0 105 28 205.5t78 185.5t122 157t157 122t185.5 78t205.5 28t205.5 -28t185.5 -78t157 -122t122 -157t78 -185.5t28 -205.5q0 -157 -61.5 -301t-165.5 -248t-248 -166t-301 -62t-301 62t-248 166t-165.5 248t-61.5 301zM588 834h229v3q0 40 18.5 63t51.5 23 q29 0 46.5 -15.5t17.5 -41.5q0 -31 -21.5 -60.5t-78.5 -80.5l-247 -216v-160h602v203h-268v4l105 94q78 66 112.5 119.5t34.5 116.5q0 94 -81.5 158t-203.5 64q-145 0 -231 -75t-86 -196v-3z" />
<glyph unicode="&#x33;&#x20dd;&#x25cf;" d="M124 722q0 105 28 205.5t78 185.5t122 157t157 122t185.5 78t205.5 28t205.5 -28t185.5 -78t157 -122t122 -157t78 -185.5t28 -205.5q0 -157 -61.5 -301t-165.5 -248t-248 -166t-301 -62t-301 62t-248 166t-165.5 248t-61.5 301zM570 594q1 -112 90 -183.5t233 -71.5 q148 0 238 61.5t90 165.5q-1 70 -47 119t-110 55v8q55 8 96.5 52.5t41.5 103.5q-1 92 -85.5 148.5t-222.5 56.5q-153 -1 -234 -66t-86 -188h234q0 34 21.5 54t60.5 20q31 0 51.5 -16.5t20.5 -40.5q0 -27 -20.5 -43t-54.5 -16h-71v-169h76q39 0 62 -16.5t24 -44.5 q0 -28 -23 -44.5t-61 -16.5q-41 0 -65 19.5t-26 52.5h-233z" />
<glyph unicode="&#x34;&#x20dd;&#x25cf;" d="M124 722q0 105 28 205.5t78 185.5t122 157t157 122t185.5 78t205.5 28t205.5 -28t185.5 -78t157 -122t122 -157t78 -185.5t28 -205.5q0 -157 -61.5 -301t-165.5 -248t-248 -166t-301 -62t-301 62t-248 166t-165.5 248t-61.5 301zM548 461h366v-110h212v110h103v191h-103 v445h-343q-151 -264 -235 -445v-191zM768 652v1q40 90 132 267h14v-268h-146z" />
<glyph unicode="&#x35;&#x20dd;&#x25cf;" d="M124 722q0 105 28 205.5t78 185.5t122 157t157 122t185.5 78t205.5 28t205.5 -28t185.5 -78t157 -122t122 -157t78 -185.5t28 -205.5q0 -157 -61.5 -301t-165.5 -248t-248 -166t-301 -62t-301 62t-248 166t-165.5 248t-61.5 301zM592 589q2 -110 88.5 -176.5t227.5 -66.5 q150 0 237.5 74.5t87.5 204.5q0 110 -67.5 175t-178.5 65q-58 0 -102 -20t-61 -52h-8l10 139h354v174h-547l-27 -448h220q23 47 83 47q39 0 64 -24.5t25 -64.5t-25.5 -65t-63.5 -25q-34 0 -59 17t-30 46h-228z" />
<glyph unicode="&#x36;&#x20dd;&#x25cf;" d="M124 722q0 105 28 205.5t78 185.5t122 157t157 122t185.5 78t205.5 28t205.5 -28t185.5 -78t157 -122t122 -157t78 -185.5t28 -205.5q0 -157 -61.5 -301t-165.5 -248t-248 -166t-301 -62t-301 62t-248 166t-165.5 248t-61.5 301zM554 727q0 -189 104.5 -288t276.5 -99 q153 0 251 75t98 193q0 103 -77.5 170t-196.5 67q-147 0 -201 -100h-11q-3 87 33 139.5t101 52.5q35 0 60.5 -14.5t32.5 -36.5h249q-13 97 -111.5 161t-232.5 64q-172 0 -274 -104t-102 -280zM828 605q0 37 29 62.5t76 25.5t76.5 -25.5t29.5 -63.5t-30.5 -64t-75.5 -26 q-46 0 -75.5 26t-29.5 65z" />
<glyph unicode="&#x37;&#x20dd;&#x25cf;" d="M124 722q0 105 28 205.5t78 185.5t122 157t157 122t185.5 78t205.5 28t205.5 -28t185.5 -78t157 -122t122 -157t78 -185.5t28 -205.5q0 -157 -61.5 -301t-165.5 -248t-248 -166t-301 -62t-301 62t-248 166t-165.5 248t-61.5 301zM594 893h352v-4l-298 -541h279l282 545 v202h-615v-202z" />
<glyph unicode="&#x38;&#x20dd;&#x25cf;" d="M124 722q0 105 28 205.5t78 185.5t122 157t157 122t185.5 78t205.5 28t205.5 -28t185.5 -78t157 -122t122 -157t78 -185.5t28 -205.5q0 -157 -61.5 -301t-165.5 -248t-248 -166t-301 -62t-301 62t-248 166t-165.5 248t-61.5 301zM553 565q0 -106 93 -166.5t253 -60.5 q161 0 254 60.5t93 166.5q0 71 -45.5 118.5t-124.5 58.5v4q138 40 138 158q0 94 -85 149.5t-230 55.5t-229.5 -55t-84.5 -150q0 -119 138 -158v-4q-79 -11 -124.5 -58.5t-45.5 -118.5zM806 584q0 39 26 64t67 25t67.5 -25t26.5 -64q0 -40 -26.5 -64.5t-67.5 -24.5t-67 24.5 t-26 64.5zM821 876q0 34 21.5 56t56.5 22t57 -21.5t22 -56.5q0 -34 -22 -55t-57 -21t-56.5 21t-21.5 55z" />
<glyph unicode="&#x39;&#x20dd;&#x25cf;" d="M124 722q0 105 28 205.5t78 185.5t122 157t157 122t185.5 78t205.5 28t205.5 -28t185.5 -78t157 -122t122 -157t78 -185.5t28 -205.5q0 -157 -61.5 -301t-165.5 -248t-248 -166t-301 -62t-301 62t-248 166t-165.5 248t-61.5 301zM554 843q0 -103 78 -170t196 -67 q148 0 201 100h12q7 -85 -30 -139t-102 -54q-35 0 -62 14t-33 36h-249q14 -97 110.5 -160t230.5 -63q173 0 275.5 104t102.5 280q0 173 -99.5 280t-280.5 107q-154 0 -252 -75t-98 -193zM800 849q0 37 29.5 62.5t76.5 25.5t76 -25.5t29 -63.5q0 -36 -29 -60.5t-75 -24.5 q-48 0 -77.5 24t-29.5 62z" />
<glyph unicode="A&#x20de;" d="M149 227v990q0 107 76.5 182.5t185.5 75.5h978q109 0 185.5 -75.5t76.5 -182.5v-990q0 -107 -76.5 -182.5t-185.5 -75.5h-978q-109 0 -185.5 75.5t-76.5 182.5zM356 283q0 -51 37.5 -87t89.5 -36h834q52 0 89.5 36t37.5 87v878q0 52 -37 87.5t-90 35.5h-834 q-53 0 -90 -35.5t-37 -87.5v-878zM541 403l214 692h290l214 -692h-231l-28 114h-200l-28 -114h-231zM836 683h128l-55 220h-18z" />
<glyph unicode="B&#x20de;" d="M149 227v990q0 107 76.5 182.5t185.5 75.5h978q109 0 185.5 -75.5t76.5 -182.5v-990q0 -107 -76.5 -182.5t-185.5 -75.5h-978q-109 0 -185.5 75.5t-76.5 182.5zM356 283q0 -51 37.5 -87t89.5 -36h834q52 0 89.5 36t37.5 87v878q0 52 -37 87.5t-90 35.5h-834 q-53 0 -90 -35.5t-37 -87.5v-878zM614 380v692h369q101 0 159.5 -45.5t58.5 -124.5q0 -59 -37.5 -99.5t-99.5 -49.5v-11q77 -9 120.5 -54t43.5 -119q0 -84 -65.5 -136.5t-168.5 -52.5h-380zM829 532h76q96 0 96 73q0 33 -23.5 52t-64.5 19h-84v-144zM830 798h69q88 0 88 67 q0 29 -22 46.5t-57 17.5h-78v-131z" />
<glyph unicode="C&#x20de;" d="M149 227v990q0 107 76.5 182.5t185.5 75.5h978q109 0 185.5 -75.5t76.5 -182.5v-990q0 -107 -76.5 -182.5t-185.5 -75.5h-978q-109 0 -185.5 75.5t-76.5 182.5zM356 283q0 -51 37.5 -87t89.5 -36h834q52 0 89.5 36t37.5 87v878q0 52 -37 87.5t-90 35.5h-834 q-53 0 -90 -35.5t-37 -87.5v-878zM556 725q0 165 97 261t248 96q141 0 229.5 -78t93.5 -203h-213q-2 40 -32.5 66.5t-73.5 26.5q-54 0 -85.5 -44t-31.5 -125t31.5 -125t85.5 -44q42 0 72.5 26t32.5 65h214q-5 -123 -94 -201t-229 -78q-151 0 -248 96t-97 261z" />
<glyph unicode="D&#x20de;" d="M149 227v990q0 107 76.5 182.5t185.5 75.5h978q109 0 185.5 -75.5t76.5 -182.5v-990q0 -107 -76.5 -182.5t-185.5 -75.5h-978q-109 0 -185.5 75.5t-76.5 182.5zM356 283q0 -51 37.5 -87t89.5 -36h834q52 0 89.5 36t37.5 87v878q0 52 -37 87.5t-90 35.5h-834 q-53 0 -90 -35.5t-37 -87.5v-878zM610 380v692h320q158 0 241.5 -89.5t83.5 -257.5q0 -167 -83.5 -256t-241.5 -89h-320zM835 557h56q67 0 97 39.5t30 128.5t-30 129t-97 40h-56v-337z" />
<glyph unicode="E&#x20de;" d="M149 227v990q0 107 76.5 182.5t185.5 75.5h978q109 0 185.5 -75.5t76.5 -182.5v-990q0 -107 -76.5 -182.5t-185.5 -75.5h-978q-109 0 -185.5 75.5t-76.5 182.5zM356 283q0 -51 37.5 -87t89.5 -36h834q52 0 89.5 36t37.5 87v878q0 52 -37 87.5t-90 35.5h-834 q-53 0 -90 -35.5t-37 -87.5v-878zM655 380v692h515v-174h-293v-98h274v-147h-274v-99h293v-174h-515z" />
<glyph unicode="F&#x20de;" d="M149 227v990q0 107 76.5 182.5t185.5 75.5h978q109 0 185.5 -75.5t76.5 -182.5v-990q0 -107 -76.5 -182.5t-185.5 -75.5h-978q-109 0 -185.5 75.5t-76.5 182.5zM356 283q0 -51 37.5 -87t89.5 -36h834q52 0 89.5 36t37.5 87v878q0 52 -37 87.5t-90 35.5h-834 q-53 0 -90 -35.5t-37 -87.5v-878zM665 380v692h514v-178h-281v-104h255v-177h-255v-233h-233z" />
<glyph unicode="G&#x20de;" d="M149 227v990q0 107 76.5 182.5t185.5 75.5h978q109 0 185.5 -75.5t76.5 -182.5v-990q0 -107 -76.5 -182.5t-185.5 -75.5h-978q-109 0 -185.5 75.5t-76.5 182.5zM356 283q0 -51 37.5 -87t89.5 -36h834q52 0 89.5 36t37.5 87v878q0 52 -37 87.5t-90 35.5h-834 q-53 0 -90 -35.5t-37 -87.5v-878zM556 725q0 160 95.5 258.5t250.5 98.5q131 0 220 -69t103 -183h-221q-4 36 -30.5 57.5t-68.5 21.5q-53 0 -85 -50.5t-32 -133.5q0 -85 32.5 -138.5t84.5 -53.5q51 0 79 23t28 60v17h-109v137h323v-121q0 -121 -89 -201t-235 -80 q-155 0 -250.5 98.5t-95.5 258.5z" />
<glyph unicode="H&#x20de;" d="M149 227v990q0 107 76.5 182.5t185.5 75.5h978q109 0 185.5 -75.5t76.5 -182.5v-990q0 -107 -76.5 -182.5t-185.5 -75.5h-978q-109 0 -185.5 75.5t-76.5 182.5zM356 283q0 -51 37.5 -87t89.5 -36h834q52 0 89.5 36t37.5 87v878q0 52 -37 87.5t-90 35.5h-834 q-53 0 -90 -35.5t-37 -87.5v-878zM581 380v692h217v-255h204v255h217v-692h-217v249h-204v-249h-217z" />
<glyph unicode="I&#x20de;" d="M149 227v990q0 107 76.5 182.5t185.5 75.5h978q109 0 185.5 -75.5t76.5 -182.5v-990q0 -107 -76.5 -182.5t-185.5 -75.5h-978q-109 0 -185.5 75.5t-76.5 182.5zM356 283q0 -51 37.5 -87t89.5 -36h834q52 0 89.5 36t37.5 87v878q0 52 -37 87.5t-90 35.5h-834 q-53 0 -90 -35.5t-37 -87.5v-878zM771 380v692h258v-692h-258z" />
<glyph unicode="J&#x20de;" d="M149 227v990q0 107 76.5 182.5t185.5 75.5h978q109 0 185.5 -75.5t76.5 -182.5v-990q0 -107 -76.5 -182.5t-185.5 -75.5h-978q-109 0 -185.5 75.5t-76.5 182.5zM356 283q0 -51 37.5 -87t89.5 -36h834q52 0 89.5 36t37.5 87v878q0 52 -37 87.5t-90 35.5h-834 q-53 0 -90 -35.5t-37 -87.5v-878zM583 639h230q0 -77 60 -77q56 0 56 79v416h239v-422q0 -130 -77.5 -206t-210.5 -76q-137 0 -217 77.5t-80 208.5z" />
<glyph unicode="&#x212a;&#x20de;" d="M149 227v990q0 107 76.5 182.5t185.5 75.5h978q109 0 185.5 -75.5t76.5 -182.5v-990q0 -107 -76.5 -182.5t-185.5 -75.5h-978q-109 0 -185.5 75.5t-76.5 182.5zM356 283q0 -51 37.5 -87t89.5 -36h834q52 0 89.5 36t37.5 87v878q0 52 -37 87.5t-90 35.5h-834 q-53 0 -90 -35.5t-37 -87.5v-878zM591 380v692h209v-258h19l175 258h249l-211 -322l215 -370h-260l-129 231l-58 -70v-161h-209z" />
<glyph unicode="L&#x20de;" d="M149 227v990q0 107 76.5 182.5t185.5 75.5h978q109 0 185.5 -75.5t76.5 -182.5v-990q0 -107 -76.5 -182.5t-185.5 -75.5h-978q-109 0 -185.5 75.5t-76.5 182.5zM356 283q0 -51 37.5 -87t89.5 -36h834q52 0 89.5 36t37.5 87v878q0 52 -37 87.5t-90 35.5h-834 q-53 0 -90 -35.5t-37 -87.5v-878zM682 395v692h241v-497h268v-195h-509z" />
<glyph unicode="M&#x20de;" d="M149 227v990q0 107 76.5 182.5t185.5 75.5h978q109 0 185.5 -75.5t76.5 -182.5v-990q0 -107 -76.5 -182.5t-185.5 -75.5h-978q-109 0 -185.5 75.5t-76.5 182.5zM356 283q0 -51 37.5 -87t89.5 -36h834q52 0 89.5 36t37.5 87v878q0 52 -37 87.5t-90 35.5h-834 q-53 0 -90 -35.5t-37 -87.5v-878zM544 380v692h221l133 -416h6l133 416h220v-692h-169v398h-20l-119 -352h-99l-116 352h-20v-398h-170z" />
<glyph unicode="N&#x20de;" d="M149 227v990q0 107 76.5 182.5t185.5 75.5h978q109 0 185.5 -75.5t76.5 -182.5v-990q0 -107 -76.5 -182.5t-185.5 -75.5h-978q-109 0 -185.5 75.5t-76.5 182.5zM356 283q0 -51 37.5 -87t89.5 -36h834q52 0 89.5 36t37.5 87v878q0 52 -37 87.5t-90 35.5h-834 q-53 0 -90 -35.5t-37 -87.5v-878zM590 380v692h160l248 -339h17v339h195v-692h-159l-248 345h-18v-345h-195z" />
<glyph unicode="O&#x20de;" d="M149 227v990q0 107 76.5 182.5t185.5 75.5h978q109 0 185.5 -75.5t76.5 -182.5v-990q0 -107 -76.5 -182.5t-185.5 -75.5h-978q-109 0 -185.5 75.5t-76.5 182.5zM356 283q0 -51 37.5 -87t89.5 -36h834q52 0 89.5 36t37.5 87v878q0 52 -37 87.5t-90 35.5h-834 q-53 0 -90 -35.5t-37 -87.5v-878zM554 725q0 166 97.5 261.5t248.5 95.5t248.5 -95.5t97.5 -261.5t-97.5 -261.5t-248.5 -95.5t-248.5 95.5t-97.5 261.5zM787 725q0 -82 32 -125.5t81 -43.5t81 43.5t32 125.5t-32 125.5t-81 43.5t-81 -43.5t-32 -125.5z" />
<glyph unicode="P&#x20de;" d="M149 227v990q0 107 76.5 182.5t185.5 75.5h978q109 0 185.5 -75.5t76.5 -182.5v-990q0 -107 -76.5 -182.5t-185.5 -75.5h-978q-109 0 -185.5 75.5t-76.5 182.5zM356 283q0 -51 37.5 -87t89.5 -36h834q52 0 89.5 36t37.5 87v878q0 52 -37 87.5t-90 35.5h-834 q-53 0 -90 -35.5t-37 -87.5v-878zM645 380v692h332q121 0 193.5 -72.5t72.5 -191.5q0 -117 -73 -187.5t-196 -70.5h-89v-170h-240zM868 720h67q81 0 81 88q0 89 -81 89h-67v-177z" />
<glyph unicode="Q&#x20de;" d="M149 227v990q0 107 76.5 182.5t185.5 75.5h978q109 0 185.5 -75.5t76.5 -182.5v-990q0 -107 -76.5 -182.5t-185.5 -75.5h-978q-109 0 -185.5 75.5t-76.5 182.5zM356 283q0 -51 37.5 -87t89.5 -36h834q52 0 89.5 36t37.5 87v878q0 52 -37 87.5t-90 35.5h-834 q-53 0 -90 -35.5t-37 -87.5v-878zM554 725q0 166 97.5 261.5t248.5 95.5t248.5 -95.5t97.5 -261.5q0 -173 -106 -271l89 -130h-223l-24 53q-39 -9 -82 -9q-151 0 -248.5 95.5t-97.5 261.5zM787 725q0 -82 32 -125.5t81 -43.5q10 0 21 3l-38 89h101l11 -14q18 38 18 91 q0 82 -32 125.5t-81 43.5t-81 -43.5t-32 -125.5z" />
<glyph unicode="R&#x20de;" d="M149 227v990q0 107 76.5 182.5t185.5 75.5h978q109 0 185.5 -75.5t76.5 -182.5v-990q0 -107 -76.5 -182.5t-185.5 -75.5h-978q-109 0 -185.5 75.5t-76.5 182.5zM356 283q0 -51 37.5 -87t89.5 -36h834q52 0 89.5 36t37.5 87v878q0 52 -37 87.5t-90 35.5h-834 q-53 0 -90 -35.5t-37 -87.5v-878zM609 380v692h327q138 0 213.5 -60t75.5 -169q0 -72 -36 -122.5t-100 -70.5l151 -270h-241l-111 228h-68v-228h-211zM820 756h92q37 0 58.5 19t21.5 54q0 36 -20.5 55t-58.5 19h-93v-147z" />
<glyph unicode="S&#x20de;" d="M149 227v990q0 107 76.5 182.5t185.5 75.5h978q109 0 185.5 -75.5t76.5 -182.5v-990q0 -107 -76.5 -182.5t-185.5 -75.5h-978q-109 0 -185.5 75.5t-76.5 182.5zM356 283q0 -51 37.5 -87t89.5 -36h834q52 0 89.5 36t37.5 87v878q0 52 -37 87.5t-90 35.5h-834 q-53 0 -90 -35.5t-37 -87.5v-878zM591 587h222q4 -25 28.5 -40t62.5 -15q40 0 63.5 14.5t23.5 39.5q0 21 -21 31.5t-84 20.5l-77 12q-101 15 -155 67t-54 135q0 104 81.5 166.5t217.5 62.5q125 0 205.5 -57t89.5 -154h-216q-11 51 -79 51q-34 0 -54.5 -13t-20.5 -36 q0 -21 21.5 -33t77.5 -19l87 -14q201 -30 201 -201q0 -108 -85 -172t-228 -64q-139 0 -220.5 57.5t-86.5 160.5z" />
<glyph unicode="T&#x20de;" d="M149 227v990q0 107 76.5 182.5t185.5 75.5h978q109 0 185.5 -75.5t76.5 -182.5v-990q0 -107 -76.5 -182.5t-185.5 -75.5h-978q-109 0 -185.5 75.5t-76.5 182.5zM356 283q0 -51 37.5 -87t89.5 -36h834q52 0 89.5 36t37.5 87v878q0 52 -37 87.5t-90 35.5h-834 q-53 0 -90 -35.5t-37 -87.5v-878zM592 862v191h616v-191h-187v-502h-242v502h-187z" />
<glyph unicode="U&#x20de;" d="M149 227v990q0 107 76.5 182.5t185.5 75.5h978q109 0 185.5 -75.5t76.5 -182.5v-990q0 -107 -76.5 -182.5t-185.5 -75.5h-978q-109 0 -185.5 75.5t-76.5 182.5zM356 283q0 -51 37.5 -87t89.5 -36h834q52 0 89.5 36t37.5 87v878q0 52 -37 87.5t-90 35.5h-834 q-53 0 -90 -35.5t-37 -87.5v-878zM584 599v454h230v-433q0 -38 24 -61t62 -23t62 23t24 61v433h230v-454q0 -108 -87.5 -179t-228.5 -71t-228.5 71t-87.5 179z" />
<glyph unicode="V&#x20de;" d="M149 227v990q0 107 76.5 182.5t185.5 75.5h978q109 0 185.5 -75.5t76.5 -182.5v-990q0 -107 -76.5 -182.5t-185.5 -75.5h-978q-109 0 -185.5 75.5t-76.5 182.5zM356 283q0 -51 37.5 -87t89.5 -36h834q52 0 89.5 36t37.5 87v878q0 52 -37 87.5t-90 35.5h-834 q-53 0 -90 -35.5t-37 -87.5v-878zM544 1045h258l91 -473h14l91 473h258l-194 -692h-324z" />
<glyph unicode="W&#x20de;" d="M149 227v990q0 107 76.5 182.5t185.5 75.5h978q109 0 185.5 -75.5t76.5 -182.5v-990q0 -107 -76.5 -182.5t-185.5 -75.5h-978q-109 0 -185.5 75.5t-76.5 182.5zM356 283q0 -51 37.5 -87t89.5 -36h834q52 0 89.5 36t37.5 87v878q0 52 -37 87.5t-90 35.5h-834 q-53 0 -90 -35.5t-37 -87.5v-878zM472 1053h197l62 -440h10l85 440h149l84 -440h10l62 440h197l-143 -693h-196l-85 394h-8l-85 -394h-195z" />
<glyph unicode="X&#x20de;" d="M149 227v990q0 107 76.5 182.5t185.5 75.5h978q109 0 185.5 -75.5t76.5 -182.5v-990q0 -107 -76.5 -182.5t-185.5 -75.5h-978q-109 0 -185.5 75.5t-76.5 182.5zM356 283q0 -51 37.5 -87t89.5 -36h834q52 0 89.5 36t37.5 87v878q0 52 -37 87.5t-90 35.5h-834 q-53 0 -90 -35.5t-37 -87.5v-878zM540 380l213 346l-212 346h257l95 -210h12l97 210h243l-207 -347l206 -345h-244l-97 209h-13l-95 -209h-255z" />
<glyph unicode="Y&#x20de;" d="M149 227v990q0 107 76.5 182.5t185.5 75.5h978q109 0 185.5 -75.5t76.5 -182.5v-990q0 -107 -76.5 -182.5t-185.5 -75.5h-978q-109 0 -185.5 75.5t-76.5 182.5zM356 283q0 -51 37.5 -87t89.5 -36h834q52 0 89.5 36t37.5 87v878q0 52 -37 87.5t-90 35.5h-834 q-53 0 -90 -35.5t-37 -87.5v-878zM540 1053h260l97 -265h7l97 265h259l-234 -487v-206h-251v206z" />
<glyph unicode="Z&#x20de;" d="M149 227v990q0 107 76.5 182.5t185.5 75.5h978q109 0 185.5 -75.5t76.5 -182.5v-990q0 -107 -76.5 -182.5t-185.5 -75.5h-978q-109 0 -185.5 75.5t-76.5 182.5zM356 283q0 -51 37.5 -87t89.5 -36h834q52 0 89.5 36t37.5 87v878q0 52 -37 87.5t-90 35.5h-834 q-53 0 -90 -35.5t-37 -87.5v-878zM618 888v184h557v-149l-266 -348v-12h277v-183h-563v148l265 349v11h-270z" />
<glyph unicode="A&#x20dd;&#x25cf;" d="M124 722q0 105 28 205.5t78 185.5t122 157t157 122t185.5 78t205.5 28t205.5 -28t185.5 -78t157 -122t122 -157t78 -185.5t28 -205.5q0 -157 -61.5 -301t-165.5 -248t-248 -166t-301 -62t-301 62t-248 166t-165.5 248t-61.5 301zM512 379h254l30 121h208l31 -121h253 l-230 746h-316zM824 661l69 276h14l69 -276h-152z" />
<glyph unicode="B&#x20dd;&#x25cf;" d="M124 722q0 105 28 205.5t78 185.5t122 157t157 122t185.5 78t205.5 28t205.5 -28t185.5 -78t157 -122t122 -157t78 -185.5t28 -205.5q0 -157 -61.5 -301t-165.5 -248t-248 -166t-301 -62t-301 62t-248 166t-165.5 248t-61.5 301zM585 351h411q111 0 182.5 58t71.5 149 q0 78 -45.5 126.5t-129.5 60.5v5q67 13 106 56.5t39 106.5q0 86 -63 135.5t-174 49.5h-398v-747zM817 516v156h90q46 0 72 -20.5t26 -56.5q0 -79 -106 -79h-82zM817 802v140h86q40 0 62.5 -18.5t22.5 -50.5q0 -71 -95 -71h-76z" />
<glyph unicode="C&#x20dd;&#x25cf;" d="M124 722q0 105 28 205.5t78 185.5t122 157t157 122t185.5 78t205.5 28t205.5 -28t185.5 -78t157 -122t122 -157t78 -185.5t28 -205.5q0 -157 -61.5 -301t-165.5 -248t-248 -166t-301 -62t-301 62t-248 166t-165.5 248t-61.5 301zM530 723q0 -178 105 -281.5t267 -103.5 q150 0 246 84t102 217h-233q-2 -40 -34.5 -67.5t-76.5 -27.5q-57 0 -90.5 46.5t-33.5 132.5t33.5 132t90.5 46q45 0 77.5 -28t34.5 -69h232q-5 134 -101 218.5t-247 84.5q-162 0 -267 -103t-105 -281z" />
<glyph unicode="D&#x20dd;&#x25cf;" d="M124 722q0 105 28 205.5t78 185.5t122 157t157 122t185.5 78t205.5 28t205.5 -28t185.5 -78t157 -122t122 -157t78 -185.5t28 -205.5q0 -157 -61.5 -301t-165.5 -248t-248 -166t-301 -62t-301 62t-248 166t-165.5 248t-61.5 301zM586 351h345q173 0 262.5 94.5 t89.5 278.5t-89.5 279t-262.5 95h-345v-747zM826 534v381h60q76 0 109 -44.5t33 -146.5t-33 -146t-109 -44h-60z" />
<glyph unicode="E&#x20dd;&#x25cf;" d="M124 722q0 105 28 205.5t78 185.5t122 157t157 122t185.5 78t205.5 28t205.5 -28t185.5 -78t157 -122t122 -157t78 -185.5t28 -205.5q0 -157 -61.5 -301t-165.5 -248t-248 -166t-301 -62t-301 62t-248 166t-165.5 248t-61.5 301zM629 351h560v176h-323v119h302v158h-302 v117h323v177h-560v-747z" />
<glyph unicode="F&#x20dd;&#x25cf;" d="M124 722q0 105 28 205.5t78 185.5t122 157t157 122t185.5 78t205.5 28t205.5 -28t185.5 -78t157 -122t122 -157t78 -185.5t28 -205.5q0 -157 -61.5 -301t-165.5 -248t-248 -166t-301 -62t-301 62t-248 166t-165.5 248t-61.5 301zM639 351h257v250h272v191h-272v118h302 v188h-559v-747z" />
<glyph unicode="G&#x20dd;&#x25cf;" d="M124 722q0 105 28 205.5t78 185.5t122 157t157 122t185.5 78t205.5 28t205.5 -28t185.5 -78t157 -122t122 -157t78 -185.5t28 -205.5q0 -157 -61.5 -301t-165.5 -248t-248 -166t-301 -62t-301 62t-248 166t-165.5 248t-61.5 301zM530 723q0 -173 102.5 -279t269.5 -106 q156 0 252.5 88t96.5 219v130h-346v-153h114v-10q0 -39 -29.5 -64.5t-83.5 -25.5q-55 0 -89.5 55.5t-34.5 145.5q0 88 34 140t90 52q45 0 72.5 -20.5t31.5 -55.5h241q-16 121 -112 194.5t-236 73.5q-167 0 -270 -106t-103 -278z" />
<glyph unicode="H&#x20dd;&#x25cf;" d="M124 722q0 105 28 205.5t78 185.5t122 157t157 122t185.5 78t205.5 28t205.5 -28t185.5 -78t157 -122t122 -157t78 -185.5t28 -205.5q0 -157 -61.5 -301t-165.5 -248t-248 -166t-301 -62t-301 62t-248 166t-165.5 248t-61.5 301zM557 351h237v267h213v-267h237v747h-237 v-272h-213v272h-237v-747z" />
<glyph unicode="I&#x20dd;&#x25cf;" d="M124 722q0 105 28 205.5t78 185.5t122 157t157 122t185.5 78t205.5 28t205.5 -28t185.5 -78t157 -122t122 -157t78 -185.5t28 -205.5q0 -157 -61.5 -301t-165.5 -248t-248 -166t-301 -62t-301 62t-248 166t-165.5 248t-61.5 301zM760 351h281v747h-281v-747z" />
<glyph unicode="J&#x20dd;&#x25cf;" d="M124 722q0 105 28 205.5t78 185.5t122 157t157 122t185.5 78t205.5 28t205.5 -28t185.5 -78t157 -122t122 -157t78 -185.5t28 -205.5q0 -157 -61.5 -301t-165.5 -248t-248 -166t-301 -62t-301 62t-248 166t-165.5 248t-61.5 301zM556 636q0 -144 86.5 -228t233.5 -84 q145 0 228.5 81.5t83.5 222.5v455h-262v-448q0 -80 -56 -80q-61 0 -61 81h-253z" />
<glyph unicode="&#x212a;&#x20dd;&#x25cf;" d="M124 722q0 105 28 205.5t78 185.5t122 157t157 122t185.5 78t205.5 28t205.5 -28t185.5 -78t157 -122t122 -157t78 -185.5t28 -205.5q0 -157 -61.5 -301t-165.5 -248t-248 -166t-301 -62t-301 62t-248 166t-165.5 248t-61.5 301zM562 351h230v176l57 69l137 -245h287 l-232 399l228 348h-275l-189 -274h-13v274h-230v-747z" />
<glyph unicode="L&#x20dd;&#x25cf;" d="M124 722q0 105 28 205.5t78 185.5t122 157t157 122t185.5 78t205.5 28t205.5 -28t185.5 -78t157 -122t122 -157t78 -185.5t28 -205.5q0 -157 -61.5 -301t-165.5 -248t-248 -166t-301 -62t-301 62t-248 166t-165.5 248t-61.5 301zM654 366h552v214h-287v533h-265v-747z " />
<glyph unicode="M&#x20dd;&#x25cf;" d="M124 722q0 105 28 205.5t78 185.5t122 157t157 122t185.5 78t205.5 28t205.5 -28t185.5 -78t157 -122t122 -157t78 -185.5t28 -205.5q0 -157 -61.5 -301t-165.5 -248t-248 -166t-301 -62t-301 62t-248 166t-165.5 248t-61.5 301zM515 351h184v431h20l124 -380h112 l127 379h20v-430h185v747h-238l-146 -447h-5l-145 447h-238v-747z" />
<glyph unicode="N&#x20dd;&#x25cf;" d="M124 722q0 105 28 205.5t78 185.5t122 157t157 122t185.5 78t205.5 28t205.5 -28t185.5 -78t157 -122t122 -157t78 -185.5t28 -205.5q0 -157 -61.5 -301t-165.5 -248t-248 -166t-301 -62t-301 62t-248 166t-165.5 248t-61.5 301zM564 351h216v369h14l266 -369h176v747 h-215v-364h-14l-265 364h-178v-747z" />
<glyph unicode="O&#x20dd;&#x25cf;" d="M124 722q0 105 28 205.5t78 185.5t122 157t157 122t185.5 78t205.5 28t205.5 -28t185.5 -78t157 -122t122 -157t78 -185.5t28 -205.5q0 -157 -61.5 -301t-165.5 -248t-248 -166t-301 -62t-301 62t-248 166t-165.5 248t-61.5 301zM527 723q0 -180 105 -282.5t268 -102.5 t268 102.5t105 282.5q0 179 -105 281.5t-268 102.5t-268 -102.5t-105 -281.5zM780 723q0 88 33.5 133.5t86.5 45.5t86.5 -45.5t33.5 -133.5t-33.5 -134t-86.5 -46t-86.5 46t-33.5 134z" />
<glyph unicode="P&#x20dd;&#x25cf;" d="M124 722q0 105 28 205.5t78 185.5t122 157t157 122t185.5 78t205.5 28t205.5 -28t185.5 -78t157 -122t122 -157t78 -185.5t28 -205.5q0 -157 -61.5 -301t-165.5 -248t-248 -166t-301 -62t-301 62t-248 166t-165.5 248t-61.5 301zM617 351h264v183h92q133 0 212 75.5 t79 202.5q0 130 -78.5 208t-209.5 78h-359v-747zM856 713v200h73q44 0 68.5 -26t24.5 -75q0 -99 -93 -99h-73z" />
<glyph unicode="Q&#x20dd;&#x25cf;" d="M124 722q0 105 28 205.5t78 185.5t122 157t157 122t185.5 78t205.5 28t205.5 -28t185.5 -78t157 -122t122 -157t78 -185.5t28 -205.5q0 -157 -61.5 -301t-165.5 -248t-248 -166t-301 -62t-301 62t-248 166t-165.5 248t-61.5 301zM527 723q0 -180 105 -282.5t268 -102.5 q49 0 89 10l24 -57h244l-97 142q113 105 113 290q0 179 -105 281.5t-268 102.5t-268 -102.5t-105 -281.5zM780 723q0 88 33.5 133.5t86.5 45.5t86.5 -45.5t33.5 -133.5q0 -59 -18 -96l-11 15h-113l42 -97q-7 -2 -20 -2q-53 0 -86.5 46t-33.5 134z" />
<glyph unicode="R&#x20dd;&#x25cf;" d="M124 722q0 105 28 205.5t78 185.5t122 157t157 122t185.5 78t205.5 28t205.5 -28t185.5 -78t157 -122t122 -157t78 -185.5t28 -205.5q0 -157 -61.5 -301t-165.5 -248t-248 -166t-301 -62t-301 62t-248 166t-165.5 248t-61.5 301zM580 351h233v244h68l117 -244h266 l-161 289q68 25 105.5 79.5t37.5 129.5q0 121 -81 185t-232 64h-353v-747zM805 754v163h104q89 0 89 -82q0 -38 -24 -59.5t-66 -21.5h-103z" />
<glyph unicode="S&#x20dd;&#x25cf;" d="M124 722q0 105 28 205.5t78 185.5t122 157t157 122t185.5 78t205.5 28t205.5 -28t185.5 -78t157 -122t122 -157t78 -185.5t28 -205.5q0 -157 -61.5 -301t-165.5 -248t-248 -166t-301 -62t-301 62t-248 166t-165.5 248t-61.5 301zM566 578q6 -112 93.5 -174.5t238.5 -62.5 q153 0 245 69.5t92 185.5q0 188 -218 218l-92 14q-60 9 -83 21.5t-23 34.5q0 24 21.5 38t58.5 14q71 0 84 -55h234q-10 105 -96 167t-222 62q-146 0 -234.5 -67.5t-88.5 -179.5q0 -90 58 -146t168 -73l82 -13q67 -10 89.5 -21.5t22.5 -34.5q0 -25 -25 -40.5t-67 -15.5 q-40 0 -65.5 16t-29.5 43h-243z" />
<glyph unicode="T&#x20dd;&#x25cf;" d="M124 722q0 105 28 205.5t78 185.5t122 157t157 122t185.5 78t205.5 28t205.5 -28t185.5 -78t157 -122t122 -157t78 -185.5t28 -205.5q0 -157 -61.5 -301t-165.5 -248t-248 -166t-301 -62t-301 62t-248 166t-165.5 248t-61.5 301zM567 865h201v-538h264v538h201v209h-666 v-209z" />
<glyph unicode="U&#x20dd;&#x25cf;" d="M124 722q0 105 28 205.5t78 185.5t122 157t157 122t185.5 78t205.5 28t205.5 -28t185.5 -78t157 -122t122 -157t78 -185.5t28 -205.5q0 -157 -61.5 -301t-165.5 -248t-248 -166t-301 -62t-301 62t-248 166t-165.5 248t-61.5 301zM559 569q0 -114 93.5 -184t247.5 -70 t248 70t94 184v506h-253v-468q0 -38 -24.5 -61.5t-64.5 -23.5t-64 23.5t-24 61.5v468h-253v-506z" />
<glyph unicode="V&#x20dd;&#x25cf;" d="M124 722q0 105 28 205.5t78 185.5t122 157t157 122t185.5 78t205.5 28t205.5 -28t185.5 -78t157 -122t122 -157t78 -185.5t28 -205.5q0 -157 -61.5 -301t-165.5 -248t-248 -166t-301 -62t-301 62t-248 166t-165.5 248t-61.5 301zM517 1066l209 -746h348l209 746h-278 l-98 -509h-14l-98 509h-278z" />
<glyph unicode="W&#x20dd;&#x25cf;" d="M124 722q0 105 28 205.5t78 185.5t122 157t157 122t185.5 78t205.5 28t205.5 -28t185.5 -78t157 -122t122 -157t78 -185.5t28 -205.5q0 -157 -61.5 -301t-165.5 -248t-248 -166t-301 -62t-301 62t-248 166t-165.5 248t-61.5 301zM436 1074l157 -747h215l91 420h2l92 -420 h215l156 747h-219l-65 -470h-6l-90 470h-167l-91 -470h-5l-65 470h-220z" />
<glyph unicode="X&#x20dd;&#x25cf;" d="M124 722q0 105 28 205.5t78 185.5t122 157t157 122t185.5 78t205.5 28t205.5 -28t185.5 -78t157 -122t122 -157t78 -185.5t28 -205.5q0 -157 -61.5 -301t-165.5 -248t-248 -166t-301 -62t-301 62t-248 166t-165.5 248t-61.5 301zM512 351h276l103 225h12l105 -225h264 l-222 373l223 374h-264l-103 -225h-12l-102 225h-279l228 -373z" />
<glyph unicode="Y&#x20dd;&#x25cf;" d="M124 722q0 105 28 205.5t78 185.5t122 157t157 122t185.5 78t205.5 28t205.5 -28t185.5 -78t157 -122t122 -157t78 -185.5t28 -205.5q0 -157 -61.5 -301t-165.5 -248t-248 -166t-301 -62t-301 62t-248 166t-165.5 248t-61.5 301zM509 1078l254 -525v-222h275v222l254 525 h-285l-105 -283h-4l-104 283h-285z" />
<glyph unicode="Z&#x20dd;&#x25cf;" d="M124 722q0 105 28 205.5t78 185.5t122 157t157 122t185.5 78t205.5 28t205.5 -28t185.5 -78t157 -122t122 -157t78 -185.5t28 -205.5q0 -157 -61.5 -301t-165.5 -248t-248 -166t-301 -62t-301 62t-248 166t-165.5 248t-61.5 301zM595 894h280v-5l-275 -375v-163h609v203 h-288v7l277 374v163h-603v-204z" />
<glyph unicode="A&#x20de;&#x25a0;" d="M149 227v990q0 107 76.5 182.5t185.5 75.5h978q109 0 185.5 -75.5t76.5 -182.5v-990q0 -107 -76.5 -182.5t-185.5 -75.5h-978q-109 0 -185.5 75.5t-76.5 182.5zM512 374h254l30 122h208l31 -122h253l-230 747h-316zM824 656l69 276h14l69 -276h-152z" />
<glyph unicode="B&#x20de;&#x25a0;" d="M149 227v990q0 107 76.5 182.5t185.5 75.5h978q109 0 185.5 -75.5t76.5 -182.5v-990q0 -107 -76.5 -182.5t-185.5 -75.5h-978q-109 0 -185.5 75.5t-76.5 182.5zM585 351h411q110 0 182 58t72 149q0 78 -46 126.5t-129 60.5v5q67 12 106 55.5t39 107.5q0 87 -63 136 t-174 49h-398v-747zM817 516v156h90q46 0 72 -20.5t26 -56.5q0 -79 -106 -79h-82zM817 802v140h86q40 0 62.5 -18.5t22.5 -50.5q0 -71 -95 -71h-76z" />
<glyph unicode="C&#x20de;&#x25a0;" d="M149 227v990q0 107 76.5 182.5t185.5 75.5h978q109 0 185.5 -75.5t76.5 -182.5v-990q0 -107 -76.5 -182.5t-185.5 -75.5h-978q-109 0 -185.5 75.5t-76.5 182.5zM530 723q0 -178 105 -281.5t267 -103.5q150 0 246 84t102 217h-233q-2 -40 -34.5 -67.5t-76.5 -27.5 q-57 0 -90.5 46.5t-33.5 132.5t33.5 132t90.5 46q45 0 77.5 -28t34.5 -69h232q-5 134 -101 218.5t-247 84.5q-162 0 -267 -103t-105 -281z" />
<glyph unicode="D&#x20de;&#x25a0;" d="M149 227v990q0 107 76.5 182.5t185.5 75.5h978q109 0 185.5 -75.5t76.5 -182.5v-990q0 -107 -76.5 -182.5t-185.5 -75.5h-978q-109 0 -185.5 75.5t-76.5 182.5zM580 351h346q173 0 262 95t89 278t-89 278.5t-262 95.5h-346v-747zM820 534v381h61q76 0 109 -44.5 t33 -146.5t-33 -146t-109 -44h-61z" />
<glyph unicode="E&#x20de;&#x25a0;" d="M149 227v990q0 107 76.5 182.5t185.5 75.5h978q109 0 185.5 -75.5t76.5 -182.5v-990q0 -107 -76.5 -182.5t-185.5 -75.5h-978q-109 0 -185.5 75.5t-76.5 182.5zM629 351h560v176h-323v119h302v158h-302v117h323v177h-560v-747z" />
<glyph unicode="F&#x20de;&#x25a0;" d="M149 227v990q0 107 76.5 182.5t185.5 75.5h978q109 0 185.5 -75.5t76.5 -182.5v-990q0 -107 -76.5 -182.5t-185.5 -75.5h-978q-109 0 -185.5 75.5t-76.5 182.5zM639 351h257v250h272v191h-272v118h302v188h-559v-747z" />
<glyph unicode="G&#x20de;&#x25a0;" d="M149 227v990q0 107 76.5 182.5t185.5 75.5h978q109 0 185.5 -75.5t76.5 -182.5v-990q0 -107 -76.5 -182.5t-185.5 -75.5h-978q-109 0 -185.5 75.5t-76.5 182.5zM530 723q0 -173 102.5 -279t269.5 -106q156 0 252.5 88t96.5 219v130h-346v-153h114v-10q0 -39 -29.5 -64.5 t-83.5 -25.5q-55 0 -89.5 55.5t-34.5 145.5q0 88 34 140t90 52q45 0 72.5 -20.5t31.5 -55.5h241q-16 121 -112 194.5t-236 73.5q-167 0 -270 -106t-103 -278z" />
<glyph unicode="H&#x20de;&#x25a0;" d="M149 227v990q0 107 76.5 182.5t185.5 75.5h978q109 0 185.5 -75.5t76.5 -182.5v-990q0 -107 -76.5 -182.5t-185.5 -75.5h-978q-109 0 -185.5 75.5t-76.5 182.5zM557 351h237v267h213v-267h237v747h-237v-272h-213v272h-237v-747z" />
<glyph unicode="I&#x20de;&#x25a0;" d="M149 227v990q0 107 76.5 182.5t185.5 75.5h978q109 0 185.5 -75.5t76.5 -182.5v-990q0 -107 -76.5 -182.5t-185.5 -75.5h-978q-109 0 -185.5 75.5t-76.5 182.5zM760 351h281v747h-281v-747z" />
<glyph unicode="J&#x20de;&#x25a0;" d="M149 227v990q0 107 76.5 182.5t185.5 75.5h978q109 0 185.5 -75.5t76.5 -182.5v-990q0 -107 -76.5 -182.5t-185.5 -75.5h-978q-109 0 -185.5 75.5t-76.5 182.5zM556 636q0 -143 86 -227.5t234 -84.5q145 0 228.5 81t83.5 223v455h-262v-448q0 -80 -56 -80q-61 0 -61 81 h-253z" />
<glyph unicode="&#x212a;&#x20de;&#x25a0;" d="M149 227v990q0 107 76.5 182.5t185.5 75.5h978q109 0 185.5 -75.5t76.5 -182.5v-990q0 -107 -76.5 -182.5t-185.5 -75.5h-978q-109 0 -185.5 75.5t-76.5 182.5zM562 351h230v176l57 69l137 -245h287q-11 17 -115.5 199.5t-116.5 199.5l228 348h-275l-189 -274h-13v274 h-230v-747z" />
<glyph unicode="L&#x20de;&#x25a0;" d="M149 227v990q0 107 76.5 182.5t185.5 75.5h978q109 0 185.5 -75.5t76.5 -182.5v-990q0 -107 -76.5 -182.5t-185.5 -75.5h-978q-109 0 -185.5 75.5t-76.5 182.5zM656 366h552v214h-286v533h-266v-747z" />
<glyph unicode="M&#x20de;&#x25a0;" d="M149 227v990q0 107 76.5 182.5t185.5 75.5h978q109 0 185.5 -75.5t76.5 -182.5v-990q0 -107 -76.5 -182.5t-185.5 -75.5h-978q-109 0 -185.5 75.5t-76.5 182.5zM515 351h184v431h20l124 -380h112l127 379h20v-430h185v747h-238l-146 -447h-5l-145 447h-238v-747z" />
<glyph unicode="N&#x20de;&#x25a0;" d="M149 227v990q0 107 76.5 182.5t185.5 75.5h978q109 0 185.5 -75.5t76.5 -182.5v-990q0 -107 -76.5 -182.5t-185.5 -75.5h-978q-109 0 -185.5 75.5t-76.5 182.5zM564 351h216v369h14l266 -369h176v747h-215v-364h-14l-265 364h-178v-747z" />
<glyph unicode="O&#x20de;&#x25a0;" d="M149 227v990q0 107 76.5 182.5t185.5 75.5h978q109 0 185.5 -75.5t76.5 -182.5v-990q0 -107 -76.5 -182.5t-185.5 -75.5h-978q-109 0 -185.5 75.5t-76.5 182.5zM527 723q0 -180 105 -282.5t268 -102.5t268 102.5t105 282.5q0 179 -105 281.5t-268 102.5t-268 -102.5 t-105 -281.5zM780 723q0 88 33.5 133.5t86.5 45.5t86.5 -45.5t33.5 -133.5t-33.5 -134t-86.5 -46t-86.5 46t-33.5 134z" />
<glyph unicode="P&#x20de;&#x25a0;" d="M149 227v990q0 107 76.5 182.5t185.5 75.5h978q109 0 185.5 -75.5t76.5 -182.5v-990q0 -107 -76.5 -182.5t-185.5 -75.5h-978q-109 0 -185.5 75.5t-76.5 182.5zM617 351h264v183h92q134 0 212.5 75.5t78.5 202.5q0 130 -78 208t-210 78h-359v-747zM856 713v200h73 q44 0 68.5 -26.5t24.5 -74.5q0 -99 -93 -99h-73z" />
<glyph unicode="Q&#x20de;&#x25a0;" d="M149 227v990q0 107 76.5 182.5t185.5 75.5h978q109 0 185.5 -75.5t76.5 -182.5v-990q0 -107 -76.5 -182.5t-185.5 -75.5h-978q-109 0 -185.5 75.5t-76.5 182.5zM527 723q0 -180 105 -282.5t268 -102.5q49 0 89 10l24 -57h244l-97 142q113 105 113 290q0 179 -105 281.5 t-268 102.5t-268 -102.5t-105 -281.5zM780 723q0 88 33.5 133.5t86.5 45.5t86.5 -45.5t33.5 -133.5q0 -59 -18 -96l-11 15h-113l42 -97q-7 -2 -20 -2q-53 0 -86.5 46t-33.5 134z" />
<glyph unicode="R&#x20de;&#x25a0;" d="M149 227v990q0 107 76.5 182.5t185.5 75.5h978q109 0 185.5 -75.5t76.5 -182.5v-990q0 -107 -76.5 -182.5t-185.5 -75.5h-978q-109 0 -185.5 75.5t-76.5 182.5zM580 351h233v244h68l117 -244h266l-161 289q68 24 105.5 78.5t37.5 130.5q0 120 -81 184.5t-232 64.5h-353 v-747zM805 754v163h104q89 0 89 -82q0 -38 -24 -59.5t-66 -21.5h-103z" />
<glyph unicode="S&#x20de;&#x25a0;" d="M149 227v990q0 107 76.5 182.5t185.5 75.5h978q109 0 185.5 -75.5t76.5 -182.5v-990q0 -107 -76.5 -182.5t-185.5 -75.5h-978q-109 0 -185.5 75.5t-76.5 182.5zM566 578q6 -112 93.5 -174.5t238.5 -62.5q153 0 245 69.5t92 185.5q0 188 -218 218l-92 14q-60 9 -83 21.5 t-23 34.5q0 24 21.5 38t58.5 14q71 0 84 -55h234q-10 105 -96 167t-222 62q-146 0 -234.5 -67.5t-88.5 -179.5q0 -90 58 -146t168 -73l82 -13q67 -10 89.5 -21.5t22.5 -34.5q0 -25 -25 -40.5t-67 -15.5q-40 0 -65.5 16t-29.5 43h-243z" />
<glyph unicode="T&#x20de;&#x25a0;" d="M149 227v990q0 107 76.5 182.5t185.5 75.5h978q109 0 185.5 -75.5t76.5 -182.5v-990q0 -107 -76.5 -182.5t-185.5 -75.5h-978q-109 0 -185.5 75.5t-76.5 182.5zM567 870h201v-538h264v538h201v209h-666v-209z" />
<glyph unicode="U&#x20de;&#x25a0;" d="M149 227v990q0 107 76.5 182.5t185.5 75.5h978q109 0 185.5 -75.5t76.5 -182.5v-990q0 -107 -76.5 -182.5t-185.5 -75.5h-978q-109 0 -185.5 75.5t-76.5 182.5zM559 574q0 -114 93.5 -184t247.5 -70t248 70t94 184v506h-253v-468q0 -39 -24 -62t-65 -23q-40 0 -64 23.5 t-24 61.5v468h-253v-506z" />
<glyph unicode="V&#x20de;&#x25a0;" d="M149 227v990q0 107 76.5 182.5t185.5 75.5h978q109 0 185.5 -75.5t76.5 -182.5v-990q0 -107 -76.5 -182.5t-185.5 -75.5h-978q-109 0 -185.5 75.5t-76.5 182.5zM517 1071l209 -746h348l209 746h-278l-98 -509h-14l-98 509h-278z" />
<glyph unicode="W&#x20de;&#x25a0;" d="M149 227v990q0 107 76.5 182.5t185.5 75.5h978q109 0 185.5 -75.5t76.5 -182.5v-990q0 -107 -76.5 -182.5t-185.5 -75.5h-978q-109 0 -185.5 75.5t-76.5 182.5zM436 1079l157 -747h215l91 420h2l92 -420h215l156 747h-219l-65 -471h-6l-90 471h-167l-91 -471h-5l-65 471 h-220z" />
<glyph unicode="X&#x20de;&#x25a0;" d="M149 227v990q0 107 76.5 182.5t185.5 75.5h978q109 0 185.5 -75.5t76.5 -182.5v-990q0 -107 -76.5 -182.5t-185.5 -75.5h-978q-109 0 -185.5 75.5t-76.5 182.5zM512 351h276l103 225h12l105 -225h264l-222 373l223 374h-264l-103 -225h-12l-102 225h-279l228 -373z" />
<glyph unicode="Y&#x20de;&#x25a0;" d="M149 227v990q0 107 76.5 182.5t185.5 75.5h978q109 0 185.5 -75.5t76.5 -182.5v-990q0 -107 -76.5 -182.5t-185.5 -75.5h-978q-109 0 -185.5 75.5t-76.5 182.5zM509 1079l254 -525v-222h275v222l254 525h-285l-105 -283h-4l-104 283h-285z" />
<glyph unicode="Z&#x20de;&#x25a0;" d="M149 227v990q0 107 76.5 182.5t185.5 75.5h978q109 0 185.5 -75.5t76.5 -182.5v-990q0 -107 -76.5 -182.5t-185.5 -75.5h-978q-109 0 -185.5 75.5t-76.5 182.5zM595 894h280v-5l-275 -375v-163h609v203h-288v7l277 374v163h-603v-204z" />
<glyph unicode="&#x2b;&#x20dd;" d="M123 720q0 214 103 392.5t281.5 281.5t392.5 103t392.5 -103t281.5 -281.5t103 -392.5t-103 -392.5t-281.5 -281.5t-392.5 -103t-392.5 103t-281.5 281.5t-103 392.5zM333 720q0 -157 75 -289.5t205.5 -209.5t286.5 -77t286.5 77t205.5 209.5t75 289.5t-75 289.5 t-205.5 209.5t-286.5 77t-286.5 -77t-205.5 -209.5t-75 -289.5zM594 625v198h202v206h208v-206h202v-198h-202v-207h-208v207h-202z" />
<glyph unicode="&#x2212;&#x20dd;" d="M123 720q0 214 103 392.5t281.5 281.5t392.5 103t392.5 -103t281.5 -281.5t103 -392.5t-103 -392.5t-281.5 -281.5t-392.5 -103t-392.5 103t-281.5 281.5t-103 392.5zM333 720q0 -157 75 -289.5t205.5 -209.5t286.5 -77t286.5 77t205.5 209.5t75 289.5t-75 289.5 t-205.5 209.5t-286.5 77t-286.5 -77t-205.5 -209.5t-75 -289.5zM630 620v207h540v-207h-540z" />
<glyph unicode="&#xd7;&#x20dd;" d="M123 720q0 214 103 392.5t281.5 281.5t392.5 103t392.5 -103t281.5 -281.5t103 -392.5t-103 -392.5t-281.5 -281.5t-392.5 -103t-392.5 103t-281.5 281.5t-103 392.5zM333 720q0 -157 75 -289.5t205.5 -209.5t286.5 -77t286.5 77t205.5 209.5t75 289.5t-75 289.5 t-205.5 209.5t-286.5 77t-286.5 -77t-205.5 -209.5t-75 -289.5zM596 880l146 145l157 -155l157 155l148 -147l-157 -155l157 -155l-148 -144l-157 154l-157 -154l-145 144l156 155z" />
<glyph unicode="&#xf7;&#x20dd;" d="M123 720q0 214 103 392.5t281.5 281.5t392.5 103t392.5 -103t281.5 -281.5t103 -392.5t-103 -392.5t-281.5 -281.5t-392.5 -103t-392.5 103t-281.5 281.5t-103 392.5zM333 720q0 -157 75 -289.5t205.5 -209.5t286.5 -77t286.5 77t205.5 209.5t75 289.5t-75 289.5 t-205.5 209.5t-286.5 77t-286.5 -77t-205.5 -209.5t-75 -289.5zM630 646v156h540v-156h-540zM793 493q0 41 30.5 67.5t76.5 26.5t77 -26.5t31 -67.5t-31 -67.5t-77 -26.5t-76.5 26.5t-30.5 67.5zM793 955q0 41 30.5 68t76.5 27t77 -27t31 -68q0 -40 -31 -66.5t-77 -26.5 t-76.5 26.5t-30.5 66.5z" />
<glyph unicode="&#x3d;&#x20dd;" d="M123 720q0 214 103 392.5t281.5 281.5t392.5 103t392.5 -103t281.5 -281.5t103 -392.5t-103 -392.5t-281.5 -281.5t-392.5 -103t-392.5 103t-281.5 281.5t-103 392.5zM333 720q0 -157 75 -289.5t205.5 -209.5t286.5 -77t286.5 77t205.5 209.5t75 289.5t-75 289.5 t-205.5 209.5t-286.5 77t-286.5 -77t-205.5 -209.5t-75 -289.5zM612 494v179h577v-179h-577zM612 772v179h577v-179h-577z" />
<glyph unicode="&#x3e;&#x20dd;" d="M123 720q0 214 103 392.5t281.5 281.5t392.5 103t392.5 -103t281.5 -281.5t103 -392.5t-103 -392.5t-281.5 -281.5t-392.5 -103t-392.5 103t-281.5 281.5t-103 392.5zM333 720q0 -157 75 -289.5t205.5 -209.5t286.5 -77t286.5 77t205.5 209.5t75 289.5t-75 289.5 t-205.5 209.5t-286.5 77t-286.5 -77t-205.5 -209.5t-75 -289.5zM656 406v215l257 100v9l-257 90v222l542 -258v-123z" />
<glyph unicode="&#x3c;&#x20dd;" d="M123 720q0 214 103 392.5t281.5 281.5t392.5 103t392.5 -103t281.5 -281.5t103 -392.5t-103 -392.5t-281.5 -281.5t-392.5 -103t-392.5 103t-281.5 281.5t-103 392.5zM333 720q0 -157 75 -289.5t205.5 -209.5t286.5 -77t286.5 77t205.5 209.5t75 289.5t-75 289.5 t-205.5 209.5t-286.5 77t-286.5 -77t-205.5 -209.5t-75 -289.5zM602 661v123l542 258v-222l-257 -90v-9l257 -100v-215z" />
<glyph unicode="&#x30;&#x20dd;" d="M123 720q0 214 103 392.5t281.5 281.5t392.5 103t392.5 -103t281.5 -281.5t103 -392.5t-103 -392.5t-281.5 -281.5t-392.5 -103t-392.5 103t-281.5 281.5t-103 392.5zM333 720q0 -157 75 -289.5t205.5 -209.5t286.5 -77t286.5 77t205.5 209.5t75 289.5t-75 289.5 t-205.5 209.5t-286.5 77t-286.5 -77t-205.5 -209.5t-75 -289.5zM574 541l29 150h92l16 76h-95l29 151h93l30 153h161l-31 -153h74l29 153h161l-29 -153h93l-28 -151h-93l-14 -76h95l-30 -150h-96l-34 -163h-159l31 163h-72l-33 -163h-161l34 163h-92zM837 668h105l20 113 h-103z" />
<glyph unicode="&#x25bc;&#x20dd;" d="M123 720q0 214 103 392.5t281.5 281.5t392.5 103t392.5 -103t281.5 -281.5t103 -392.5t-103 -392.5t-281.5 -281.5t-392.5 -103t-392.5 103t-281.5 281.5t-103 392.5zM333 720q0 -157 75 -289.5t205.5 -209.5t286.5 -77t286.5 77t205.5 209.5t75 289.5t-75 289.5 t-205.5 209.5t-286.5 77t-286.5 -77t-205.5 -209.5t-75 -289.5zM566 947h669l-335 -581z" />
<glyph unicode="&#x25b2;&#x20dd;" d="M123 720q0 214 103 392.5t281.5 281.5t392.5 103t392.5 -103t281.5 -281.5t103 -392.5t-103 -392.5t-281.5 -281.5t-392.5 -103t-392.5 103t-281.5 281.5t-103 392.5zM333 720q0 -157 75 -289.5t205.5 -209.5t286.5 -77t286.5 77t205.5 209.5t75 289.5t-75 289.5 t-205.5 209.5t-286.5 77t-286.5 -77t-205.5 -209.5t-75 -289.5zM566 500l334 581l335 -581h-669z" />
<glyph unicode="&#x25c0;&#x20dd;" d="M123 720q0 214 103 392.5t281.5 281.5t392.5 103t392.5 -103t281.5 -281.5t103 -392.5t-103 -392.5t-281.5 -281.5t-392.5 -103t-392.5 103t-281.5 281.5t-103 392.5zM333 720q0 -157 75 -289.5t205.5 -209.5t286.5 -77t286.5 77t205.5 209.5t75 289.5t-75 289.5 t-205.5 209.5t-286.5 77t-286.5 -77t-205.5 -209.5t-75 -289.5zM539 727l581 335v-670z" />
<glyph unicode="&#x25b6;&#x20dd;" d="M123 720q0 214 103 392.5t281.5 281.5t392.5 103t392.5 -103t281.5 -281.5t103 -392.5t-103 -392.5t-281.5 -281.5t-392.5 -103t-392.5 103t-281.5 281.5t-103 392.5zM333 720q0 -157 75 -289.5t205.5 -209.5t286.5 -77t286.5 77t205.5 209.5t75 289.5t-75 289.5 t-205.5 209.5t-286.5 77t-286.5 -77t-205.5 -209.5t-75 -289.5zM680 392v670l581 -335z" />
<glyph unicode="&#x3f;&#x20dd;" d="M123 720q0 214 103 392.5t281.5 281.5t392.5 103t392.5 -103t281.5 -281.5t103 -392.5t-103 -392.5t-281.5 -281.5t-392.5 -103t-392.5 103t-281.5 281.5t-103 392.5zM333 720q0 -157 75 -289.5t205.5 -209.5t286.5 -77t286.5 77t205.5 209.5t75 289.5t-75 289.5 t-205.5 209.5t-286.5 77t-286.5 -77t-205.5 -209.5t-75 -289.5zM641 858q0 110 73.5 166t205.5 56q116 0 187.5 -55.5t71.5 -150.5q0 -56 -24.5 -94.5t-75.5 -70.5q-63 -40 -79 -56.5t-16 -41.5v-7h-197q-3 8 -3 31q-1 92 82 144q46 29 64.5 47.5t18.5 38.5q0 22 -14.5 34.5 t-36.5 12.5q-21 0 -35.5 -15.5t-16.5 -38.5h-205zM766 464q0 46 34 71.5t94 25.5t94 -26t34 -71q0 -46 -33.5 -71t-94.5 -25q-60 0 -94 25t-34 71z" />
<glyph unicode="&#x21;&#x20dd;" d="M123 720q0 214 103 392.5t281.5 281.5t392.5 103t392.5 -103t281.5 -281.5t103 -392.5t-103 -392.5t-281.5 -281.5t-392.5 -103t-392.5 103t-281.5 281.5t-103 392.5zM333 720q0 -157 75 -289.5t205.5 -209.5t286.5 -77t286.5 77t205.5 209.5t75 289.5t-75 289.5 t-205.5 209.5t-286.5 77t-286.5 -77t-205.5 -209.5t-75 -289.5zM777 464q0 46 34.5 71.5t94.5 25.5t93.5 -26t33.5 -71q0 -46 -33 -71t-94 -25q-60 0 -94.5 25.5t-34.5 70.5zM780 1072h251l-27 -458h-198z" />
<glyph unicode="&#x2717;&#x20dd;" d="M123 720q0 214 103 392.5t281.5 281.5t392.5 103t392.5 -103t281.5 -281.5t103 -392.5t-103 -392.5t-281.5 -281.5t-392.5 -103t-392.5 103t-281.5 281.5t-103 392.5zM333 720q0 -157 75 -289.5t205.5 -209.5t286.5 -77t286.5 77t205.5 209.5t75 289.5t-75 289.5 t-205.5 209.5t-286.5 77t-286.5 -77t-205.5 -209.5t-75 -289.5zM556 513l209 210l-208 208l138 139l208 -208l209 207l138 -138l-207 -208l207 -208l-138 -139l-209 207l-209 -208z" />
<glyph unicode="&#x2713;&#x20dd;" d="M123 720q0 214 103 392.5t281.5 281.5t392.5 103t392.5 -103t281.5 -281.5t103 -392.5t-103 -392.5t-281.5 -281.5t-392.5 -103t-392.5 103t-281.5 281.5t-103 392.5zM333 720q0 -157 75 -289.5t205.5 -209.5t286.5 -77t286.5 77t205.5 209.5t75 289.5t-75 289.5 t-205.5 209.5t-286.5 77t-286.5 -77t-205.5 -209.5t-75 -289.5zM466 680l144 141l183 -182l398 397l139 -146l-541 -528z" />
<glyph unicode="&#x30;&#x20de;" d="M149 227v990q0 107 76.5 182.5t185.5 75.5h978q109 0 185.5 -75.5t76.5 -182.5v-990q0 -107 -76.5 -182.5t-185.5 -75.5h-978q-109 0 -185.5 75.5t-76.5 182.5zM356 283q0 -51 37.5 -87t89.5 -36h834q52 0 89.5 36t37.5 87v878q0 52 -37 87.5t-90 35.5h-834 q-53 0 -90 -35.5t-37 -87.5v-878zM595 724q0 165 81.5 260t220.5 95t223.5 -95t84.5 -260t-84.5 -260.5t-223.5 -95.5t-220.5 95t-81.5 261zM819 724q0 -178 81 -178t81 178q0 177 -81 177t-81 -177z" />
<glyph unicode="&#x31;&#x20de;" d="M149 227v990q0 107 76.5 182.5t185.5 75.5h978q109 0 185.5 -75.5t76.5 -182.5v-990q0 -107 -76.5 -182.5t-185.5 -75.5h-978q-109 0 -185.5 75.5t-76.5 182.5zM356 283q0 -51 37.5 -87t89.5 -36h834q52 0 89.5 36t37.5 87v878q0 52 -37 87.5t-90 35.5h-834 q-53 0 -90 -35.5t-37 -87.5v-878zM654 763v201l164 108h238v-692h-238v486h-12z" />
<glyph unicode="&#x32;&#x20de;" d="M149 227v990q0 107 76.5 182.5t185.5 75.5h978q109 0 185.5 -75.5t76.5 -182.5v-990q0 -107 -76.5 -182.5t-185.5 -75.5h-978q-109 0 -185.5 75.5t-76.5 182.5zM356 283q0 -51 37.5 -87t89.5 -36h834q52 0 89.5 36t37.5 87v878q0 52 -37 87.5t-90 35.5h-834 q-53 0 -90 -35.5t-37 -87.5v-878zM614 832v2q0 110 78 179t210 69q122 0 198.5 -59.5t76.5 -152.5q0 -53 -32 -102t-102 -110l-93 -87v-9h237v-183h-557v146l240 218q41 38 57 60.5t16 46.5q0 23 -14.5 36.5t-37.5 13.5q-27 0 -43 -18t-15 -48v-2h-219z" />
<glyph unicode="&#x33;&#x20de;" d="M149 227v990q0 107 76.5 182.5t185.5 75.5h978q109 0 185.5 -75.5t76.5 -182.5v-990q0 -107 -76.5 -182.5t-185.5 -75.5h-978q-109 0 -185.5 75.5t-76.5 182.5zM356 283q0 -51 37.5 -87t89.5 -36h834q52 0 89.5 36t37.5 87v878q0 52 -37 87.5t-90 35.5h-834 q-53 0 -90 -35.5t-37 -87.5v-878zM598 604h216q1 -29 22 -47t57 -18t57 14.5t21 37.5q-2 53 -77 53h-66v169h65q30 0 48.5 15.5t18.5 40.5q0 22 -18.5 35t-48.5 13q-34 0 -54.5 -19.5t-20.5 -50.5h-216q5 113 80 174t215 61q130 -1 207.5 -52t78.5 -136q0 -53 -39.5 -95 t-90.5 -49v-11q60 -5 103 -50t44 -112q0 -96 -82.5 -152t-221.5 -56q-136 0 -216.5 64.5t-81.5 170.5z" />
<glyph unicode="&#x34;&#x20de;" d="M149 227v990q0 107 76.5 182.5t185.5 75.5h978q109 0 185.5 -75.5t76.5 -182.5v-990q0 -107 -76.5 -182.5t-185.5 -75.5h-978q-109 0 -185.5 75.5t-76.5 182.5zM356 283q0 -51 37.5 -87t89.5 -36h834q52 0 89.5 36t37.5 87v878q0 52 -37 87.5t-90 35.5h-834 q-53 0 -90 -35.5t-37 -87.5v-878zM581 483v175q80 168 220 414h314v-417h97v-172h-97v-103h-191v103h-343zM780 655h144v258h-18q-74 -140 -126 -257v-1z" />
<glyph unicode="&#x35;&#x20de;" d="M149 227v990q0 107 76.5 182.5t185.5 75.5h978q109 0 185.5 -75.5t76.5 -182.5v-990q0 -107 -76.5 -182.5t-185.5 -75.5h-978q-109 0 -185.5 75.5t-76.5 182.5zM356 283q0 -51 37.5 -87t89.5 -36h834q52 0 89.5 36t37.5 87v878q0 52 -37 87.5t-90 35.5h-834 q-53 0 -90 -35.5t-37 -87.5v-878zM620 602h218q5 -25 25.5 -39.5t48.5 -14.5q31 0 53.5 22t22.5 56q0 31 -22 52.5t-54 21.5q-49 0 -68 -39h-211l25 418h506v-163h-332l-9 -129h11q16 29 57.5 48t94.5 19q102 0 164.5 -59.5t62.5 -161.5q0 -118 -81 -187.5t-220 -69.5 q-129 0 -210 63.5t-82 162.5z" />
<glyph unicode="&#x36;&#x20de;" d="M149 227v990q0 107 76.5 182.5t185.5 75.5h978q109 0 185.5 -75.5t76.5 -182.5v-990q0 -107 -76.5 -182.5t-185.5 -75.5h-978q-109 0 -185.5 75.5t-76.5 182.5zM356 283q0 -51 37.5 -87t89.5 -36h834q52 0 89.5 36t37.5 87v878q0 52 -37 87.5t-90 35.5h-834 q-53 0 -90 -35.5t-37 -87.5v-878zM586 728q0 162 93.5 258.5t253.5 96.5q124 0 215.5 -60.5t103.5 -151.5h-240q-5 18 -27 30t-51 12q-56 0 -86.5 -46.5t-28.5 -121.5h12q46 92 181 92q107 0 178 -62.5t71 -157.5q0 -110 -90.5 -180t-232.5 -70q-159 0 -255.5 92.5 t-96.5 268.5zM847 614q0 -32 25 -54t64 -22q38 0 63.5 22t25.5 53q0 32 -24.5 53.5t-64.5 21.5q-39 0 -64 -21.5t-25 -52.5z" />
<glyph unicode="&#x37;&#x20de;" d="M149 227v990q0 107 76.5 182.5t185.5 75.5h978q109 0 185.5 -75.5t76.5 -182.5v-990q0 -107 -76.5 -182.5t-185.5 -75.5h-978q-109 0 -185.5 75.5t-76.5 182.5zM356 283q0 -51 37.5 -87t89.5 -36h834q52 0 89.5 36t37.5 87v878q0 52 -37 87.5t-90 35.5h-834 q-53 0 -90 -35.5t-37 -87.5v-878zM618 889v183h569v-185l-261 -507h-254l276 500v9h-330z" />
<glyph unicode="&#x38;&#x20de;" d="M149 227v990q0 107 76.5 182.5t185.5 75.5h978q109 0 185.5 -75.5t76.5 -182.5v-990q0 -107 -76.5 -182.5t-185.5 -75.5h-978q-109 0 -185.5 75.5t-76.5 182.5zM356 283q0 -51 37.5 -87t89.5 -36h834q52 0 89.5 36t37.5 87v878q0 52 -37 87.5t-90 35.5h-834 q-53 0 -90 -35.5t-37 -87.5v-878zM579 576q0 67 43 111t116 53v10q-130 35 -130 145q0 86 79 136.5t213 50.5t213 -50.5t79 -136.5q0 -111 -130 -145v-10q73 -9 116 -53t43 -110q0 -97 -86.5 -153t-234.5 -56t-234.5 56t-86.5 152zM821 594q0 -32 22.5 -53t56.5 -21t56.5 21 t22.5 53q0 33 -22.5 54.5t-56.5 21.5t-56.5 -22t-22.5 -54zM836 868q0 -26 18 -43.5t46 -17.5t46 17.5t18 43.5t-18.5 44t-45.5 18t-45.5 -18t-18.5 -44z" />
<glyph unicode="&#x39;&#x20de;" d="M149 227v990q0 107 76.5 182.5t185.5 75.5h978q109 0 185.5 -75.5t76.5 -182.5v-990q0 -107 -76.5 -182.5t-185.5 -75.5h-978q-109 0 -185.5 75.5t-76.5 182.5zM356 283q0 -51 37.5 -87t89.5 -36h834q52 0 89.5 36t37.5 87v878q0 52 -37 87.5t-90 35.5h-834 q-53 0 -90 -35.5t-37 -87.5v-878zM586 833q0 110 90.5 180t232.5 70q169 0 260.5 -100.5t91.5 -260.5q0 -161 -95 -258t-255 -97q-124 0 -213.5 60t-102.5 151h240q5 -17 27.5 -29t52.5 -12q55 0 87 48t25 121h-11q-47 -93 -181 -93q-107 0 -178 62.5t-71 157.5zM822 839 q0 -31 25.5 -51.5t64.5 -20.5q38 0 63 20.5t25 50.5q0 31 -25 52.5t-64 21.5t-64 -21t-25 -52z" />
<glyph unicode="&#x2b;&#x20de;" d="M149 227v990q0 107 76.5 182.5t185.5 75.5h978q109 0 185.5 -75.5t76.5 -182.5v-990q0 -107 -76.5 -182.5t-185.5 -75.5h-978q-109 0 -185.5 75.5t-76.5 182.5zM356 283q0 -51 37.5 -87t89.5 -36h834q52 0 89.5 36t37.5 87v878q0 52 -37 87.5t-90 35.5h-834 q-53 0 -90 -35.5t-37 -87.5v-878zM594 625v198h202v206h208v-206h202v-198h-202v-207h-208v207h-202z" />
<glyph unicode="&#x2212;&#x20de;" d="M149 227v990q0 107 76.5 182.5t185.5 75.5h978q109 0 185.5 -75.5t76.5 -182.5v-990q0 -107 -76.5 -182.5t-185.5 -75.5h-978q-109 0 -185.5 75.5t-76.5 182.5zM356 283q0 -51 37.5 -87t89.5 -36h834q52 0 89.5 36t37.5 87v878q0 52 -37 87.5t-90 35.5h-834 q-53 0 -90 -35.5t-37 -87.5v-878zM630 620v207h540v-207h-540z" />
<glyph unicode="&#xd7;&#x20de;" d="M149 227v990q0 107 76.5 182.5t185.5 75.5h978q109 0 185.5 -75.5t76.5 -182.5v-990q0 -107 -76.5 -182.5t-185.5 -75.5h-978q-109 0 -185.5 75.5t-76.5 182.5zM356 283q0 -51 37.5 -87t89.5 -36h834q52 0 89.5 36t37.5 87v878q0 52 -37 87.5t-90 35.5h-834 q-53 0 -90 -35.5t-37 -87.5v-878zM595 568l158 156l-158 156l147 146l157 -156l158 156l146 -146l-157 -156l157 -156l-146 -145l-158 156l-157 -156z" />
<glyph unicode="&#xf7;&#x20de;" d="M149 227v990q0 107 76.5 182.5t185.5 75.5h978q109 0 185.5 -75.5t76.5 -182.5v-990q0 -107 -76.5 -182.5t-185.5 -75.5h-978q-109 0 -185.5 75.5t-76.5 182.5zM356 283q0 -51 37.5 -87t89.5 -36h834q52 0 89.5 36t37.5 87v878q0 52 -37 87.5t-90 35.5h-834 q-53 0 -90 -35.5t-37 -87.5v-878zM630 646v156h540v-156h-540zM793 493q0 41 30.5 67.5t76.5 26.5t77 -26.5t31 -67.5t-31 -67.5t-77 -26.5t-76.5 26.5t-30.5 67.5zM793 955q0 41 30.5 68t76.5 27t77 -27t31 -68q0 -40 -31 -66.5t-77 -26.5t-76.5 26.5t-30.5 66.5z" />
<glyph unicode="&#x3d;&#x20de;" d="M149 227v990q0 107 76.5 182.5t185.5 75.5h978q109 0 185.5 -75.5t76.5 -182.5v-990q0 -107 -76.5 -182.5t-185.5 -75.5h-978q-109 0 -185.5 75.5t-76.5 182.5zM356 283q0 -51 37.5 -87t89.5 -36h834q52 0 89.5 36t37.5 87v878q0 52 -37 87.5t-90 35.5h-834 q-53 0 -90 -35.5t-37 -87.5v-878zM612 494v179h577v-179h-577zM612 772v179h577v-179h-577z" />
<glyph unicode="&#x3e;&#x20de;" d="M149 227v990q0 107 76.5 182.5t185.5 75.5h978q109 0 185.5 -75.5t76.5 -182.5v-990q0 -107 -76.5 -182.5t-185.5 -75.5h-978q-109 0 -185.5 75.5t-76.5 182.5zM356 283q0 -51 37.5 -87t89.5 -36h834q52 0 89.5 36t37.5 87v878q0 52 -37 87.5t-90 35.5h-834 q-53 0 -90 -35.5t-37 -87.5v-878zM656 406v215l257 100v9l-257 90v222l542 -258v-123z" />
<glyph unicode="&#x3c;&#x20de;" d="M149 227v990q0 107 76.5 182.5t185.5 75.5h978q109 0 185.5 -75.5t76.5 -182.5v-990q0 -107 -76.5 -182.5t-185.5 -75.5h-978q-109 0 -185.5 75.5t-76.5 182.5zM356 283q0 -51 37.5 -87t89.5 -36h834q52 0 89.5 36t37.5 87v878q0 52 -37 87.5t-90 35.5h-834 q-53 0 -90 -35.5t-37 -87.5v-878zM602 661v123l542 258v-222l-257 -90v-9l257 -100v-215z" />
<glyph unicode="&#x23;&#x20de;" d="M149 227v990q0 107 76.5 182.5t185.5 75.5h978q109 0 185.5 -75.5t76.5 -182.5v-990q0 -107 -76.5 -182.5t-185.5 -75.5h-978q-109 0 -185.5 75.5t-76.5 182.5zM356 283q0 -51 37.5 -87t89.5 -36h834q52 0 89.5 36t37.5 87v878q0 52 -37 87.5t-90 35.5h-834 q-53 0 -90 -35.5t-37 -87.5v-878zM574 541l29 150h92l16 76h-95l29 151h93l30 153h161l-31 -153h74l29 153h161l-29 -153h93l-28 -151h-93l-14 -76h95l-30 -150h-96l-34 -163h-159l31 163h-72l-33 -163h-161l34 163h-92zM837 668h105l20 113h-103z" />
<glyph unicode="&#x25bc;&#x20de;" d="M149 227v990q0 107 76.5 182.5t185.5 75.5h978q109 0 185.5 -75.5t76.5 -182.5v-990q0 -107 -76.5 -182.5t-185.5 -75.5h-978q-109 0 -185.5 75.5t-76.5 182.5zM356 283q0 -51 37.5 -87t89.5 -36h834q52 0 89.5 36t37.5 87v878q0 52 -37 87.5t-90 35.5h-834 q-53 0 -90 -35.5t-37 -87.5v-878zM566 947h670l-336 -581z" />
<glyph unicode="&#x25b2;&#x20de;" d="M149 227v990q0 107 76.5 182.5t185.5 75.5h978q109 0 185.5 -75.5t76.5 -182.5v-990q0 -107 -76.5 -182.5t-185.5 -75.5h-978q-109 0 -185.5 75.5t-76.5 182.5zM356 283q0 -51 37.5 -87t89.5 -36h834q52 0 89.5 36t37.5 87v878q0 52 -37 87.5t-90 35.5h-834 q-53 0 -90 -35.5t-37 -87.5v-878zM566 500l334 581l335 -581h-669z" />
<glyph unicode="&#x25c0;&#x20de;" d="M149 227v990q0 107 76.5 182.5t185.5 75.5h978q109 0 185.5 -75.5t76.5 -182.5v-990q0 -107 -76.5 -182.5t-185.5 -75.5h-978q-109 0 -185.5 75.5t-76.5 182.5zM356 283q0 -51 37.5 -87t89.5 -36h834q52 0 89.5 36t37.5 87v878q0 52 -37 87.5t-90 35.5h-834 q-53 0 -90 -35.5t-37 -87.5v-878zM539 727l581 335v-670z" />
<glyph unicode="&#x25b6;&#x20de;" d="M149 227v990q0 107 76.5 182.5t185.5 75.5h978q109 0 185.5 -75.5t76.5 -182.5v-990q0 -107 -76.5 -182.5t-185.5 -75.5h-978q-109 0 -185.5 75.5t-76.5 182.5zM356 283q0 -51 37.5 -87t89.5 -36h834q52 0 89.5 36t37.5 87v878q0 52 -37 87.5t-90 35.5h-834 q-53 0 -90 -35.5t-37 -87.5v-878zM680 392v670l581 -335z" />
<glyph unicode="&#x3f;&#x20de;" d="M149 227v990q0 107 76.5 182.5t185.5 75.5h978q109 0 185.5 -75.5t76.5 -182.5v-990q0 -107 -76.5 -182.5t-185.5 -75.5h-978q-109 0 -185.5 75.5t-76.5 182.5zM356 283q0 -51 37.5 -87t89.5 -36h834q52 0 89.5 36t37.5 87v878q0 52 -37 87.5t-90 35.5h-834 q-53 0 -90 -35.5t-37 -87.5v-878zM641 858q0 110 73.5 166t205.5 56q116 0 187.5 -55.5t71.5 -150.5q0 -56 -24.5 -94.5t-75.5 -70.5q-63 -40 -79 -56.5t-16 -41.5v-7h-197q-3 8 -3 31q-1 92 82 144q46 29 64.5 47.5t18.5 38.5q0 22 -14.5 34.5t-36.5 12.5 q-21 0 -35.5 -15.5t-16.5 -38.5h-205zM766 464q0 46 34 71.5t94 25.5t94 -26t34 -71q0 -46 -33.5 -71t-94.5 -25q-60 0 -94 25t-34 71z" />
<glyph unicode="&#x21;&#x20de;" d="M149 227v990q0 107 76.5 182.5t185.5 75.5h978q109 0 185.5 -75.5t76.5 -182.5v-990q0 -107 -76.5 -182.5t-185.5 -75.5h-978q-109 0 -185.5 75.5t-76.5 182.5zM356 283q0 -51 37.5 -87t89.5 -36h834q52 0 89.5 36t37.5 87v878q0 52 -37 87.5t-90 35.5h-834 q-53 0 -90 -35.5t-37 -87.5v-878zM777 464q0 46 34.5 71.5t94.5 25.5t93.5 -26t33.5 -71q0 -46 -33 -71t-94 -25q-60 0 -94.5 25.5t-34.5 70.5zM780 1072h251l-27 -458h-198z" />
<glyph unicode="&#x2717;&#x20de;" d="M149 227v990q0 107 76.5 182.5t185.5 75.5h978q109 0 185.5 -75.5t76.5 -182.5v-990q0 -107 -76.5 -182.5t-185.5 -75.5h-978q-109 0 -185.5 75.5t-76.5 182.5zM356 283q0 -51 37.5 -87t89.5 -36h834q52 0 89.5 36t37.5 87v878q0 52 -37 87.5t-90 35.5h-834 q-53 0 -90 -35.5t-37 -87.5v-878zM556 513l209 210l-208 208l138 139l208 -208l209 207l138 -138l-207 -208l207 -208l-138 -139l-209 207l-209 -208z" />
<glyph unicode="&#x2713;&#x20de;" d="M149 227v990q0 107 76.5 182.5t185.5 75.5h978q109 0 185.5 -75.5t76.5 -182.5v-990q0 -107 -76.5 -182.5t-185.5 -75.5h-978q-109 0 -185.5 75.5t-76.5 182.5zM356 283q0 -51 37.5 -87t89.5 -36h834q52 0 89.5 36t37.5 87v878q0 52 -37 87.5t-90 35.5h-834 q-53 0 -90 -35.5t-37 -87.5v-878zM466 680l144 141l183 -182l398 397l139 -146l-541 -528z" />
<glyph unicode="&#x2b;&#x20dd;&#x25cf;" d="M124 722q0 105 28 205.5t78 185.5t122 157t157 122t185.5 78t205.5 28t205.5 -28t185.5 -78t157 -122t122 -157t78 -185.5t28 -205.5q0 -157 -61.5 -301t-165.5 -248t-248 -166t-301 -62t-301 62t-248 166t-165.5 248t-61.5 301zM570 615h218v-222h224v222h218v215h-218 v221h-224v-221h-218v-215z" />
<glyph unicode="&#x2212;&#x20dd;&#x25cf;" d="M124 722q0 105 28 205.5t78 185.5t122 157t157 122t185.5 78t205.5 28t205.5 -28t185.5 -78t157 -122t122 -157t78 -185.5t28 -205.5q0 -157 -61.5 -301t-165.5 -248t-248 -166t-301 -62t-301 62t-248 166t-165.5 248t-61.5 301zM608 610h584v223h-584v-223z" />
<glyph unicode="&#xd7;&#x20dd;&#x25cf;" d="M124 722q0 105 28 205.5t78 185.5t122 157t157 122t185.5 78t205.5 28t205.5 -28t185.5 -78t157 -122t122 -157t78 -185.5t28 -205.5q0 -157 -61.5 -301t-165.5 -248t-248 -166t-301 -62t-301 62t-248 166t-165.5 248t-61.5 301zM571 555l159 -158l169 168l170 -168 l159 158l-170 168l170 168l-159 158l-170 -168l-169 168l-159 -158l169 -168z" />
<glyph unicode="&#xf7;&#x20dd;&#x25cf;" d="M124 722q0 105 28 205.5t78 185.5t122 157t157 122t185.5 78t205.5 28t205.5 -28t185.5 -78t157 -122t122 -157t78 -185.5t28 -205.5q0 -157 -61.5 -301t-165.5 -248t-248 -166t-301 -62t-301 62t-248 166t-165.5 248t-61.5 301zM608 637h584v170h-584v-170zM784 474 q0 -44 33 -73t83 -29t83.5 29t33.5 73q0 45 -33.5 74t-83.5 29t-83 -29t-33 -74zM784 971q0 -44 33 -72.5t83 -28.5t83.5 28.5t33.5 72.5q0 45 -33.5 74t-83.5 29t-83 -29t-33 -74z" />
<glyph unicode="&#x3d;&#x20dd;&#x25cf;" d="M124 722q0 105 28 205.5t78 185.5t122 157t157 122t185.5 78t205.5 28t205.5 -28t185.5 -78t157 -122t122 -157t78 -185.5t28 -205.5q0 -157 -61.5 -301t-165.5 -248t-248 -166t-301 -62t-301 62t-248 166t-165.5 248t-61.5 301zM589 473h622v190h-622v-190zM589 778h622 v191h-622v-191z" />
<glyph unicode="&#x3e;&#x20dd;&#x25cf;" d="M124 722q0 105 28 205.5t78 185.5t122 157t157 122t185.5 78t205.5 28t205.5 -28t185.5 -78t157 -122t122 -157t78 -185.5t28 -205.5q0 -157 -61.5 -301t-165.5 -248t-248 -166t-301 -62t-301 62t-248 166t-165.5 248t-61.5 301zM630 377l586 276v135l-586 280v-229 l276 -114v-4l-276 -124v-220z" />
<glyph unicode="&#x3c;&#x20dd;&#x25cf;" d="M124 722q0 105 28 205.5t78 185.5t122 157t157 122t185.5 78t205.5 28t205.5 -28t185.5 -78t157 -122t122 -157t78 -185.5t28 -205.5q0 -157 -61.5 -301t-165.5 -248t-248 -166t-301 -62t-301 62t-248 166t-165.5 248t-61.5 301zM582 653l586 -276v220l-276 124v4 l276 114v229l-586 -280v-135z" />
<glyph unicode="&#x23;&#x20dd;&#x25cf;" d="M124 722q0 105 28 205.5t78 185.5t122 157t157 122t185.5 78t205.5 28t205.5 -28t185.5 -78t157 -122t122 -157t78 -185.5t28 -205.5q0 -157 -61.5 -301t-165.5 -248t-248 -166t-301 -62t-301 62t-248 166t-165.5 248t-61.5 301zM543 525h98l-33 -174h177l36 174h70 l-34 -174h178l35 174h104l33 168h-102q2 8 7.5 38t6.5 36h100l32 167h-100l31 164h-180l-31 -164h-71l33 164h-180l-31 -164h-101l-32 -167h102l-16 -74h-98zM818 655l28 139h129l-27 -139h-130z" />
<glyph unicode="&#x25bc;&#x20dd;&#x25cf;" d="M124 722q0 105 28 205.5t78 185.5t122 157t157 122t185.5 78t205.5 28t205.5 -28t185.5 -78t157 -122t122 -157t78 -185.5t28 -205.5q0 -157 -61.5 -301t-165.5 -248t-248 -166t-301 -62t-301 62t-248 166t-165.5 248t-61.5 301zM550 982l350 -608l351 608h-701z" />
<glyph unicode="&#x25b2;&#x20dd;&#x25cf;" d="M124 722q0 105 28 205.5t78 185.5t122 157t157 122t185.5 78t205.5 28t205.5 -28t185.5 -78t157 -122t122 -157t78 -185.5t28 -205.5q0 -157 -61.5 -301t-165.5 -248t-248 -166t-301 -62t-301 62t-248 166t-165.5 248t-61.5 301zM550 485h701l-351 608z" />
<glyph unicode="&#x25c0;&#x20dd;&#x25cf;" d="M124 722q0 105 28 205.5t78 185.5t122 157t157 122t185.5 78t205.5 28t205.5 -28t185.5 -78t157 -122t122 -157t78 -185.5t28 -205.5q0 -157 -61.5 -301t-165.5 -248t-248 -166t-301 -62t-301 62t-248 166t-165.5 248t-61.5 301zM525 734l608 -350v699z" />
<glyph unicode="&#x25b6;&#x20dd;&#x25cf;" d="M124 722q0 105 28 205.5t78 185.5t122 157t157 122t185.5 78t205.5 28t205.5 -28t185.5 -78t157 -122t122 -157t78 -185.5t28 -205.5q0 -157 -61.5 -301t-165.5 -248t-248 -166t-301 -62t-301 62t-248 166t-165.5 248t-61.5 301zM667 384l608 350l-608 349v-699z" />
<glyph unicode="&#x3f;&#x20dd;&#x25cf;" d="M124 722q0 105 28 205.5t78 185.5t122 157t157 122t185.5 78t205.5 28t205.5 -28t185.5 -78t157 -122t122 -157t78 -185.5t28 -205.5q0 -157 -61.5 -301t-165.5 -248t-248 -166t-301 -62t-301 62t-248 166t-165.5 248t-61.5 301zM616 863l230 5q0 30 14 47.5t38 17.5 q54 0 54 -55q0 -25 -21 -43t-56 -40.5t-54 -44.5q-56 -54 -53 -122q0 -27 3 -36h218v8q0 29 14.5 44.5t68.5 48.5q74 47 99.5 83.5t25.5 106.5q0 102 -78 164t-202 62q-144 0 -222.5 -61.5t-78.5 -183.5v-1zM750 429q0 -52 36.5 -80t103.5 -28q66 0 102.5 28.5t36.5 79.5 q0 50 -37 78.5t-102 28.5q-67 0 -103.5 -27.5t-36.5 -79.5z" />
<glyph unicode="&#x21;&#x20dd;&#x25cf;" d="M124 722q0 105 28 205.5t78 185.5t122 157t157 122t185.5 78t205.5 28t205.5 -28t185.5 -78t157 -122t122 -157t78 -185.5t28 -205.5q0 -157 -61.5 -301t-165.5 -248t-248 -166t-301 -62t-301 62t-248 166t-165.5 248t-61.5 301zM764 429q0 -51 37 -79t103 -28 q67 0 103 28t36 79q0 50 -36.5 78.5t-102.5 28.5t-103 -28t-37 -79zM765 1100l28 -498h218l30 498h-276z" />
<glyph unicode="&#x2717;&#x20dd;&#x25cf;" d="M124 722q0 105 28 205.5t78 185.5t122 157t157 122t185.5 78t205.5 28t205.5 -28t185.5 -78t157 -122t122 -157t78 -185.5t28 -205.5q0 -157 -61.5 -301t-165.5 -248t-248 -166t-301 -62t-301 62t-248 166t-165.5 248t-61.5 301zM526 495l150 -150l223 224l223 -222 l151 151l-223 222l223 223l-151 150l-223 -223l-222 223l-150 -150l223 -223z" />
<glyph unicode="&#x2713;&#x20dd;&#x25cf;" d="M124 722q0 105 28 205.5t78 185.5t122 157t157 122t185.5 78t205.5 28t205.5 -28t185.5 -78t157 -122t122 -157t78 -185.5t28 -205.5q0 -157 -61.5 -301t-165.5 -248t-248 -166t-301 -62t-301 62t-248 166t-165.5 248t-61.5 301zM423 698l353 -347l590 575l-156 161 l-430 -431l-198 198z" />
<glyph unicode="&#x30;&#x20de;&#x25a0;" d="M149 227v990q0 107 76.5 182.5t185.5 75.5h978q109 0 185.5 -75.5t76.5 -182.5v-990q0 -107 -76.5 -182.5t-185.5 -75.5h-978q-109 0 -185.5 75.5t-76.5 182.5zM570 724q0 -181 87.5 -283.5t238.5 -102.5q152 0 242.5 103t90.5 283q0 179 -90.5 282t-242.5 103 q-151 0 -238.5 -102.5t-87.5 -282.5zM817 724q0 199 82 199t82 -199q0 -200 -82 -200t-82 200z" />
<glyph unicode="&#x31;&#x20de;&#x25a0;" d="M149 227v990q0 107 76.5 182.5t185.5 75.5h978q109 0 185.5 -75.5t76.5 -182.5v-990q0 -107 -76.5 -182.5t-185.5 -75.5h-978q-109 0 -185.5 75.5t-76.5 182.5zM632 757l169 113h8v-519h261v746h-260l-178 -116v-224z" />
<glyph unicode="&#x32;&#x20de;&#x25a0;" d="M149 227v990q0 107 76.5 182.5t185.5 75.5h978q109 0 185.5 -75.5t76.5 -182.5v-990q0 -107 -76.5 -182.5t-185.5 -75.5h-978q-109 0 -185.5 75.5t-76.5 182.5zM588 834h229v3q0 40 18.5 63t51.5 23q29 0 46.5 -15.5t17.5 -41.5q0 -31 -21.5 -60.5t-78.5 -80.5l-247 -216 v-160h602v203h-268v4l105 94q78 66 112.5 119.5t34.5 116.5q0 94 -81.5 158t-203.5 64q-145 0 -231 -75t-86 -196v-3z" />
<glyph unicode="&#x33;&#x20de;&#x25a0;" d="M149 227v990q0 107 76.5 182.5t185.5 75.5h978q109 0 185.5 -75.5t76.5 -182.5v-990q0 -107 -76.5 -182.5t-185.5 -75.5h-978q-109 0 -185.5 75.5t-76.5 182.5zM570 594q1 -112 90 -183.5t233 -71.5q148 0 238 61.5t90 165.5q-1 70 -47 119t-110 55v8q55 8 96.5 52.5 t41.5 103.5q-1 92 -85.5 148.5t-222.5 56.5q-153 -1 -234 -66t-86 -188h234q0 34 21.5 54t60.5 20q31 0 51.5 -16.5t20.5 -40.5q0 -27 -20.5 -43t-54.5 -16h-71v-169h76q39 0 62 -16.5t24 -44.5q0 -28 -23 -44.5t-61 -16.5q-41 0 -65 19.5t-26 52.5h-233z" />
<glyph unicode="&#x34;&#x20de;&#x25a0;" d="M149 227v990q0 107 76.5 182.5t185.5 75.5h978q109 0 185.5 -75.5t76.5 -182.5v-990q0 -107 -76.5 -182.5t-185.5 -75.5h-978q-109 0 -185.5 75.5t-76.5 182.5zM553 461h366v-110h212v110h103v191h-103v445h-343q-151 -264 -235 -445v-191zM773 652v1q40 90 132 267h14 v-268h-146z" />
<glyph unicode="&#x35;&#x20de;&#x25a0;" d="M149 227v990q0 107 76.5 182.5t185.5 75.5h978q109 0 185.5 -75.5t76.5 -182.5v-990q0 -107 -76.5 -182.5t-185.5 -75.5h-978q-109 0 -185.5 75.5t-76.5 182.5zM592 593q2 -110 89 -178.5t227 -68.5q150 0 237.5 74.5t87.5 204.5q0 110 -67.5 175t-178.5 65 q-58 0 -102 -20t-61 -52h-8q7 118 10 139h354v174h-547l-27 -452h220q10 22 32.5 36.5t50.5 14.5q39 0 64 -24.5t25 -64.5t-25.5 -65t-63.5 -25q-34 0 -59 18.5t-30 48.5h-228z" />
<glyph unicode="&#x36;&#x20de;&#x25a0;" d="M149 227v990q0 107 76.5 182.5t185.5 75.5h978q109 0 185.5 -75.5t76.5 -182.5v-990q0 -107 -76.5 -182.5t-185.5 -75.5h-978q-109 0 -185.5 75.5t-76.5 182.5zM554 726q0 -189 99 -287.5t262 -98.5q146 0 238.5 74.5t92.5 192.5q0 102 -72.5 169t-181.5 67 q-135 0 -184 -100h-10q-4 86 26.5 139t86.5 53q28 0 50 -14.5t27 -37.5h248q-12 97 -106 161t-221 64q-163 0 -259 -103.5t-96 -278.5zM826 604q0 37 24 62t63 25t63.5 -25t24.5 -63q0 -37 -25 -63t-63 -26t-62.5 26t-24.5 64z" />
<glyph unicode="&#x37;&#x20de;&#x25a0;" d="M149 227v990q0 107 76.5 182.5t185.5 75.5h978q109 0 185.5 -75.5t76.5 -182.5v-990q0 -107 -76.5 -182.5t-185.5 -75.5h-978q-109 0 -185.5 75.5t-76.5 182.5zM591 895h353v-3l-298 -541h279l281 545v201h-615v-202z" />
<glyph unicode="&#x38;&#x20de;&#x25a0;" d="M149 227v990q0 107 76.5 182.5t185.5 75.5h978q109 0 185.5 -75.5t76.5 -182.5v-990q0 -107 -76.5 -182.5t-185.5 -75.5h-978q-109 0 -185.5 75.5t-76.5 182.5zM553 565q0 -106 93 -166.5t253 -60.5q161 0 254 60.5t93 166.5q0 71 -45.5 118.5t-124.5 58.5v4 q138 40 138 158q0 94 -85 149.5t-230 55.5t-229.5 -55t-84.5 -150q0 -119 138 -158v-4q-79 -11 -124.5 -58.5t-45.5 -118.5zM806 584q0 39 26 64t67 25t67.5 -25t26.5 -64q0 -40 -26.5 -64.5t-67.5 -24.5t-67 24.5t-26 64.5zM821 876q0 34 21.5 56t56.5 22t57 -21.5 t22 -56.5q0 -34 -22 -55t-57 -21t-56.5 21t-21.5 55z" />
<glyph unicode="&#x39;&#x20de;&#x25a0;" d="M149 227v990q0 107 76.5 182.5t185.5 75.5h978q109 0 185.5 -75.5t76.5 -182.5v-990q0 -107 -76.5 -182.5t-185.5 -75.5h-978q-109 0 -185.5 75.5t-76.5 182.5zM554 841q0 -102 72.5 -169t181.5 -67q136 0 184 100h10q7 -84 -24 -138t-87 -54q-29 0 -52 14t-27 36h-248 q13 -97 105 -160t219 -63q163 0 260.5 104t97.5 278t-93.5 280t-267.5 106q-145 0 -238 -75t-93 -192zM799 847q0 37 24.5 62t64.5 25q38 0 62 -25t24 -62q0 -36 -24 -60.5t-63 -24.5t-63.5 24t-24.5 61z" />
<glyph unicode="&#x2b;&#x20de;&#x25a0;" d="M149 227v990q0 107 76.5 182.5t185.5 75.5h978q109 0 185.5 -75.5t76.5 -182.5v-990q0 -107 -76.5 -182.5t-185.5 -75.5h-978q-109 0 -185.5 75.5t-76.5 182.5zM570 615h218v-222h224v222h218v215h-218v221h-224v-221h-218v-215z" />
<glyph unicode="&#x2212;&#x20de;&#x25a0;" d="M149 227v990q0 107 76.5 182.5t185.5 75.5h978q109 0 185.5 -75.5t76.5 -182.5v-990q0 -107 -76.5 -182.5t-185.5 -75.5h-978q-109 0 -185.5 75.5t-76.5 182.5zM608 610h584v223h-584v-223z" />
<glyph unicode="&#xd7;&#x20de;&#x25a0;" d="M149 227v990q0 107 76.5 182.5t185.5 75.5h978q109 0 185.5 -75.5t76.5 -182.5v-990q0 -107 -76.5 -182.5t-185.5 -75.5h-978q-109 0 -185.5 75.5t-76.5 182.5zM571 555l159 -158l169 168l170 -168l159 158l-170 168l170 168l-159 158l-170 -168l-169 168l-159 -158 l169 -168z" />
<glyph unicode="&#xf7;&#x20de;&#x25a0;" d="M149 227v990q0 107 76.5 182.5t185.5 75.5h978q109 0 185.5 -75.5t76.5 -182.5v-990q0 -107 -76.5 -182.5t-185.5 -75.5h-978q-109 0 -185.5 75.5t-76.5 182.5zM608 637h584v170h-584v-170zM784 474q0 -44 33 -73t83 -29t83.5 29t33.5 73q0 45 -33.5 74t-83.5 29t-83 -29 t-33 -74zM784 971q0 -44 33 -72.5t83 -28.5t83.5 28.5t33.5 72.5q0 45 -33.5 74t-83.5 29t-83 -29t-33 -74z" />
<glyph unicode="&#x3d;&#x20de;&#x25a0;" d="M149 227v990q0 107 76.5 182.5t185.5 75.5h978q109 0 185.5 -75.5t76.5 -182.5v-990q0 -107 -76.5 -182.5t-185.5 -75.5h-978q-109 0 -185.5 75.5t-76.5 182.5zM589 473h622v190h-622v-190zM589 778h622v191h-622v-191z" />
<glyph unicode="&#x3e;&#x20de;&#x25a0;" d="M149 227v990q0 107 76.5 182.5t185.5 75.5h978q109 0 185.5 -75.5t76.5 -182.5v-990q0 -107 -76.5 -182.5t-185.5 -75.5h-978q-109 0 -185.5 75.5t-76.5 182.5zM630 377l586 276v135l-586 280v-229l276 -114v-4l-276 -124v-220z" />
<glyph unicode="&#x3c;&#x20de;&#x25a0;" d="M149 227v990q0 107 76.5 182.5t185.5 75.5h978q109 0 185.5 -75.5t76.5 -182.5v-990q0 -107 -76.5 -182.5t-185.5 -75.5h-978q-109 0 -185.5 75.5t-76.5 182.5zM582 653l586 -276v220q-15 7 -138 62t-138 62v4l276 114v229l-586 -280v-135z" />
<glyph unicode="&#x23;&#x20de;&#x25a0;" d="M149 227v990q0 107 76.5 182.5t185.5 75.5h978q109 0 185.5 -75.5t76.5 -182.5v-990q0 -107 -76.5 -182.5t-185.5 -75.5h-978q-109 0 -185.5 75.5t-76.5 182.5zM543 525h98l-33 -174h177l36 174h70l-34 -174h178l35 174h104l33 168h-102q2 8 7.5 38t6.5 36h100l32 167 h-100l31 164h-180l-31 -164h-71l33 164h-180l-31 -164h-101l-32 -167h102l-16 -74h-98zM818 655l28 139h129l-27 -139h-130z" />
<glyph unicode="&#x25bc;&#x20de;&#x25a0;" d="M149 227v990q0 107 76.5 182.5t185.5 75.5h978q109 0 185.5 -75.5t76.5 -182.5v-990q0 -107 -76.5 -182.5t-185.5 -75.5h-978q-109 0 -185.5 75.5t-76.5 182.5zM550 980l350 -607l351 607h-701z" />
<glyph unicode="&#x25b2;&#x20de;&#x25a0;" d="M149 227v990q0 107 76.5 182.5t185.5 75.5h978q109 0 185.5 -75.5t76.5 -182.5v-990q0 -107 -76.5 -182.5t-185.5 -75.5h-978q-109 0 -185.5 75.5t-76.5 182.5zM550 485h701l-351 608z" />
<glyph unicode="&#x25c0;&#x20de;&#x25a0;" d="M149 227v990q0 107 76.5 182.5t185.5 75.5h978q109 0 185.5 -75.5t76.5 -182.5v-990q0 -107 -76.5 -182.5t-185.5 -75.5h-978q-109 0 -185.5 75.5t-76.5 182.5zM525 734l608 -350v699z" />
<glyph unicode="&#x25b6;&#x20de;&#x25a0;" d="M149 227v990q0 107 76.5 182.5t185.5 75.5h978q109 0 185.5 -75.5t76.5 -182.5v-990q0 -107 -76.5 -182.5t-185.5 -75.5h-978q-109 0 -185.5 75.5t-76.5 182.5zM667 384l608 350l-608 349v-699z" />
<glyph unicode="&#x3f;&#x20de;&#x25a0;" d="M149 227v990q0 107 76.5 182.5t185.5 75.5h978q109 0 185.5 -75.5t76.5 -182.5v-990q0 -107 -76.5 -182.5t-185.5 -75.5h-978q-109 0 -185.5 75.5t-76.5 182.5zM616 863l230 5q0 30 14 47.5t38 17.5q54 0 54 -55q0 -25 -21 -43t-56 -40.5t-54 -44.5q-56 -54 -53 -122 q0 -27 3 -36h218v8q0 29 14.5 44.5t68.5 48.5q74 47 99.5 83.5t25.5 106.5q0 102 -78 164t-202 62q-144 0 -222.5 -61.5t-78.5 -183.5v-1zM750 429q0 -52 36.5 -80t103.5 -28q66 0 102.5 28.5t36.5 79.5q0 50 -37 78.5t-102 28.5q-67 0 -103.5 -27.5t-36.5 -79.5z" />
<glyph unicode="&#x21;&#x20de;&#x25a0;" d="M149 227v990q0 107 76.5 182.5t185.5 75.5h978q109 0 185.5 -75.5t76.5 -182.5v-990q0 -107 -76.5 -182.5t-185.5 -75.5h-978q-109 0 -185.5 75.5t-76.5 182.5zM764 429q0 -51 37 -79t103 -28q67 0 103 28t36 79q0 50 -36.5 78.5t-102.5 28.5t-103 -28t-37 -79zM765 1100 l28 -498h218l30 498h-276z" />
<glyph unicode="&#x2717;&#x20de;&#x25a0;" d="M149 227v990q0 107 76.5 182.5t185.5 75.5h978q109 0 185.5 -75.5t76.5 -182.5v-990q0 -107 -76.5 -182.5t-185.5 -75.5h-978q-109 0 -185.5 75.5t-76.5 182.5zM526 495l150 -150l223 224l223 -222l151 151l-223 222l223 223l-151 150l-223 -223l-222 223l-150 -150 l223 -223z" />
<glyph unicode="&#x2713;&#x20de;&#x25a0;" d="M149 227v990q0 107 76.5 182.5t185.5 75.5h978q109 0 185.5 -75.5t76.5 -182.5v-990q0 -107 -76.5 -182.5t-185.5 -75.5h-978q-109 0 -185.5 75.5t-76.5 182.5zM423 698l353 -347l590 575l-156 161l-430 -431l-198 198z" />
<glyph unicode="&#xd;" horiz-adv-x="0" />
<glyph unicode=" "  horiz-adv-x="502" />
<glyph unicode="&#x09;" horiz-adv-x="502" />
<glyph unicode="&#xa0;" horiz-adv-x="502" />
<glyph unicode="!" horiz-adv-x="778" d="M185 147q0 87 53.5 135t150.5 48t151 -48t54 -135q0 -86 -54 -134t-151 -48t-150.5 48t-53.5 134zM197 1443h384l-32 -970h-320z" />
<glyph unicode="&#x22;" horiz-adv-x="1079" d="M137 802v641h298v-641h-298zM645 802v641h297v-641h-297z" />
<glyph unicode="#" horiz-adv-x="1394" d="M27 368l48 253h222l44 221h-222l48 251h223l70 351h262l-68 -351h222l70 351h264l-70 -351h230l-48 -251h-232l-44 -221h231l-48 -253h-233l-72 -368h-264l74 368h-224l-73 -368h-262l72 368h-220zM533 594h264l57 274h-266z" />
<glyph unicode="$" horiz-adv-x="1461" d="M166 432h316q13 -68 64 -109t138 -50v306l-90 19q-207 46 -312 143.5t-105 262.5q0 186 141 301.5t366 126.5v156h112v-157q226 -16 356 -129t138 -297h-315q-21 139 -179 163v-299l92 -20q217 -48 320.5 -141t103.5 -257q0 -190 -140.5 -307t-375.5 -132v-153h-112v152 q-233 10 -373 120.5t-145 300.5zM513 1037q0 -52 41 -85.5t130 -57.5v277q-83 -9 -127 -44.5t-44 -89.5zM796 273q87 9 134.5 45t47.5 94q0 55 -41 86t-141 56v-281z" />
<glyph unicode="%" horiz-adv-x="1871" d="M49 1116q0 164 96.5 259.5t262.5 95.5q167 0 263 -94.5t96 -260.5q0 -170 -94.5 -263.5t-264.5 -93.5t-264.5 94t-94.5 263zM316 1115q0 -76 24 -117.5t68 -41.5q43 0 67 42t24 117q0 73 -24.5 116t-66.5 43t-67 -43t-25 -116zM333 0l939 1443h267l-939 -1443h-267z M1105 340q0 164 96.5 259.5t262.5 95.5q167 0 262.5 -95t95.5 -260q0 -170 -94 -264t-264 -94t-264.5 94t-94.5 264zM1372 339q0 -76 24 -117.5t68 -41.5q43 0 67 41.5t24 117.5q0 73 -24.5 115.5t-66.5 42.5q-43 0 -67.5 -42.5t-24.5 -115.5z" />
<glyph unicode="&#x26;" horiz-adv-x="1560" d="M102 374q0 122 61.5 211.5t198.5 165.5q21 14 69 38q-98 100 -138.5 174.5t-40.5 153.5q0 149 123 246.5t311 97.5q187 0 304.5 -93t117.5 -241q0 -223 -284 -379l232 -249q42 72 42 214v89h285v-114q0 -115 -33 -220.5t-91 -180.5l276 -287h-379l-100 106 q-74 -63 -190 -98.5t-249 -35.5q-239 0 -377 108t-138 294zM425 404q0 -84 63 -135.5t166 -51.5q69 0 129.5 22.5t94.5 60.5l-291 311q-25 -10 -37 -18q-125 -76 -125 -189zM546 1100q0 -45 27 -89t96 -108q156 82 156 196q0 62 -38.5 101t-99.5 39t-101 -39.5t-40 -99.5z " />
<glyph unicode="'" horiz-adv-x="571" d="M137 802v641h298v-641h-298z" />
<glyph unicode="(" horiz-adv-x="929" d="M213 609q0 573 303 921h333q-115 -144 -192.5 -401.5t-77.5 -517.5q0 -259 77.5 -517.5t192.5 -405.5h-333q-303 354 -303 921z" />
<glyph unicode=")" horiz-adv-x="929" d="M79 -312q115 144 192.5 402t77.5 517q0 260 -77.5 518.5t-192.5 404.5h334q303 -354 303 -920q0 -572 -303 -922h-334z" />
<glyph unicode="*" horiz-adv-x="1016" d="M99 939l279 100l-279 99l118 204l227 -193l-53 294h235l-54 -294l228 193l117 -204l-279 -99l279 -100l-117 -203l-225 188l51 -289h-235l51 289l-225 -188z" />
<glyph unicode="+" horiz-adv-x="1461" d="M192 431v305h382v401h313v-401h381v-305h-381v-401h-313v401h-382z" />
<glyph unicode="," horiz-adv-x="767" d="M140 -400l90 646h336l-196 -646h-230z" />
<glyph unicode="&#x2011;" horiz-adv-x="1006" d="M174 425v316h658v-316h-658z" />
<glyph unicode="-" horiz-adv-x="1006" d="M174 425v316h658v-316h-658z" />
<glyph unicode="." horiz-adv-x="767" d="M182 157q0 86 54 138.5t147 52.5q94 0 148 -52.5t54 -138.5q0 -85 -54 -137.5t-148 -52.5q-93 0 -147 52.5t-54 137.5z" />
<glyph unicode="/" horiz-adv-x="852" d="M2 -312l515 1842h333l-516 -1842h-332z" />
<glyph unicode="0" horiz-adv-x="1460" d="M124 725q0 356 162.5 556.5t443.5 200.5t443.5 -200.5t162.5 -557.5q0 -356 -162.5 -559.5t-443.5 -203.5q-282 0 -444 203t-162 561zM497 725q0 -237 62.5 -359.5t170.5 -122.5t171 122.5t63 359.5q0 235 -62.5 355t-171.5 120q-108 0 -170.5 -119.5t-62.5 -355.5z" />
<glyph unicode="1" horiz-adv-x="1101" d="M122 877v316l367 250h367v-1443h-367v1112h-19z" />
<glyph unicode="2" horiz-adv-x="1361" d="M117 989q0 220 157.5 356.5t410.5 136.5q246 0 389.5 -119.5t143.5 -308.5q0 -126 -65.5 -230t-240.5 -262l-284 -257v-19h607v-286h-1097v245l516 467q128 117 168 179.5t40 130.5q0 78 -52.5 130.5t-143.5 52.5q-99 0 -156 -60t-57 -156h-336z" />
<glyph unicode="3" horiz-adv-x="1415" d="M112 430h350q4 -83 67 -131.5t167 -48.5q101 0 163 50t62 132q0 85 -60.5 134t-166.5 49h-185v248h185q91 0 146 48.5t55 126.5q0 75 -54 122.5t-145 47.5q-97 0 -153.5 -49t-61.5 -137h-334q4 209 157.5 334.5t409.5 125.5q245 0 384 -112t138 -280q0 -127 -74 -212 t-196 -114v-19q156 -22 242 -113.5t86 -234.5q0 -193 -166 -314.5t-427 -121.5q-257 0 -418 128t-171 341z" />
<glyph unicode="4" horiz-adv-x="1459" d="M112 246v277q244 447 546 920h509v-911h180v-286h-180v-246h-347v246h-708zM429 519h400v662h-18q-217 -339 -382 -644v-18z" />
<glyph unicode="5" horiz-adv-x="1408" d="M162 423h333q12 -82 74 -130.5t149 -48.5q100 0 163 64t63 170q0 105 -61.5 169t-159.5 64q-74 0 -130.5 -34t-87.5 -92h-323l74 858h954v-282h-671l-33 -356h19q91 150 313 150q195 0 323.5 -128.5t128.5 -344.5q0 -233 -155.5 -377t-410.5 -144q-247 0 -402.5 131 t-159.5 331z" />
<glyph unicode="6" horiz-adv-x="1451" d="M123 716q0 354 167.5 560t455.5 206q222 0 378.5 -118t182.5 -303h-359q-14 63 -68 100.5t-130 37.5q-134 0 -208 -119.5t-72 -331.5h19q48 100 142 153.5t219 53.5q205 0 340 -134.5t135 -339.5q0 -228 -162 -373.5t-415 -145.5q-137 0 -250.5 47.5t-197.5 139 t-130.5 236.5t-46.5 331zM518 476q0 -98 64.5 -165t162.5 -67t163 66t65 163q0 100 -63 164t-164 64t-164.5 -64t-63.5 -161z" />
<glyph unicode="7" horiz-adv-x="1277" d="M96 1161v283h1074v-284l-583 -1160h-384l599 1143v18h-706z" />
<glyph unicode="8" horiz-adv-x="1481" d="M124 385q0 133 89.5 233.5t238.5 135.5v19q-122 26 -196 111.5t-74 199.5q0 173 157 285.5t401 112.5t401 -112.5t157 -285.5q0 -114 -74 -199.5t-196 -111.5v-19q148 -27 238.5 -127.5t90.5 -238.5q0 -191 -170.5 -309t-447.5 -118q-276 0 -445.5 117t-169.5 307z M508 419q0 -89 64.5 -144.5t167.5 -55.5t167 55.5t64 144.5t-64.5 145t-166.5 56q-103 0 -167.5 -56t-64.5 -145zM543 1050q0 -78 56 -129t141 -51t140.5 51t55.5 129t-55.5 129.5t-140.5 51.5q-86 0 -141.5 -51.5t-55.5 -129.5z" />
<glyph unicode="9" horiz-adv-x="1451" d="M126 962q0 228 162 374t415 146q294 0 459.5 -203t165.5 -552q0 -355 -168 -560t-459 -205q-218 0 -373.5 116.5t-183.5 300.5h359q16 -60 72 -97.5t131 -37.5q132 0 206 122t69 329h-19q-48 -99 -141.5 -152.5t-219.5 -53.5q-205 0 -340 134.5t-135 338.5zM478 973 q0 -99 63.5 -161.5t164.5 -62.5q100 0 163.5 62.5t63.5 157.5q0 98 -64 164t-163 66t-163.5 -65t-64.5 -161z" />
<glyph unicode=":" horiz-adv-x="767" d="M182 157q0 86 54 138.5t147 52.5q94 0 148 -52.5t54 -138.5q0 -85 -54 -137.5t-148 -52.5q-93 0 -147 52.5t-54 137.5zM182 834q0 85 54 137.5t147 52.5q94 0 148 -52.5t54 -137.5q0 -86 -54 -138.5t-148 -52.5q-93 0 -147 52.5t-54 138.5z" />
<glyph unicode=";" horiz-adv-x="767" d="M140 -400l90 646h336l-196 -646h-230zM182 834q0 85 54 137.5t147 52.5q94 0 148 -52.5t54 -137.5q0 -86 -54 -138.5t-148 -52.5q-93 0 -147 52.5t-54 138.5z" />
<glyph unicode="&#x3c;" horiz-adv-x="1461" d="M192 428v310l1076 417v-341l-686 -220v-11l686 -222v-349z" />
<glyph unicode="=" horiz-adv-x="1461" d="M197 182v287h1067v-287h-1067zM197 698v287h1067v-287h-1067z" />
<glyph unicode="&#x3e;" horiz-adv-x="1461" d="M192 12v341l687 221v10l-687 222v349l1076 -416v-310z" />
<glyph unicode="?" horiz-adv-x="1189" d="M76 1023q2 198 138.5 315.5t374.5 117.5q227 0 364.5 -110t137.5 -290q0 -110 -52.5 -190.5t-163.5 -144.5q-103 -60 -139 -104t-36 -114v-47h-312l-3 40q-14 127 25 203.5t145 137.5q102 60 136.5 102t34.5 108q0 61 -44.5 99t-115.5 38q-72 0 -117.5 -44t-47.5 -117 h-325zM348 147q0 87 54 135t151 48t150.5 -48t53.5 -135q0 -86 -53.5 -134t-150.5 -48t-151 48t-54 134z" />
<glyph unicode="@" horiz-adv-x="1908" d="M118 622q0 244 108 434t303 295t445 105q238 0 422.5 -93.5t285.5 -263t101 -389.5q0 -236 -107.5 -373t-294.5 -137q-97 0 -162.5 40t-85.5 111h-19q-62 -152 -234 -152q-156 0 -251 116t-95 306q0 182 91.5 294.5t239.5 112.5q81 0 142 -37t91 -105h19v118h230v-508 q0 -53 22.5 -83t63.5 -30q66 0 105 82t39 221q0 271 -164.5 432.5t-441.5 161.5q-288 0 -467.5 -184t-179.5 -479q0 -299 185 -473t503 -174q148 0 239 28v-178q-114 -30 -261 -30q-259 0 -457 103.5t-306.5 292.5t-108.5 436zM797 614q0 -98 38.5 -153t106.5 -55 q69 0 108.5 55.5t39.5 152.5t-40 152.5t-108 55.5t-106.5 -55t-38.5 -153z" />
<glyph unicode="A" horiz-adv-x="1563" d="M73 0l484 1443h449l485 -1443h-400l-90 317h-471l-93 -317h-364zM600 581h332l-155 537h-19z" />
<glyph unicode="B" horiz-adv-x="1459" d="M170 0v1443h673q215 0 336.5 -96t121.5 -264q0 -116 -77 -203.5t-192 -103.5v-19q142 -8 238.5 -105.5t96.5 -235.5q0 -190 -136.5 -303t-367.5 -113h-693zM537 259h222q114 0 174.5 48.5t60.5 140.5q0 89 -61.5 136.5t-175.5 47.5h-220v-373zM537 855h194 q100 0 156 43.5t56 120.5t-52.5 121t-145.5 44h-208v-329z" />
<glyph unicode="C" horiz-adv-x="1545" d="M102 722q0 353 186.5 556.5t511.5 203.5q179 0 325.5 -73.5t232.5 -204t91 -291.5h-353q-14 118 -96 190.5t-200 72.5q-151 0 -237.5 -121t-86.5 -332q0 -212 87 -334t238 -122q119 0 200 70.5t97 186.5h352q-9 -248 -191 -405.5t-459 -157.5q-324 0 -511 204t-187 557z " />
<glyph unicode="D" horiz-adv-x="1553" d="M170 0v1443h606q323 0 499 -184.5t176 -522.5q0 -355 -174.5 -545.5t-500.5 -190.5h-606zM537 295h173q179 0 273 110t94 324q0 201 -96.5 310t-270.5 109h-173v-853z" />
<glyph unicode="E" horiz-adv-x="1302" d="M170 0v1443h989v-295h-622v-288h585v-270h-585v-295h622v-295h-989z" />
<glyph unicode="F" horiz-adv-x="1251" d="M170 0v1443h982v-295h-615v-329h558v-281h-558v-538h-367z" />
<glyph unicode="G" horiz-adv-x="1572" d="M102 723q0 352 188 555.5t513 203.5q264 0 443.5 -140.5t206.5 -369.5h-362q-27 95 -103.5 149.5t-184.5 54.5q-154 0 -240.5 -119t-86.5 -330q0 -213 93.5 -336.5t251.5 -123.5q125 0 205 67t87 177l1 24h-264v252h618v-186q0 -298 -174.5 -469t-480.5 -171 q-333 0 -522 203t-189 559z" />
<glyph unicode="H" horiz-adv-x="1648" d="M170 0v1443h367v-566h575v566h366v-1443h-366v582h-575v-582h-367z" />
<glyph unicode="I" horiz-adv-x="707" d="M170 0v1443h367v-1443h-367z" />
<glyph unicode="J" horiz-adv-x="1299" d="M70 458h352q1 -85 48 -135.5t126 -50.5q81 0 123.5 50t42.5 146v975h367v-978q0 -241 -139.5 -372.5t-387.5 -131.5q-244 0 -388 133.5t-144 363.5z" />
<glyph unicode="&#x212a;" horiz-adv-x="1507" d="M170 0v1443h367v-620h19l480 620h394l-499 -637l528 -806h-431l-364 569l-127 -161v-408h-367z" />
<glyph unicode="K" horiz-adv-x="1507" d="M170 0v1443h367v-620h19l480 620h394l-499 -637l528 -806h-431l-364 569l-127 -161v-408h-367z" />
<glyph unicode="L" horiz-adv-x="1247" d="M170 0v1443h367v-1140h613v-303h-980z" />
<glyph unicode="M" horiz-adv-x="1924" d="M170 0v1443h433l350 -885h19l349 885h433v-1443h-339v911h-18l-321 -803h-227l-322 803h-18v-911h-339z" />
<glyph unicode="N" horiz-adv-x="1601" d="M170 0v1443h293l601 -812h19v812h348v-1443h-291l-603 820h-19v-820h-348z" />
<glyph unicode="O" horiz-adv-x="1627" d="M102 722q0 351 193 555.5t519 204.5t518.5 -204.5t192.5 -555.5q0 -352 -192.5 -556.5t-518.5 -204.5q-328 0 -520 204.5t-192 556.5zM476 722q0 -209 92 -333t246 -124q152 0 244.5 124.5t92.5 332.5t-92.5 332t-244.5 124q-153 0 -245.5 -124t-92.5 -332z" />
<glyph unicode="P" horiz-adv-x="1421" d="M170 0v1443h632q233 0 376.5 -140t143.5 -372q0 -229 -150 -368.5t-392 -139.5h-243v-423h-367zM537 700h166q118 0 183 59t65 171q0 113 -64 172t-182 59h-168v-461z" />
<glyph unicode="Q" horiz-adv-x="1626" d="M102 722q0 351 193 555.5t519 204.5t518 -204.5t192 -555.5q0 -194 -60 -346.5t-172 -249.5l197 -258h-323l-100 131q-116 -38 -252 -38q-328 0 -520 204t-192 557zM464 722q0 -216 96 -344.5t254 -128.5q29 0 56 6l-193 252h323l79 -102q83 117 83 317 q0 215 -95.5 343.5t-252.5 128.5q-158 0 -254 -128t-96 -344z" />
<glyph unicode="R" horiz-adv-x="1466" d="M170 0v1443h635q253 0 396 -126.5t143 -349.5q0 -136 -65 -246.5t-181 -161.5l288 -559h-412l-247 505h-190v-505h-367zM537 764h217q101 0 158 53t57 147q0 92 -59 147t-157 55h-216v-402z" />
<glyph unicode="S" horiz-adv-x="1423" d="M107 411h350q7 -79 79.5 -125.5t186.5 -46.5q103 0 167 45t64 116q0 60 -52 95.5t-176 60.5l-190 38q-198 37 -299 144t-101 277q0 212 156.5 339.5t417.5 127.5q253 0 413 -125t165 -325h-339q-6 76 -71.5 124.5t-162.5 48.5t-155.5 -42.5t-58.5 -114.5q0 -59 51 -96 t165 -59l186 -36q214 -41 313.5 -141t99.5 -272q0 -226 -162 -354.5t-446 -128.5q-274 0 -435.5 121t-165.5 329z" />
<glyph unicode="T" horiz-adv-x="1381" d="M91 1148v295h1199v-295h-417v-1148h-366v1148h-416z" />
<glyph unicode="U" horiz-adv-x="1582" d="M170 498v945h366v-906q0 -126 66.5 -196.5t188.5 -70.5t188.5 70t66.5 197v906h366v-945q0 -243 -170 -390t-451 -147t-451 147t-170 390z" />
<glyph unicode="V" horiz-adv-x="1528" d="M73 1443h421l277 -1062h19l269 1062h396l-453 -1443h-464z" />
<glyph unicode="W" horiz-adv-x="2112" d="M86 1443h381l192 -957h18l231 957h294l239 -957h18l189 957h378l-377 -1443h-344l-241 884h-18l-237 -884h-346z" />
<glyph unicode="X" horiz-adv-x="1549" d="M87 0l443 728l-442 715h428l259 -478h19l261 478h408l-461 -719l457 -724h-413l-274 457h-19l-276 -457h-390z" />
<glyph unicode="Y" horiz-adv-x="1507" d="M73 1443h391l281 -589h19l279 589h391l-497 -947v-496h-366v496z" />
<glyph unicode="Z" horiz-adv-x="1399" d="M130 0v233l677 896v19h-666v295h1106v-233l-677 -896v-19h698v-295h-1138z" />
<glyph unicode="[" horiz-adv-x="929" d="M243 -312v1842h617v-256h-277v-1329h277v-257h-617z" />
<glyph unicode="\" horiz-adv-x="852" d="M0 1530h341l511 -1842h-342z" />
<glyph unicode="]" horiz-adv-x="929" d="M69 -55h277v1329h-277v256h617v-1842h-617v257z" />
<glyph unicode="^" horiz-adv-x="1016" d="M52 707l300 664h313l299 -664h-276l-170 405h-19l-171 -405h-276z" />
<glyph unicode="_" horiz-adv-x="960" d="M2 -107h956v-266h-956v266z" />
<glyph unicode="`" horiz-adv-x="1024" d="M274 1619h313l163 -359h-236z" />
<glyph unicode="a" horiz-adv-x="1248" d="M81 320q0 152 114.5 238.5t330.5 99.5l243 14v87q0 57 -40.5 88.5t-113.5 31.5q-141 0 -176 -90h-318q12 162 150 256t364 94q230 0 356 -100t126 -280v-759h-344v138h-19q-37 -71 -122 -113t-191 -42q-161 0 -260.5 92.5t-99.5 244.5zM422 345q0 -53 40.5 -84t107.5 -31 q84 0 141.5 49t57.5 121v73l-187 -12q-78 -6 -119 -36t-41 -80z" />
<glyph unicode="b" horiz-adv-x="1374" d="M148 0v1530h353v-596h19q41 93 126.5 144.5t200.5 51.5q211 0 327.5 -150.5t116.5 -422.5q0 -271 -117.5 -422.5t-326.5 -151.5q-119 0 -207.5 50.5t-128.5 140.5h-19v-174h-344zM499 556q1 -137 58.5 -216t157.5 -79q99 0 156 79.5t57 216.5q0 136 -57.5 215.5 t-155.5 79.5q-99 0 -157 -79.5t-59 -216.5z" />
<glyph unicode="c" horiz-adv-x="1233" d="M83 558q0 284 144 432.5t419 148.5q228 0 361.5 -116t150.5 -322h-325q-11 79 -59 122.5t-128 43.5q-208 0 -208 -309q0 -312 208 -312q163 0 187 158h325q-16 -201 -151.5 -315.5t-360.5 -114.5q-275 0 -419 149.5t-144 434.5z" />
<glyph unicode="d" horiz-adv-x="1374" d="M83 559q0 266 119.5 418.5t327.5 152.5q112 0 197.5 -52t126.5 -144h19v596h354v-1530h-345v174h-19q-41 -90 -129 -140.5t-204 -50.5q-209 0 -328 153.5t-119 422.5zM446 557q0 -139 56.5 -217.5t157.5 -78.5t158 78.5t57 216.5t-57.5 217t-157.5 79t-157 -78.5 t-57 -216.5z" />
<glyph unicode="e" horiz-adv-x="1262" d="M83 549q0 275 147.5 432.5t406.5 157.5q257 0 400 -148.5t143 -414.5v-98h-749v-18q2 -109 61 -172t160 -63q77 0 128.5 27t69.5 76h323q-29 -163 -172 -258.5t-359 -95.5q-266 0 -412.5 150.5t-146.5 424.5zM433 681h404q-4 97 -56.5 152t-141.5 55q-87 0 -143 -56.5 t-63 -150.5z" />
<glyph unicode="f" horiz-adv-x="885" d="M51 835v263h178v108q0 170 96.5 252.5t315.5 82.5q97 0 168 -11v-233q-34 6 -90 6q-79 0 -112.5 -29.5t-33.5 -95.5v-80h227v-263h-218v-835h-353v835h-178z" />
<glyph unicode="g" horiz-adv-x="1360" d="M79 563q0 263 120.5 415t330.5 152q111 0 199 -52.5t130 -143.5h19v179h345v-1100q0 -199 -156 -315.5t-422 -116.5q-232 0 -377 91.5t-156 241.5h344q10 -45 63 -71.5t136 -26.5q102 0 158 45.5t56 128.5v201h-19q-87 -175 -328 -175q-204 0 -323.5 147.5t-119.5 399.5z M442 564q0 -134 56 -211t157 -77q102 0 159 76.5t57 210.5q0 135 -57.5 212t-158.5 77q-100 0 -156.5 -77t-56.5 -211z" />
<glyph unicode="h" horiz-adv-x="1355" d="M148 0v1530h346v-602h19q37 96 125 151t208 55q182 0 281.5 -108.5t99.5 -310.5v-715h-353v635q0 103 -46 157t-134 54q-90 0 -141.5 -59t-51.5 -156v-631h-353z" />
<glyph unicode="i" horiz-adv-x="631" d="M127 1446q0 77 55 131t133 54t133 -54t55 -131t-55 -130.5t-133 -53.5t-133 53.5t-55 130.5zM138 0v1113h354v-1113h-354z" />
<glyph unicode="j" horiz-adv-x="631" d="M-33 -120q18 -2 42 -2q69 0 99 25.5t30 82.5v1127h354v-1140q0 -170 -109 -260.5t-313 -90.5q-55 0 -103 5v253zM128 1446q0 77 55 131t133 54t133 -54t55 -131t-55 -130.5t-133 -53.5t-133 53.5t-55 130.5z" />
<glyph unicode="k" horiz-adv-x="1295" d="M148 0v1530h353v-833h19l316 416h396l-397 -478l424 -635h-412l-278 426l-68 -77v-349h-353z" />
<glyph unicode="l" horiz-adv-x="649" d="M148 0v1530h353v-1530h-353z" />
<glyph unicode="m" horiz-adv-x="1960" d="M138 0v1113h344v-184h19q32 97 115 153.5t192 56.5q119 0 198 -54.5t111 -155.5h19q35 95 125.5 152.5t207.5 57.5q164 0 263.5 -103.5t99.5 -274.5v-761h-353v671q0 179 -161 179q-75 0 -119.5 -50t-44.5 -132v-668h-338v677q0 84 -41 128.5t-118 44.5q-74 0 -120 -52 t-46 -136v-662h-353z" />
<glyph unicode="n" horiz-adv-x="1332" d="M138 0v1113h344v-181h19q37 96 122 151.5t204 55.5q184 0 280.5 -109t96.5 -311v-719h-354v640q0 210 -175 210q-85 0 -134.5 -58.5t-49.5 -155.5v-636h-353z" />
<glyph unicode="o" horiz-adv-x="1300" d="M83 557q0 270 152 426t415 156q264 0 415.5 -155.5t151.5 -426.5q0 -275 -149.5 -429t-417.5 -154q-267 0 -417 154t-150 429zM446 557q0 -149 53.5 -231t150.5 -82t150.5 82t53.5 231q0 146 -54 229t-150 83t-150 -83t-54 -229z" />
<glyph unicode="p" horiz-adv-x="1364" d="M138 -368v1481h344v-181h19q41 93 129 145.5t203 52.5q211 0 329.5 -150.5t118.5 -422.5t-116 -423t-324 -151q-120 0 -206 49.5t-125 138.5h-19v-539h-353zM489 556q0 -139 57 -217t158 -78t157.5 78.5t56.5 217.5q0 138 -57 216.5t-157 78.5t-157.5 -79t-57.5 -217z " />
<glyph unicode="q" horiz-adv-x="1364" d="M83 559q0 266 120.5 418.5t330.5 152.5q112 0 199.5 -53.5t129.5 -144.5h19v181h345v-1481h-355v539h-19q-41 -89 -126 -138.5t-202 -49.5q-208 0 -325 153.5t-117 422.5zM446 557q0 -139 56.5 -217.5t156.5 -78.5q101 0 158.5 78.5t57.5 216.5q0 137 -58 216.5 t-158 79.5t-156.5 -79t-56.5 -216z" />
<glyph unicode="r" horiz-adv-x="950" d="M138 0v1113h344v-183h19q21 86 96.5 143t177.5 57q88 0 128 -17v-301q-49 20 -152 20q-119 0 -189.5 -64t-70.5 -179v-589h-353z" />
<glyph unicode="s" horiz-adv-x="1206" d="M86 319h341q28 -106 185 -106q73 0 116.5 27t43.5 72q0 35 -27.5 56t-94.5 35l-207 44q-330 70 -330 331q0 166 132 263.5t357 97.5q231 0 355.5 -87.5t134.5 -255.5h-322q-8 49 -51 76.5t-114 27.5q-69 0 -112.5 -27.5t-43.5 -72.5q0 -35 30.5 -57.5t97.5 -36.5l230 -47 q165 -35 239.5 -107.5t74.5 -198.5q0 -173 -140 -276t-374 -103q-239 0 -372.5 88.5t-148.5 256.5z" />
<glyph unicode="t" horiz-adv-x="898" d="M55 835v263h171v270h353v-270h224v-263h-224v-451q0 -125 135 -125q46 0 89 5v-252q-65 -14 -169 -14q-219 0 -313.5 71.5t-94.5 235.5v530h-171z" />
<glyph unicode="u" horiz-adv-x="1340" d="M128 386v727h353v-640q0 -101 47.5 -154.5t133.5 -53.5q89 0 137.5 56.5t48.5 155.5v636h354v-1113h-344v180h-19q-82 -206 -316 -206q-179 0 -287 110.5t-108 301.5z" />
<glyph unicode="v" horiz-adv-x="1238" d="M42 1113h381l193 -796h19l189 796h372l-371 -1113h-408z" />
<glyph unicode="w" horiz-adv-x="1814" d="M57 1113h358l139 -763h19l168 763h337l170 -763h19l139 763h350l-288 -1113h-381l-174 733h-19l-172 -733h-375z" />
<glyph unicode="x" horiz-adv-x="1250" d="M58 1112h403l163 -346h19l164 346h383l-336 -551l337 -562h-386l-179 342h-20l-178 -342h-368l333 548z" />
<glyph unicode="y" horiz-adv-x="1282" d="M50 1113h391l199 -816h19l199 816h374l-358 -1111q-71 -222 -203.5 -314.5t-372.5 -92.5q-124 0 -129 1v269q10 -2 62 -2q176 0 194 97l5 31z" />
<glyph unicode="z" horiz-adv-x="1190" d="M112 0v189l524 639v19h-512v266h936v-217l-477 -611v-19h495v-266h-966z" />
<glyph unicode="{" horiz-adv-x="929" d="M69 451v324q131 2 188 48t57 151v168q0 207 107.5 297.5t354.5 90.5h84v-250h-46q-89 0 -125 -40t-36 -138v-214q0 -109 -74 -175.5t-211 -81.5v-36q137 -15 211 -81.5t74 -175.5v-222q0 -98 36 -138t125 -40h46v-250h-84q-246 0 -354 93t-108 303v168q0 105 -57 151 t-188 48z" />
<glyph unicode="|" horiz-adv-x="852" d="M256 -312v1842h340v-1842h-340z" />
<glyph unicode="}" horiz-adv-x="929" d="M69 -61h46q89 0 125 40t36 138v214q0 108 74 174.5t211 82.5v36q-137 15 -211 81.5t-74 175.5v222q0 98 -36 138t-125 40h-46v249h84q246 0 354 -92.5t108 -302.5v-168q0 -105 56.5 -151.5t188.5 -47.5v-324q-131 -2 -188 -48t-57 -152v-167q0 -207 -107.5 -298 t-354.5 -91h-84v251z" />
<glyph unicode="~" horiz-adv-x="1461" d="M187 364q-13 216 77 341t248 125q71 0 133 -31t138 -99q44 -40 72.5 -55t59.5 -15q99 0 101 175h259q13 -216 -76.5 -340.5t-248.5 -124.5q-71 0 -133 30t-139 100q-44 39 -72 54t-59 15q-99 0 -102 -175h-258z" />
<glyph unicode="&#xa1;" horiz-adv-x="778" d="M185 983q0 86 53.5 133.5t150.5 47.5t151 -48t54 -133q0 -87 -54 -135t-151 -48t-150.5 48t-53.5 135zM197 -314l32 970h320l32 -970h-384z" />
<glyph unicode="&#xa2;" horiz-adv-x="1461" d="M195 723q0 250 135 401t371 168v151h113v-151q209 -16 334 -139t131 -316h-321q-8 72 -45 120t-99 62v-595q129 28 144 176h322q-7 -195 -131.5 -314t-334.5 -134v-152h-113v152q-237 17 -371.5 167.5t-134.5 403.5zM546 723q0 -259 155 -297v592q-155 -38 -155 -295z " />
<glyph unicode="&#xa3;" horiz-adv-x="1461" d="M154 652v169h212q-38 140 -38 213q0 192 152 309.5t421 117.5q99 0 190.5 -15.5t133.5 -38.5v-268q-100 46 -264 46q-137 0 -208.5 -55.5t-71.5 -152.5q0 -57 30 -156h444v-169h-404q2 -30 2 -45q0 -90 -35.5 -166t-104.5 -119v-12h673v-287h-1120v264 q113 20 178.5 101.5t65.5 203.5q0 20 -4 60h-252z" />
<glyph unicode="&#xa4;" horiz-adv-x="1461" d="M166 278l140 140q-57 108 -57 227t57 227l-140 140l197 198l140 -140q108 57 228 57q119 0 227 -57l140 140l197 -198l-139 -139q57 -108 57 -228t-57 -228l139 -139l-197 -198l-140 140q-108 -57 -227 -57q-120 0 -228 57l-140 -140zM512 645q0 -89 65 -154.5t154 -65.5 t154 65.5t65 154.5t-65 155t-154 66t-154 -66t-65 -155z" />
<glyph unicode="&#xa5;" horiz-adv-x="1461" d="M74 1401h379l272 -592h17l272 592h371l-423 -794h286v-113h-342v-134h342v-112h-342v-241h-353v241h-342v112h342v134h-342v113h286z" />
<glyph unicode="&#xa6;" horiz-adv-x="852" d="M256 -312v735h340v-735h-340zM256 796v734h340v-734h-340z" />
<glyph unicode="&#xa7;" horiz-adv-x="1458" d="M204 549q0 94 64.5 167t176.5 105v19q-120 53 -172.5 117.5t-52.5 160.5q0 158 140.5 253.5t373.5 95.5q217 0 355.5 -95t147.5 -251h-326q-6 50 -56 82.5t-121 32.5q-73 0 -119 -34t-46 -87q0 -38 32.5 -64.5t108.5 -50.5l207 -67q179 -58 258 -130t79 -177 q0 -95 -68 -171t-180 -107v-18q125 -51 180 -114.5t55 -159.5q0 -158 -141.5 -254.5t-374.5 -96.5q-220 0 -359.5 96.5t-146.5 252.5h326q7 -51 58 -84.5t124 -33.5q74 0 120 34t46 89q0 38 -34 65t-108 49l-216 67q-175 54 -253 126.5t-78 182.5zM532 613q0 -42 38.5 -77.5 t107.5 -55.5l136 -44q49 12 82 47.5t33 76.5q0 43 -38 78t-106 55l-137 44q-49 -12 -82.5 -47.5t-33.5 -76.5z" />
<glyph unicode="&#xa8;" horiz-adv-x="1024" d="M85 1442q0 72 51 121.5t123 49.5q73 0 123.5 -49.5t50.5 -121.5t-50.5 -121.5t-123.5 -49.5q-72 0 -123 49.5t-51 121.5zM591 1442q0 72 51 121.5t123 49.5t123 -49.5t51 -121.5t-51 -121.5t-123 -49.5t-123 49.5t-51 121.5z" />
<glyph unicode="&#xa9;" horiz-adv-x="1742" d="M85 663q0 160 62 305.5t167.5 251t251 167.5t305.5 62t305.5 -62t251 -167.5t167.5 -251t62 -305.5q0 -161 -62 -306.5t-167.5 -251t-251 -167.5t-305.5 -62t-305.5 62t-251 167.5t-167.5 251t-62 306.5zM261 663q0 -167 81.5 -307.5t222 -222t306.5 -81.5q125 0 238 48 t194.5 130t129.5 195t48 238t-48 238t-129.5 194.5t-194.5 129.5t-238 48t-238 -48t-194.5 -129.5t-129.5 -194.5t-48 -238zM511 664q0 178 100.5 281.5t272.5 103.5q147 0 241.5 -79.5t106.5 -213.5h-214q-8 53 -43 83.5t-87 30.5q-68 0 -106.5 -54.5t-38.5 -151.5 q0 -100 38 -154t107 -54q54 0 88 28t42 79h214q-12 -133 -104.5 -209.5t-241.5 -76.5q-175 0 -275 103.5t-100 283.5z" />
<glyph unicode="&#xaa;" horiz-adv-x="890" d="M58 917q0 102 81.5 160.5t235.5 66.5l172 9v56q0 33 -29 51.5t-81 18.5q-99 0 -123 -55h-228q8 112 107 176.5t260 64.5q164 0 254 -67t90 -189v-507h-248v89h-14q-26 -45 -86 -72t-136 -27q-114 0 -184.5 61.5t-70.5 163.5zM302 936q0 -32 28.5 -50.5t75.5 -18.5 q60 0 100.5 29t40.5 72v46l-133 -8q-112 -8 -112 -70z" />
<glyph unicode="&#xab;" horiz-adv-x="1499" d="M147 562v8l348 409h306l-344 -408v-8l344 -410h-313zM698 562v8l348 409h306l-344 -408v-8l344 -410h-313z" />
<glyph unicode="&#xac;" horiz-adv-x="1461" d="M209 432v304h1042v-706h-313v402h-729z" />
<glyph unicode="&#xad;" horiz-adv-x="1006" d="M174 425v316h658v-316h-658z" />
<glyph unicode="&#xae;" horiz-adv-x="1260" d="M96 968q0 145 71.5 268t194.5 194.5t268 71.5t268 -71.5t194.5 -194.5t71.5 -268t-71.5 -268t-194.5 -194.5t-268 -71.5t-268 71.5t-194.5 194.5t-71.5 268zM244 968q0 -160 113 -273t273 -113t273 113t113 273t-113 273t-273 113t-273 -113t-113 -273zM416 733v482h260 q83 0 133.5 -43.5t50.5 -113.5q0 -53 -26.5 -92.5t-70.5 -54.5l121 -178h-164l-102 158h-63v-158h-139zM555 992h86q71 0 71 56q0 58 -69 58h-88v-114z" />
<glyph unicode="&#xaf;" horiz-adv-x="1024" d="M131 1339v198h762v-198h-762z" />
<glyph unicode="&#xb0;" horiz-adv-x="1016" d="M105 1039q0 167 115.5 280.5t287.5 113.5t288 -113.5t116 -280.5t-116 -280.5t-288 -113.5t-287.5 113t-115.5 281zM350 1039q0 -69 44.5 -115.5t113.5 -46.5t113.5 46t44.5 116q0 71 -44.5 117t-113.5 46q-68 0 -113 -46.5t-45 -116.5z" />
<glyph unicode="&#xb1;" horiz-adv-x="1461" d="M198 30v284h1065v-284h-1065zM198 646v261h377v230h311v-230h377v-261h-377v-230h-311v230h-377z" />
<glyph unicode="&#xb2;" horiz-adv-x="917" d="M77 1301q0 142 106.5 229.5t278.5 87.5q169 0 265.5 -75t96.5 -195q0 -79 -43 -141t-155 -148l-183 -140v-12h392v-205h-743v178l344 276q83 65 108 99.5t25 70.5q0 39 -31.5 66t-88.5 27q-61 0 -96.5 -33t-35.5 -85h-240z" />
<glyph unicode="&#xb3;" horiz-adv-x="952" d="M74 981h250q2 -45 40.5 -70.5t103.5 -25.5q62 0 99.5 25t37.5 67q0 44 -37 69t-102 25h-122v173h123q57 0 90.5 24.5t33.5 65.5q0 40 -33 64t-89 24q-61 0 -95.5 -27t-37.5 -73h-239q2 136 106 216t278 80q166 0 259.5 -69t93.5 -175q0 -79 -49 -131t-132 -69v-13 q105 -13 162.5 -69t57.5 -144q0 -121 -111.5 -196t-289.5 -75q-174 0 -283 83t-115 221z" />
<glyph unicode="&#xb4;" horiz-adv-x="1024" d="M274 1260l163 359h313l-240 -359h-236z" />
<glyph unicode="&#x3bc;" horiz-adv-x="1421" d="M138 -368v1481h353v-641q0 -100 44.5 -153.5t133.5 -53.5q78 0 128.5 58.5t50.5 151.5v638h354v-741q0 -68 18.5 -94.5t64.5 -26.5q27 0 57 9v-250q-77 -21 -155 -21q-120 0 -188.5 46t-97.5 149l-4 15h-20q-10 -107 -67 -166t-157 -59t-143 58h-19v-400h-353z" />
<glyph unicode="&#xb5;" horiz-adv-x="1421" d="M138 -368v1481h353v-641q0 -100 44.5 -153.5t133.5 -53.5q78 0 128.5 58.5t50.5 151.5v638h354v-741q0 -68 18.5 -94.5t64.5 -26.5q27 0 57 9v-250q-77 -21 -155 -21q-120 0 -188.5 46t-97.5 149l-4 15h-20q-10 -107 -67 -166t-157 -59t-143 58h-19v-400h-353z" />
<glyph unicode="&#xb6;" horiz-adv-x="1458" d="M87 992q0 196 130 323.5t339 127.5h284v-1716h-267v819h-18q-201 0 -334.5 129.5t-133.5 316.5zM1021 -273v1716h267v-1716h-267z" />
<glyph unicode="&#xb7;" horiz-adv-x="767" d="M182 557q0 85 54 137.5t147 52.5q94 0 148 -52.5t54 -137.5q0 -86 -54 -138.5t-148 -52.5q-93 0 -147 52.5t-54 138.5z" />
<glyph unicode="&#xb8;" horiz-adv-x="1024" d="M317 -328q35 -14 108 -14q48 0 80.5 12.5t32.5 40.5q0 51 -120 51h-69v128l90 140h184v-30l-61 -96q89 -9 142 -57t53 -127q0 -103 -78.5 -157.5t-213.5 -54.5q-87 0 -148 17v147z" />
<glyph unicode="&#xb9;" horiz-adv-x="746" d="M81 1220v224l240 149h263v-891h-263v656h-13z" />
<glyph unicode="&#xba;" horiz-adv-x="926" d="M59 1075q0 181 108.5 285.5t295.5 104.5q188 0 296 -104t108 -286q0 -185 -106.5 -288t-297.5 -103t-297.5 103.5t-106.5 287.5zM319 1074q0 -94 38 -145.5t106 -51.5t106 52t38 145t-38 145t-106 52q-67 0 -105.5 -52.5t-38.5 -144.5z" />
<glyph unicode="&#xbb;" horiz-adv-x="1499" d="M147 153l344 408v8l-344 410h313l341 -408v-8l-348 -410h-306zM698 153l344 408v8l-344 410h313l341 -408v-8l-348 -410h-306z" />
<glyph unicode="&#xbc;" horiz-adv-x="2157" d="M81 1070v224l240 149h263v-891h-263v656h-13zM442 0l939 1443h267l-939 -1443h-267zM1252 140v196q125 220 352 555h364v-547h115v-204h-115v-140h-248v140h-468zM1476 334h251v373h-13q-152 -214 -238 -360v-13z" />
<glyph unicode="&#xbd;" horiz-adv-x="2223" d="M81 1070v224l240 149h263v-891h-263v656h-13zM442 0l939 1443h267l-939 -1443h-267zM1384 599q0 142 106.5 229.5t278.5 87.5q169 0 265.5 -75t96.5 -195q0 -79 -43 -141t-155 -148l-183 -140v-12h392v-205h-743v178l344 276q83 65 108 99.5t25 70.5q0 39 -31.5 66 t-88.5 27q-61 0 -96.5 -33t-35.5 -85h-240z" />
<glyph unicode="&#xbe;" horiz-adv-x="2363" d="M74 831h250q2 -45 40.5 -70.5t103.5 -25.5q62 0 99.5 25t37.5 67q0 44 -37 69t-102 25h-122v173h123q57 0 90.5 24.5t33.5 65.5q0 40 -33 64t-89 24q-61 0 -95.5 -27t-37.5 -73h-239q2 136 106 216t278 80q166 0 259.5 -69t93.5 -175q0 -79 -49 -131t-132 -69v-13 q105 -13 162.5 -69t57.5 -144q0 -121 -111.5 -196t-289.5 -75q-174 0 -283 83t-115 221zM648 0l939 1443h267l-939 -1443h-267zM1458 140v196q125 220 352 555h364v-547h115v-204h-115v-140h-248v140h-468zM1682 334h251v373h-13q-152 -214 -238 -360v-13z" />
<glyph unicode="&#xbf;" horiz-adv-x="1189" d="M99 73q0 110 52.5 190.5t163.5 144.5q103 60 138.5 104t35.5 114v47h312l2 -39q15 -127 -24 -204t-145 -138q-102 -60 -136.5 -102t-34.5 -108q0 -61 45 -98.5t117 -37.5q71 0 116 44t47 117h326q-2 -199 -139 -316.5t-374 -117.5q-227 0 -364.5 110t-137.5 290zM432 982 q0 86 54 134t150 48q97 0 151 -48t54 -134t-54 -134t-151 -48q-96 0 -150 48t-54 134z" />
<glyph unicode="&#xc0;" horiz-adv-x="1563" d="M73 0l484 1443h449l485 -1443h-400l-90 317h-471l-93 -317h-364zM395 1932h342l168 -336h-250zM600 581h332l-155 537h-19z" />
<glyph unicode="&#xc1;" horiz-adv-x="1563" d="M73 0l484 1443h449l485 -1443h-400l-90 317h-471l-93 -317h-364zM600 581h332l-155 537h-19zM659 1596l168 336h342l-260 -336h-250z" />
<glyph unicode="&#xc2;" horiz-adv-x="1563" d="M73 0l484 1443h449l485 -1443h-400l-90 317h-471l-93 -317h-364zM342 1596l275 336h330l275 -336h-298l-132 183h-20l-132 -183h-298zM600 581h332l-155 537h-19z" />
<glyph unicode="&#xc3;" horiz-adv-x="1563" d="M73 0l484 1443h449l485 -1443h-400l-90 317h-471l-93 -317h-364zM375 1584q0 153 72.5 242t186.5 89q45 0 83 -14.5t63.5 -35t48 -41t47 -35t49.5 -14.5q76 0 76 132h202q0 -150 -73 -240t-188 -90q-54 0 -101 21t-73.5 45.5t-57 45.5t-56.5 21q-78 0 -78 -126h-201z M600 581h332l-155 537h-19z" />
<glyph unicode="&#xc4;" horiz-adv-x="1563" d="M73 0l484 1443h449l485 -1443h-400l-90 317h-471l-93 -317h-364zM355 1759q0 72 51 122t123 50q73 0 123.5 -49.5t50.5 -122.5q0 -71 -50.5 -120.5t-123.5 -49.5q-72 0 -123 49.5t-51 120.5zM600 581h332l-155 537h-19zM861 1759q0 72 51 122t123 50t123 -50t51 -122 q0 -71 -51 -120.5t-123 -49.5t-123 49.5t-51 120.5z" />
<glyph unicode="&#x212b;" horiz-adv-x="1563" d="M73 0l484 1443h449l485 -1443h-400l-90 317h-471l-93 -317h-364zM567 1738q0 88 63 148.5t152 60.5t152 -60.5t63 -148.5t-63 -148.5t-152 -60.5t-152 60.5t-63 148.5zM600 581h332l-155 537h-19zM696 1738q0 -36 25 -60t61 -24t61 24t25 60t-25 60t-61 24t-61 -24 t-25 -60z" />
<glyph unicode="&#xc5;" horiz-adv-x="1563" d="M73 0l484 1443h449l485 -1443h-400l-90 317h-471l-93 -317h-364zM567 1738q0 88 63 148.5t152 60.5t152 -60.5t63 -148.5t-63 -148.5t-152 -60.5t-152 60.5t-63 148.5zM600 581h332l-155 537h-19zM696 1738q0 -36 25 -60t61 -24t61 24t25 60t-25 60t-61 24t-61 -24 t-25 -60z" />
<glyph unicode="&#xc6;" horiz-adv-x="2108" d="M73 0l566 1443h1326v-295h-646v-290h609v-270h-609v-293h646v-295h-973v327h-432l-125 -327h-362zM655 592h337v575h-120z" />
<glyph unicode="&#xc7;" horiz-adv-x="1545" d="M102 722q0 353 186.5 556.5t511.5 203.5q179 0 325.5 -73.5t232.5 -204t91 -291.5h-353q-14 118 -96 190.5t-200 72.5q-151 0 -237.5 -121t-86.5 -332q0 -212 87 -334t238 -122q119 0 200 70.5t97 186.5h352q-8 -226 -163 -379t-398 -179l-39 -62q89 -9 142 -57t53 -127 q0 -103 -78.5 -157.5t-213.5 -54.5q-87 0 -148 17v147q35 -14 108 -14q48 0 80.5 12.5t32.5 40.5q0 51 -120 51h-69v128l50 78q-274 35 -429.5 234.5t-155.5 519.5z" />
<glyph unicode="&#xc8;" horiz-adv-x="1302" d="M170 0v1443h989v-295h-622v-288h585v-270h-585v-295h622v-295h-989zM278 1932h342l168 -336h-250z" />
<glyph unicode="&#xc9;" horiz-adv-x="1302" d="M170 0v1443h989v-295h-622v-288h585v-270h-585v-295h622v-295h-989zM542 1596l168 336h342l-260 -336h-250z" />
<glyph unicode="&#xca;" horiz-adv-x="1302" d="M170 0v1443h989v-295h-622v-288h585v-270h-585v-295h622v-295h-989zM225 1596l275 336h330l275 -336h-298l-132 183h-20l-132 -183h-298z" />
<glyph unicode="&#xcb;" horiz-adv-x="1302" d="M170 0v1443h989v-295h-622v-288h585v-270h-585v-295h622v-295h-989zM238 1759q0 72 51 122t123 50q73 0 123.5 -49.5t50.5 -122.5q0 -71 -50.5 -120.5t-123.5 -49.5q-72 0 -123 49.5t-51 120.5zM744 1759q0 72 51 122t123 50t123 -50t51 -122q0 -71 -51 -120.5 t-123 -49.5t-123 49.5t-51 120.5z" />
<glyph unicode="&#xcc;" horiz-adv-x="707" d="M-34 1932h342l168 -336h-250zM170 0v1443h367v-1443h-367z" />
<glyph unicode="&#xcd;" horiz-adv-x="707" d="M170 0v1443h367v-1443h-367zM230 1596l168 336h342l-260 -336h-250z" />
<glyph unicode="&#xce;" horiz-adv-x="707" d="M-87 1596l275 336h330l275 -336h-298l-132 183h-20l-132 -183h-298zM170 0v1443h367v-1443h-367z" />
<glyph unicode="&#xcf;" horiz-adv-x="707" d="M-74 1759q0 72 51 122t123 50q73 0 123.5 -49.5t50.5 -122.5q0 -71 -50.5 -120.5t-123.5 -49.5q-72 0 -123 49.5t-51 120.5zM170 0v1443h367v-1443h-367zM432 1759q0 72 51 122t123 50t123 -50t51 -122q0 -71 -51 -120.5t-123 -49.5t-123 49.5t-51 120.5z" />
<glyph unicode="&#xd0;" horiz-adv-x="1553" d="M63 600v254h107v589h606q323 0 499 -184.5t176 -522.5q0 -355 -174.5 -545.5t-500.5 -190.5h-606v600h-107zM537 295h173q179 0 273 110t94 324q0 201 -96.5 310t-270.5 109h-173v-294h230v-254h-230v-305z" />
<glyph unicode="&#xd1;" horiz-adv-x="1601" d="M170 0v1443h293l601 -812h19v812h348v-1443h-291l-603 820h-19v-820h-348zM387 1584q0 153 72.5 242t186.5 89q45 0 83 -14.5t63.5 -35t48 -41t47 -35t49.5 -14.5q76 0 76 132h202q0 -150 -73 -240t-188 -90q-54 0 -101 21t-73.5 45.5t-57 45.5t-56.5 21q-78 0 -78 -126 h-201z" />
<glyph unicode="&#xd2;" horiz-adv-x="1627" d="M102 722q0 351 193 555.5t519 204.5t518.5 -204.5t192.5 -555.5q0 -352 -192.5 -556.5t-518.5 -204.5q-328 0 -520 204.5t-192 556.5zM427 1932h342l168 -336h-250zM476 722q0 -209 92 -333t246 -124q152 0 244.5 124.5t92.5 332.5t-92.5 332t-244.5 124 q-153 0 -245.5 -124t-92.5 -332z" />
<glyph unicode="&#xd3;" horiz-adv-x="1627" d="M102 722q0 351 193 555.5t519 204.5t518.5 -204.5t192.5 -555.5q0 -352 -192.5 -556.5t-518.5 -204.5q-328 0 -520 204.5t-192 556.5zM476 722q0 -209 92 -333t246 -124q152 0 244.5 124.5t92.5 332.5t-92.5 332t-244.5 124q-153 0 -245.5 -124t-92.5 -332zM691 1596 l168 336h342l-260 -336h-250z" />
<glyph unicode="&#xd4;" horiz-adv-x="1627" d="M102 722q0 351 193 555.5t519 204.5t518.5 -204.5t192.5 -555.5q0 -352 -192.5 -556.5t-518.5 -204.5q-328 0 -520 204.5t-192 556.5zM374 1596l275 336h330l275 -336h-298l-132 183h-20l-132 -183h-298zM476 722q0 -209 92 -333t246 -124q152 0 244.5 124.5t92.5 332.5 t-92.5 332t-244.5 124q-153 0 -245.5 -124t-92.5 -332z" />
<glyph unicode="&#xd5;" horiz-adv-x="1627" d="M102 722q0 351 193 555.5t519 204.5t518.5 -204.5t192.5 -555.5q0 -352 -192.5 -556.5t-518.5 -204.5q-328 0 -520 204.5t-192 556.5zM407 1584q0 153 72.5 242t186.5 89q45 0 83 -14.5t63.5 -35t48 -41t47 -35t49.5 -14.5q76 0 76 132h202q0 -150 -73 -240t-188 -90 q-54 0 -101 21t-73.5 45.5t-57 45.5t-56.5 21q-78 0 -78 -126h-201zM476 722q0 -209 92 -333t246 -124q152 0 244.5 124.5t92.5 332.5t-92.5 332t-244.5 124q-153 0 -245.5 -124t-92.5 -332z" />
<glyph unicode="&#xd6;" horiz-adv-x="1627" d="M102 722q0 351 193 555.5t519 204.5t518.5 -204.5t192.5 -555.5q0 -352 -192.5 -556.5t-518.5 -204.5q-328 0 -520 204.5t-192 556.5zM387 1759q0 72 51 122t123 50q73 0 123.5 -49.5t50.5 -122.5q0 -71 -50.5 -120.5t-123.5 -49.5q-72 0 -123 49.5t-51 120.5zM476 722 q0 -209 92 -333t246 -124q152 0 244.5 124.5t92.5 332.5t-92.5 332t-244.5 124q-153 0 -245.5 -124t-92.5 -332zM893 1759q0 72 51 122t123 50t123 -50t51 -122q0 -71 -51 -120.5t-123 -49.5t-123 49.5t-51 120.5z" />
<glyph unicode="&#xd7;" horiz-adv-x="1461" d="M204 261l322 323l-322 322l205 205l322 -315l322 315l205 -205l-322 -322l322 -323l-205 -205l-322 315l-322 -315z" />
<glyph unicode="&#xd8;" horiz-adv-x="1627" d="M102 723q0 350 193 554.5t519 204.5q251 0 427 -125l107 120l148 -134l-113 -127q142 -194 142 -493q0 -352 -192 -556.5t-519 -204.5q-256 0 -433 128l-109 -123l-148 134l116 131q-138 195 -138 491zM458 723q0 -115 30 -213l538 605q-88 79 -212 79q-162 0 -259 -128 t-97 -343zM597 332q88 -82 217 -82q161 0 258 128.5t97 344.5q0 122 -32 216z" />
<glyph unicode="&#xd9;" horiz-adv-x="1582" d="M170 498v945h366v-906q0 -126 66.5 -196.5t188.5 -70.5t188.5 70t66.5 197v906h366v-945q0 -243 -170 -390t-451 -147t-451 147t-170 390zM404 1932h342l168 -336h-250z" />
<glyph unicode="&#xda;" horiz-adv-x="1582" d="M170 498v945h366v-906q0 -126 66.5 -196.5t188.5 -70.5t188.5 70t66.5 197v906h366v-945q0 -243 -170 -390t-451 -147t-451 147t-170 390zM668 1596l168 336h342l-260 -336h-250z" />
<glyph unicode="&#xdb;" horiz-adv-x="1582" d="M170 498v945h366v-906q0 -126 66.5 -196.5t188.5 -70.5t188.5 70t66.5 197v906h366v-945q0 -243 -170 -390t-451 -147t-451 147t-170 390zM351 1596l275 336h330l275 -336h-298l-132 183h-20l-132 -183h-298z" />
<glyph unicode="&#xdc;" horiz-adv-x="1582" d="M170 498v945h366v-906q0 -126 66.5 -196.5t188.5 -70.5t188.5 70t66.5 197v906h366v-945q0 -243 -170 -390t-451 -147t-451 147t-170 390zM364 1759q0 72 51 122t123 50q73 0 123.5 -49.5t50.5 -122.5q0 -71 -50.5 -120.5t-123.5 -49.5q-72 0 -123 49.5t-51 120.5z M870 1759q0 72 51 122t123 50t123 -50t51 -122q0 -71 -51 -120.5t-123 -49.5t-123 49.5t-51 120.5z" />
<glyph unicode="&#xdd;" horiz-adv-x="1507" d="M73 1443h391l281 -589h19l279 589h391l-497 -947v-496h-366v496zM631 1596l168 336h342l-260 -336h-250z" />
<glyph unicode="&#xde;" horiz-adv-x="1430" d="M170 0v1443h369v-219h273q227 0 364.5 -129.5t137.5 -350.5q0 -219 -144 -348.5t-381 -129.5h-252v-266h-367zM537 544h174q111 0 171.5 51t60.5 149q0 96 -60 147t-169 51h-177v-398z" />
<glyph unicode="&#xdf;" horiz-adv-x="1469" d="M174 0v1070q0 188 146 296.5t397 108.5q238 0 386.5 -105t148.5 -273q0 -118 -58.5 -204.5t-153.5 -112.5v-19q149 -8 242 -107t93 -255q0 -190 -134.5 -302.5t-366.5 -112.5q-123 0 -200 17v276q53 -19 127 -19q102 0 157 44t55 122t-64 122.5t-176 44.5h-77v274h48 q75 0 120.5 44.5t45.5 119.5q0 76 -50.5 121.5t-136.5 45.5q-96 0 -146 -52t-50 -153v-991h-353z" />
<glyph unicode="&#xe0;" horiz-adv-x="1248" d="M81 320q0 152 114.5 238.5t330.5 99.5l243 14v87q0 57 -40.5 88.5t-113.5 31.5q-141 0 -176 -90h-318q12 162 150 256t364 94q230 0 356 -100t126 -280v-759h-344v138h-19q-37 -71 -122 -113t-191 -42q-161 0 -260.5 92.5t-99.5 244.5zM278 1619h313l163 -359h-236z M422 345q0 -53 40.5 -84t107.5 -31q84 0 141.5 49t57.5 121v73l-187 -12q-78 -6 -119 -36t-41 -80z" />
<glyph unicode="&#xe1;" horiz-adv-x="1248" d="M81 320q0 152 114.5 238.5t330.5 99.5l243 14v87q0 57 -40.5 88.5t-113.5 31.5q-141 0 -176 -90h-318q12 162 150 256t364 94q230 0 356 -100t126 -280v-759h-344v138h-19q-37 -71 -122 -113t-191 -42q-161 0 -260.5 92.5t-99.5 244.5zM422 345q0 -53 40.5 -84t107.5 -31 q84 0 141.5 49t57.5 121v73l-187 -12q-78 -6 -119 -36t-41 -80zM518 1260l163 359h313l-240 -359h-236z" />
<glyph unicode="&#xe2;" horiz-adv-x="1248" d="M81 320q0 152 114.5 238.5t330.5 99.5l243 14v87q0 57 -40.5 88.5t-113.5 31.5q-141 0 -176 -90h-318q12 162 150 256t364 94q230 0 356 -100t126 -280v-759h-344v138h-19q-37 -71 -122 -113t-191 -42q-161 0 -260.5 92.5t-99.5 244.5zM205 1260l262 359h338l262 -359 h-295l-126 202h-20l-126 -202h-295zM422 345q0 -53 40.5 -84t107.5 -31q84 0 141.5 49t57.5 121v73l-187 -12q-78 -6 -119 -36t-41 -80z" />
<glyph unicode="&#xe3;" horiz-adv-x="1248" d="M81 320q0 152 114.5 238.5t330.5 99.5l243 14v87q0 57 -40.5 88.5t-113.5 31.5q-141 0 -176 -90h-318q12 162 150 256t364 94q230 0 356 -100t126 -280v-759h-344v138h-19q-37 -71 -122 -113t-191 -42q-161 0 -260.5 92.5t-99.5 244.5zM229 1267q0 153 72.5 242t186.5 89 q45 0 83 -14.5t63.5 -35t48 -41t47 -35t49.5 -14.5q76 0 76 132h202q0 -151 -73.5 -241t-187.5 -90q-54 0 -101 21t-73.5 46t-57 46t-56.5 21q-78 0 -78 -126h-201zM422 345q0 -53 40.5 -84t107.5 -31q84 0 141.5 49t57.5 121v73l-187 -12q-78 -6 -119 -36t-41 -80z" />
<glyph unicode="&#xe4;" horiz-adv-x="1248" d="M81 320q0 152 114.5 238.5t330.5 99.5l243 14v87q0 57 -40.5 88.5t-113.5 31.5q-141 0 -176 -90h-318q12 162 150 256t364 94q230 0 356 -100t126 -280v-759h-344v138h-19q-37 -71 -122 -113t-191 -42q-161 0 -260.5 92.5t-99.5 244.5zM209 1442q0 72 51 121.5t123 49.5 q73 0 123.5 -49.5t50.5 -121.5t-50.5 -121.5t-123.5 -49.5q-72 0 -123 49.5t-51 121.5zM422 345q0 -53 40.5 -84t107.5 -31q84 0 141.5 49t57.5 121v73l-187 -12q-78 -6 -119 -36t-41 -80zM715 1442q0 72 51 121.5t123 49.5t123 -49.5t51 -121.5t-51 -121.5t-123 -49.5 t-123 49.5t-51 121.5z" />
<glyph unicode="&#xe5;" horiz-adv-x="1248" d="M81 320q0 152 114.5 238.5t330.5 99.5l243 14v87q0 57 -40.5 88.5t-113.5 31.5q-141 0 -176 -90h-318q12 162 150 256t364 94q230 0 356 -100t126 -280v-759h-344v138h-19q-37 -71 -122 -113t-191 -42q-161 0 -260.5 92.5t-99.5 244.5zM384 1494q0 105 74 174t178 69 t178 -69t74 -174t-74 -174t-178 -69t-178 69t-74 174zM422 345q0 -53 40.5 -84t107.5 -31q84 0 141.5 49t57.5 121v73l-187 -12q-78 -6 -119 -36t-41 -80zM537 1494q0 -41 29.5 -69t69.5 -28t69.5 28t29.5 69t-29.5 69t-69.5 28t-69.5 -28t-29.5 -69z" />
<glyph unicode="&#xe6;" horiz-adv-x="1918" d="M81 320q0 152 114.5 238.5t330.5 99.5l243 14v63q0 71 -42.5 107.5t-111.5 36.5q-141 0 -176 -90h-318q11 153 141.5 251.5t325.5 98.5q249 0 362 -148h19q63 69 154.5 108.5t200.5 39.5q235 0 373 -151t138 -406v-104h-735v-29q2 -101 63 -162t160 -61q134 0 185 102 h320q-29 -161 -164.5 -257.5t-333.5 -96.5q-131 0 -235 49t-160 136h-19q-68 -86 -173.5 -135.5t-232.5 -49.5q-196 0 -312.5 96.5t-116.5 249.5zM422 342q0 -54 41 -85.5t110 -31.5q89 0 142.5 49.5t53.5 117.5v81l-187 -12q-78 -6 -119 -36.5t-41 -82.5zM1100 680h395 q-5 94 -58 151t-135 57q-87 0 -143 -57.5t-59 -150.5z" />
<glyph unicode="&#xe7;" horiz-adv-x="1233" d="M83 558q0 284 144 432.5t419 148.5q228 0 361.5 -116t150.5 -322h-325q-11 79 -59 122.5t-128 43.5q-208 0 -208 -309q0 -312 208 -312q163 0 187 158h325q-14 -173 -117.5 -283t-279.5 -138l-50 -79q89 -9 142 -57t53 -127q0 -103 -78.5 -157.5t-213.5 -54.5 q-87 0 -148 17v147q35 -14 108 -14q48 0 80.5 12.5t32.5 40.5q0 51 -120 51h-69v128l57 89q-231 23 -351.5 171t-120.5 408z" />
<glyph unicode="&#xe8;" horiz-adv-x="1262" d="M83 549q0 275 147.5 432.5t406.5 157.5q257 0 400 -148.5t143 -414.5v-98h-749v-18q2 -109 61 -172t160 -63q77 0 128.5 27t69.5 76h323q-29 -163 -172 -258.5t-359 -95.5q-266 0 -412.5 150.5t-146.5 424.5zM283 1619h313l163 -359h-236zM433 681h404q-4 97 -56.5 152 t-141.5 55q-87 0 -143 -56.5t-63 -150.5z" />
<glyph unicode="&#xe9;" horiz-adv-x="1262" d="M83 549q0 275 147.5 432.5t406.5 157.5q257 0 400 -148.5t143 -414.5v-98h-749v-18q2 -109 61 -172t160 -63q77 0 128.5 27t69.5 76h323q-29 -163 -172 -258.5t-359 -95.5q-266 0 -412.5 150.5t-146.5 424.5zM433 681h404q-4 97 -56.5 152t-141.5 55q-87 0 -143 -56.5 t-63 -150.5zM523 1260l163 359h313l-240 -359h-236z" />
<glyph unicode="&#xea;" horiz-adv-x="1262" d="M83 549q0 275 147.5 432.5t406.5 157.5q257 0 400 -148.5t143 -414.5v-98h-749v-18q2 -109 61 -172t160 -63q77 0 128.5 27t69.5 76h323q-29 -163 -172 -258.5t-359 -95.5q-266 0 -412.5 150.5t-146.5 424.5zM210 1260l262 359h338l262 -359h-295l-126 202h-20l-126 -202 h-295zM433 681h404q-4 97 -56.5 152t-141.5 55q-87 0 -143 -56.5t-63 -150.5z" />
<glyph unicode="&#xeb;" horiz-adv-x="1262" d="M83 549q0 275 147.5 432.5t406.5 157.5q257 0 400 -148.5t143 -414.5v-98h-749v-18q2 -109 61 -172t160 -63q77 0 128.5 27t69.5 76h323q-29 -163 -172 -258.5t-359 -95.5q-266 0 -412.5 150.5t-146.5 424.5zM214 1442q0 72 51 121.5t123 49.5q73 0 123.5 -49.5 t50.5 -121.5t-50.5 -121.5t-123.5 -49.5q-72 0 -123 49.5t-51 121.5zM433 681h404q-4 97 -56.5 152t-141.5 55q-87 0 -143 -56.5t-63 -150.5zM720 1442q0 72 51 121.5t123 49.5t123 -49.5t51 -121.5t-51 -121.5t-123 -49.5t-123 49.5t-51 121.5z" />
<glyph unicode="&#xec;" horiz-adv-x="631" d="M-43 1619h313l163 -359h-236zM138 0v1113h354v-1113h-354z" />
<glyph unicode="&#xed;" horiz-adv-x="631" d="M138 0v1113h354v-1113h-354zM197 1260l163 359h313l-240 -359h-236z" />
<glyph unicode="&#xee;" horiz-adv-x="631" d="M-116 1260l262 359h338l262 -359h-295l-126 202h-20l-126 -202h-295zM138 0v1113h354v-1113h-354z" />
<glyph unicode="&#xef;" horiz-adv-x="631" d="M-112 1442q0 72 51 121.5t123 49.5q73 0 123.5 -49.5t50.5 -121.5t-50.5 -121.5t-123.5 -49.5q-72 0 -123 49.5t-51 121.5zM138 0v1113h354v-1113h-354zM394 1442q0 72 51 121.5t123 49.5t123 -49.5t51 -121.5t-51 -121.5t-123 -49.5t-123 49.5t-51 121.5z" />
<glyph unicode="&#xf0;" horiz-adv-x="1324" d="M91 520q0 119 38.5 216.5t103 160t147 96.5t173.5 34q83 0 159 -33.5t128 -93.5h16q-74 168 -265 303l-315 -166v164l170 90q-74 40 -171 78v192q235 -45 418 -140l284 150v-165l-139 -73q197 -140 296 -333t99 -404q0 -124 -37 -233.5t-107 -194.5t-182 -135t-251 -50 q-137 0 -247 44t-178 119t-104 170.5t-36 203.5zM453 532q0 -122 58 -196t156 -74q99 0 157.5 75t58.5 197q0 121 -58.5 196.5t-157.5 75.5t-156.5 -76.5t-57.5 -197.5z" />
<glyph unicode="&#xf1;" horiz-adv-x="1332" d="M138 0v1113h344v-181h19q37 96 122 151.5t204 55.5q184 0 280.5 -109t96.5 -311v-719h-354v640q0 210 -175 210q-85 0 -134.5 -58.5t-49.5 -155.5v-636h-353zM275 1267q0 153 72.5 242t186.5 89q45 0 83 -14.5t63.5 -35t48 -41t47 -35t49.5 -14.5q76 0 76 132h202 q0 -151 -73.5 -241t-187.5 -90q-54 0 -101 21t-73.5 46t-57 46t-56.5 21q-78 0 -78 -126h-201z" />
<glyph unicode="&#xf2;" horiz-adv-x="1300" d="M83 557q0 270 152 426t415 156q264 0 415.5 -155.5t151.5 -426.5q0 -275 -149.5 -429t-417.5 -154q-267 0 -417 154t-150 429zM292 1619h313l163 -359h-236zM446 557q0 -149 53.5 -231t150.5 -82t150.5 82t53.5 231q0 146 -54 229t-150 83t-150 -83t-54 -229z" />
<glyph unicode="&#xf3;" horiz-adv-x="1300" d="M83 557q0 270 152 426t415 156q264 0 415.5 -155.5t151.5 -426.5q0 -275 -149.5 -429t-417.5 -154q-267 0 -417 154t-150 429zM446 557q0 -149 53.5 -231t150.5 -82t150.5 82t53.5 231q0 146 -54 229t-150 83t-150 -83t-54 -229zM532 1260l163 359h313l-240 -359h-236z " />
<glyph unicode="&#xf4;" horiz-adv-x="1300" d="M83 557q0 270 152 426t415 156q264 0 415.5 -155.5t151.5 -426.5q0 -275 -149.5 -429t-417.5 -154q-267 0 -417 154t-150 429zM219 1260l262 359h338l262 -359h-295l-126 202h-20l-126 -202h-295zM446 557q0 -149 53.5 -231t150.5 -82t150.5 82t53.5 231q0 146 -54 229 t-150 83t-150 -83t-54 -229z" />
<glyph unicode="&#xf5;" horiz-adv-x="1300" d="M83 557q0 270 152 426t415 156q264 0 415.5 -155.5t151.5 -426.5q0 -275 -149.5 -429t-417.5 -154q-267 0 -417 154t-150 429zM243 1267q0 153 72.5 242t186.5 89q45 0 83 -14.5t63.5 -35t48 -41t47 -35t49.5 -14.5q76 0 76 132h202q0 -151 -73.5 -241t-187.5 -90 q-54 0 -101 21t-73.5 46t-57 46t-56.5 21q-78 0 -78 -126h-201zM446 557q0 -149 53.5 -231t150.5 -82t150.5 82t53.5 231q0 146 -54 229t-150 83t-150 -83t-54 -229z" />
<glyph unicode="&#xf6;" horiz-adv-x="1300" d="M83 557q0 270 152 426t415 156q264 0 415.5 -155.5t151.5 -426.5q0 -275 -149.5 -429t-417.5 -154q-267 0 -417 154t-150 429zM223 1442q0 72 51 121.5t123 49.5q73 0 123.5 -49.5t50.5 -121.5t-50.5 -121.5t-123.5 -49.5q-72 0 -123 49.5t-51 121.5zM446 557 q0 -149 53.5 -231t150.5 -82t150.5 82t53.5 231q0 146 -54 229t-150 83t-150 -83t-54 -229zM729 1442q0 72 51 121.5t123 49.5t123 -49.5t51 -121.5t-51 -121.5t-123 -49.5t-123 49.5t-51 121.5z" />
<glyph unicode="&#xf7;" horiz-adv-x="1461" d="M192 448v271h1076v-271h-1076zM541 170q0 79 52 127.5t138 48.5q85 0 137 -48.5t52 -127.5t-52 -127.5t-137 -48.5t-137.5 48.5t-52.5 127.5zM541 997q0 79 52.5 127.5t137.5 48.5t137 -48.5t52 -127.5t-52 -127.5t-137 -48.5t-137.5 48.5t-52.5 127.5z" />
<glyph unicode="&#xf8;" horiz-adv-x="1300" d="M83 93l98 101q-98 145 -98 364q0 270 152 426t415 156q208 0 349 -99l95 98l123 -128l-94 -98q94 -143 94 -355q0 -275 -150 -429t-417 -154q-204 0 -344 94l-100 -104zM413 557q0 -62 9 -113l382 395q-60 66 -154 66q-112 0 -174.5 -92t-62.5 -256zM500 269 q60 -60 150 -60q113 0 175 91.5t62 256.5q0 54 -8 105z" />
<glyph unicode="&#xf9;" horiz-adv-x="1340" d="M128 386v727h353v-640q0 -101 47.5 -154.5t133.5 -53.5q89 0 137.5 56.5t48.5 155.5v636h354v-1113h-344v180h-19q-82 -206 -316 -206q-179 0 -287 110.5t-108 301.5zM307 1619h313l163 -359h-236z" />
<glyph unicode="&#xfa;" horiz-adv-x="1340" d="M128 386v727h353v-640q0 -101 47.5 -154.5t133.5 -53.5q89 0 137.5 56.5t48.5 155.5v636h354v-1113h-344v180h-19q-82 -206 -316 -206q-179 0 -287 110.5t-108 301.5zM547 1260l163 359h313l-240 -359h-236z" />
<glyph unicode="&#xfb;" horiz-adv-x="1340" d="M128 386v727h353v-640q0 -101 47.5 -154.5t133.5 -53.5q89 0 137.5 56.5t48.5 155.5v636h354v-1113h-344v180h-19q-82 -206 -316 -206q-179 0 -287 110.5t-108 301.5zM234 1260l262 359h338l262 -359h-295l-126 202h-20l-126 -202h-295z" />
<glyph unicode="&#xfc;" horiz-adv-x="1340" d="M128 386v727h353v-640q0 -101 47.5 -154.5t133.5 -53.5q89 0 137.5 56.5t48.5 155.5v636h354v-1113h-344v180h-19q-82 -206 -316 -206q-179 0 -287 110.5t-108 301.5zM238 1442q0 72 51 121.5t123 49.5q73 0 123.5 -49.5t50.5 -121.5t-50.5 -121.5t-123.5 -49.5 q-72 0 -123 49.5t-51 121.5zM744 1442q0 72 51 121.5t123 49.5t123 -49.5t51 -121.5t-51 -121.5t-123 -49.5t-123 49.5t-51 121.5z" />
<glyph unicode="&#xfd;" horiz-adv-x="1282" d="M50 1113h391l199 -816h19l199 816h374l-358 -1111q-71 -222 -203.5 -314.5t-372.5 -92.5q-124 0 -129 1v269q10 -2 62 -2q176 0 194 97l5 31zM532 1260l163 359h313l-240 -359h-236z" />
<glyph unicode="&#xfe;" horiz-adv-x="1382" d="M140 -339v1847h352v-576h19q41 94 127 146t201 52q211 0 328 -150t117 -423q0 -272 -116 -423t-325 -151q-119 0 -205.5 49.5t-124.5 138.5h-19v-510h-354zM491 556q1 -139 58 -217t157 -78q101 0 158 78.5t57 217.5q0 137 -57 216t-157 79t-157.5 -79t-58.5 -217z" />
<glyph unicode="&#xff;" horiz-adv-x="1282" d="M50 1113h391l199 -816h19l199 816h374l-358 -1111q-71 -222 -203.5 -314.5t-372.5 -92.5q-124 0 -129 1v269q10 -2 62 -2q176 0 194 97l5 31zM223 1442q0 72 51 121.5t123 49.5q73 0 123.5 -49.5t50.5 -121.5t-50.5 -121.5t-123.5 -49.5q-72 0 -123 49.5t-51 121.5z M729 1442q0 72 51 121.5t123 49.5t123 -49.5t51 -121.5t-51 -121.5t-123 -49.5t-123 49.5t-51 121.5z" />
<glyph unicode="&#x100;" horiz-adv-x="1563" d="M73 0l484 1443h449l485 -1443h-400l-90 317h-471l-93 -317h-364zM401 1657v197h762v-197h-762zM600 581h332l-155 537h-19z" />
<glyph unicode="&#x101;" horiz-adv-x="1248" d="M81 320q0 152 114.5 238.5t330.5 99.5l243 14v87q0 57 -40.5 88.5t-113.5 31.5q-141 0 -176 -90h-318q12 162 150 256t364 94q230 0 356 -100t126 -280v-759h-344v138h-19q-37 -71 -122 -113t-191 -42q-161 0 -260.5 92.5t-99.5 244.5zM255 1339v198h762v-198h-762z M422 345q0 -53 40.5 -84t107.5 -31q84 0 141.5 49t57.5 121v73l-187 -12q-78 -6 -119 -36t-41 -80z" />
<glyph unicode="&#x102;" horiz-adv-x="1563" d="M73 0l484 1443h449l485 -1443h-400l-90 317h-471l-93 -317h-364zM366 1928h236q2 -69 50.5 -112.5t129.5 -43.5t129.5 43.5t50.5 112.5h236q0 -152 -113 -249t-303 -97t-303 97t-113 249zM600 581h332l-155 537h-19z" />
<glyph unicode="&#x103;" horiz-adv-x="1248" d="M81 320q0 152 114.5 238.5t330.5 99.5l243 14v87q0 57 -40.5 88.5t-113.5 31.5q-141 0 -176 -90h-318q12 162 150 256t364 94q230 0 356 -100t126 -280v-759h-344v138h-19q-37 -71 -122 -113t-191 -42q-161 0 -260.5 92.5t-99.5 244.5zM221 1619h236q2 -80 49.5 -126 t129.5 -46t129.5 46t49.5 126h236q0 -163 -111.5 -263t-303.5 -100t-303.5 100t-111.5 263zM422 345q0 -53 40.5 -84t107.5 -31q84 0 141.5 49t57.5 121v73l-187 -12q-78 -6 -119 -36t-41 -80z" />
<glyph unicode="&#x104;" horiz-adv-x="1563" d="M73 0l484 1443h449l485 -1443h-47q-111 -8 -171 -60t-60 -119q0 -48 34 -77.5t103 -29.5q34 0 69 8v-179q-78 -23 -162 -23q-138 0 -217.5 68.5t-79.5 174.5q0 63 33.5 126.5t96.5 113.5l-89 314h-471l-93 -317h-364zM600 581h332l-155 537h-19z" />
<glyph unicode="&#x105;" horiz-adv-x="1248" d="M81 320q0 152 114.5 238.5t330.5 99.5l243 14v87q0 57 -40.5 88.5t-113.5 31.5q-141 0 -176 -90h-318q12 162 150 256t364 94q230 0 356 -100t126 -280v-759q-111 -8 -171 -60t-60 -119q0 -48 34 -77.5t102 -29.5q35 0 70 8v-179q-80 -23 -162 -23q-138 0 -217.5 68.5 t-79.5 174.5q0 66 36 132t104 116v127h-19q-37 -71 -122 -113t-191 -42q-161 0 -260.5 92.5t-99.5 244.5zM422 345q0 -53 40.5 -84t107.5 -31q84 0 141.5 49t57.5 121v73l-187 -12q-78 -6 -119 -36t-41 -80z" />
<glyph unicode="&#x106;" horiz-adv-x="1545" d="M102 722q0 353 186.5 556.5t511.5 203.5q179 0 325.5 -73.5t232.5 -204t91 -291.5h-353q-14 118 -96 190.5t-200 72.5q-151 0 -237.5 -121t-86.5 -332q0 -212 87 -334t238 -122q119 0 200 70.5t97 186.5h352q-9 -248 -191 -405.5t-459 -157.5q-324 0 -511 204t-187 557z M677 1596l168 336h342l-260 -336h-250z" />
<glyph unicode="&#x107;" horiz-adv-x="1233" d="M83 558q0 284 144 432.5t419 148.5q228 0 361.5 -116t150.5 -322h-325q-11 79 -59 122.5t-128 43.5q-208 0 -208 -309q0 -312 208 -312q163 0 187 158h325q-16 -201 -151.5 -315.5t-360.5 -114.5q-275 0 -419 149.5t-144 434.5zM527 1260l163 359h313l-240 -359h-236z " />
<glyph unicode="&#x108;" horiz-adv-x="1545" d="M102 722q0 353 186.5 556.5t511.5 203.5q179 0 325.5 -73.5t232.5 -204t91 -291.5h-353q-14 118 -96 190.5t-200 72.5q-151 0 -237.5 -121t-86.5 -332q0 -212 87 -334t238 -122q119 0 200 70.5t97 186.5h352q-9 -248 -191 -405.5t-459 -157.5q-324 0 -511 204t-187 557z M360 1596l275 336h330l275 -336h-298l-132 183h-20l-132 -183h-298z" />
<glyph unicode="&#x109;" horiz-adv-x="1233" d="M83 558q0 284 144 432.5t419 148.5q228 0 361.5 -116t150.5 -322h-325q-11 79 -59 122.5t-128 43.5q-208 0 -208 -309q0 -312 208 -312q163 0 187 158h325q-16 -201 -151.5 -315.5t-360.5 -114.5q-275 0 -419 149.5t-144 434.5zM214 1260l262 359h338l262 -359h-295 l-126 202h-20l-126 -202h-295z" />
<glyph unicode="&#x10a;" horiz-adv-x="1545" d="M102 722q0 353 186.5 556.5t511.5 203.5q179 0 325.5 -73.5t232.5 -204t91 -291.5h-353q-14 118 -96 190.5t-200 72.5q-151 0 -237.5 -121t-86.5 -332q0 -212 87 -334t238 -122q119 0 200 70.5t97 186.5h352q-9 -248 -191 -405.5t-459 -157.5q-324 0 -511 204t-187 557z M612 1763q0 78 55 131.5t133 53.5t133 -53.5t55 -131.5q0 -76 -55.5 -130t-132.5 -54t-132.5 54t-55.5 130z" />
<glyph unicode="&#x10b;" horiz-adv-x="1233" d="M83 558q0 284 144 432.5t419 148.5q228 0 361.5 -116t150.5 -322h-325q-11 79 -59 122.5t-128 43.5q-208 0 -208 -309q0 -312 208 -312q163 0 187 158h325q-16 -201 -151.5 -315.5t-360.5 -114.5q-275 0 -419 149.5t-144 434.5zM457 1446q0 77 55 131t133 54t133 -54 t55 -131t-55 -130.5t-133 -53.5t-133 53.5t-55 130.5z" />
<glyph unicode="&#x10c;" horiz-adv-x="1545" d="M102 722q0 353 186.5 556.5t511.5 203.5q179 0 325.5 -73.5t232.5 -204t91 -291.5h-353q-14 118 -96 190.5t-200 72.5q-151 0 -237.5 -121t-86.5 -332q0 -212 87 -334t238 -122q119 0 200 70.5t97 186.5h352q-9 -248 -191 -405.5t-459 -157.5q-324 0 -511 204t-187 557z M360 1932h298l132 -183h20l132 183h298l-275 -336h-330z" />
<glyph unicode="&#x10d;" horiz-adv-x="1233" d="M83 558q0 284 144 432.5t419 148.5q228 0 361.5 -116t150.5 -322h-325q-11 79 -59 122.5t-128 43.5q-208 0 -208 -309q0 -312 208 -312q163 0 187 158h325q-16 -201 -151.5 -315.5t-360.5 -114.5q-275 0 -419 149.5t-144 434.5zM214 1619h295l126 -202h20l126 202h295 l-262 -359h-338z" />
<glyph unicode="&#x10e;" horiz-adv-x="1553" d="M170 0v1443h606q323 0 499 -184.5t176 -522.5q0 -355 -174.5 -545.5t-500.5 -190.5h-606zM227 1932h298l132 -183h20l132 183h298l-275 -336h-330zM537 295h173q179 0 273 110t94 324q0 201 -96.5 310t-270.5 109h-173v-853z" />
<glyph unicode="&#x10f;" horiz-adv-x="1592" d="M83 559q0 266 119.5 418.5t327.5 152.5q112 0 197.5 -52t126.5 -144h19v596h354v-1530h-345v174h-19q-41 -90 -129 -140.5t-204 -50.5q-209 0 -328 153.5t-119 422.5zM446 557q0 -139 56.5 -217.5t157.5 -78.5t158 78.5t57 216.5t-57.5 217t-157.5 79t-157 -78.5 t-57 -216.5zM1355 1077v542h272l-68 -542h-204z" />
<glyph unicode="&#x110;" horiz-adv-x="1553" d="M63 600v254h107v589h606q323 0 499 -184.5t176 -522.5q0 -355 -174.5 -545.5t-500.5 -190.5h-606v600h-107zM537 295h173q179 0 273 110t94 324q0 201 -96.5 310t-270.5 109h-173v-294h230v-254h-230v-305z" />
<glyph unicode="&#x111;" horiz-adv-x="1374" d="M83 559q0 266 119.5 418.5t327.5 152.5q112 0 197.5 -52t126.5 -144h19v312h-219v169h219v115h354v-115h102v-169h-102v-1246h-345v174h-19q-41 -90 -129 -140.5t-204 -50.5q-209 0 -328 153.5t-119 422.5zM446 557q0 -139 56.5 -217.5t157.5 -78.5t158 78.5t57 216.5 t-57.5 217t-157.5 79t-157 -78.5t-57 -216.5z" />
<glyph unicode="&#x112;" horiz-adv-x="1302" d="M170 0v1443h989v-295h-622v-288h585v-270h-585v-295h622v-295h-989zM284 1657v197h762v-197h-762z" />
<glyph unicode="&#x113;" horiz-adv-x="1262" d="M83 549q0 275 147.5 432.5t406.5 157.5q257 0 400 -148.5t143 -414.5v-98h-749v-18q2 -109 61 -172t160 -63q77 0 128.5 27t69.5 76h323q-29 -163 -172 -258.5t-359 -95.5q-266 0 -412.5 150.5t-146.5 424.5zM260 1339v198h762v-198h-762zM433 681h404q-4 97 -56.5 152 t-141.5 55q-87 0 -143 -56.5t-63 -150.5z" />
<glyph unicode="&#x114;" horiz-adv-x="1302" d="M170 0v1443h989v-295h-622v-288h585v-270h-585v-295h622v-295h-989zM249 1928h236q2 -69 50.5 -112.5t129.5 -43.5t129.5 43.5t50.5 112.5h236q0 -152 -113 -249t-303 -97t-303 97t-113 249z" />
<glyph unicode="&#x115;" horiz-adv-x="1262" d="M83 549q0 275 147.5 432.5t406.5 157.5q257 0 400 -148.5t143 -414.5v-98h-749v-18q2 -109 61 -172t160 -63q77 0 128.5 27t69.5 76h323q-29 -163 -172 -258.5t-359 -95.5q-266 0 -412.5 150.5t-146.5 424.5zM226 1619h236q2 -80 49.5 -126t129.5 -46t129.5 46t49.5 126 h236q0 -163 -111.5 -263t-303.5 -100t-303.5 100t-111.5 263zM433 681h404q-4 97 -56.5 152t-141.5 55q-87 0 -143 -56.5t-63 -150.5z" />
<glyph unicode="&#x116;" horiz-adv-x="1302" d="M170 0v1443h989v-295h-622v-288h585v-270h-585v-295h622v-295h-989zM477 1763q0 78 55 131.5t133 53.5t133 -53.5t55 -131.5q0 -76 -55.5 -130t-132.5 -54t-132.5 54t-55.5 130z" />
<glyph unicode="&#x117;" horiz-adv-x="1262" d="M83 549q0 275 147.5 432.5t406.5 157.5q257 0 400 -148.5t143 -414.5v-98h-749v-18q2 -109 61 -172t160 -63q77 0 128.5 27t69.5 76h323q-29 -163 -172 -258.5t-359 -95.5q-266 0 -412.5 150.5t-146.5 424.5zM433 681h404q-4 97 -56.5 152t-141.5 55q-87 0 -143 -56.5 t-63 -150.5zM453 1446q0 77 55 131t133 54t133 -54t55 -131t-55 -130.5t-133 -53.5t-133 53.5t-55 130.5z" />
<glyph unicode="&#x118;" horiz-adv-x="1302" d="M170 0v1443h989v-295h-622v-288h585v-270h-585v-295h622v-295q-111 -8 -171 -60t-60 -119q0 -48 34 -77.5t103 -29.5q34 0 69 8v-179q-78 -23 -162 -23q-138 0 -217.5 68.5t-79.5 174.5q0 62 32.5 124.5t93.5 112.5h-631z" />
<glyph unicode="&#x119;" horiz-adv-x="1262" d="M83 549q0 275 147.5 432.5t406.5 157.5q257 0 400 -148.5t143 -414.5v-98h-749v-18q2 -109 61 -172t160 -63q77 0 128.5 27t69.5 76h323q-30 -164 -174 -260q-94 -77 -140.5 -133.5t-46.5 -117.5q0 -45 33.5 -74.5t87.5 -29.5q30 0 72 9v-179q-80 -23 -153 -23 q-139 0 -216.5 59.5t-77.5 157.5q0 135 138 239q-36 -2 -54 -2q-266 0 -412.5 150.5t-146.5 424.5zM433 681h404q-4 97 -56.5 152t-141.5 55q-87 0 -143 -56.5t-63 -150.5z" />
<glyph unicode="&#x11a;" horiz-adv-x="1302" d="M170 0v1443h989v-295h-622v-288h585v-270h-585v-295h622v-295h-989zM225 1932h298l132 -183h20l132 183h298l-275 -336h-330z" />
<glyph unicode="&#x11b;" horiz-adv-x="1262" d="M83 549q0 275 147.5 432.5t406.5 157.5q257 0 400 -148.5t143 -414.5v-98h-749v-18q2 -109 61 -172t160 -63q77 0 128.5 27t69.5 76h323q-29 -163 -172 -258.5t-359 -95.5q-266 0 -412.5 150.5t-146.5 424.5zM210 1619h295l126 -202h20l126 202h295l-262 -359h-338z M433 681h404q-4 97 -56.5 152t-141.5 55q-87 0 -143 -56.5t-63 -150.5z" />
<glyph unicode="&#x11c;" horiz-adv-x="1572" d="M102 723q0 352 188 555.5t513 203.5q264 0 443.5 -140.5t206.5 -369.5h-362q-27 95 -103.5 149.5t-184.5 54.5q-154 0 -240.5 -119t-86.5 -330q0 -213 93.5 -336.5t251.5 -123.5q125 0 205 67t87 177l1 24h-264v252h618v-186q0 -298 -174.5 -469t-480.5 -171 q-333 0 -522 203t-189 559zM363 1598l275 336h330l275 -336h-298l-132 183h-20l-132 -183h-298z" />
<glyph unicode="&#x11d;" horiz-adv-x="1360" d="M79 563q0 263 120.5 415t330.5 152q111 0 199 -52.5t130 -143.5h19v179h345v-1100q0 -199 -156 -315.5t-422 -116.5q-232 0 -377 91.5t-156 241.5h344q10 -45 63 -71.5t136 -26.5q102 0 158 45.5t56 128.5v201h-19q-87 -175 -328 -175q-204 0 -323.5 147.5t-119.5 399.5z M224 1260l262 359h338l262 -359h-295l-126 202h-20l-126 -202h-295zM442 564q0 -134 56 -211t157 -77q102 0 159 76.5t57 210.5q0 135 -57.5 212t-158.5 77q-100 0 -156.5 -77t-56.5 -211z" />
<glyph unicode="&#x11e;" horiz-adv-x="1572" d="M102 723q0 352 188 555.5t513 203.5q264 0 443.5 -140.5t206.5 -369.5h-362q-27 95 -103.5 149.5t-184.5 54.5q-154 0 -240.5 -119t-86.5 -330q0 -213 93.5 -336.5t251.5 -123.5q125 0 205 67t87 177l1 24h-264v252h618v-186q0 -298 -174.5 -469t-480.5 -171 q-333 0 -522 203t-189 559zM387 1930h236q2 -69 50.5 -112.5t129.5 -43.5t129.5 43.5t50.5 112.5h236q0 -152 -113 -249t-303 -97t-303 97t-113 249z" />
<glyph unicode="&#x11f;" horiz-adv-x="1360" d="M79 563q0 263 120.5 415t330.5 152q111 0 199 -52.5t130 -143.5h19v179h345v-1100q0 -199 -156 -315.5t-422 -116.5q-232 0 -377 91.5t-156 241.5h344q10 -45 63 -71.5t136 -26.5q102 0 158 45.5t56 128.5v201h-19q-87 -175 -328 -175q-204 0 -323.5 147.5t-119.5 399.5z M240 1619h236q2 -80 49.5 -126t129.5 -46t129.5 46t49.5 126h236q0 -163 -111.5 -263t-303.5 -100t-303.5 100t-111.5 263zM442 564q0 -134 56 -211t157 -77q102 0 159 76.5t57 210.5q0 135 -57.5 212t-158.5 77q-100 0 -156.5 -77t-56.5 -211z" />
<glyph unicode="&#x120;" horiz-adv-x="1572" d="M102 723q0 352 188 555.5t513 203.5q264 0 443.5 -140.5t206.5 -369.5h-362q-27 95 -103.5 149.5t-184.5 54.5q-154 0 -240.5 -119t-86.5 -330q0 -213 93.5 -336.5t251.5 -123.5q125 0 205 67t87 177l1 24h-264v252h618v-186q0 -298 -174.5 -469t-480.5 -171 q-333 0 -522 203t-189 559zM615 1765q0 78 55 131.5t133 53.5t133 -53.5t55 -131.5q0 -76 -55.5 -130t-132.5 -54t-132.5 54t-55.5 130z" />
<glyph unicode="&#x121;" horiz-adv-x="1360" d="M79 563q0 263 120.5 415t330.5 152q111 0 199 -52.5t130 -143.5h19v179h345v-1100q0 -199 -156 -315.5t-422 -116.5q-232 0 -377 91.5t-156 241.5h344q10 -45 63 -71.5t136 -26.5q102 0 158 45.5t56 128.5v201h-19q-87 -175 -328 -175q-204 0 -323.5 147.5t-119.5 399.5z M442 564q0 -134 56 -211t157 -77q102 0 159 76.5t57 210.5q0 135 -57.5 212t-158.5 77q-100 0 -156.5 -77t-56.5 -211zM467 1446q0 77 55 131t133 54t133 -54t55 -131t-55 -130.5t-133 -53.5t-133 53.5t-55 130.5z" />
<glyph unicode="&#x122;" horiz-adv-x="1572" d="M102 723q0 352 188 555.5t513 203.5q264 0 443.5 -140.5t206.5 -369.5h-362q-27 95 -103.5 149.5t-184.5 54.5q-154 0 -240.5 -119t-86.5 -330q0 -213 93.5 -336.5t251.5 -123.5q125 0 205 67t87 177l1 24h-264v252h618v-186q0 -298 -174.5 -469t-480.5 -171 q-333 0 -522 203t-189 559zM541 -494l105 361h334l-181 -361h-258z" />
<glyph unicode="&#x123;" horiz-adv-x="1360" d="M79 563q0 263 120.5 415t330.5 152q111 0 199 -52.5t130 -143.5h19v179h345v-1100q0 -199 -156 -315.5t-422 -116.5q-232 0 -377 91.5t-156 241.5h344q10 -45 63 -71.5t136 -26.5q102 0 158 45.5t56 128.5v201h-19q-87 -175 -328 -175q-204 0 -323.5 147.5t-119.5 399.5z M442 564q0 -134 56 -211t157 -77q102 0 159 76.5t57 210.5q0 135 -57.5 212t-158.5 77q-100 0 -156.5 -77t-56.5 -211zM488 1260l181 361h259l-105 -361h-335z" />
<glyph unicode="&#x124;" horiz-adv-x="1648" d="M170 0v1443h367v-566h575v566h366v-1443h-366v582h-575v-582h-367zM384 1596l275 336h330l275 -336h-298l-132 183h-20l-132 -183h-298z" />
<glyph unicode="&#x125;" horiz-adv-x="1355" d="M-119 1683l275 336h330l275 -336h-298l-132 183h-20l-132 -183h-298zM148 0v1530h346v-602h19q37 96 125 151t208 55q182 0 281.5 -108.5t99.5 -310.5v-715h-353v635q0 103 -46 157t-134 54q-90 0 -141.5 -59t-51.5 -156v-631h-353z" />
<glyph unicode="&#x126;" horiz-adv-x="1648" d="M6 1034v254h164v155h367v-155h575v155h366v-155h164v-254h-164v-1034h-366v582h-575v-582h-367v1034h-164zM537 877h575v157h-575v-157z" />
<glyph unicode="&#x127;" horiz-adv-x="1355" d="M7 1246v169h141v115h346v-115h215v-169h-215v-318h19q37 96 125 151t208 55q182 0 281.5 -108.5t99.5 -310.5v-715h-353v635q0 103 -46 157t-134 54q-90 0 -141.5 -59t-51.5 -156v-631h-353v1246h-141z" />
<glyph unicode="&#x128;" horiz-adv-x="707" d="M-54 1584q0 153 72.5 242t186.5 89q45 0 83 -14.5t63.5 -35t48 -41t47 -35t49.5 -14.5q76 0 76 132h202q0 -150 -73 -240t-188 -90q-55 0 -101.5 21t-73 45.5t-57 45.5t-56.5 21q-78 0 -78 -126h-201zM170 0v1443h367v-1443h-367z" />
<glyph unicode="&#x129;" horiz-adv-x="631" d="M-92 1267q0 153 72.5 242t186.5 89q45 0 83 -14.5t63.5 -35t48 -41t47 -35t49.5 -14.5q76 0 76 132h202q0 -151 -73.5 -241t-187.5 -90q-55 0 -101.5 21t-73 46t-57 46t-56.5 21q-78 0 -78 -126h-201zM138 0v1113h354v-1113h-354z" />
<glyph unicode="&#x12a;" horiz-adv-x="707" d="M-28 1657v197h762v-197h-762zM170 0v1443h367v-1443h-367z" />
<glyph unicode="&#x12b;" horiz-adv-x="631" d="M-9 1339v198h648v-198h-648zM138 0v1113h354v-1113h-354z" />
<glyph unicode="&#x12c;" horiz-adv-x="707" d="M-63 1928h236q2 -69 50.5 -112.5t129.5 -43.5t129.5 43.5t50.5 112.5h236q0 -152 -113 -249t-303 -97t-303 97t-113 249zM170 0v1443h367v-1443h-367z" />
<glyph unicode="&#x12d;" horiz-adv-x="631" d="M-100 1619h236q2 -80 49.5 -126t129.5 -46t129.5 46t49.5 126h236q0 -163 -111.5 -263t-303.5 -100t-303.5 100t-111.5 263zM138 0v1113h354v-1113h-354z" />
<glyph unicode="&#x12e;" horiz-adv-x="707" d="M52 -237q0 62 32.5 124.5t94.5 112.5h-9v1443h367v-1443q-111 -8 -171.5 -60t-60.5 -119q0 -48 34.5 -77.5t102.5 -29.5q35 0 70 8v-179q-80 -23 -163 -23q-137 0 -217 68.5t-80 174.5z" />
<glyph unicode="&#x12f;" horiz-adv-x="631" d="M8 -237q0 63 33.5 126t96.5 113v1111h354v-1113q-111 -9 -171 -60.5t-60 -118.5q0 -48 34.5 -77.5t102.5 -29.5q34 0 70 8v-179q-80 -23 -163 -23q-137 0 -217 68.5t-80 174.5zM127 1446q0 77 55 131t133 54t133 -54t55 -131t-55 -130.5t-133 -53.5t-133 53.5t-55 130.5z " />
<glyph unicode="&#x130;" horiz-adv-x="707" d="M165 1763q0 78 55 131.5t133 53.5t133 -53.5t55 -131.5q0 -76 -55.5 -130t-132.5 -54t-132.5 54t-55.5 130zM170 0v1443h367v-1443h-367z" />
<glyph unicode="&#x131;" horiz-adv-x="631" d="M138 0v1113h354v-1113h-354z" />
<glyph unicode="&#x132;" horiz-adv-x="2006" d="M170 0v1443h367v-1443h-367zM777 458h352q1 -85 48 -135.5t126 -50.5q81 0 123.5 50t42.5 146v975h367v-978q0 -241 -139.5 -372.5t-387.5 -131.5q-244 0 -388 133.5t-144 363.5z" />
<glyph unicode="&#x133;" horiz-adv-x="1262" d="M127 1446q0 77 55 131t133 54t133 -54t55 -131t-55 -130.5t-133 -53.5t-133 53.5t-55 130.5zM138 0v1113h354v-1113h-354zM598 -120q18 -2 42 -2q69 0 99 25.5t30 82.5v1127h354v-1140q0 -170 -109 -260.5t-313 -90.5q-55 0 -103 5v253zM759 1446q0 77 55 131t133 54 t133 -54t55 -131t-55 -130.5t-133 -53.5t-133 53.5t-55 130.5z" />
<glyph unicode="&#x134;" horiz-adv-x="1299" d="M70 458h352q1 -85 48 -135.5t126 -50.5q81 0 123.5 50t42.5 146v975h367v-978q0 -241 -139.5 -372.5t-387.5 -131.5q-244 0 -388 133.5t-144 363.5zM506 1596l275 336h330l275 -336h-298l-132 183h-20l-132 -183h-298z" />
<glyph unicode="&#x135;" horiz-adv-x="631" d="M-115 1260l262 359h338l262 -359h-295l-126 202h-20l-126 -202h-295zM-33 -120q18 -2 42 -2q69 0 99 25.5t30 82.5v1127h354v-1140q0 -170 -109 -260.5t-313 -90.5q-55 0 -103 5v253z" />
<glyph unicode="&#x136;" horiz-adv-x="1507" d="M170 0v1443h367v-620h19l480 620h394l-499 -637l528 -806h-431l-364 569l-127 -161v-408h-367zM455 -494l105 361h334l-181 -361h-258z" />
<glyph unicode="&#x137;" horiz-adv-x="1295" d="M148 0v1530h353v-833h19l316 416h396l-397 -478l424 -635h-412l-278 426l-68 -77v-349h-353zM404 -494l105 361h334l-181 -361h-258z" />
<glyph unicode="&#x139;" horiz-adv-x="1247" d="M170 0v1443h367v-1140h613v-303h-980zM230 1596l168 336h342l-260 -336h-250z" />
<glyph unicode="&#x13a;" horiz-adv-x="649" d="M148 0v1530h353v-1530h-353zM201 1683l168 336h342l-260 -336h-250z" />
<glyph unicode="&#x13b;" horiz-adv-x="1247" d="M170 0v1443h367v-1140h613v-303h-980zM381 -494l105 361h334l-181 -361h-258z" />
<glyph unicode="&#x13c;" horiz-adv-x="649" d="M52 -494l105 361h334l-181 -361h-258zM148 0v1530h353v-1530h-353z" />
<glyph unicode="&#x13d;" horiz-adv-x="1247" d="M170 0v1443h367v-1140h613v-303h-980zM748 1070v549h272l-67 -549h-205z" />
<glyph unicode="&#x13e;" horiz-adv-x="867" d="M148 0v1530h353v-1530h-353zM629 1077v542h273l-68 -542h-205z" />
<glyph unicode="&#x141;" horiz-adv-x="1247" d="M26 558v229l144 76v580h367v-386l208 110v-229l-208 -110v-525h613v-303h-980v634z" />
<glyph unicode="&#x142;" horiz-adv-x="649" d="M26 600v233l122 59v638h353v-465l122 59v-232l-122 -60v-832h-353v660z" />
<glyph unicode="&#x143;" horiz-adv-x="1601" d="M170 0v1443h293l601 -812h19v812h348v-1443h-291l-603 820h-19v-820h-348zM671 1596l168 336h342l-260 -336h-250z" />
<glyph unicode="&#x144;" horiz-adv-x="1332" d="M138 0v1113h344v-181h19q37 96 122 151.5t204 55.5q184 0 280.5 -109t96.5 -311v-719h-354v640q0 210 -175 210q-85 0 -134.5 -58.5t-49.5 -155.5v-636h-353zM564 1260l163 359h313l-240 -359h-236z" />
<glyph unicode="&#x145;" horiz-adv-x="1601" d="M170 0v1443h293l601 -812h19v812h348v-1443h-291l-603 820h-19v-820h-348zM522 -494l105 361h334l-181 -361h-258z" />
<glyph unicode="&#x146;" horiz-adv-x="1332" d="M138 0v1113h344v-181h19q37 96 122 151.5t204 55.5q184 0 280.5 -109t96.5 -311v-719h-354v640q0 210 -175 210q-85 0 -134.5 -58.5t-49.5 -155.5v-636h-353zM410 -494l105 361h334l-181 -361h-258z" />
<glyph unicode="&#x147;" horiz-adv-x="1601" d="M170 0v1443h293l601 -812h19v812h348v-1443h-291l-603 820h-19v-820h-348zM354 1932h298l132 -183h20l132 183h298l-275 -336h-330z" />
<glyph unicode="&#x148;" horiz-adv-x="1332" d="M138 0v1113h344v-181h19q37 96 122 151.5t204 55.5q184 0 280.5 -109t96.5 -311v-719h-354v640q0 210 -175 210q-85 0 -134.5 -58.5t-49.5 -155.5v-636h-353zM251 1619h295l126 -202h20l126 202h295l-262 -359h-338z" />
<glyph unicode="&#x14b;" horiz-adv-x="1332" d="M138 0v1113h344v-181h19q37 96 122 151.5t204 55.5q184 0 280.5 -109t96.5 -311v-779q0 -78 -17 -137.5t-56 -106t-108 -71t-166 -24.5q-100 0 -203 34v251q49 -17 90 -17q54 0 80 26.5t26 84.5v660q0 210 -175 210q-85 0 -134.5 -58.5t-49.5 -155.5v-636h-353z" />
<glyph unicode="&#x14c;" horiz-adv-x="1627" d="M102 722q0 351 193 555.5t519 204.5t518.5 -204.5t192.5 -555.5q0 -352 -192.5 -556.5t-518.5 -204.5q-328 0 -520 204.5t-192 556.5zM433 1657v197h762v-197h-762zM476 722q0 -209 92 -333t246 -124q152 0 244.5 124.5t92.5 332.5t-92.5 332t-244.5 124 q-153 0 -245.5 -124t-92.5 -332z" />
<glyph unicode="&#x14d;" horiz-adv-x="1300" d="M83 557q0 270 152 426t415 156q264 0 415.5 -155.5t151.5 -426.5q0 -275 -149.5 -429t-417.5 -154q-267 0 -417 154t-150 429zM269 1339v198h762v-198h-762zM446 557q0 -149 53.5 -231t150.5 -82t150.5 82t53.5 231q0 146 -54 229t-150 83t-150 -83t-54 -229z" />
<glyph unicode="&#x14e;" horiz-adv-x="1627" d="M102 722q0 351 193 555.5t519 204.5t518.5 -204.5t192.5 -555.5q0 -352 -192.5 -556.5t-518.5 -204.5q-328 0 -520 204.5t-192 556.5zM398 1928h236q2 -69 50.5 -112.5t129.5 -43.5t129.5 43.5t50.5 112.5h236q0 -152 -113 -249t-303 -97t-303 97t-113 249zM476 722 q0 -209 92 -333t246 -124q152 0 244.5 124.5t92.5 332.5t-92.5 332t-244.5 124q-153 0 -245.5 -124t-92.5 -332z" />
<glyph unicode="&#x14f;" horiz-adv-x="1300" d="M83 557q0 270 152 426t415 156q264 0 415.5 -155.5t151.5 -426.5q0 -275 -149.5 -429t-417.5 -154q-267 0 -417 154t-150 429zM235 1619h236q2 -80 49.5 -126t129.5 -46t129.5 46t49.5 126h236q0 -163 -111.5 -263t-303.5 -100t-303.5 100t-111.5 263zM446 557 q0 -149 53.5 -231t150.5 -82t150.5 82t53.5 231q0 146 -54 229t-150 83t-150 -83t-54 -229z" />
<glyph unicode="&#x150;" horiz-adv-x="1627" d="M102 722q0 351 193 555.5t519 204.5t518.5 -204.5t192.5 -555.5q0 -352 -192.5 -556.5t-518.5 -204.5q-328 0 -520 204.5t-192 556.5zM476 722q0 -209 92 -333t246 -124q152 0 244.5 124.5t92.5 332.5t-92.5 332t-244.5 124q-153 0 -245.5 -124t-92.5 -332zM485 1596 l99 336h286l-156 -336h-229zM888 1596l154 336h310l-230 -336h-234z" />
<glyph unicode="&#x151;" horiz-adv-x="1300" d="M83 557q0 270 152 426t415 156q264 0 415.5 -155.5t151.5 -426.5q0 -275 -149.5 -429t-417.5 -154q-267 0 -417 154t-150 429zM318 1260l98 359h290l-162 -359h-226zM446 557q0 -149 53.5 -231t150.5 -82t150.5 82t53.5 231q0 146 -54 229t-150 83t-150 -83t-54 -229z M715 1260l163 359h313l-242 -359h-234z" />
<glyph unicode="&#x152;" horiz-adv-x="2291" d="M102 722q0 362 170 561t478 199q152 0 280 -73.5t171 -185.5h19v220h928v-295h-627v-288h590v-270h-590v-295h627v-295h-928v226h-19q-50 -119 -173.5 -192t-277.5 -73q-307 0 -477.5 200.5t-170.5 560.5zM476 722q0 -209 92.5 -333t247.5 -124q153 0 244 124.5t91 332.5 t-91 332t-244 124q-155 0 -247.5 -124t-92.5 -332z" />
<glyph unicode="&#x153;" horiz-adv-x="2033" d="M90 554q0 271 147 428t401 157t385 -174h19q60 82 161.5 128t229.5 46q235 0 377 -153.5t142 -409.5v-97h-748v-19q2 -109 61 -171.5t160 -62.5q159 0 198 102h320q-29 -161 -168.5 -257.5t-339.5 -96.5q-126 0 -228.5 45t-166.5 125h-19q-62 -81 -160.5 -125.5 t-223.5 -44.5q-253 0 -400 155.5t-147 424.5zM453 555q0 -147 54 -229t151 -82t150.5 82t53.5 229q0 148 -54 231t-150 83t-150.5 -83t-54.5 -231zM1206 682h404q-5 97 -57.5 151.5t-141.5 54.5q-86 0 -142 -56t-63 -150z" />
<glyph unicode="&#x154;" horiz-adv-x="1466" d="M170 0v1443h635q253 0 396 -126.5t143 -349.5q0 -136 -65 -246.5t-181 -161.5l288 -559h-412l-247 505h-190v-505h-367zM537 764h217q101 0 158 53t57 147q0 92 -59 147t-157 55h-216v-402zM552 1596l168 336h342l-260 -336h-250z" />
<glyph unicode="&#x155;" horiz-adv-x="950" d="M138 0v1113h344v-183h19q21 86 96.5 143t177.5 57q88 0 128 -17v-301q-49 20 -152 20q-119 0 -189.5 -64t-70.5 -179v-589h-353zM372 1260l163 359h313l-240 -359h-236z" />
<glyph unicode="&#x156;" horiz-adv-x="1466" d="M170 0v1443h635q253 0 396 -126.5t143 -349.5q0 -136 -65 -246.5t-181 -161.5l288 -559h-412l-247 505h-190v-505h-367zM403 -494l105 361h334l-181 -361h-258zM537 764h217q101 0 158 53t57 147q0 92 -59 147t-157 55h-216v-402z" />
<glyph unicode="&#x157;" horiz-adv-x="950" d="M42 -494l105 361h334l-181 -361h-258zM138 0v1113h344v-183h19q21 86 96.5 143t177.5 57q88 0 128 -17v-301q-49 20 -152 20q-119 0 -189.5 -64t-70.5 -179v-589h-353z" />
<glyph unicode="&#x158;" horiz-adv-x="1466" d="M170 0v1443h635q253 0 396 -126.5t143 -349.5q0 -136 -65 -246.5t-181 -161.5l288 -559h-412l-247 505h-190v-505h-367zM235 1932h298l132 -183h20l132 183h298l-275 -336h-330zM537 764h217q101 0 158 53t57 147q0 92 -59 147t-157 55h-216v-402z" />
<glyph unicode="&#x159;" horiz-adv-x="950" d="M59 1619h295l126 -202h20l126 202h295l-262 -359h-338zM138 0v1113h344v-183h19q21 86 96.5 143t177.5 57q88 0 128 -17v-301q-49 20 -152 20q-119 0 -189.5 -64t-70.5 -179v-589h-353z" />
<glyph unicode="&#x15a;" horiz-adv-x="1423" d="M107 411h350q7 -79 79.5 -125.5t186.5 -46.5q103 0 167 45t64 116q0 60 -52 95.5t-176 60.5l-190 38q-198 37 -299 144t-101 277q0 212 156.5 339.5t417.5 127.5q253 0 413 -125t165 -325h-339q-6 76 -71.5 124.5t-162.5 48.5t-155.5 -42.5t-58.5 -114.5q0 -59 51 -96 t165 -59l186 -36q214 -41 313.5 -141t99.5 -272q0 -226 -162 -354.5t-446 -128.5q-274 0 -435.5 121t-165.5 329zM588 1596l168 336h342l-260 -336h-250z" />
<glyph unicode="&#x15b;" horiz-adv-x="1206" d="M86 319h341q28 -106 185 -106q73 0 116.5 27t43.5 72q0 35 -27.5 56t-94.5 35l-207 44q-330 70 -330 331q0 166 132 263.5t357 97.5q231 0 355.5 -87.5t134.5 -255.5h-322q-8 49 -51 76.5t-114 27.5q-69 0 -112.5 -27.5t-43.5 -72.5q0 -35 30.5 -57.5t97.5 -36.5l230 -47 q165 -35 239.5 -107.5t74.5 -198.5q0 -173 -140 -276t-374 -103q-239 0 -372.5 88.5t-148.5 256.5zM484 1260l163 359h313l-240 -359h-236z" />
<glyph unicode="&#x15c;" horiz-adv-x="1423" d="M107 411h350q7 -79 79.5 -125.5t186.5 -46.5q103 0 167 45t64 116q0 60 -52 95.5t-176 60.5l-190 38q-198 37 -299 144t-101 277q0 212 156.5 339.5t417.5 127.5q253 0 413 -125t165 -325h-339q-6 76 -71.5 124.5t-162.5 48.5t-155.5 -42.5t-58.5 -114.5q0 -59 51 -96 t165 -59l186 -36q214 -41 313.5 -141t99.5 -272q0 -226 -162 -354.5t-446 -128.5q-274 0 -435.5 121t-165.5 329zM271 1596l275 336h330l275 -336h-298l-132 183h-20l-132 -183h-298z" />
<glyph unicode="&#x15d;" horiz-adv-x="1206" d="M86 319h341q28 -106 185 -106q73 0 116.5 27t43.5 72q0 35 -27.5 56t-94.5 35l-207 44q-330 70 -330 331q0 166 132 263.5t357 97.5q231 0 355.5 -87.5t134.5 -255.5h-322q-8 49 -51 76.5t-114 27.5q-69 0 -112.5 -27.5t-43.5 -72.5q0 -35 30.5 -57.5t97.5 -36.5l230 -47 q165 -35 239.5 -107.5t74.5 -198.5q0 -173 -140 -276t-374 -103q-239 0 -372.5 88.5t-148.5 256.5zM171 1260l262 359h338l262 -359h-295l-126 202h-20l-126 -202h-295z" />
<glyph unicode="&#x15e;" horiz-adv-x="1423" d="M107 411h350q7 -79 79.5 -125.5t186.5 -46.5q103 0 167 45t64 116q0 60 -52 95.5t-176 60.5l-190 38q-198 37 -299 144t-101 277q0 212 156.5 339.5t417.5 127.5q253 0 413 -125t165 -325h-339q-6 76 -71.5 124.5t-162.5 48.5t-155.5 -42.5t-58.5 -114.5q0 -59 51 -96 t165 -59l186 -36q214 -41 313.5 -141t99.5 -272q0 -207 -137.5 -333t-382.5 -146l-38 -61q89 -9 142 -57t53 -127q0 -103 -78.5 -157.5t-213.5 -54.5q-87 0 -148 17v147q35 -14 108 -14q48 0 80.5 12.5t32.5 40.5q0 51 -120 51h-69v128l49 77q-224 24 -353.5 141.5 t-133.5 302.5z" />
<glyph unicode="&#x15f;" horiz-adv-x="1206" d="M86 319h341q28 -106 185 -106q73 0 116.5 27t43.5 72q0 35 -27.5 56t-94.5 35l-207 44q-330 70 -330 331q0 166 132 263.5t357 97.5q231 0 355.5 -87.5t134.5 -255.5h-322q-8 49 -51 76.5t-114 27.5q-69 0 -112.5 -27.5t-43.5 -72.5q0 -35 30.5 -57.5t97.5 -36.5l230 -47 q165 -35 239.5 -107.5t74.5 -198.5q0 -155 -114 -255t-310 -120l-47 -74q89 -9 142 -57t53 -127q0 -103 -78.5 -157.5t-213.5 -54.5q-87 0 -148 17v147q35 -14 108 -14q48 0 80.5 12.5t32.5 40.5q0 51 -120 51h-69v128l58 90q-187 19 -291 105.5t-118 233.5z" />
<glyph unicode="&#x160;" horiz-adv-x="1423" d="M107 411h350q7 -79 79.5 -125.5t186.5 -46.5q103 0 167 45t64 116q0 60 -52 95.5t-176 60.5l-190 38q-198 37 -299 144t-101 277q0 212 156.5 339.5t417.5 127.5q253 0 413 -125t165 -325h-339q-6 76 -71.5 124.5t-162.5 48.5t-155.5 -42.5t-58.5 -114.5q0 -59 51 -96 t165 -59l186 -36q214 -41 313.5 -141t99.5 -272q0 -226 -162 -354.5t-446 -128.5q-274 0 -435.5 121t-165.5 329zM271 1932h298l132 -183h20l132 183h298l-275 -336h-330z" />
<glyph unicode="&#x161;" horiz-adv-x="1206" d="M86 319h341q28 -106 185 -106q73 0 116.5 27t43.5 72q0 35 -27.5 56t-94.5 35l-207 44q-330 70 -330 331q0 166 132 263.5t357 97.5q231 0 355.5 -87.5t134.5 -255.5h-322q-8 49 -51 76.5t-114 27.5q-69 0 -112.5 -27.5t-43.5 -72.5q0 -35 30.5 -57.5t97.5 -36.5l230 -47 q165 -35 239.5 -107.5t74.5 -198.5q0 -173 -140 -276t-374 -103q-239 0 -372.5 88.5t-148.5 256.5zM171 1619h295l126 -202h20l126 202h295l-262 -359h-338z" />
<glyph unicode="&#x162;" horiz-adv-x="1381" d="M91 1148v295h1199v-295h-417v-1118v-30l-61 -96q89 -9 142.5 -57t53.5 -127q0 -103 -78.5 -157.5t-214.5 -54.5q-86 0 -147 17v147q33 -14 108 -14q112 0 112 53q0 51 -120 51h-68v128l71 110h-164v1148h-416z" />
<glyph unicode="&#x163;" horiz-adv-x="898" d="M55 835v263h171v270h353v-270h224v-263h-224v-451q0 -125 135 -125q46 0 89 5v-252q-65 -14 -169 -14h-4l-60 -94q89 -9 142 -57t53 -127q0 -103 -78.5 -157.5t-213.5 -54.5q-87 0 -148 17v147q35 -14 108 -14q48 0 80.5 12.5t32.5 40.5q0 51 -120 51h-69v128l82 127 q-112 28 -162.5 97t-50.5 191v530h-171z" />
<glyph unicode="&#x164;" horiz-adv-x="1381" d="M91 1148v295h1199v-295h-417v-1148h-366v1148h-416zM250 1932h298l132 -183h20l132 183h298l-275 -336h-330z" />
<glyph unicode="&#x165;" horiz-adv-x="916" d="M55 835v263h171v270h353v-270h224v-263h-224v-451q0 -125 135 -125q46 0 89 5v-252q-65 -14 -169 -14q-219 0 -313.5 71.5t-94.5 235.5v530h-171zM667 1230v542h273l-68 -542h-205z" />
<glyph unicode="&#x166;" horiz-adv-x="1381" d="M91 1148v295h1199v-295h-417v-342h267v-254h-267v-552h-366v552h-266v254h266v342h-416z" />
<glyph unicode="&#x167;" horiz-adv-x="898" d="M55 494v169h171v172h-171v263h171v270h353v-270h224v-263h-224v-172h224v-169h-224v-110q0 -125 135 -125q46 0 89 5v-252q-65 -14 -169 -14q-219 0 -313.5 71.5t-94.5 235.5v189h-171z" />
<glyph unicode="&#x168;" horiz-adv-x="1582" d="M170 498v945h366v-906q0 -126 66.5 -196.5t188.5 -70.5t188.5 70t66.5 197v906h366v-945q0 -243 -170 -390t-451 -147t-451 147t-170 390zM384 1584q0 153 72.5 242t186.5 89q45 0 83 -14.5t63.5 -35t48 -41t47 -35t49.5 -14.5q76 0 76 132h202q0 -150 -73 -240t-188 -90 q-55 0 -101.5 21t-73 45.5t-57 45.5t-56.5 21q-78 0 -78 -126h-201z" />
<glyph unicode="&#x169;" horiz-adv-x="1340" d="M128 386v727h353v-640q0 -101 47.5 -154.5t133.5 -53.5q89 0 137.5 56.5t48.5 155.5v636h354v-1113h-344v180h-19q-82 -206 -316 -206q-179 0 -287 110.5t-108 301.5zM258 1267q0 153 72.5 242t186.5 89q45 0 83 -14.5t63.5 -35t48 -41t47 -35t49.5 -14.5q76 0 76 132 h202q0 -151 -73.5 -241t-187.5 -90q-55 0 -101.5 21t-73 46t-57 46t-56.5 21q-78 0 -78 -126h-201z" />
<glyph unicode="&#x16a;" horiz-adv-x="1582" d="M170 498v945h366v-906q0 -126 66.5 -196.5t188.5 -70.5t188.5 70t66.5 197v906h366v-945q0 -243 -170 -390t-451 -147t-451 147t-170 390zM410 1657v197h762v-197h-762z" />
<glyph unicode="&#x16b;" horiz-adv-x="1340" d="M128 386v727h353v-640q0 -101 47.5 -154.5t133.5 -53.5q89 0 137.5 56.5t48.5 155.5v636h354v-1113h-344v180h-19q-82 -206 -316 -206q-179 0 -287 110.5t-108 301.5zM284 1339v198h762v-198h-762z" />
<glyph unicode="&#x16c;" horiz-adv-x="1582" d="M170 498v945h366v-906q0 -126 66.5 -196.5t188.5 -70.5t188.5 70t66.5 197v906h366v-945q0 -243 -170 -390t-451 -147t-451 147t-170 390zM375 1928h236q2 -69 50.5 -112.5t129.5 -43.5t129.5 43.5t50.5 112.5h236q0 -152 -113 -249t-303 -97t-303 97t-113 249z" />
<glyph unicode="&#x16d;" horiz-adv-x="1340" d="M128 386v727h353v-640q0 -101 47.5 -154.5t133.5 -53.5q89 0 137.5 56.5t48.5 155.5v636h354v-1113h-344v180h-19q-82 -206 -316 -206q-179 0 -287 110.5t-108 301.5zM250 1619h236q2 -80 49.5 -126t129.5 -46t129.5 46t49.5 126h236q0 -163 -111.5 -263t-303.5 -100 t-303.5 100t-111.5 263z" />
<glyph unicode="&#x16e;" horiz-adv-x="1582" d="M170 498v945h366v-906q0 -126 66.5 -196.5t188.5 -70.5t188.5 70t66.5 197v906h366v-945q0 -243 -170 -390t-451 -147t-451 147t-170 390zM576 1738q0 88 63 148.5t152 60.5t152 -60.5t63 -148.5t-63 -148.5t-152 -60.5t-152 60.5t-63 148.5zM705 1738q0 -36 25 -60 t61 -24t61 24t25 60t-25 60t-61 24t-61 -24t-25 -60z" />
<glyph unicode="&#x16f;" horiz-adv-x="1340" d="M128 386v727h353v-640q0 -101 47.5 -154.5t133.5 -53.5q89 0 137.5 56.5t48.5 155.5v636h354v-1113h-344v180h-19q-82 -206 -316 -206q-179 0 -287 110.5t-108 301.5zM413 1494q0 105 74 174t178 69t178 -69t74 -174t-74 -174t-178 -69t-178 69t-74 174zM566 1494 q0 -41 29.5 -69t69.5 -28t69.5 28t29.5 69t-29.5 69t-69.5 28t-69.5 -28t-29.5 -69z" />
<glyph unicode="&#x170;" horiz-adv-x="1582" d="M170 498v945h366v-906q0 -126 66.5 -196.5t188.5 -70.5t188.5 70t66.5 197v906h366v-945q0 -243 -170 -390t-451 -147t-451 147t-170 390zM462 1596l99 336h286l-156 -336h-229zM865 1596l154 336h310l-230 -336h-234z" />
<glyph unicode="&#x171;" horiz-adv-x="1340" d="M128 386v727h353v-640q0 -101 47.5 -154.5t133.5 -53.5q89 0 137.5 56.5t48.5 155.5v636h354v-1113h-344v180h-19q-82 -206 -316 -206q-179 0 -287 110.5t-108 301.5zM333 1260l98 359h290l-162 -359h-226zM730 1260l163 359h313l-242 -359h-234z" />
<glyph unicode="&#x172;" horiz-adv-x="1582" d="M170 498v945h366v-906q0 -126 66.5 -196.5t188.5 -70.5t188.5 70t66.5 197v906h366v-945q0 -137 -56 -246t-160 -180q-97 -79 -144.5 -136.5t-47.5 -118.5q0 -45 33.5 -74.5t87.5 -29.5q30 0 72 9v-179q-80 -23 -153 -23q-139 0 -216.5 59.5t-77.5 157.5q0 128 124 228 q-36 -4 -83 -4q-281 0 -451 147t-170 390z" />
<glyph unicode="&#x173;" horiz-adv-x="1340" d="M128 386v727h353v-640q0 -101 47.5 -154.5t133.5 -53.5q89 0 137.5 56.5t48.5 155.5v636h354v-1113q-111 -9 -171 -60.5t-60 -118.5q0 -48 34 -77.5t103 -29.5q34 0 69 8v-179q-78 -23 -162 -23q-138 0 -217.5 68.5t-79.5 174.5q0 66 36 132t104 116v169h-19 q-82 -206 -316 -206q-179 0 -287 110.5t-108 301.5z" />
<glyph unicode="&#x174;" horiz-adv-x="2112" d="M86 1443h381l192 -957h18l231 957h294l239 -957h18l189 957h378l-377 -1443h-344l-241 884h-18l-237 -884h-346zM616 1596l275 336h330l275 -336h-298l-132 183h-20l-132 -183h-298z" />
<glyph unicode="&#x175;" horiz-adv-x="1814" d="M57 1113h358l139 -763h19l168 763h337l170 -763h19l139 763h350l-288 -1113h-381l-174 733h-19l-172 -733h-375zM479 1260l262 359h338l262 -359h-295l-126 202h-20l-126 -202h-295z" />
<glyph unicode="&#x176;" horiz-adv-x="1507" d="M73 1443h391l281 -589h19l279 589h391l-497 -947v-496h-366v496zM314 1596l275 336h330l275 -336h-298l-132 183h-20l-132 -183h-298z" />
<glyph unicode="&#x177;" horiz-adv-x="1282" d="M50 1113h391l199 -816h19l199 816h374l-358 -1111q-71 -222 -203.5 -314.5t-372.5 -92.5q-124 0 -129 1v269q10 -2 62 -2q176 0 194 97l5 31zM219 1260l262 359h338l262 -359h-295l-126 202h-20l-126 -202h-295z" />
<glyph unicode="&#x178;" horiz-adv-x="1507" d="M73 1443h391l281 -589h19l279 589h391l-497 -947v-496h-366v496zM327 1759q0 72 51 122t123 50q73 0 123.5 -49.5t50.5 -122.5q0 -71 -50.5 -120.5t-123.5 -49.5q-72 0 -123 49.5t-51 120.5zM833 1759q0 72 51 122t123 50t123 -50t51 -122q0 -71 -51 -120.5t-123 -49.5 t-123 49.5t-51 120.5z" />
<glyph unicode="&#x179;" horiz-adv-x="1399" d="M130 0v233l677 896v19h-666v295h1106v-233l-677 -896v-19h698v-295h-1138zM576 1596l168 336h342l-260 -336h-250z" />
<glyph unicode="&#x17a;" horiz-adv-x="1190" d="M112 0v189l524 639v19h-512v266h936v-217l-477 -611v-19h495v-266h-966zM475 1260l163 359h313l-240 -359h-236z" />
<glyph unicode="&#x17b;" horiz-adv-x="1399" d="M130 0v233l677 896v19h-666v295h1106v-233l-677 -896v-19h698v-295h-1138zM511 1763q0 78 55 131.5t133 53.5t133 -53.5t55 -131.5q0 -76 -55.5 -130t-132.5 -54t-132.5 54t-55.5 130z" />
<glyph unicode="&#x17c;" horiz-adv-x="1190" d="M112 0v189l524 639v19h-512v266h936v-217l-477 -611v-19h495v-266h-966zM405 1446q0 77 55 131t133 54t133 -54t55 -131t-55 -130.5t-133 -53.5t-133 53.5t-55 130.5z" />
<glyph unicode="&#x17d;" horiz-adv-x="1399" d="M130 0v233l677 896v19h-666v295h1106v-233l-677 -896v-19h698v-295h-1138zM259 1932h298l132 -183h20l132 183h298l-275 -336h-330z" />
<glyph unicode="&#x17e;" horiz-adv-x="1190" d="M112 0v189l524 639v19h-512v266h936v-217l-477 -611v-19h495v-266h-966zM162 1619h295l126 -202h20l126 202h295l-262 -359h-338z" />
<glyph unicode="&#x4d8;" horiz-adv-x="1574" d="M107 691l4 121h969v11q1 157 -86.5 258.5t-222.5 101.5q-213 0 -281 -180h-370q50 222 225.5 350.5t425.5 128.5q313 0 502 -208.5t189 -553.5q0 -342 -186.5 -550.5t-488.5 -208.5q-213 0 -368 93t-233 256.5t-79 380.5zM489 559q10 -136 91 -217.5t208 -81.5 q115 0 196 82.5t94 216.5h-589z" />
<glyph unicode="&#x18f;" horiz-adv-x="1574" d="M107 691l4 121h969v11q1 157 -86.5 258.5t-222.5 101.5q-213 0 -281 -180h-370q50 222 225.5 350.5t425.5 128.5q313 0 502 -208.5t189 -553.5q0 -342 -186.5 -550.5t-488.5 -208.5q-213 0 -368 93t-233 256.5t-79 380.5zM489 559q10 -136 91 -217.5t208 -81.5 q115 0 196 82.5t94 216.5h-589z" />
<glyph unicode="&#x192;" horiz-adv-x="1461" d="M140 29v268q75 -32 162 -32q90 0 138 43t64 139l32 203h-304v170h331l32 199q35 215 161 314.5t362 99.5q121 0 193 -27v-265q-64 26 -154 26q-181 0 -211 -187l-26 -160h334v-170h-361l-39 -240q-35 -214 -159.5 -312.5t-345.5 -98.5q-128 0 -209 30z" />
<glyph unicode="&#x1a0;" horiz-adv-x="1698" d="M102 722q0 351 193 555.5t519 204.5q96 0 228 -28t212 -28q108 0 108 88v174h269v-251q0 -108 -56.5 -166t-163.5 -58h-62v-18q77 -62 126 -192t49 -281q0 -352 -192 -556.5t-518 -204.5q-328 0 -520 204.5t-192 556.5zM476 722q0 -209 92 -333t246 -124q153 0 245 124 t92 333q0 208 -92.5 332t-244.5 124q-153 0 -245.5 -124t-92.5 -332z" />
<glyph unicode="&#x1a1;" horiz-adv-x="1428" d="M83 557q0 270 152 426t415 156q82 0 170.5 -21.5t133.5 -21.5q60 0 85.5 19t25.5 63v149h269v-237q0 -204 -200 -204h-41v-17q53 -36 88.5 -125.5t35.5 -186.5q0 -275 -149.5 -429t-417.5 -154q-267 0 -417 154t-150 429zM446 557q0 -149 53.5 -231t150.5 -82t150.5 82 t53.5 231q0 146 -54 229t-150 83t-150 -83t-54 -229z" />
<glyph unicode="&#x1af;" horiz-adv-x="1795" d="M170 498v945h366v-906q0 -127 67 -197t188 -70t188 70t67 197v906h382q73 0 73 71v194h269v-266q0 -108 -64 -167.5t-176 -59.5h-118v-717q0 -243 -170 -390t-451 -147t-451 147t-170 390z" />
<glyph unicode="&#x1b0;" horiz-adv-x="1609" d="M128 386v727h353v-640q0 -100 47 -154t134 -54q88 0 137 56t49 156v636h368q35 0 54.5 18.5t19.5 52.5v162h269v-234q0 -108 -64.5 -167.5t-176.5 -59.5h-116v-885h-344v180h-19q-41 -105 -118.5 -155.5t-197.5 -50.5q-181 0 -288 112t-107 300z" />
<glyph unicode="&#x1c0;" horiz-adv-x="823" d="M253 -378v1821h317v-1821h-317z" />
<glyph unicode="&#x1c1;" horiz-adv-x="1394" d="M253 -378v1821h317v-1821h-317zM823 -378v1821h318v-1821h-318z" />
<glyph unicode="&#x1c2;" horiz-adv-x="1117" d="M111 467v209h289v229h-289v208h289v330h317v-330h289v-208h-289v-229h289v-209h-289v-845h-317v845h-289z" />
<glyph unicode="&#x1c3;" horiz-adv-x="778" d="M185 147q0 87 53.5 135t150.5 48t151 -48t54 -135q0 -86 -54 -134t-151 -48t-150.5 48t-53.5 134zM197 1443h384l-32 -970h-320z" />
<glyph unicode="&#x1c4;" horiz-adv-x="2951" d="M170 0v1443h606q323 0 499 -184.5t176 -522.5q0 -355 -174.5 -545.5t-500.5 -190.5h-606zM537 295h173q179 0 273 110t94 324q0 201 -96.5 310t-270.5 109h-173v-853zM1683 0v233l677 896v19h-666v295h1106v-233l-677 -896v-19h698v-295h-1138zM1812 1932h298l132 -183 h20l132 183h298l-275 -336h-330z" />
<glyph unicode="&#x1c5;" horiz-adv-x="2743" d="M170 0v1443h606q323 0 499 -184.5t176 -522.5q0 -355 -174.5 -545.5t-500.5 -190.5h-606zM537 295h173q179 0 273 110t94 324q0 201 -96.5 310t-270.5 109h-173v-853zM1665 0v189l524 639v19h-512v266h936v-217l-477 -611v-19h495v-266h-966zM1715 1619h295l126 -202h20 l126 202h295l-262 -359h-338z" />
<glyph unicode="&#x1c6;" horiz-adv-x="2564" d="M83 559q0 266 119.5 418.5t327.5 152.5q112 0 197.5 -52t126.5 -144h19v596h354v-1530h-345v174h-19q-41 -90 -129 -140.5t-204 -50.5q-209 0 -328 153.5t-119 422.5zM446 557q0 -139 56.5 -217.5t157.5 -78.5t158 78.5t57 216.5t-57.5 217t-157.5 79t-157 -78.5 t-57 -216.5zM1486 0v189l524 639v19h-512v266h936v-217l-477 -611v-19h495v-266h-966zM1536 1619h295l126 -202h20l126 202h295l-262 -359h-338z" />
<glyph unicode="&#x1c7;" horiz-adv-x="2546" d="M170 0v1443h367v-1140h613v-303h-980zM1317 458h352q1 -85 48 -135.5t126 -50.5q81 0 123.5 50t42.5 146v975h367v-978q0 -241 -139.5 -372.5t-387.5 -131.5q-244 0 -388 133.5t-144 363.5z" />
<glyph unicode="&#x1c8;" horiz-adv-x="1878" d="M170 0v1443h367v-1140h613v-303h-980zM1214 -120q18 -2 42 -2q69 0 99 25.5t30 82.5v1127h354v-1140q0 -170 -109 -260.5t-313 -90.5q-55 0 -103 5v253zM1375 1446q0 77 55 131t133 54t133 -54t55 -131t-55 -130.5t-133 -53.5t-133 53.5t-55 130.5z" />
<glyph unicode="&#x1c9;" horiz-adv-x="1280" d="M148 0v1530h353v-1530h-353zM616 -120q18 -2 42 -2q69 0 99 25.5t30 82.5v1127h354v-1140q0 -170 -109 -260.5t-313 -90.5q-55 0 -103 5v253zM777 1446q0 77 55 131t133 54t133 -54t55 -131t-55 -130.5t-133 -53.5t-133 53.5t-55 130.5z" />
<glyph unicode="&#x1ca;" horiz-adv-x="2900" d="M170 0v1443h293l601 -812h19v812h348v-1443h-291l-603 820h-19v-820h-348zM1671 458h352q1 -85 48 -135.5t126 -50.5q81 0 123.5 50t42.5 146v975h367v-978q0 -241 -139.5 -372.5t-387.5 -131.5q-244 0 -388 133.5t-144 363.5z" />
<glyph unicode="&#x1cb;" horiz-adv-x="2232" d="M170 0v1443h293l601 -812h19v812h348v-1443h-291l-603 820h-19v-820h-348zM1568 -120q18 -2 42 -2q69 0 99 25.5t30 82.5v1127h354v-1140q0 -170 -109 -260.5t-313 -90.5q-55 0 -103 5v253zM1729 1446q0 77 55 131t133 54t133 -54t55 -131t-55 -130.5t-133 -53.5 t-133 53.5t-55 130.5z" />
<glyph unicode="&#x1cc;" horiz-adv-x="1963" d="M138 0v1113h344v-181h19q37 96 122 151.5t204 55.5q184 0 280.5 -109t96.5 -311v-719h-354v640q0 210 -175 210q-85 0 -134.5 -58.5t-49.5 -155.5v-636h-353zM1299 -120q18 -2 42 -2q69 0 99 25.5t30 82.5v1127h354v-1140q0 -170 -109 -260.5t-313 -90.5q-56 0 -103 5 v253zM1460 1446q0 77 55 131t133 54t133 -54t55 -131t-55 -130.5t-133 -53.5t-133 53.5t-55 130.5z" />
<glyph unicode="&#x1cd;" horiz-adv-x="1563" d="M73 0l484 1443h449l485 -1443h-400l-90 317h-471l-93 -317h-364zM342 1932h298l132 -183h20l132 183h298l-275 -336h-330zM600 581h332l-155 537h-19z" />
<glyph unicode="&#x1ce;" horiz-adv-x="1248" d="M81 320q0 152 114.5 238.5t330.5 99.5l243 14v87q0 57 -40.5 88.5t-113.5 31.5q-141 0 -176 -90h-318q12 162 150 256t364 94q230 0 356 -100t126 -280v-759h-344v138h-19q-37 -71 -122 -113t-191 -42q-161 0 -260.5 92.5t-99.5 244.5zM205 1619h295l126 -202h20l126 202 h295l-262 -359h-338zM422 345q0 -53 40.5 -84t107.5 -31q84 0 141.5 49t57.5 121v73l-187 -12q-78 -6 -119 -36t-41 -80z" />
<glyph unicode="&#x1cf;" horiz-adv-x="707" d="M-87 1932h298l132 -183h20l132 183h298l-275 -336h-330zM170 0v1443h367v-1443h-367z" />
<glyph unicode="&#x1d0;" horiz-adv-x="631" d="M-116 1619h295l126 -202h20l126 202h295l-262 -359h-338zM138 0v1113h354v-1113h-354z" />
<glyph unicode="&#x1d1;" horiz-adv-x="1627" d="M102 722q0 351 193 555.5t519 204.5t518.5 -204.5t192.5 -555.5q0 -352 -192.5 -556.5t-518.5 -204.5q-328 0 -520 204.5t-192 556.5zM374 1932h298l132 -183h20l132 183h298l-275 -336h-330zM476 722q0 -209 92 -333t246 -124q152 0 244.5 124.5t92.5 332.5t-92.5 332 t-244.5 124q-153 0 -245.5 -124t-92.5 -332z" />
<glyph unicode="&#x1d2;" horiz-adv-x="1300" d="M83 557q0 270 152 426t415 156q264 0 415.5 -155.5t151.5 -426.5q0 -275 -149.5 -429t-417.5 -154q-267 0 -417 154t-150 429zM219 1619h295l126 -202h20l126 202h295l-262 -359h-338zM446 557q0 -149 53.5 -231t150.5 -82t150.5 82t53.5 231q0 146 -54 229t-150 83 t-150 -83t-54 -229z" />
<glyph unicode="&#x1d3;" horiz-adv-x="1582" d="M170 498v945h366v-906q0 -126 66.5 -196.5t188.5 -70.5t188.5 70t66.5 197v906h366v-945q0 -243 -170 -390t-451 -147t-451 147t-170 390zM351 1932h298l132 -183h20l132 183h298l-275 -336h-330z" />
<glyph unicode="&#x1d4;" horiz-adv-x="1340" d="M128 386v727h353v-640q0 -101 47.5 -154.5t133.5 -53.5q89 0 137.5 56.5t48.5 155.5v636h354v-1113h-344v180h-19q-82 -206 -316 -206q-179 0 -287 110.5t-108 301.5zM234 1619h295l126 -202h20l126 202h295l-262 -359h-338z" />
<glyph unicode="&#x1d5;" horiz-adv-x="1582" d="M170 498v945h366v-906q0 -126 66.5 -196.5t188.5 -70.5t188.5 70t66.5 197v906h366v-945q0 -243 -170 -390t-451 -147t-451 147t-170 390zM367 1744q0 72 48.5 117.5t124.5 45.5t124 -45.5t48 -117.5t-48 -117.5t-124 -45.5t-124.5 45.5t-48.5 117.5zM400 2021v183h782 v-183h-782zM870 1744q0 72 48 117.5t124 45.5t124.5 -45.5t48.5 -117.5t-48.5 -117.5t-124.5 -45.5t-124 45.5t-48 117.5z" />
<glyph unicode="&#x1d6;" horiz-adv-x="1340" d="M128 386v727h353v-640q0 -101 47.5 -154.5t133.5 -53.5q89 0 137.5 56.5t48.5 155.5v636h354v-1113h-344v180h-19q-82 -206 -316 -206q-179 0 -287 110.5t-108 301.5zM272 1415q0 68 45.5 112.5t116.5 44.5t116 -44.5t45 -112.5q0 -66 -45 -110.5t-116 -44.5t-116.5 44.5 t-45.5 110.5zM284 1699v198h762v-198h-762zM735 1415q0 68 45 112.5t116 44.5t116.5 -44.5t45.5 -112.5q0 -66 -45.5 -110.5t-116.5 -44.5t-116 44.5t-45 110.5z" />
<glyph unicode="&#x1d7;" horiz-adv-x="1582" d="M170 498v945h366v-906q0 -126 66.5 -196.5t188.5 -70.5t188.5 70t66.5 197v906h366v-945q0 -243 -170 -390t-451 -147t-451 147t-170 390zM366 1745q0 72 49 118t125 46t124.5 -46t48.5 -118t-48.5 -118t-124.5 -46t-125 46t-49 118zM654 1962l132 250h327l-185 -250 h-274zM869 1745q0 72 48.5 118t124.5 46t125 -46t49 -118t-49 -118t-125 -46t-124.5 46t-48.5 118z" />
<glyph unicode="&#x1d8;" horiz-adv-x="1340" d="M128 386v727h353v-640q0 -101 47.5 -154.5t133.5 -53.5q89 0 137.5 56.5t48.5 155.5v636h354v-1113h-344v180h-19q-82 -206 -316 -206q-179 0 -287 110.5t-108 301.5zM238 1446q0 72 51 121.5t123 49.5q73 0 123.5 -49.5t50.5 -121.5t-50.5 -121.5t-123.5 -49.5 q-72 0 -123 49.5t-51 121.5zM523 1671l215 326h324l-262 -326h-277zM744 1446q0 72 51 121.5t123 49.5t123 -49.5t51 -121.5t-51 -121.5t-123 -49.5t-123 49.5t-51 121.5z" />
<glyph unicode="&#x1d9;" horiz-adv-x="1582" d="M170 498v945h366v-906q0 -126 66.5 -196.5t188.5 -70.5t188.5 70t66.5 197v906h366v-945q0 -243 -170 -390t-451 -147t-451 147t-170 390zM367 2255h285l128 -178h22l128 178h285l-269 -326h-310zM370 1715q0 67 47.5 111t122.5 44t122.5 -44t47.5 -111 q0 -68 -47.5 -111.5t-122.5 -43.5t-122.5 43.5t-47.5 111.5zM872 1715q0 67 47.5 111t122.5 44t122.5 -44t47.5 -111q0 -68 -47.5 -111.5t-122.5 -43.5t-122.5 43.5t-47.5 111.5z" />
<glyph unicode="&#x1da;" horiz-adv-x="1340" d="M128 386v727h353v-640q0 -101 47.5 -154.5t133.5 -53.5q89 0 137.5 56.5t48.5 155.5v636h354v-1113h-344v180h-19q-82 -206 -316 -206q-179 0 -287 110.5t-108 301.5zM243 1997h279l133 -208h20l133 208h279l-267 -356h-310zM272 1415q0 68 45.5 112.5t116.5 44.5 t116 -44.5t45 -112.5q0 -66 -45 -110.5t-116 -44.5t-116.5 44.5t-45.5 110.5zM735 1415q0 68 45 112.5t116 44.5t116.5 -44.5t45.5 -112.5q0 -66 -45.5 -110.5t-116.5 -44.5t-116 44.5t-45 110.5z" />
<glyph unicode="&#x1db;" horiz-adv-x="1582" d="M170 498v945h366v-906q0 -126 66.5 -196.5t188.5 -70.5t188.5 70t66.5 197v906h366v-945q0 -243 -170 -390t-451 -147t-451 147t-170 390zM366 1745q0 72 49 118t125 46t124.5 -46t48.5 -118t-48.5 -118t-124.5 -46t-125 46t-49 118zM474 2212h326l132 -250h-274z M869 1745q0 72 48.5 118t124.5 46t125 -46t49 -118t-49 -118t-125 -46t-124.5 46t-48.5 118z" />
<glyph unicode="&#x1dc;" horiz-adv-x="1340" d="M128 386v727h353v-640q0 -101 47.5 -154.5t133.5 -53.5q89 0 137.5 56.5t48.5 155.5v636h354v-1113h-344v180h-19q-82 -206 -316 -206q-179 0 -287 110.5t-108 301.5zM238 1451q0 72 51 121.5t123 49.5q73 0 123.5 -49.5t50.5 -121.5t-50.5 -121.5t-123.5 -49.5 q-72 0 -123 49.5t-51 121.5zM268 1997h324l215 -326h-277zM744 1451q0 72 51 121.5t123 49.5t123 -49.5t51 -121.5t-51 -121.5t-123 -49.5t-123 49.5t-51 121.5z" />
<glyph unicode="&#x4d9;" horiz-adv-x="1282" d="M89 576l3 66h749v12q0 108 -59 171t-160 63q-71 0 -123.5 -27t-73.5 -76h-323q37 162 178.5 258t350.5 96q259 0 409 -153t150 -416q0 -281 -145.5 -438.5t-408.5 -157.5q-264 0 -405.5 156t-141.5 446zM431 439q2 -100 57 -157t147 -57q87 0 144 58.5t61 155.5h-409z " />
<glyph unicode="&#x259;" horiz-adv-x="1282" d="M89 576l3 66h749v12q0 108 -59 171t-160 63q-71 0 -123.5 -27t-73.5 -76h-323q37 162 178.5 258t350.5 96q259 0 409 -153t150 -416q0 -281 -145.5 -438.5t-408.5 -157.5q-264 0 -405.5 156t-141.5 446zM431 439q2 -100 57 -157t147 -57q87 0 144 58.5t61 155.5h-409z " />
<glyph unicode="&#x1dd;" horiz-adv-x="1282" d="M89 576l3 66h749v12q0 108 -59 171t-160 63q-71 0 -123.5 -27t-73.5 -76h-323q37 162 178.5 258t350.5 96q259 0 409 -153t150 -416q0 -281 -145.5 -438.5t-408.5 -157.5q-264 0 -405.5 156t-141.5 446zM431 439q2 -100 57 -157t147 -57q87 0 144 58.5t61 155.5h-409z " />
<glyph unicode="&#x1de;" horiz-adv-x="1563" d="M73 0l484 1443h449l485 -1443h-400l-90 317h-471l-93 -317h-364zM358 1744q0 72 48.5 117.5t124.5 45.5t124 -45.5t48 -117.5t-48 -117.5t-124 -45.5t-124.5 45.5t-48.5 117.5zM391 2021v183h782v-183h-782zM600 581h332l-155 537h-19zM861 1744q0 72 48 117.5t124 45.5 t124.5 -45.5t48.5 -117.5t-48.5 -117.5t-124.5 -45.5t-124 45.5t-48 117.5z" />
<glyph unicode="&#x1df;" horiz-adv-x="1248" d="M81 320q0 152 114.5 238.5t330.5 99.5l243 14v87q0 57 -40.5 88.5t-113.5 31.5q-141 0 -176 -90h-318q12 162 150 256t364 94q230 0 356 -100t126 -280v-759h-344v138h-19q-37 -71 -122 -113t-191 -42q-161 0 -260.5 92.5t-99.5 244.5zM243 1415q0 68 45.5 112.5 t116.5 44.5t116 -44.5t45 -112.5q0 -66 -45 -110.5t-116 -44.5t-116.5 44.5t-45.5 110.5zM255 1699v198h762v-198h-762zM422 345q0 -53 40.5 -84t107.5 -31q84 0 141.5 49t57.5 121v73l-187 -12q-78 -6 -119 -36t-41 -80zM706 1415q0 68 45 112.5t116 44.5t116.5 -44.5 t45.5 -112.5q0 -66 -45.5 -110.5t-116.5 -44.5t-116 44.5t-45 110.5z" />
<glyph unicode="&#x1e0;" horiz-adv-x="1563" d="M73 0l484 1443h449l485 -1443h-400l-90 317h-471l-93 -317h-364zM391 2021v183h782v-183h-782zM600 581h332l-155 537h-19zM606 1736q0 69 49 114.5t127 45.5t127 -45.5t49 -114.5q0 -70 -49 -115.5t-127 -45.5t-127 45.5t-49 115.5z" />
<glyph unicode="&#x1e1;" horiz-adv-x="1248" d="M81 320q0 152 114.5 238.5t330.5 99.5l243 14v87q0 57 -40.5 88.5t-113.5 31.5q-141 0 -176 -90h-318q12 162 150 256t364 94q230 0 356 -100t126 -280v-759h-344v138h-19q-37 -71 -122 -113t-191 -42q-161 0 -260.5 92.5t-99.5 244.5zM255 1699v198h762v-198h-762z M422 345q0 -53 40.5 -84t107.5 -31q84 0 141.5 49t57.5 121v73l-187 -12q-78 -6 -119 -36t-41 -80zM469 1420q0 71 46.5 117.5t120.5 46.5t120.5 -46.5t46.5 -117.5q0 -69 -46.5 -114.5t-120.5 -45.5t-120.5 45.5t-46.5 114.5z" />
<glyph unicode="&#x1e2;" horiz-adv-x="2108" d="M73 0l566 1443h1326v-295h-646v-290h609v-270h-609v-293h646v-295h-973v327h-432l-125 -327h-362zM655 592h337v575h-120zM917 1657v197h762v-197h-762z" />
<glyph unicode="&#x1e3;" horiz-adv-x="1918" d="M81 320q0 152 114.5 238.5t330.5 99.5l243 14v63q0 71 -42.5 107.5t-111.5 36.5q-141 0 -176 -90h-318q11 153 141.5 251.5t325.5 98.5q249 0 362 -148h19q63 69 154.5 108.5t200.5 39.5q235 0 373 -151t138 -406v-104h-735v-29q2 -101 63 -162t160 -61q134 0 185 102 h320q-29 -161 -164.5 -257.5t-333.5 -96.5q-131 0 -235 49t-160 136h-19q-68 -86 -173.5 -135.5t-232.5 -49.5q-196 0 -312.5 96.5t-116.5 249.5zM422 342q0 -54 41 -85.5t110 -31.5q89 0 142.5 49.5t53.5 117.5v81l-187 -12q-78 -6 -119 -36.5t-41 -82.5zM609 1339v198h762 v-198h-762zM1100 680h395q-5 94 -58 151t-135 57q-87 0 -143 -57.5t-59 -150.5z" />
<glyph unicode="&#x1e6;" horiz-adv-x="1572" d="M102 723q0 352 188 555.5t513 203.5q264 0 443.5 -140.5t206.5 -369.5h-362q-27 95 -103.5 149.5t-184.5 54.5q-154 0 -240.5 -119t-86.5 -330q0 -213 93.5 -336.5t251.5 -123.5q125 0 205 67t87 177l1 24h-264v252h618v-186q0 -298 -174.5 -469t-480.5 -171 q-333 0 -522 203t-189 559zM363 1934h298l132 -183h20l132 183h298l-275 -336h-330z" />
<glyph unicode="&#x1e7;" horiz-adv-x="1360" d="M79 563q0 263 120.5 415t330.5 152q111 0 199 -52.5t130 -143.5h19v179h345v-1100q0 -199 -156 -315.5t-422 -116.5q-232 0 -377 91.5t-156 241.5h344q10 -45 63 -71.5t136 -26.5q102 0 158 45.5t56 128.5v201h-19q-87 -175 -328 -175q-204 0 -323.5 147.5t-119.5 399.5z M224 1619h295l126 -202h20l126 202h295l-262 -359h-338zM442 564q0 -134 56 -211t157 -77q102 0 159 76.5t57 210.5q0 135 -57.5 212t-158.5 77q-100 0 -156.5 -77t-56.5 -211z" />
<glyph unicode="&#x1e8;" horiz-adv-x="1507" d="M170 0v1443h367v-620h19l480 620h394l-499 -637l528 -806h-431l-364 569l-127 -161v-408h-367zM287 1932h298l132 -183h20l132 183h298l-275 -336h-330z" />
<glyph unicode="&#x1e9;" horiz-adv-x="1295" d="M-116 2019h298l132 -183h20l132 183h298l-275 -336h-330zM148 0v1530h353v-833h19l316 416h396l-397 -478l424 -635h-412l-278 426l-68 -77v-349h-353z" />
<glyph unicode="&#x1ea;" horiz-adv-x="1627" d="M102 722q0 351 193 555.5t519 204.5t518.5 -204.5t192.5 -555.5q0 -216 -75.5 -380t-214.5 -260q-104 -85 -153.5 -143.5t-49.5 -121.5q0 -45 33.5 -74.5t87.5 -29.5q31 0 71 9v-179q-78 -23 -152 -23q-139 0 -216.5 59.5t-77.5 157.5q0 129 124 228q-39 -4 -88 -4 q-328 0 -520 204.5t-192 556.5zM476 722q0 -209 92 -333t246 -124q152 0 244.5 124.5t92.5 332.5t-92.5 332t-244.5 124q-153 0 -245.5 -124t-92.5 -332z" />
<glyph unicode="&#x1eb;" horiz-adv-x="1300" d="M83 557q0 270 152 426t415 156q264 0 415.5 -155.5t151.5 -426.5q0 -167 -57 -291.5t-164 -197.5q-95 -78 -140.5 -134.5t-45.5 -116.5q0 -45 33 -74.5t88 -29.5q29 0 71 9v-179q-80 -23 -153 -23q-138 0 -215.5 59.5t-77.5 157.5q0 135 137 238q-14 -1 -43 -1 q-267 0 -417 154t-150 429zM446 557q0 -149 53.5 -231t150.5 -82t150.5 82t53.5 231q0 146 -54 229t-150 83t-150 -83t-54 -229z" />
<glyph unicode="&#x1ec;" horiz-adv-x="1627" d="M102 722q0 351 193 555.5t519 204.5t518.5 -204.5t192.5 -555.5q0 -216 -75.5 -380t-214.5 -260q-104 -85 -153.5 -143.5t-49.5 -121.5q0 -45 33.5 -74.5t87.5 -29.5q31 0 71 9v-179q-78 -23 -152 -23q-139 0 -216.5 59.5t-77.5 157.5q0 129 124 228q-39 -4 -88 -4 q-328 0 -520 204.5t-192 556.5zM433 1657v197h762v-197h-762zM476 722q0 -209 92 -333t246 -124q152 0 244.5 124.5t92.5 332.5t-92.5 332t-244.5 124q-153 0 -245.5 -124t-92.5 -332z" />
<glyph unicode="&#x1ed;" horiz-adv-x="1300" d="M83 557q0 270 152 426t415 156q264 0 415.5 -155.5t151.5 -426.5q0 -167 -57 -291.5t-164 -197.5q-95 -78 -140.5 -134.5t-45.5 -116.5q0 -45 33 -74.5t88 -29.5q29 0 71 9v-179q-80 -23 -153 -23q-138 0 -215.5 59.5t-77.5 157.5q0 135 137 238q-14 -1 -43 -1 q-267 0 -417 154t-150 429zM269 1339v198h762v-198h-762zM446 557q0 -149 53.5 -231t150.5 -82t150.5 82t53.5 231q0 146 -54 229t-150 83t-150 -83t-54 -229z" />
<glyph unicode="&#x1f1;" horiz-adv-x="2951" d="M170 0v1443h606q323 0 499 -184.5t176 -522.5q0 -355 -174.5 -545.5t-500.5 -190.5h-606zM537 295h173q179 0 273 110t94 324q0 201 -96.5 310t-270.5 109h-173v-853zM1683 0v233l677 896v19h-666v295h1106v-233l-677 -896v-19h698v-295h-1138z" />
<glyph unicode="&#x1f2;" horiz-adv-x="2743" d="M170 0v1443h606q323 0 499 -184.5t176 -522.5q0 -355 -174.5 -545.5t-500.5 -190.5h-606zM537 295h173q179 0 273 110t94 324q0 201 -96.5 310t-270.5 109h-173v-853zM1665 0v189l524 639v19h-512v266h936v-217l-477 -611v-19h495v-266h-966z" />
<glyph unicode="&#x1f3;" horiz-adv-x="2564" d="M83 559q0 266 119.5 418.5t327.5 152.5q112 0 197.5 -52t126.5 -144h19v596h354v-1530h-345v174h-19q-41 -90 -129 -140.5t-204 -50.5q-209 0 -328 153.5t-119 422.5zM446 557q0 -139 56.5 -217.5t157.5 -78.5t158 78.5t57 216.5t-57.5 217t-157.5 79t-157 -78.5 t-57 -216.5zM1486 0v189l524 639v19h-512v266h936v-217l-477 -611v-19h495v-266h-966z" />
<glyph unicode="&#x1f4;" horiz-adv-x="1572" d="M102 723q0 352 188 555.5t513 203.5q264 0 443.5 -140.5t206.5 -369.5h-362q-27 95 -103.5 149.5t-184.5 54.5q-154 0 -240.5 -119t-86.5 -330q0 -213 93.5 -336.5t251.5 -123.5q125 0 205 67t87 177l1 24h-264v252h618v-186q0 -298 -174.5 -469t-480.5 -171 q-333 0 -522 203t-189 559zM680 1598l168 336h342l-260 -336h-250z" />
<glyph unicode="&#x1f5;" horiz-adv-x="1360" d="M79 563q0 263 120.5 415t330.5 152q111 0 199 -52.5t130 -143.5h19v179h345v-1100q0 -199 -156 -315.5t-422 -116.5q-232 0 -377 91.5t-156 241.5h344q10 -45 63 -71.5t136 -26.5q102 0 158 45.5t56 128.5v201h-19q-87 -175 -328 -175q-204 0 -323.5 147.5t-119.5 399.5z M442 564q0 -134 56 -211t157 -77q102 0 159 76.5t57 210.5q0 135 -57.5 212t-158.5 77q-100 0 -156.5 -77t-56.5 -211zM537 1260l163 359h313l-240 -359h-236z" />
<glyph unicode="&#x1f8;" horiz-adv-x="1601" d="M170 0v1443h293l601 -812h19v812h348v-1443h-291l-603 820h-19v-820h-348zM407 1932h342l168 -336h-250z" />
<glyph unicode="&#x1f9;" horiz-adv-x="1332" d="M138 0v1113h344v-181h19q37 96 122 151.5t204 55.5q184 0 280.5 -109t96.5 -311v-719h-354v640q0 210 -175 210q-85 0 -134.5 -58.5t-49.5 -155.5v-636h-353zM324 1619h313l163 -359h-236z" />
<glyph unicode="&#x1fa;" horiz-adv-x="1563" d="M73 0l484 1443h449l485 -1443h-400l-90 317h-471l-93 -317h-364zM559 1746q0 93 63 152.5t161 59.5q96 0 159 -59.5t63 -152.5q0 -94 -63 -155t-159 -61q-97 0 -160.5 61t-63.5 155zM600 581h332l-155 537h-19zM644 2035l87 195h305l-115 -195h-277zM703 1744 q0 -34 22.5 -56t56.5 -22t56.5 22t22.5 56t-22.5 56t-56.5 22t-56.5 -22.5t-22.5 -55.5z" />
<glyph unicode="&#x1fb;" horiz-adv-x="1248" d="M81 320q0 152 114.5 238.5t330.5 99.5l243 14v87q0 57 -40.5 88.5t-113.5 31.5q-141 0 -176 -90h-318q12 162 150 256t364 94q230 0 356 -100t126 -280v-759h-344v138h-19q-37 -71 -122 -113t-191 -42q-161 0 -260.5 92.5t-99.5 244.5zM396 1453q0 101 67.5 166.5 t172.5 65.5t172.5 -65.5t67.5 -166.5t-67.5 -166.5t-172.5 -65.5t-172.5 65.5t-67.5 166.5zM422 345q0 -53 40.5 -84t107.5 -31q84 0 141.5 49t57.5 121v73l-187 -12q-78 -6 -119 -36t-41 -80zM519 1760l156 241h279l-201 -241h-234zM549 1453q0 -38 24.5 -62.5t62.5 -24.5 t62.5 24.5t24.5 62.5q0 37 -24.5 61.5t-62.5 24.5t-62.5 -24.5t-24.5 -61.5z" />
<glyph unicode="&#x1fc;" horiz-adv-x="2108" d="M73 0l566 1443h1326v-295h-646v-290h609v-270h-609v-293h646v-295h-973v327h-432l-125 -327h-362zM655 592h337v575h-120zM1175 1596l168 336h342l-260 -336h-250z" />
<glyph unicode="&#x1fd;" horiz-adv-x="1918" d="M81 320q0 152 114.5 238.5t330.5 99.5l243 14v63q0 71 -42.5 107.5t-111.5 36.5q-141 0 -176 -90h-318q11 153 141.5 251.5t325.5 98.5q249 0 362 -148h19q63 69 154.5 108.5t200.5 39.5q235 0 373 -151t138 -406v-104h-735v-29q2 -101 63 -162t160 -61q134 0 185 102 h320q-29 -161 -164.5 -257.5t-333.5 -96.5q-131 0 -235 49t-160 136h-19q-68 -86 -173.5 -135.5t-232.5 -49.5q-196 0 -312.5 96.5t-116.5 249.5zM422 342q0 -54 41 -85.5t110 -31.5q89 0 142.5 49.5t53.5 117.5v81l-187 -12q-78 -6 -119 -36.5t-41 -82.5zM872 1260l163 359 h313l-240 -359h-236zM1100 680h395q-5 94 -58 151t-135 57q-87 0 -143 -57.5t-59 -150.5z" />
<glyph unicode="&#x1fe;" horiz-adv-x="1627" d="M102 723q0 350 193 554.5t519 204.5q251 0 427 -125l107 120l148 -134l-113 -127q142 -194 142 -493q0 -352 -192 -556.5t-519 -204.5q-256 0 -433 128l-109 -123l-148 134l116 131q-138 195 -138 491zM458 723q0 -115 30 -213l538 605q-88 79 -212 79q-162 0 -259 -128 t-97 -343zM597 332q88 -82 217 -82q161 0 258 128.5t97 344.5q0 122 -32 216zM691 1596l168 336h342l-260 -336h-250z" />
<glyph unicode="&#x1ff;" horiz-adv-x="1300" d="M83 93l98 101q-98 145 -98 364q0 270 152 426t415 156q208 0 349 -99l95 98l123 -128l-94 -98q94 -143 94 -355q0 -275 -150 -429t-417 -154q-204 0 -344 94l-100 -104zM413 557q0 -62 9 -113l382 395q-60 66 -154 66q-112 0 -174.5 -92t-62.5 -256zM500 269 q60 -60 150 -60q113 0 175 91.5t62 256.5q0 54 -8 105zM532 1260l163 359h313l-240 -359h-236z" />
<glyph unicode="&#x200;" horiz-adv-x="1563" d="M73 0l484 1443h449l485 -1443h-400l-90 317h-471l-93 -317h-364zM244 1932h310l154 -336h-234zM600 581h332l-155 537h-19zM726 1932h286l99 -336h-229z" />
<glyph unicode="&#x201;" horiz-adv-x="1248" d="M81 320q0 152 114.5 238.5t330.5 99.5l243 14v87q0 57 -40.5 88.5t-113.5 31.5q-141 0 -176 -90h-318q12 162 150 256t364 94q230 0 356 -100t126 -280v-759h-344v138h-19q-37 -71 -122 -113t-191 -42q-161 0 -260.5 92.5t-99.5 244.5zM95 1619h313l163 -359h-234z M422 345q0 -53 40.5 -84t107.5 -31q84 0 141.5 49t57.5 121v73l-187 -12q-78 -6 -119 -36t-41 -80zM580 1619h290l98 -359h-226z" />
<glyph unicode="&#x202;" horiz-adv-x="1563" d="M73 0l484 1443h449l485 -1443h-400l-90 317h-471l-93 -317h-364zM366 1582q0 152 113 249t303 97t303 -97t113 -249h-236q-2 69 -50.5 112.5t-129.5 43.5t-129.5 -43.5t-50.5 -112.5h-236zM600 581h332l-155 537h-19z" />
<glyph unicode="&#x203;" horiz-adv-x="1248" d="M81 320q0 152 114.5 238.5t330.5 99.5l243 14v87q0 57 -40.5 88.5t-113.5 31.5q-141 0 -176 -90h-318q12 162 150 256t364 94q230 0 356 -100t126 -280v-759h-344v138h-19q-37 -71 -122 -113t-191 -42q-161 0 -260.5 92.5t-99.5 244.5zM221 1256q0 163 111.5 263 t303.5 100t303.5 -100t111.5 -263h-236q-2 80 -49.5 126.5t-129.5 46.5t-129.5 -46.5t-49.5 -126.5h-236zM422 345q0 -53 40.5 -84t107.5 -31q84 0 141.5 49t57.5 121v73l-187 -12q-78 -6 -119 -36t-41 -80z" />
<glyph unicode="&#x204;" horiz-adv-x="1302" d="M127 1932h310l154 -336h-234zM170 0v1443h989v-295h-622v-288h585v-270h-585v-295h622v-295h-989zM609 1932h286l99 -336h-229z" />
<glyph unicode="&#x205;" horiz-adv-x="1262" d="M83 549q0 275 147.5 432.5t406.5 157.5q257 0 400 -148.5t143 -414.5v-98h-749v-18q2 -109 61 -172t160 -63q77 0 128.5 27t69.5 76h323q-29 -163 -172 -258.5t-359 -95.5q-266 0 -412.5 150.5t-146.5 424.5zM100 1619h313l163 -359h-234zM433 681h404q-4 97 -56.5 152 t-141.5 55q-87 0 -143 -56.5t-63 -150.5zM585 1619h290l98 -359h-226z" />
<glyph unicode="&#x206;" horiz-adv-x="1302" d="M170 0v1443h989v-295h-622v-288h585v-270h-585v-295h622v-295h-989zM249 1582q0 152 113 249t303 97t303 -97t113 -249h-236q-2 69 -50.5 112.5t-129.5 43.5t-129.5 -43.5t-50.5 -112.5h-236z" />
<glyph unicode="&#x207;" horiz-adv-x="1262" d="M83 549q0 275 147.5 432.5t406.5 157.5q257 0 400 -148.5t143 -414.5v-98h-749v-18q2 -109 61 -172t160 -63q77 0 128.5 27t69.5 76h323q-29 -163 -172 -258.5t-359 -95.5q-266 0 -412.5 150.5t-146.5 424.5zM226 1256q0 163 111.5 263t303.5 100t303.5 -100t111.5 -263 h-236q-2 80 -49.5 126.5t-129.5 46.5t-129.5 -46.5t-49.5 -126.5h-236zM433 681h404q-4 97 -56.5 152t-141.5 55q-87 0 -143 -56.5t-63 -150.5z" />
<glyph unicode="&#x208;" horiz-adv-x="707" d="M-185 1932h310l154 -336h-234zM170 0v1443h367v-1443h-367zM297 1932h286l99 -336h-229z" />
<glyph unicode="&#x209;" horiz-adv-x="631" d="M-226 1619h313l163 -359h-234zM138 0v1113h354v-1113h-354zM259 1619h290l98 -359h-226z" />
<glyph unicode="&#x20a;" horiz-adv-x="707" d="M-63 1582q0 152 113 249t303 97t303 -97t113 -249h-236q-2 69 -50.5 112.5t-129.5 43.5t-129.5 -43.5t-50.5 -112.5h-236zM170 0v1443h367v-1443h-367z" />
<glyph unicode="&#x20b;" horiz-adv-x="631" d="M-100 1256q0 163 111.5 263t303.5 100t303.5 -100t111.5 -263h-236q-2 80 -49.5 126.5t-129.5 46.5t-129.5 -46.5t-49.5 -126.5h-236zM138 0v1113h354v-1113h-354z" />
<glyph unicode="&#x20c;" horiz-adv-x="1627" d="M102 722q0 351 193 555.5t519 204.5t518.5 -204.5t192.5 -555.5q0 -352 -192.5 -556.5t-518.5 -204.5q-328 0 -520 204.5t-192 556.5zM276 1932h310l154 -336h-234zM476 722q0 -209 92 -333t246 -124q152 0 244.5 124.5t92.5 332.5t-92.5 332t-244.5 124 q-153 0 -245.5 -124t-92.5 -332zM758 1932h286l99 -336h-229z" />
<glyph unicode="&#x20d;" horiz-adv-x="1300" d="M83 557q0 270 152 426t415 156q264 0 415.5 -155.5t151.5 -426.5q0 -275 -149.5 -429t-417.5 -154q-267 0 -417 154t-150 429zM109 1619h313l163 -359h-234zM446 557q0 -149 53.5 -231t150.5 -82t150.5 82t53.5 231q0 146 -54 229t-150 83t-150 -83t-54 -229zM594 1619 h290l98 -359h-226z" />
<glyph unicode="&#x20e;" horiz-adv-x="1627" d="M102 722q0 351 193 555.5t519 204.5t518.5 -204.5t192.5 -555.5q0 -352 -192.5 -556.5t-518.5 -204.5q-328 0 -520 204.5t-192 556.5zM398 1582q0 152 113 249t303 97t303 -97t113 -249h-236q-2 69 -50.5 112.5t-129.5 43.5t-129.5 -43.5t-50.5 -112.5h-236zM476 722 q0 -209 92 -333t246 -124q152 0 244.5 124.5t92.5 332.5t-92.5 332t-244.5 124q-153 0 -245.5 -124t-92.5 -332z" />
<glyph unicode="&#x20f;" horiz-adv-x="1300" d="M83 557q0 270 152 426t415 156q264 0 415.5 -155.5t151.5 -426.5q0 -275 -149.5 -429t-417.5 -154q-267 0 -417 154t-150 429zM235 1256q0 163 111.5 263t303.5 100t303.5 -100t111.5 -263h-236q-2 80 -49.5 126.5t-129.5 46.5t-129.5 -46.5t-49.5 -126.5h-236zM446 557 q0 -149 53.5 -231t150.5 -82t150.5 82t53.5 231q0 146 -54 229t-150 83t-150 -83t-54 -229z" />
<glyph unicode="&#x210;" horiz-adv-x="1466" d="M137 1932h310l154 -336h-234zM170 0v1443h635q253 0 396 -126.5t143 -349.5q0 -136 -65 -246.5t-181 -161.5l288 -559h-412l-247 505h-190v-505h-367zM537 764h217q101 0 158 53t57 147q0 92 -59 147t-157 55h-216v-402zM619 1932h286l99 -336h-229z" />
<glyph unicode="&#x211;" horiz-adv-x="950" d="M-51 1619h313l163 -359h-234zM138 0v1113h344v-183h19q21 86 96.5 143t177.5 57q88 0 128 -17v-301q-49 20 -152 20q-119 0 -189.5 -64t-70.5 -179v-589h-353zM434 1619h290l98 -359h-226z" />
<glyph unicode="&#x212;" horiz-adv-x="1466" d="M170 0v1443h635q253 0 396 -126.5t143 -349.5q0 -136 -65 -246.5t-181 -161.5l288 -559h-412l-247 505h-190v-505h-367zM259 1582q0 152 113 249t303 97t303 -97t113 -249h-236q-2 69 -50.5 112.5t-129.5 43.5t-129.5 -43.5t-50.5 -112.5h-236zM537 764h217q101 0 158 53 t57 147q0 92 -59 147t-157 55h-216v-402z" />
<glyph unicode="&#x213;" horiz-adv-x="950" d="M75 1256q0 163 111.5 263t303.5 100t303.5 -100t111.5 -263h-236q-2 80 -49.5 126.5t-129.5 46.5t-129.5 -46.5t-49.5 -126.5h-236zM138 0v1113h344v-183h19q21 86 96.5 143t177.5 57q88 0 128 -17v-301q-49 20 -152 20q-119 0 -189.5 -64t-70.5 -179v-589h-353z" />
<glyph unicode="&#x214;" horiz-adv-x="1582" d="M170 498v945h366v-906q0 -126 66.5 -196.5t188.5 -70.5t188.5 70t66.5 197v906h366v-945q0 -243 -170 -390t-451 -147t-451 147t-170 390zM253 1932h310l154 -336h-234zM735 1932h286l99 -336h-229z" />
<glyph unicode="&#x215;" horiz-adv-x="1340" d="M124 1619h313l163 -359h-234zM128 386v727h353v-640q0 -101 47.5 -154.5t133.5 -53.5q89 0 137.5 56.5t48.5 155.5v636h354v-1113h-344v180h-19q-82 -206 -316 -206q-179 0 -287 110.5t-108 301.5zM609 1619h290l98 -359h-226z" />
<glyph unicode="&#x216;" horiz-adv-x="1582" d="M170 498v945h366v-906q0 -126 66.5 -196.5t188.5 -70.5t188.5 70t66.5 197v906h366v-945q0 -243 -170 -390t-451 -147t-451 147t-170 390zM375 1582q0 152 113 249t303 97t303 -97t113 -249h-236q-2 69 -50.5 112.5t-129.5 43.5t-129.5 -43.5t-50.5 -112.5h-236z" />
<glyph unicode="&#x217;" horiz-adv-x="1340" d="M128 386v727h353v-640q0 -101 47.5 -154.5t133.5 -53.5q89 0 137.5 56.5t48.5 155.5v636h354v-1113h-344v180h-19q-82 -206 -316 -206q-179 0 -287 110.5t-108 301.5zM250 1256q0 163 111.5 263t303.5 100t303.5 -100t111.5 -263h-236q-2 80 -49.5 126.5t-129.5 46.5 t-129.5 -46.5t-49.5 -126.5h-236z" />
<glyph unicode="&#x218;" horiz-adv-x="1423" d="M107 411h350q7 -79 79.5 -125.5t186.5 -46.5q103 0 167 45t64 116q0 60 -52 95.5t-176 60.5l-190 38q-198 37 -299 144t-101 277q0 212 156.5 339.5t417.5 127.5q253 0 413 -125t165 -325h-339q-6 76 -71.5 124.5t-162.5 48.5t-155.5 -42.5t-58.5 -114.5q0 -59 51 -96 t165 -59l186 -36q214 -41 313.5 -141t99.5 -272q0 -226 -162 -354.5t-446 -128.5q-274 0 -435.5 121t-165.5 329zM436 -494l105 361h334l-181 -361h-258z" />
<glyph unicode="&#x219;" horiz-adv-x="1206" d="M86 319h341q28 -106 185 -106q73 0 116.5 27t43.5 72q0 35 -27.5 56t-94.5 35l-207 44q-330 70 -330 331q0 166 132 263.5t357 97.5q231 0 355.5 -87.5t134.5 -255.5h-322q-8 49 -51 76.5t-114 27.5q-69 0 -112.5 -27.5t-43.5 -72.5q0 -35 30.5 -57.5t97.5 -36.5l230 -47 q165 -35 239.5 -107.5t74.5 -198.5q0 -173 -140 -276t-374 -103q-239 0 -372.5 88.5t-148.5 256.5zM328 -494l105 361h334l-181 -361h-258z" />
<glyph unicode="&#x21a;" horiz-adv-x="1381" d="M91 1148v295h1199v-295h-417v-1148h-366v1148h-416zM418 -494l105 361h334l-181 -361h-258z" />
<glyph unicode="&#x21b;" horiz-adv-x="898" d="M55 835v263h171v270h353v-270h224v-263h-224v-451q0 -125 135 -125q46 0 89 5v-252q-65 -14 -169 -14q-219 0 -313.5 71.5t-94.5 235.5v530h-171zM248 -494l105 361h334l-181 -361h-258z" />
<glyph unicode="&#x21e;" horiz-adv-x="1648" d="M170 0v1443h367v-566h575v566h366v-1443h-366v582h-575v-582h-367zM384 1932h298l132 -183h20l132 183h298l-275 -336h-330z" />
</font>
</defs>
</svg>
