<svg width="26" height="26" viewBox="0 0 26 26" fill="none" xmlns="http://www.w3.org/2000/svg">
	<path fill-rule="evenodd" clip-rule="evenodd" d="M13 26C20.1797 26 26 20.1797 26 13C26 5.8203 20.1797 0 13 0C5.8203 0 0 5.8203 0 13C0 20.1797 5.8203 26 13 26ZM13 4C14.5697 4 15.8421 5.27245 15.8421 6.8421V13.4737C15.8421 15.0433 14.5697 16.3158 13 16.3158C11.4303 16.3158 10.1579 15.0433 10.1579 13.4737V6.8421C10.1579 5.27245 11.4303 4 13 4ZM17.9737 10.1579C17.5813 10.1579 17.2632 10.476 17.2632 10.8684V13.4737C17.2632 15.8282 15.3545 17.7368 13 17.7368C10.6455 17.7368 8.73684 15.8282 8.73684 13.4737V10.8684C8.73684 10.476 8.41873 10.1579 8.02632 10.1579C7.6339 10.1579 7.31579 10.476 7.31579 10.8684V13.4737C7.31719 16.3372 9.44842 18.7526 12.2895 19.1105V20.5789H10.3947C10.0023 20.5789 9.68421 20.8971 9.68421 21.2895C9.68421 21.6819 10.0023 22 10.3947 22H15.6053C15.9977 22 16.3158 21.6819 16.3158 21.2895C16.3158 20.8971 15.9977 20.5789 15.6053 20.5789H13.7105V19.1105C16.5516 18.7526 18.6828 16.3372 18.6842 13.4737V10.8684C18.6842 10.476 18.3661 10.1579 17.9737 10.1579Z" fill="#8A8A8F"/>
</svg>
