<svg width="26" height="26" viewBox="0 0 26 26" fill="none" xmlns="http://www.w3.org/2000/svg">
	<path fill-rule="evenodd" clip-rule="evenodd" d="M13 0C5.82007 0 0 5.81982 0 13C0 20.1802 5.82007 26 13 26C20.1799 26 26 20.1802 26 13C26 5.81982 20.1799 0 13 0ZM13.7078 6.40039L18.2737 10.9663C18.6648 11.3574 18.6648 11.9893 18.2737 12.3804C17.8828 12.7715 17.2507 12.7715 16.8599 12.3804L13.9949 9.51562V19.0044C13.9949 19.5576 13.5469 20.0044 12.9949 20.0044C12.4419 20.0044 11.9949 19.5576 11.9949 19.0044V9.52734L9.14087 12.3804C8.9458 12.5752 8.6897 12.6733 8.43384 12.6733C8.17773 12.6733 7.92188 12.5752 7.72681 12.3804C7.33569 11.9902 7.33569 11.3574 7.72681 10.9663L12.2937 6.40039C12.4807 6.2124 12.7349 6.10742 13.0007 6.10742C13.2659 6.10742 13.5198 6.2124 13.7078 6.40039Z" fill="#CDCED2"/>
</svg>
