<svg width="16" height="12" viewBox="0 0 16 12" fill="none" xmlns="http://www.w3.org/2000/svg">
	<path fill-rule="evenodd" clip-rule="evenodd" d="M8.30043 2.69626C10.5348 2.69636 12.6838 3.55491 14.3032 5.09447C14.4251 5.21333 14.62 5.21183 14.7401 5.09111L15.9058 3.91469C15.9666 3.85346 16.0005 3.77053 16 3.68423C15.9995 3.59793 15.9646 3.5154 15.9031 3.45488C11.6528 -0.618425 4.9474 -0.618425 0.697078 3.45488C0.635507 3.51535 0.600578 3.59786 0.600013 3.68416C0.599439 3.77046 0.633289 3.85342 0.694053 3.91469L1.86006 5.09111C1.98007 5.21201 2.17514 5.21351 2.29701 5.09447C3.91658 3.55481 6.0658 2.69626 8.30043 2.69626ZM8.30043 6.52365C9.5281 6.52357 10.7119 6.97989 11.622 7.80393C11.745 7.92088 11.9389 7.91834 12.0589 7.79821L13.2232 6.6218C13.2845 6.56009 13.3186 6.47638 13.3177 6.38939C13.3168 6.30241 13.2811 6.21941 13.2185 6.15896C10.4474 3.58121 6.15585 3.58121 3.38469 6.15896C3.32209 6.21941 3.28638 6.30245 3.28556 6.38946C3.28473 6.47648 3.31888 6.56018 3.38032 6.6218L4.5443 7.79821C4.66428 7.91834 4.85817 7.92088 4.98125 7.80393C5.89066 6.98043 7.07357 6.52416 8.30043 6.52365ZM10.538 9.33125C10.6002 9.27014 10.6345 9.18604 10.6327 9.09881C10.631 9.01158 10.5933 8.92895 10.5286 8.87043C9.24233 7.78253 7.35852 7.78253 6.07229 8.87043C6.00754 8.9289 5.96978 9.01151 5.96793 9.09874C5.96608 9.18597 6.00032 9.27009 6.06254 9.33125L8.07691 11.3638C8.13595 11.4235 8.21643 11.4571 8.30043 11.4571C8.38442 11.4571 8.4649 11.4235 8.52394 11.3638L10.538 9.33125Z" fill="black"/>
</svg>
